<svg xmlns="http://www.w3.org/2000/svg" viewBox="0 0 1772 1772"><defs><style>.cls-1{fill:#fff;}.cls-2,.cls-5{fill:#231f20;}.cls-3{fill:#010101;}.cls-4{fill:#0d0a0d;}.cls-5{font-size:30px;font-family:Museo100-Regular, Museo;}</style></defs><title>brochure-back</title><g id="Layer_2" data-name="Layer 2"><g id="Layer_1-2" data-name="Layer 1"><rect class="cls-1" width="1772" height="1772"/><g id="QR-code"><path d="M834.35722,716.96605H848.4733c.45507-5.07535.8465-9.44082,1.28479-14.329h13.45072c.37135,4.01669.77427,8.37469,1.24268,13.44121h13.71207c.28467-4.33127.571-8.68815.88729-13.49978h28.63067v43.21867l14.67569.78368c.25657,4.65417.48285,8.7589.77,13.96715h28.88552v58.78569l14.48506.85775v43.085h15.1067v-28.962c5.54339,0,10.01611,0,14.50119.0115.01236.01152-.33449-.29242-.33449-.29242.37485,4.77724.7497,9.55449,1.16648,14.86653,4.50423.20839,8.58511.39721,13.47231.62334.37222,4.47088.73446,8.82221,1.185,14.2341h28.4145c.31633,5.09129.56918,9.16132.89037,14.331h28.27373v29.86169h-14.0967l.29147.30447v-15.267h-29.28408c-.24015-5.18395-.43-9.28264-.63489-13.70513h-13.71168v43.689h14.1974l-.2935-.29314V936.858h29.72675V922.67825l-.29122.30459h14.20048v58.279h-57.34872v43.83552h13.3607c.30883-4.28523.623-8.64388.98145-13.61779l13.56514-.64711c.37049-4.39.73819-8.74705,1.1608-13.755h13.7906c.25022,4.19225.49483,8.28972.79542,13.32528,4.20146.39243,8.5562.79923,13.63142,1.2733v13.65112l-13.63867,1.0099c-.21394,4.489-.409,8.58129-.6458,13.549l-13.75262,1.16529v14.19493h28.31214v14.0424H952.85491v-14.04958h43.089V1041.2288H923.22345c-.26422,4.18235-.52164,8.25678-.8511,13.47141h-42.9617c-.48,5.37356-.86846,9.72291-1.3099,14.66522H849.70407v-13.437c4.16556-.35416,8.52-.72433,14.36423-1.22118v-14.29206l-.30878.28868h43.68632c.47351-5.56562.84246-9.90223,1.22309-14.376,4.96727-.40792,9.3063-.76427,13.9301-1.144,0-5.21047,0-9.69282.00027-14.17575,4.72628-.00058,9.4523-.00058,14.21288-.00058v-13.8672h-13.915v14.16708H894.153V967.51747h28.04824c.42735,4.86137.81005,9.215,1.1779,13.39977h13.5953V952.1294H907.728V923.36781l-14.02366-1.21516-.80478-13.35447h-14.46V937.666l.29871-.29823h-15.008c0-15.49878,0-29.79619.00037-44.09408,4.75466-.0005,9.509-.0005,14.36216-.0005.4598-5.5263.82207-9.88032,1.19141-14.31912l13.45755-.6193V864.67379H864.02826v28.899H834.32617V908.2548l.2878-.30866H820.43362V879.09661c4.33613-.26369,8.66426-.52689,14.02363-.85282V849.64158c5.11565-.2555,9.19752-.45937,14.27609-.713V776.43l14.9971-1.32745c0-4.80688,0-9.54216.00037-14.27794,4.75466-.00051,9.50893-.00051,14.362-.00051.45987-5.52718.82212-9.88082,1.19142-14.31924l13.4575-.61941V732.22464H864.02841V761.1237H835.16468c-.41819,4.72011-.80231,9.05564-1.23554,13.94557H820.25137V732.19819l14.40456-1.283v-14.2474Zm73.82321,117.74219-.29822-.29871v29.37533c10.94607,0,20.33424,0,29.72355.00058v14.33747l-14.34731,1.2001v13.45552H951.527V864.083H937.306V775.40766h-28.7059c-.47234-5.42995-.85113-9.7845-1.215-13.96729H893.707c-.271,4.79731-.51683,9.14843-.77238,13.67205l-14.13649,1.2221c0,5.16879,0,9.66345-.00073,14.15914H864.57613v28.53712h13.924V790.19406h15.15916v44.51418Zm87.7328,118.08434H952.833v42.89481h43.08026Zm-72.70057-44.29576v14.29124h28.56909c.32083,5.33356.58144,9.66588.84729,14.08523h13.55924V908.49682Zm131.61619,44.5113h-43.25754V966.3907h43.25754Zm-59.02777-44.26936H982.33522v28.37383h13.46586Zm.00048-15.80856V879.32162H982.37738V892.9302ZM864.35148,848.51911H877.807V835.06365H864.35148Zm131.55832,163.3277H982.45427v13.4555H995.9098Zm15.88466,29.15593v13.45553H1025.25v-13.45553Z"/><path d="M775.4801,878.48963h28.77868v14.27812l-14.09752,1.19156V908.2504l.30871-.2887h-28.924v14.38868l13.91379,1.13032v14.207l.28856-.3088h-28.8624c-.41069-4.659-.79192-8.98384-1.29907-14.73725H716.61547l.29822.29871V908.79328c4.73691-.426,9.108-.81908,13.9861-1.25779V894.08142L717.393,892.84955l-1.1915-13.76361-13.691-.78367V864.29884h28.31219V835.01036H717.3888c-.35748,4.267-.72267,8.626-1.139,13.59492H702.55151V820.593h57.68811v13.51812l-13.29774.76728v28.40588h13.51871c.25564-4.23893.50257-8.33363.79809-13.234h14.5195c0,9.37367,0,19.0558-.00021,28.7386q-14.44137.001-28.91068.00065v13.9004H775.4801Z"/><path d="M804.5073,804.65256H702.74187V702.70133H804.5073ZM717.29558,717.253v72.47683h72.289V717.253Z"/><path d="M967.66914,702.54h101.70752V804.25222H967.66914Zm87.06029,14.83912h-72.4132v72.226h72.4132Z"/><path d="M804.54479,967.69054V1069.46H702.83257V967.69054Zm-87.36416,87.05006H789.697V982.41H717.18063Z"/><path d="M864.0683,1040.41514H849.52482v-29.47249h-15.1745l.29794.2986V967.72066c-4.95982-.43885-9.27908-.821-14.708-1.30141V952.13357l-.29845.29783H834.614c0-15.29777,0-29.89148,0-44.48523l-.28783.30864h15.16919V966.4436c5.36021.45957,9.71033.83253,14.13221,1.21168.22626,4.91289.41417,8.99326.62963,13.67178,4.88991.26777,9.254.50673,13.7078.75063v13.81623l-14.20548,1.258v43.55187Z"/><path d="M819.94025,952.13357h-44.1919c0-5.3768,0-10.06571,0-14.75466l-.28859.30877H805.1864V922.678l-.28863.30873H819.6406c0,10.06061,0,19.75237.00059,29.44442Z"/><path d="M834.35032,1010.94265v58.25054h-13.924v-57.95092q7.11038,0,14.22159-.00051Z"/><path d="M1041.00331,833.93823q-22.60282.05856-45.21891.10618c-.01325-.011.3336.293.32128.28144.18721-4.4901.38678-8.9687.60961-13.96953h44.00608c0,4.95673,0,9.4302-.01178,13.91618C1040.69782,834.285,1041.00331,833.93823,1041.00331,833.93823Z"/><path d="M938.21459,717.21721H951.648v28.54516H938.21459Z"/><path d="M819.24547,863.5279H791.0351V849.83948h28.21037Z"/><path d="M1055.07686,907.95007q0,7.51619.00019,15.03255l.29128-.30437h-29.72675l.2935.29314V908.25454h29.43325Z"/><path d="M716.61547,922.64163v14.167H702.70038V922.94149c4.76073,0,9.48674,0,14.213-.00058Z"/><path d="M804.20014,834.34064h-13.0848V820.511h13.0848Z"/><path d="M833.75016,834.07973H820.29475v-13.4554h13.45541Z"/><path d="M1055.39528,834.64153V820.52671h13.86984v13.816H1055.097Z"/><path d="M1055.097,834.34272v14.11684h-14.1162c0-4.56039,0-9.52753.01122-14.508.01126-.01335-.29423.33342-.28246.32092q7.35433.17256,14.68537.36959Z"/><path d="M790.16126,908.2504h14.73646c0,5.45475,0,10.0955,0,14.73626l.28866-.3087H790.47V907.9617Z"/><path d="M834.65593,716.66782H820.489V702.75274h13.86711c0,4.76073,0,9.48674.00057,14.213Z"/><path d="M820.479,790.821h13.45541v13.45541H820.479Z"/><path class="cls-1" d="M863.75952,1040.70382V997.152l14.20548-1.258V982.07769c-4.45377-.2439-8.81789-.48286-13.7078-.75063-.21546-4.67852-.40337-8.75889-.62963-13.67178-4.42188-.37915-8.772-.75211-14.13221-1.21168V908.25481H834.32617V893.57275h29.70209l-.298-.29861v44.09358c5.52457,0,10.26629,0,15.00858.00029.00058,4.72628.00058,9.45231.00058,14.21315h13.86708V937.666H878.43959V908.79818h14.46l.80478,13.35447,14.02366,1.21516V952.1294h29.24645v28.78784h-13.5953c-.36785-4.18478-.75055-8.5384-1.1779-13.39977H894.153v43.78989h28.74421l-.29819-.29872v14.17517c-4.6238.37972-8.96283.73607-13.9301,1.144-.38063,4.47379-.74958,8.8104-1.22309,14.376Z"/><path class="cls-1" d="M937.60462,863.78486H907.88221c0-10.08586,0-19.7306.00029-29.37591,4.72628-.00058,9.4523-.00058,14.21315-.00058V820.5413H908.18043v14.16694h-14.5211V790.19406H878.50017l.298.29858V776.33452l14.13649-1.2221c.25555-4.52362.50136-8.87474.77238-13.67205h13.678c.36387,4.18279.74266,8.53734,1.215,13.96729H937.306V864.083Zm-15.22744-72.92133H908.63746V804.418h13.73972Z"/><path class="cls-1" d="M995.91323,952.79258v42.89481H952.833V952.79258ZM967.1148,981.03671h13.77742V967.81828H967.1148Z"/><path class="cls-1" d="M1055.36833,908.25454h-29.43325v14.71685h-14.1974v-43.689h13.71168c.20486,4.42249.39474,8.52118.63489,13.70513h29.28408Z"/><path class="cls-1" d="M923.21266,908.49682h42.97562v28.37647H952.629c-.26585-4.41935-.52646-8.75167-.84729-14.08523H923.21266Z"/><path class="cls-1" d="M864.02841,761.1237V732.22464h28.71332v13.66078l-13.4575.61941c-.3693,4.43842-.73155,8.79206-1.19142,14.31924-4.85307,0-9.60734,0-14.362.00051Z"/><path class="cls-1" d="M1054.82885,953.00812V966.3907h-43.25754V953.00812Z"/><path class="cls-1" d="M937.306,864.083H951.527v28.69549H923.25845V879.323l14.34731-1.2001c0-4.82847,0-9.583-.00056-14.33776Z"/><path class="cls-1" d="M864.02826,893.57275v-28.899h28.71352v13.66093l-13.45755.6193c-.36934,4.4388-.73161,8.79282-1.19141,14.31912-4.85319,0-9.6075,0-14.36216.0005Z"/><path class="cls-1" d="M878.50017,790.19406v28.83672h-13.924V790.49366c4.7571,0,9.4892,0,14.22163-.00051Z"/><path class="cls-1" d="M995.80108,908.73876v28.37383H982.33522V908.73876Z"/><path class="cls-1" d="M1025.64158,922.67825h29.72675V936.858h-29.72675Z"/><path class="cls-1" d="M995.80156,892.9302H982.37738V879.32162h13.42418Z"/><path class="cls-1" d="M922.89722,1011.30736V997.14028h13.915v13.8672c-4.76058,0-9.4866,0-14.21288.00058Z"/><path class="cls-1" d="M864.35148,848.51911V835.06365H877.807v13.45546Z"/><path class="cls-1" d="M995.9098,1011.84681v13.4555H982.45427v-13.4555Z"/><path class="cls-1" d="M1011.79446,1041.00274H1025.25v13.45553h-13.4555Z"/><path class="cls-1" d="M790.47,907.9617V922.678H805.1864v15.00972H775.45973c0-4.47918,0-8.95836,0-14.207l-13.91379-1.13032V907.9617Z"/><path class="cls-1" d="M775.4801,878.48963v14.20023H746.86729v-13.9004q14.48359,0,28.91068-.00065Z"/><path class="cls-1" d="M717.29558,717.253h72.289v72.47683h-72.289Zm57.71908,57.90564V732.194H732.23455v42.96459Z"/><path class="cls-1" d="M1054.72943,717.37912v72.226h-72.4132v-72.226Zm-57.92182,57.5216h42.8465V732.08208h-42.8465Z"/><path class="cls-1" d="M717.18063,1054.7406V982.41H789.697v72.33063Zm57.66773-14.63567v-42.8465H732.02972v42.8465Z"/><path d="M878.43959,937.666h14.16694v13.91521H878.73945c0-4.76084,0-9.48687-.00058-14.21315Z"/><path d="M922.37718,790.86353V804.418H908.63746V790.86353Z"/><path d="M908.18043,834.70824V820.5413h13.91522v13.86707c-4.76085,0-9.48687,0-14.21315.00058Z"/><path d="M967.1148,981.03671V967.81828h13.77742v13.21843Z"/><path d="M775.01466,775.15859H732.23455V732.194h42.78011Z"/><path d="M996.80761,774.90072V732.08208h42.8465v42.81864Z"/><path d="M774.84836,1040.10493H732.02972v-42.8465h42.81864Z"/></g><path class="cls-2" d="M719.971,1530.97949c6.84033,0,19.08154,2.87989,19.08154,11.0166v4.96875H732.428V1544.084c0-4.248-7.20069-6.4082-12.313-6.4082-10.2251,0-18.14551,7.70508-18.14551,19.15332,0,11.08887,7.99268,19.94629,18.36133,19.94629a22.54089,22.54089,0,0,0,16.05762-6.91309l3.88818,5.18458A27.56149,27.56149,0,0,1,720.259,1583.544c-15.19336,0-25.77832-11.73731-25.77832-26.71485C694.48071,1542.14063,705.42554,1530.97949,719.971,1530.97949Z"/><path class="cls-2" d="M764.68188,1545.38086c10.87305,0,19.65723,7.99219,19.65723,19.00879,0,11.08984-8.78418,19.1543-19.65723,19.1543s-19.58593-8.06446-19.58593-19.1543C745.096,1553.37305,753.80884,1545.38086,764.68188,1545.38086Zm0,32.11426c6.91211,0,12.52833-5.47266,12.52833-13.10547,0-7.56055-5.61622-12.96094-12.52833-12.96094-6.84082,0-12.457,5.40039-12.457,12.96094C752.22485,1572.02246,757.84106,1577.49512,764.68188,1577.49512Z"/><path class="cls-2" d="M793.04712,1553.80566a1.4099,1.4099,0,0,0-1.584-1.585H788.511v-5.97656h6.69629c3.09668,0,4.60839,1.36816,4.60839,4.0332v1.36719a15.38089,15.38089,0,0,1-.14355,2.08887h.14355a14.83151,14.83151,0,0,1,13.68164-8.35254c8.64063,0,12.5293,4.67969,12.5293,13.96875v15.76953a1.40959,1.40959,0,0,0,1.584,1.584h2.95214v5.97656h-6.91211c-3.24121,0-4.60839-1.36817-4.60839-4.6084v-17.1377c0-5.1123-1.00879-9.14453-6.84082-9.14453a11.80766,11.80766,0,0,0-11.52149,8.92871,14.949,14.949,0,0,0-.64746,4.89649v17.06543h-6.98535Z"/><path class="cls-2" d="M838.40649,1551.86133h-4.75195v-5.61719H838.551v-10.00879h6.84082v10.00879h8.71191v5.61719h-8.71191v16.70508c0,7.27246,5.04,8.209,7.7041,8.209a8.3839,8.3839,0,0,0,1.65625-.14453v6.19238a17.72013,17.72013,0,0,1-2.44824.14453c-4.6084,0-13.89747-1.44043-13.89747-13.60937Z"/><path class="cls-2" d="M881.60913,1559.99805h1.584v-.36035c0-6.40821-2.376-8.7129-8.06446-8.7129-1.729,0-5.977.43262-5.977,2.8086v2.08789h-6.55273v-3.60059c0-5.97656,9.07324-6.83984,12.602-6.83984,11.80859,0,14.97754,6.19238,14.97754,14.25684v15.48144a1.40919,1.40919,0,0,0,1.584,1.584h2.95215v5.97656h-6.55273c-3.24024,0-4.53614-1.584-4.53614-4.17676a15.8313,15.8313,0,0,1,.14356-2.16016h-.14356a12.44762,12.44762,0,0,1-11.59424,7.20118c-6.26367,0-12.38476-3.81641-12.38476-11.08887C859.64673,1560.71777,875.489,1559.99805,881.60913,1559.99805Zm-8.06494,17.92968c5.90478,0,9.72119-6.19335,9.72119-11.59375v-1.22363h-1.7998c-5.25684,0-14.76221.28809-14.76221,6.98438C866.70337,1575.04688,868.93579,1577.92773,873.54419,1577.92773Z"/><path class="cls-2" d="M918.32788,1545.38086c4.39258,0,13.10547,1.7998,13.10547,7.99219v3.74414h-6.33691v-2.01563c0-2.59277-4.1045-3.74414-6.76856-3.74414-7.12891,0-12.457,5.32813-12.457,13.03223,0,8.28125,6.04883,12.96191,12.81738,12.96191a16.39411,16.39411,0,0,0,11.30469-5.041l3.02441,4.96875a20.05853,20.05853,0,0,1-14.833,6.26465c-11.44922,0-19.44239-8.13672-19.44239-19.082C898.74194,1553.7334,906.59058,1545.38086,918.32788,1545.38086Z"/><path class="cls-2" d="M940.93335,1551.86133H936.1814v-5.61719h4.89648v-10.00879h6.84082v10.00879h8.71192v5.61719H947.9187v16.70508c0,7.27246,5.04,8.209,7.7041,8.209a8.38378,8.38378,0,0,0,1.65625-.14453v6.19238a17.72,17.72,0,0,1-2.44824.14453c-4.6084,0-13.89746-1.44043-13.89746-13.60937Z"/><path class="cls-2" d="M980.67651,1576.4873h2.44825c1.00781,0,1.51171-.57617,1.584-1.584l3.45605-43.05957h7.417l11.95312,26.92969c1.22363,2.73633,2.51953,6.40918,2.51953,6.40918h.14453s1.2959-3.67285,2.51954-6.40918l11.95312-26.92969h7.417l3.45606,43.05957c.07226,1.00781.57617,1.584,1.584,1.584h2.377v6.19239h-6.40918c-3.24024,0-4.39161-1.36817-4.6084-4.6084l-2.08789-26.8584c-.21582-3.02441-.14356-7.48828-.14356-7.48828h-.14453s-1.44043,4.752-2.66406,7.48828l-10.29688,22.32227h-6.04883l-10.29687-22.32227c-1.22363-2.66406-2.73633-7.56055-2.73633-7.56055h-.14355s.07226,4.53614-.14453,7.56055l-2.01563,26.8584c-.21582,3.24023-1.36816,4.6084-4.68066,4.6084h-6.40821Z"/><path class="cls-2" d="M1061.822,1545.38086c10.22461,0,15.69727,7.63184,15.69727,17.06543,0,.93555-.21582,2.87988-.21582,2.87988h-26.57032c.43164,7.77637,6.04883,12.16895,12.5293,12.16895a16.75033,16.75033,0,0,0,10.65625-4.24805l3.02442,4.96777a21.32156,21.32156,0,0,1-14.041,5.32911c-11.52148,0-19.37012-8.28125-19.37012-19.082C1043.532,1552.86914,1051.45288,1545.38086,1061.822,1545.38086Zm8.49707,14.833c-.2168-6.04883-4.0332-9.28907-8.56933-9.28907-5.32813,0-9.64844,3.24024-10.72852,9.28907Z"/><path class="cls-3" d="M866.15769,1647.89064a27.08,27.08,0,1,0,27.07982,27.08A27.08139,27.08139,0,0,0,866.15769,1647.89064Zm14.30006,39.51276-2.16824,2.16869a3.99641,3.99641,0,0,1-1.557.62776,25.57457,25.57457,0,0,1-25.80744-25.8668,4.03623,4.03623,0,0,1,.635-1.48725l2.16814-2.16847a3.62186,3.62186,0,0,1,3.38514-.8001l.45609.15214a4.28423,4.28423,0,0,1,2.47632,2.6183l1.09065,4.003a3.92659,3.92659,0,0,1-.89576,3.42812l-1.44773,1.44795a15.3785,15.3785,0,0,0,10.81311,10.81645l1.44717-1.44829a3.9246,3.9246,0,0,1,3.4289-.89978l4.00241,1.09455a4.28917,4.28917,0,0,1,2.61819,2.47286l.15214.46267A3.62629,3.62629,0,0,1,880.45775,1687.4034Z"/><path class="cls-2" d="M925.38373,1683.81979a6.70012,6.70012,0,0,0,3.09082.75c4.88965,0,7.34961-5.1289,7.64941-9.959h-.06054a6.72513,6.72513,0,0,1-5.96973,3.0293,6.1963,6.1963,0,0,1-6.44922-6.53907c0-4.56054,3-6.99023,6.44922-6.99023,4.65039,0,7.34961,4.32031,7.34961,9.50976,0,5.25-2.5498,12.21-9.0293,12.21a8.13861,8.13861,0,0,1-3.66015-.83985Zm10.58984-11.60937c0-2.84961-2.27929-6.83985-5.84961-6.83985-3.24023,0-5.12988,2.4004-5.12988,5.73047a4.91353,4.91353,0,0,0,5.16016,5.2793C933.3935,1676.38034,935.97357,1674.101,935.97357,1672.21042Z"/><path class="cls-2" d="M942.00287,1683.81979a6.70012,6.70012,0,0,0,3.09082.75c4.88965,0,7.34961-5.1289,7.64942-9.959h-.06055a6.72513,6.72513,0,0,1-5.96973,3.0293,6.1963,6.1963,0,0,1-6.44922-6.53907c0-4.56054,3-6.99023,6.44922-6.99023,4.65039,0,7.34961,4.32031,7.34961,9.50976,0,5.25-2.5498,12.21-9.0293,12.21a8.13861,8.13861,0,0,1-3.66015-.83985Zm10.58984-11.60937c0-2.84961-2.27929-6.83985-5.8496-6.83985-3.24024,0-5.12989,2.4004-5.12989,5.73047a4.91354,4.91354,0,0,0,5.16016,5.2793C950.01264,1676.38034,952.59271,1674.101,952.59271,1672.21042Z"/><path class="cls-2" d="M957.21381,1674.97018c0-6.05957,1.74023-10.85937,7.08008-10.85937s7.08007,4.7998,7.08007,10.85937c0,6.08985-1.74023,10.86036-7.08007,10.86036S957.21381,1681.06,957.21381,1674.97018Zm12.80957,0c0-5.39941-1.25977-9.59961-5.72949-9.59961s-5.7295,4.2002-5.7295,9.59961c0,5.43067,1.25977,9.59961,5.7295,9.59961S970.02338,1680.40085,970.02338,1674.97018Z"/><path class="cls-2" d="M976.413,1683.81979a6.70012,6.70012,0,0,0,3.09082.75c4.88965,0,7.34961-5.1289,7.64941-9.959h-.06055a6.7251,6.7251,0,0,1-5.96972,3.0293,6.1963,6.1963,0,0,1-6.44922-6.53907c0-4.56054,3-6.99023,6.44922-6.99023,4.65039,0,7.34961,4.32031,7.34961,9.50976,0,5.25-2.54981,12.21-9.0293,12.21a8.13862,8.13862,0,0,1-3.66016-.83985Zm10.58984-11.60937c0-2.84961-2.2793-6.83985-5.84961-6.83985-3.24023,0-5.12988,2.4004-5.12988,5.73047a4.91353,4.91353,0,0,0,5.16016,5.2793C984.42279,1676.38034,987.00287,1674.101,987.00287,1672.21042Z"/><path class="cls-2" d="M991.29291,1676.32077c0-5.25,2.5498-12.21,9.0293-12.21a8.13868,8.13868,0,0,1,3.66015.83984l-.62988,1.16992a6.69845,6.69845,0,0,0-3.08984-.75c-4.88965,0-7.34961,5.10059-7.65039,9.92969h.06054a6.703,6.703,0,0,1,5.96973-3,6.19709,6.19709,0,0,1,6.44922,6.54c0,4.55957-2.999,6.99024-6.44922,6.99024C993.99213,1685.83054,991.29291,1681.51022,991.29291,1676.32077Zm7.31934,8.249c3.24023,0,5.12988-2.39941,5.12988-5.72949a4.91353,4.91353,0,0,0-5.16016-5.2793c-3.23926,0-5.81933,2.2793-5.81933,4.16993C992.76264,1680.58054,995.04291,1684.56979,998.61225,1684.56979Z"/><path class="cls-2" d="M1015.17279,1678.57077l10.88965-14.09961h1.2002V1678.27h3.38965v1.20019h-3.38965v6h-1.29v-6h-10.79981Zm10.79981-10.13965c0-.83984.08984-1.89062.08984-1.89062h-.05957s-.51074.75-1.05078,1.44043l-6.98926,9.02929c-.54.69043-1.11035,1.29-1.11035,1.29v.06055s.83984-.09082,1.68066-.09082h7.43946Z"/><path class="cls-2" d="M1036.77143,1673.92038v-.05957s-3.11914-1.32031-3.11914-4.41016c0-2.81933,2.21972-5.33984,6.17968-5.33984,3.89942,0,6.23926,2.25,6.23926,5.46,0,3.33008-3.03027,5.39941-3.03027,5.39941v.06055c2.04.99024,3.57031,2.21973,3.57031,4.83008,0,3.2998-3.08984,5.96973-6.83984,5.96973-3.4795,0-6.96-2.16016-6.96-6.21C1032.81146,1675.78073,1036.77143,1673.92038,1036.77143,1673.92038Zm3,10.64941c2.73046,0,5.49023-1.91992,5.49023-4.67968,0-2.48926-1.98047-3.44922-4.44043-4.40918a21.3293,21.3293,0,0,0-2.69922-.90039c-.84082,0-3.96,2.07031-3.96,5.04C1034.16205,1682.74069,1036.95209,1684.56979,1039.77143,1684.56979Zm1.88964-10.19922c.81055,0,3.06055-2.33984,3.06055-4.7998,0-2.58008-2.04-4.2002-4.88965-4.2002-3.03027,0-4.83008,1.77051-4.83008,4.08008,0,2.54981,2.12989,3.38965,4.58985,4.29A9.39829,9.39829,0,0,0,1041.66107,1674.37057Z"/><path class="cls-2" d="M1049.73236,1674.97018c0-6.05957,1.74024-10.85937,7.08008-10.85937s7.08008,4.7998,7.08008,10.85937c0,6.08985-1.74023,10.86036-7.08008,10.86036S1049.73236,1681.06,1049.73236,1674.97018Zm12.80957,0c0-5.39941-1.25976-9.59961-5.72949-9.59961s-5.72949,4.2002-5.72949,9.59961c0,5.43067,1.25976,9.59961,5.72949,9.59961S1062.54193,1680.40085,1062.54193,1674.97018Z"/><path class="cls-2" d="M1068.93158,1683.81979a6.69847,6.69847,0,0,0,3.08985.75c4.89062,0,7.35058-5.1289,7.65039-9.959h-.06055a6.72513,6.72513,0,0,1-5.96973,3.0293,6.1963,6.1963,0,0,1-6.44922-6.53907c0-4.56054,3-6.99023,6.44922-6.99023,4.65039,0,7.34961,4.32031,7.34961,9.50976,0,5.25-2.5498,12.21-9.02929,12.21a8.13862,8.13862,0,0,1-3.66016-.83985Zm10.58985-11.60937c0-2.84961-2.2793-6.83985-5.84961-6.83985-3.24024,0-5.12989,2.4004-5.12989,5.73047a4.91354,4.91354,0,0,0,5.16016,5.2793C1076.94135,1676.38034,1079.52143,1674.101,1079.52143,1672.21042Z"/><path class="cls-2" d="M1083.81146,1676.32077c0-5.25,2.54981-12.21,9.0293-12.21a8.1387,8.1387,0,0,1,3.66016.83984l-.62988,1.16992a6.69847,6.69847,0,0,0-3.08985-.75c-4.88965,0-7.34961,5.10059-7.65039,9.92969h.06055a6.70292,6.70292,0,0,1,5.96972-3,6.19708,6.19708,0,0,1,6.44922,6.54c0,4.55957-2.999,6.99024-6.44922,6.99024C1086.51068,1685.83054,1083.81146,1681.51022,1083.81146,1676.32077Zm7.31934,8.249c3.24024,0,5.12988-2.39941,5.12988-5.72949a4.91353,4.91353,0,0,0-5.16015-5.2793c-3.23926,0-5.81934,2.2793-5.81934,4.16993C1085.28119,1680.58054,1087.56146,1684.56979,1091.1308,1684.56979Z"/><path class="cls-4" d="M1184.34293,1647.89076a27.07992,27.07992,0,1,0,27.07993,27.0799A27.08114,27.08114,0,0,0,1184.34293,1647.89076Zm7.342,43.09089a8.92382,8.92382,0,0,1-4.70517-1.34047,15.21778,15.21778,0,0,1-2.71481.2505,14.83923,14.83923,0,0,1-14.73484-17.18221,8.90277,8.90277,0,0,1,12.32815-12.30791,14.91291,14.91291,0,0,1,17.32439,14.64686,15.21558,15.21558,0,0,1-.13877,2.01411,8.90369,8.90369,0,0,1-7.359,13.91912Z"/><path class="cls-4" d="M1182.39316,1672.19154c-4.31249-1.04939-1.95309-4.73893,1.54016-4.68483,3.39175.05421,5.11809,3.63543,6.65155,3.44926,1.54016-.18617,2.85017-2.49136.42985-4.55617-2.08856-1.78726-4.73893-2.77232-8.80774-2.40338a6.88484,6.88484,0,0,0-6.59051,6.34343c-.36893,4.00447,4.37682,6.03882,8.13409,6.59733,2.63355.38586,6.22159,1.662,4.062,4.12631-1.97683,2.26451-5.7274.86323-6.71246.2471-.98507-.62284-2.09528-2.83665-3.94356-2.71811-1.85159.12525-2.7621,2.55569-.49077,4.68824,2.03435,1.9058,4.25156,2.95849,8.9939,2.708,4.74575-.2471,8.99732-4.43434,7.3319-8.38119C1191.32614,1673.66748,1186.70564,1673.23752,1182.39316,1672.19154Z"/><path class="cls-2" d="M1243.49463,1666.271a.5875.5875,0,0,0-.66016-.66016h-1.29v-1.13965h1.46973c1.23047,0,1.74023.50977,1.74023,1.74023v10.19922h1.74024a2.478,2.478,0,0,0,1.83008-.78027l4.22949-5.15918h1.67969l-4.55957,5.42969c-.78028.89941-1.13965,1.01953-1.13965,1.01953v.06055a2.3418,2.3418,0,0,1,.89941,1.0498l3.15039,5.60938c.29981.54.56934.69043,1.43946.69043h.71972v1.13964h-.77929c-1.62012,0-1.98047-.26953-2.73047-1.58984l-3.17969-5.66992a1.8233,1.8233,0,0,0-1.67969-.68945h-1.62012v7.94921h-1.25976Z"/><path class="cls-2" d="M1257.95361,1672.271a.58709.58709,0,0,0-.66015-.66016h-1.28907v-1.13965h1.46973c1.22949,0,1.73926.50977,1.73926,1.73926v11.46a.5875.5875,0,0,0,.66016.66016h1.29v1.13964h-1.46972c-1.22949,0-1.74024-.50976-1.74024-1.74023Zm-.17968-7.79981h1.37988v2.18945h-1.37988Z"/><path class="cls-2" d="M1263.83447,1682.32077a5.85817,5.85817,0,0,0,4.64942,2.2793c1.91992,0,3.69043-.96,3.69043-2.81934,0-3.78027-8.63965-2.94043-8.63965-7.77051,0-2.5791,2.15918-3.89941,5.12988-3.89941,1.28906,0,4.22949.57031,4.22949,2.5498v1.13965h-1.25976v-.71972c0-1.25977-1.86035-1.74024-2.91016-1.74024-2.42969,0-3.87012.87012-3.87012,2.58008,0,3.83984,8.63965,2.91016,8.63965,7.86035,0,2.39941-2.18945,4.04981-5.03906,4.04981a6.78208,6.78208,0,0,1-5.52051-2.58008Z"/><path class="cls-2" d="M1277.394,1666.271a.58749.58749,0,0,0-.66015-.66016h-1.29v-1.13965h1.46972c1.23047,0,1.74024.50977,1.74024,1.64941v6.83985c0,.69043-.05957,1.23047-.05957,1.23047h.05957a6.72559,6.72559,0,0,1,6.2998-4.08008c3.89942,0,4.9502,2.30957,4.9502,5.84961v7.71a.58681.58681,0,0,0,.65918.66016h1.29v1.13964h-1.46973c-1.22949,0-1.74023-.50976-1.74023-1.74023v-7.31934c0-2.61035-.33008-5.07031-3.68946-5.07031a6.35942,6.35942,0,0,0-6.05957,4.77051,7.43189,7.43189,0,0,0-.24023,2.04v7.31933H1277.394Z"/><path class="cls-2" d="M1303.103,1676.32077h.98926v-.21c0-3.57031-1.2295-4.83008-4.34961-4.83008-.7793,0-3.33008.21-3.33008,1.46973v1.02051h-1.25977v-1.37989c0-1.77051,3.38965-2.28027,4.62012-2.28027,4.58984,0,5.58008,2.49023,5.58008,5.66992v7.88965a.58681.58681,0,0,0,.65918.66016h1.29v1.13964h-1.46973c-1.22949,0-1.74023-.47949-1.74023-1.83007a13.39906,13.39906,0,0,1,.06054-1.34961h-.06054a5.59546,5.59546,0,0,1-5.18946,3.54c-2.42969,0-5.09961-1.35059-5.09961-4.35059C1293.80322,1676.38034,1300.43311,1676.32077,1303.103,1676.32077Zm-4.13965,8.33984c3.26953,0,5.12891-3.39062,5.12891-6.36035v-.80957h-.96c-2.5498,0-8.00878,0-8.00878,3.89942C1295.12354,1682.98,1296.4126,1684.66061,1298.96338,1684.66061Z"/><path class="cls-2" d="M1310.6333,1672.271a.58749.58749,0,0,0-.66016-.66016h-1.29v-1.13965h1.46972c1.23047,0,1.74024.50977,1.74024,1.64941v.83985c0,.69043-.05957,1.23047-.05957,1.23047h.05957a6.72559,6.72559,0,0,1,6.2998-4.08008c3.90039,0,4.9502,2.30957,4.9502,5.84961v7.71a.5868.5868,0,0,0,.65918.66016h1.29v1.13964h-1.46973c-1.22949,0-1.74024-.50976-1.74024-1.74023v-7.31934c0-2.61035-.3291-5.07031-3.68945-5.07031a6.36029,6.36029,0,0,0-6.05957,4.77051,7.46937,7.46937,0,0,0-.24023,2.04v7.31933h-1.25977Z"/><path class="cls-2" d="M1327.79346,1683.70065h1.71v1.76953h-1.71Z"/><path class="cls-2" d="M1334.21338,1672.271a.5875.5875,0,0,0-.66016-.66016h-1.29v-1.13965h1.46973c1.23047,0,1.74023.50977,1.74023,1.64941v.83985c0,.69043-.05957,1.23047-.05957,1.23047h.05957a6.4621,6.4621,0,0,1,5.7002-4.08008c3,0,4.40918,1.41016,4.73926,4.08008h.06054a6.29351,6.29351,0,0,1,5.69922-4.08008c3.87012,0,5.00977,2.28027,5.00977,5.84961v7.71a.5875.5875,0,0,0,.66016.66016h1.29v1.13964h-1.46972c-1.23047,0-1.74024-.50976-1.74024-1.74023v-7.31934c0-2.82031-.57031-5.12988-3.75-5.12988-2.48925,0-4.61914,2.21973-5.27929,4.55957a7.847,7.847,0,0,0-.29981,2.31055v7.31933h-1.26074v-9.05957c0-2.58007-.35938-5.12988-3.65918-5.12988-2.66992,0-4.77051,2.33984-5.46,4.83008a7.46937,7.46937,0,0,0-.24024,2.04v7.31933h-1.25976Z"/><path class="cls-2" d="M1368.38232,1670.11081a7.71385,7.71385,0,0,1,7.76954,7.76953,7.77159,7.77159,0,1,1-15.53907,0A7.71385,7.71385,0,0,1,1368.38232,1670.11081Zm0,14.48926a6.52228,6.52228,0,0,0,6.44922-6.71973,6.45033,6.45033,0,1,0-12.89941,0A6.52246,6.52246,0,0,0,1368.38232,1684.60007Z"/><path class="cls-2" d="M1385.57178,1670.11081a5.63738,5.63738,0,0,1,5.12988,3.24023h.05957s-.05957-.54-.05957-1.23047v-5.8496a.58749.58749,0,0,0-.66016-.66016h-1.29v-1.13965h1.46973c1.23047,0,1.74024.50977,1.74024,1.74023v17.459a.58749.58749,0,0,0,.66015.66016h1.29v1.13964h-1.46973c-1.23046,0-1.74023-.50976-1.74023-1.74023a9.603,9.603,0,0,1,.05957-1.13965h-.05957a5.58957,5.58957,0,0,1-5.37012,3.24024c-4.01953,0-6.47949-3.21-6.47949-7.86036C1378.85205,1673.20065,1381.64209,1670.11081,1385.57178,1670.11081Zm5.16015,7.83008c0-3.33008-1.71-6.62989-5.21972-6.62989-2.94043,0-5.33985,2.46-5.33985,6.65918,0,4.04981,2.15918,6.62989,5.21973,6.62989C1388.15186,1684.60007,1390.73193,1682.64987,1390.73193,1677.94089Z"/><path class="cls-2" d="M1397.51221,1672.271a.5871.5871,0,0,0-.66016-.66016H1395.563v-1.13965h1.46972c1.2295,0,1.73926.50977,1.73926,1.73926v11.46a.5875.5875,0,0,0,.66016.66016h1.29v1.13964h-1.46973c-1.22949,0-1.74023-.50976-1.74023-1.74023Zm-.17969-7.79981h1.37988v2.18945h-1.37988Z"/><path class="cls-2" d="M1403.48193,1684.27h4.76953v-17.09863c0-.54.03028-1.05079.03028-1.05079h-.05957a6.97014,6.97014,0,0,1-1.11035,1.29l-2.49024,2.49024-.89941-.87012,4.52929-4.55957h1.29V1684.27h4.65039v1.20019h-10.71Z"/><path class="cls-2" d="M1426.91162,1667.62057c.54-1.0498,1.11035-1.94921,1.11035-1.94921v-.06055s-.60058.06055-1.65039.06055h-8.66992a.5865.5865,0,0,0-.65918.65918v1.4707h-1.26074v-1.58985c0-1.23046.51074-1.74023,1.74023-1.74023h12.08985v.89941l-10.55957,20.09961h-1.5Z"/><path class="cls-2" d="M1442.42139,1669.87057c0-2.51953-1.83008-4.5-4.85938-4.5-2.28027,0-4.16992,1.16993-4.16992,2.55079v1.01953h-1.29v-1.32032c0-2.60937,3.57031-3.50976,5.49024-3.50976,4.13964,0,6.17968,2.75976,6.17968,5.75976,0,7.46973-11.5498,7.04981-11.5498,13.73926a.58749.58749,0,0,0,.66015.66016h9.959a.58749.58749,0,0,0,.66015-.66016v-1.46972h1.25977V1683.73c0,1.23047-.50977,1.74023-1.73926,1.74023h-10.34961c-1.23047,0-1.74023-.50976-1.74023-1.74023C1430.93213,1675.8403,1442.42139,1676.5903,1442.42139,1669.87057Z"/><path class="cls-2" d="M1459.13135,1669.87057c0-2.51953-1.8291-4.5-4.85938-4.5-2.28027,0-4.16992,1.16993-4.16992,2.55079v1.01953h-1.29v-1.32032c0-2.60937,3.57031-3.50976,5.49024-3.50976,4.13964,0,6.17968,2.75976,6.17968,5.75976,0,7.46973-11.5498,7.04981-11.5498,13.73926a.58749.58749,0,0,0,.66016.66016h9.959a.5875.5875,0,0,0,.66016-.66016v-1.46972h1.25976V1683.73c0,1.23047-.50976,1.74023-1.73926,1.74023h-10.34961c-1.23046,0-1.74023-.50976-1.74023-1.74023C1447.64209,1675.8403,1459.13135,1676.5903,1459.13135,1669.87057Z"/><text class="cls-5" transform="translate(394.91455 1684.1651)">kishan.modi1995@gmail.com</text><path class="cls-3" d="M337.60827,1647.89057a27.0801,27.0801,0,1,0,27.08037,27.07982A27.08,27.08,0,0,0,337.60827,1647.89057Zm.00054,9.51171,16.0249,9.99265h-32.0498Zm16.22458,25.94967h-.00163a2.90129,2.90129,0,0,1-2.90157,2.90157H324.28744a2.9013,2.9013,0,0,1-2.90157-2.90157v-15.32117a2.88649,2.88649,0,0,1,.04549-.49629l15.31089,9.54727c.01877.01173.03881.01967.05813.03051.02022.01119.0408.022.06138.03231a1.60711,1.60711,0,0,0,.33345.13017c.01174.00325.02347.00469.03521.0074a1.6514,1.6514,0,0,0,.37786.04784h.00271a1.62209,1.62209,0,0,0,.37786-.04784c.01173-.00289.02347-.00415.0352-.0074a1.62291,1.62291,0,0,0,.33345-.13017c.02058-.01029.04116-.02112.06138-.03231.01914-.01083.03936-.01878.05814-.03051l15.31087-9.54728a2.88218,2.88218,0,0,1,.0455.49629V1683.352Z"/></g></g></svg>