<?xml version="1.0" encoding="utf-8"?>
<!-- Generator: Adobe Illustrator 23.0.0, SVG Export Plug-In . SVG Version: 6.00 Build 0)  -->
<svg version="1.1" id="Layer_1" xmlns="http://www.w3.org/2000/svg" xmlns:xlink="http://www.w3.org/1999/xlink" x="0px" y="0px"
	 viewBox="0 0 1772 1772" style="enable-background:new 0 0 1772 1772;" xml:space="preserve">
<style type="text/css">
	.st0{fill:#F63000;}
	.st1{display:none;opacity:0.25;fill:url(#SVGID_1_);enable-background:new    ;}
	.st2{fill:#FFFFFF;}
</style>
<rect y="0" class="st0" width="1772" height="1772"/>
<g>
	<g>
		
			<radialGradient id="SVGID_1_" cx="2118.3521" cy="7472.6489" r="322.3321" gradientTransform="matrix(1.9368 0 0 -0.262 -3216.824 3330.9839)" gradientUnits="userSpaceOnUse">
			<stop  offset="0" style="stop-color:#010101"/>
			<stop  offset="2.896667e-02" style="stop-color:#222121"/>
			<stop  offset="7.332784e-02" style="stop-color:#434140"/>
			<stop  offset="0.1232" style="stop-color:#636160"/>
			<stop  offset="0.1775" style="stop-color:#858281"/>
			<stop  offset="0.2375" style="stop-color:#A5A2A1"/>
			<stop  offset="0.3052" style="stop-color:#C1BEBE"/>
			<stop  offset="0.3843" style="stop-color:#D9D7D7"/>
			<stop  offset="0.4821" style="stop-color:#EBEAE9"/>
			<stop  offset="0.6193" style="stop-color:#F9F9F9"/>
			<stop  offset="1" style="stop-color:#FFFFFF"/>
		</radialGradient>
		<path class="st1" d="M1510.3,1373.2c0,46.7-279.5,84.4-624.3,84.4s-624.3-37.8-624.3-84.4s279.5-84.5,624.3-84.5
			C1230.7,1288.7,1510.3,1326.6,1510.3,1373.2z"/>
		<g>
			<g id="final_1_">
				<path class="st2" d="M1061.7,199.3c-15,13.9-28.6,29.2-41.2,45.2c-12.7,16-24.5,32.7-35.8,49.6c-22.5,34-43.4,69.2-64.7,104.1
					c-10.6,17.5-21.5,34.8-32.8,52c-11.3,17.1-22.9,34-35.4,50.4C839.4,517,826.3,533,812,547.9c-14.3,15-29.6,29-46.3,41.5l1.9-6.1
					c0.5,1.6,0.7,3.3,0.5,4.9c-0.2,1.6-0.7,3.1-1.5,4.6l-0.7-6.6l1.5,1.5l1.6,1.5l3.2,3.1c2.1,2.1,4.3,4.3,6.4,6.5
					c2.1,2.2,4.1,4.5,6.1,6.7c1.9,2.3,4,4.6,5.9,7c7.6,9.4,14.6,19.3,21,29.5s12.2,20.8,17.7,31.5c1.4,2.7,2.6,5.4,3.9,8.1
					c1.3,2.7,2.7,5.4,3.8,8.1l3.7,8.2l1.8,4.1l1.7,4.2c9.2,22.1,17.1,44.8,24,67.7l5,17.2c1.6,5.8,3,11.6,4.6,17.3
					c1.6,5.8,2.9,11.6,4.3,17.4c1.3,5.8,2.8,11.6,4,17.5l3.7,17.5c1.2,5.8,2.2,11.7,3.3,17.6c2.3,11.7,4.1,23.5,6,35.2
					c1,5.9,1.8,11.8,2.6,17.7l2.5,17.7l2.2,17.7l1.1,8.9c0.4,3,0.7,5.9,1,8.9c5.1,47.4,8.3,94.9,10.1,142.4l-14.3-1.1
					c0.4-1.9,0.8-3.7,1.2-5.5s0.8-3.5,1.3-5.3c0.9-3.5,1.8-7,2.8-10.5c1.9-6.9,4-13.9,6.2-20.7c4.4-13.7,9.4-27.2,14.7-40.5
					c10.8-26.7,23.6-52.5,38-77.3c7.3-12.4,15.1-24.5,23.2-36.4l6.3-8.8c1.1-1.5,2.1-2.9,3.2-4.4l3.3-4.3c2.2-2.8,4.3-5.7,6.6-8.5
					l6.8-8.4c2.2-2.8,4.6-5.5,7-8.2l3.5-4.1c1.2-1.4,2.3-2.7,3.6-4c4.9-5.3,9.7-10.6,14.8-15.7c10-10.4,20.7-20,31.6-29.4l-1.2,8.4
					c-0.6-0.9-1-1.6-1.5-2.4c-0.5-0.8-0.9-1.5-1.4-2.3c-0.9-1.5-1.7-3.1-2.6-4.6s-1.7-3.1-2.5-4.6s-1.7-3.1-2.4-4.6
					c-1.6-3.1-3.1-6.2-4.6-9.4c-1.5-3.1-3-6.3-4.4-9.5c-5.6-12.7-10.8-25.5-15.3-38.6l-1.7-4.9l-1.6-4.9l-3.2-9.9
					c-1-3.3-2-6.6-3-9.9c-1-3.3-2-6.6-2.9-10l-2.7-10l-1.3-5l-1.2-5c-1.6-6.7-3.3-13.4-4.6-20.2c-5.7-27-9.8-54.3-12.5-81.7
					c-2.6-27.4-3.6-55-3.6-82.5l0.3-20.6c0.3-6.9,0.6-13.7,0.9-20.6c0.2-3.4,0.3-6.9,0.5-10.3l0.8-10.3c0.6-6.8,1.1-13.7,1.7-20.5
					l2.3-20.5l1.2-10.2l1.5-10.2l3-20.4c1.1-6.8,2.4-13.5,3.6-20.3C1029.9,304.3,1044,251.1,1061.7,199.3z M1061.7,199.3
					c-15.8,52.4-28.3,105.8-36.8,159.8c-1,6.7-2.2,13.5-3.1,20.2l-2.5,20.3l-1.3,10.2l-0.9,10.2l-1.8,20.4
					c-0.5,6.8-0.8,13.6-1.2,20.4l-0.6,10.2c-0.1,3.4-0.2,6.8-0.3,10.2c-0.2,6.8-0.4,13.6-0.5,20.4l0.1,20.4
					c0.4,27.2,1.9,54.5,5,81.5s7.4,53.9,13.4,80.4c1.4,6.7,3.1,13.2,4.8,19.8l1.2,4.9l1.4,4.9l2.8,9.8c0.9,3.3,2,6.5,2.9,9.7
					c1,3.2,2,6.5,3,9.7l3.3,9.6l1.6,4.8l1.8,4.8c4.6,12.7,9.7,25.3,15.3,37.6c1.4,3.1,2.8,6.1,4.3,9.2c1.4,3.1,3,6,4.5,9
					c0.7,1.5,1.6,3,2.4,4.4c0.8,1.5,1.6,3,2.4,4.4c0.8,1.5,1.6,2.9,2.5,4.3c0.4,0.7,0.8,1.4,1.3,2.1c0.4,0.7,0.9,1.4,1.2,2l3.1,4.6
					l-4.2,3.8c-10.5,9.3-20.9,18.7-30.5,28.9c-5,5-9.6,10.2-14.3,15.4c-1.2,1.3-2.3,2.6-3.5,4l-3.4,4c-2.3,2.7-4.6,5.3-6.7,8.1
					l-6.6,8.2c-2.2,2.7-4.2,5.6-6.3,8.4l-3.2,4.2c-1.1,1.4-2,2.9-3.1,4.3l-6.1,8.6c-7.9,11.6-15.4,23.4-22.5,35.6
					c-14,24.3-26.4,49.6-36.8,75.6c-5.2,13-10.1,26.2-14.3,39.6c-2.2,6.7-4.1,13.4-6,20.1c-0.9,3.4-1.8,6.7-2.6,10.1
					c-0.4,1.7-0.8,3.4-1.2,5.1s-0.8,3.4-1.1,5l-11.9,59.2l-2.4-60.3c-1.9-47.2-5-94.4-10-141.4c-4.9-47-12-93.7-21.6-139.8
					c-1.1-5.8-2.5-11.5-3.8-17.3c-1.3-5.7-2.6-11.5-4.1-17.2s-2.9-11.4-4.4-17.1l-4.8-17c-6.6-22.6-14.1-44.9-23-66.6l-1.6-4.1
					l-1.7-4l-3.5-8.1c-1.1-2.7-2.5-5.3-3.7-8c-1.3-2.6-2.5-5.3-3.8-7.9c-5.2-10.4-10.8-20.7-16.8-30.7c-6.1-9.9-12.6-19.5-19.8-28.6
					c-1.8-2.3-3.7-4.5-5.5-6.7c-1.9-2.2-3.8-4.4-5.8-6.5c-1.9-2.1-4-4.2-6-6.3l-3.1-3.1l-1.6-1.6l-1.7-1.7l-3.7-3.8l3-2.8
					c0.1-0.1,0.1-0.4,0.1-0.3l1.9-6.1c16.2-11.8,31.3-25.3,45.5-39.7c14.1-14.5,27.4-29.8,39.9-45.8c25.1-31.9,47.5-66.1,69.6-100.5
					l33.1-51.6c11.1-17.2,22.4-34.3,34.2-51s24.1-33.2,37.3-48.8C1032.1,227.6,1046.2,212.6,1061.7,199.3z"/>
				<path class="st2" d="M1082.4,838.6c-6.9-2.8-13.4-6.4-19.7-10.4c-6.3-4-12.3-8.4-18.1-13c-2.9-2.3-5.8-4.7-8.6-7.1
					c-2.8-2.5-5.6-4.9-8.2-7.6l-4-3.9l-3.9-4c-2.7-2.6-5.2-5.4-7.7-8.1c-20.3-21.9-37.7-46.4-53.3-71.8l-5.8-9.6
					c-1.9-3.2-3.7-6.5-5.6-9.7l-2.8-4.9l-2.7-4.9c-1.8-3.3-3.5-6.6-5.3-9.9l-5.1-10l-2.5-5l-2.4-5l-4.8-10.1l-4.6-10.2
					c-6.2-13.6-11.9-27.4-17.4-41.2l-8.3-20.6c-2.8-6.8-5.8-13.6-8.7-20.4C859,497.2,830,445.5,797,396.6
					c-16.6-24.4-34.2-48.1-52.9-70.9c-9.3-11.4-18.9-22.6-28.8-33.5c-4.9-5.5-10-10.8-15-16.1c-2.5-2.6-5.1-5.3-7.7-7.8
					c-1.3-1.3-2.6-2.6-3.9-3.8c-1.3-1.3-2.6-2.5-3.9-3.7l11.1-8.6c11.4,21.3,21.5,43.3,30.2,65.9c8.6,22.6,16,45.7,21.7,69.1
					c1.5,5.9,2.8,11.8,4.1,17.7c0.6,3,1.2,5.9,1.8,8.9l0.9,4.4l0.8,4.5c2.3,11.9,4,23.8,5.6,35.8c3,24,4.6,48.1,4.9,72.2
					c0.7,48.3-3.9,96.5-12.7,143.8c-4.5,23.7-9.9,47.1-16.7,70.2c-3.4,11.6-7,23-11,34.4c-2,5.7-4,11.4-6.2,17
					c-1.1,2.8-2.2,5.6-3.3,8.4c-1.2,2.8-2.3,5.6-3.6,8.5l-1.3-6.2c13.3,12.1,25.9,24.9,37.7,38.4c5.9,6.7,11.6,13.6,17.2,20.7
					c5.6,7,10.9,14.2,16.1,21.5c10.4,14.6,20.1,29.6,29.2,44.9c4.6,7.7,8.9,15.4,13.2,23.3c4.3,7.8,8.3,15.8,12.3,23.7
					c7.9,16,15.3,32.2,22.2,48.6c3.4,8.2,6.8,16.5,9.9,24.8c3.2,8.3,6.2,16.7,9.1,25.1c5.8,16.8,11.3,33.7,16.1,50.8
					c2.4,8.6,4.7,17.1,6.8,25.8c2.1,8.6,4.1,17.3,5.8,26c-4.2-17.3-9.2-34.3-14.6-51.2c-5.4-16.9-11.3-33.6-17.7-50.1
					c-12.8-33.1-27.1-65.5-43.7-96.7c-16.6-31.2-35-61.4-56.1-89.7c-5.3-7.1-10.7-14-16.3-20.8c-2.8-3.4-5.6-6.7-8.5-10.1l-4.4-5
					c-1.4-1.7-2.9-3.3-4.4-4.9c-11.8-13-24.3-25.4-37.4-37l-2.9-2.6l1.6-3.7c1.1-2.6,2.2-5.4,3.3-8.1c1.1-2.7,2.1-5.5,3.1-8.3
					c2-5.5,4-11.1,5.8-16.8c3.7-11.2,7.1-22.6,10.2-34c6.2-22.9,11.5-46,15.6-69.3s7.2-46.8,9.1-70.4c1-11.8,1.6-23.6,2-35.4
					c0.4-11.8,0.5-23.6,0.2-35.5c-0.9-47.2-6.8-94.4-18.2-140.2c-5.7-22.9-12.8-45.4-21.2-67.5c-8.4-22-18.3-43.5-29.3-64.3
					l-19.8-37.6l30.9,29c1.5,1.4,2.8,2.7,4.2,4s2.7,2.7,4,4c2.7,2.7,5.3,5.4,7.9,8.1c5.2,5.4,10.3,10.9,15.3,16.5
					c10,11.1,19.7,22.6,29,34.2c18.7,23.3,36.4,47.5,52.9,72.4c33.1,49.8,61.4,102.7,84.7,157.7c2.8,6.9,5.7,13.8,8.4,20.8l7.9,20.9
					c5.2,13.8,10.5,27.6,16.3,41.2l4.4,10.2l4.6,10.1l2.3,5.1l2.4,5l4.8,10c6.6,13.2,13.3,26.4,20.8,39.1
					c14.8,25.6,31.3,50.2,50.6,72.6c2.4,2.8,4.8,5.6,7.4,8.3l3.8,4.1l3.9,4c2.6,2.7,5.3,5.2,7.9,7.8c2.7,2.5,5.4,5,8.2,7.4
					c5.6,4.8,11.4,9.4,17.5,13.7C1069.3,831.5,1075.6,835.5,1082.4,838.6z"/>
			</g>
			<g>
				<path class="st2" d="M693.8,1205.2l-0.4,1.3l-0.1,0.4l-0.3,0.4l-0.6,1.3c-0.3,0.7-0.7,1.5-1,2.1l-0.1,0.2l-1.3,2.5l-0.2,0.5
					l-0.3,0.4l-0.8,1.5c-0.3,0.5-0.5,1.3-0.8,1.9l-0.5,1.1c0,0.1-0.1,0.3-0.1,0.3l-0.2,0.4l-0.3,0.7l-1.1,2.7l-0.2,0.4l-2.3,4.8
					l-0.2,0.2c-0.9,1.7-1.5,3-2.3,4.2l0.5-0.3l1.3-1.1c1.3-1.1,2.3-2.1,3.5-3.1l0.9-0.7l0.5-0.5l1.7-1.2l0.7-0.5l2.1-1.5l0.2-0.3
					l4.6-2.9l0.6-0.5l0.9-0.7l1.2-0.8l0.7-0.5l2.1-1.4l0.2-0.1l2.3-1.5c0.3-0.2,0.4-0.2,0.7-0.5l1.3-0.9l0.4-0.1l3.6-2.6l0.2-0.1
					l0.9-0.4l0.5-0.4l2.3-1.3l0.8-0.5l1.4-0.9l0.6-0.2l0.3-0.2l0.4-0.4l3.4-1.8l1.1-0.5l1.8-1.2l2.9-1.4l0.5-0.1l0.5-0.3l0.9-0.6
					l0.8-0.3l0.2-0.1l0.8-0.6l0.9-0.5l1.1-0.3l0.5-0.3l1.3-0.6l1.5-0.6l0.7-0.4l2.2-0.8c0.3-0.1,0.5-0.1,1.9-0.8
					c2.6-1.1,5.3-1.5,8-1.9l1.3-0.2l0.5-0.1c0.1,0,0.1,0,0.3-0.1l0.4-0.1l2.5-0.5l0.7-0.1l1.1-0.1h0.3l1,0.1l0.5,0.5l0.1,0.3
					l-0.7,0.7l-0.8,0.1h-0.4l-0.8,0.1l-0.7,0.3l-1.1,0.3c-1.5,0.4-3.1,0.7-4.7,1c-2.2,0.4-4.4,0.8-6.8,1.6l-1.5,0.5l-1.1,0.6
					l-1.5,0.7l-1.4,0.5l-0.5,0.1c-0.1,0.1-0.3,0.1-0.4,0.1c-1.9,0.9-3.8,1.7-5.7,2.7l-0.9,0.6l-0.6,0.2l-2.2,1.1l-1.2,0.9l-1.7,1
					l-0.5,0.2c-0.3,0.2-0.4,0.4-0.7,0.6l-1.5,0.6l-0.6,0.2l0.1-0.1c-1.4,0.8-2.7,1.6-3.9,2.4l-0.5,0.5l-0.9,0.7l-0.6,0.3l-0.5,0.3
					l-3.4,2.1l-1.8,1.2l-0.5,0.4l-1.5,0.9l-5.2,3.5l-0.5,0.4l-2.7,1.9l-1.5,1.1l-2.3,2.1l-0.9,0.7l-1,0.7l-1.6,1l-0.5,0.5l-1,0.6
					l-0.9,0.7l-1.4,1.1l-0.3,0.3l-0.7,0.5l-0.4,0.4l-0.7,0.5l-1.3,0.9l-0.7,0.5l-0.9,0.7l-0.5,0.5l-0.6,0.5l-0.7,0.5l-0.8,0.6
					l-0.6,0.5l-0.6,0.5c-0.1,0.1-0.3,0.4-0.3,0.4l-0.1,0.1l0.3,0.7c1.5,2.1,2.9,3.9,3.4,4.6c0.7,1.1,1.3,2,2,3
					c0.1,0.1,0.3,0.2,0.3,0.2l0.6,0.9c0.3,0.4,0.5,0.7,0.8,0.9c0.5,0.5,1.1,1.1,1.6,1.6l0.8,0.9l1.7,1.9c0.1,0.1,0.1,0,0.6,0.6
					l1.1,1.3l0.8,0.8l0.1,0.2l2.5,2.4l1.9,1.8l1.4,1.1l0.7,0.7l0.4,0.5l0.5,0.5l1.7,1.3c0.1,0.1,0.3,0.1,0.3,0.1l0.5,0.4l1.4,1.3
					l0.8,0.5l1.6,0.9l0.4,0.5l0.9,0.5l1.5,1c0.1,0.1,0.4,0.2,0.5,0.3c0.3,0.1,0.5,0.4,0.8,0.5l1.4,0.7l1.9,0.7l3.2,2.1
					c0.3,0.1,1.1,0.5,1.3,0.5l1.7,1.1l0.9,0.3l1.7,1.1l1.3,0.5c0.1,0,0.3,0.1,0.3,0.1l1,0.5l0.4,0.2l0.4,0.3l2.7,1.4
					c0.2,0.1,0.6,0.2,0.8,0.3l1,0.3c0.1,0.1,0.3,0.1,0.5,0.1l1,0.1l0.4,0.3l0.1,0.3l-0.4,0.8l-0.8,0.1l-0.3,0.1l-0.7-0.1
					c-0.3,0-0.5,0-0.6-0.1l-1.3-0.2l-0.6-0.3l-0.8-0.4l-0.3-0.3l-0.7-0.4l-0.1-0.1c-1.1-0.5-2.6-1.2-3.7-1.7l-2.3-1.3l-0.9-0.5l-2-1
					c-1.7-0.9-3.6-1.7-5.2-2.7l-0.9-0.4l-0.5-0.3l-0.3-0.2l-3.3-1.9l-0.4-0.1l-1.3-0.9l-1.4-0.7l-0.5-0.3l-0.8-0.5l-0.8-0.7
					l-1.6-1.2l-1-0.6l-0.7-0.5l-0.5-0.4c-0.1-0.1-0.3-0.3-0.5-0.4l-0.2-0.2l-0.3-0.3l-1.1-0.8c-1.9-1.4-2.9-2.5-4.1-3.9l-0.1-0.1
					l-0.1-0.2l-0.7-0.6l-0.1-0.3c-0.3-0.2-0.5-0.4-0.7-0.7l-0.7-0.5l-1.1-0.9l-1.7-2.4c-1.8-2.1-3.5-4.4-5.2-6.7l-0.5-0.7l-0.3-0.3
					l-2-2.9c-0.1-0.1-0.3-0.3-0.3-0.3c-0.1,0-0.1,0-0.1-0.1l-0.7-0.4l-0.1-0.6l-0.1-0.3l-0.7-0.6c-0.2,0.3-0.5,0.7-0.5,0.8l-0.3,0.7
					l-0.6,1c-0.1,0.1-0.1,0.2-0.1,0.2l-0.3,0.5l-0.7,0.8l-0.3,0.5l-0.3,0.5l-0.5,0.9l-1.2,1.5c0,0.1-0.1,0.2-0.1,0.3l-0.9,1.4
					l-0.5,0.7c-1.3,1.9-2.7,3.9-4,5.7l-1.9,2.7l-1.7,2.3c-1.3,1.9-2.8,4.2-4.1,6l-1.1,1.2l-0.7,0.7c-0.3,0.5-0.7,0.9-0.9,1.4
					l-0.5,0.7l-0.8,0.9l-2.8,2.9l-1.5,1.9l-2.2,1.9c-0.4,0.4-1.1,0.5-1.5,0.4c-0.6-0.1-1.1-0.5-1.6-1.5l-0.1-0.7l-0.1-0.9l0.1-2
					l0.6-2.4l0.3-1c0.2-0.7,0.7-1.9,1.3-3l0.3-0.5l0.7-1.2l2.4-3.5l1.3-1.6l0.7-0.8l1.5-1.5c0.3-0.3,0.7-0.9,0.9-1.1l2.7-2.5
					l0.6-0.6l0.9-0.8l1-1l1.1-1.1l0.5-0.4l1.5-1.5l0.3-0.3l1.8-1.8l0.2-0.3l0.3-0.3l0.4-0.5l1.1-1l0.7-0.8l0.6-0.7l0.9-0.9l1.3-1.3
					l0.9-0.8l1.1-0.9l1.9-1.5c-0.3-0.3-0.5-0.6-0.6-1l-0.9-1.4l-0.2-0.5l-0.9-1.7l-0.1-0.3l-1.3-2.8l-0.2-0.7
					c-0.2-0.5-0.3-1.1-0.3-1.5v-0.5c0-0.3-0.1-1.5,1.5-1.7c0.7-0.1,1.4,0.7,1.6,1.2l0.5,1.5l0.1,0.3l0.8,2l0.3,0.9l0.1,0.5l0.1,0.3
					l0.1,0.2l0.3,0.9l0.4,0.7l0.3,0.9l1.4-2.3l0.5-1l0.1-0.1c0-0.1,0.1-0.5,0.1-0.5l0.7-1.1v-0.2l0.7-0.9l2-3.5v0.1l1.1-2.6l0.1-0.3
					l0.6-1.4l0.7-1.7l0.2-0.3c0.3-0.5,0.7-1.3,0.8-1.8l0.4-1.3l0.6-1l1.1-2.7c0-0.1,0.1-0.5,0.1-0.6l0.4-1.1c0-0.2,0.1-0.4,0.1-0.6
					l0.7-1.7l0.5-1.6c0.1-0.4,0.3-0.9,0.3-1.3l0.3-0.9l0.3-0.7l0.4-0.8l0.3-1.3l0.2-0.3c0.1-0.3,0.3-0.7,0.4-0.9l0.8-1.1l1.3-0.9
					l0.9-0.3l1.1,0.6l0.1,2.1l-0.6,1.9l-0.5,1.3L693.8,1205.2z M669.7,1245.1l-2.1,1.9c-0.9,0.8-1.9,1.7-2.7,2.6l-0.9,0.9l-0.2,0.3
					c-0.9,1.1-2,2.2-2.9,3.3l-0.5,0.4l-2.1,2.2l-0.3,0.5l-0.6,0.8l-0.8,0.8l-1.3,1.6l-0.4,0.6l-0.3,0.4l-0.7,1.1l-0.6,0.6l-1.5,2
					l-1.3,2.1l-0.9,1.5l-0.7,1.6c-0.1,0.3-0.2,0.9-0.3,1.5l-0.2,0.8c0,0.3-0.1,0.5-0.1,0.7l2.7-3c0.2-0.3,0.5-0.7,0.7-1l4.1-4.4
					l0.9-1.1l1.3-1.7l1-1.4l2.8-4l0.3-0.5l0.6-0.9l0.6-0.7l1-1.5l1.5-2.1l0.7-0.9L669.7,1245.1z"/>
				<path class="st2" d="M727.4,1251.8l-0.8,0.6l-0.9,0.4l-0.5,0.1l-0.5,0.3l-0.2,0.1c-0.3,0.1-0.6,0.3-0.9,0.3l-0.7,0.4l-0.3,0.1
					l-1.3,0.6l-0.3,0.2l-1.1,0.7l-0.5,0.2c-0.1,0.1-0.3,0.2-0.4,0.2l-0.9,0.5l-0.5,0.2l-0.5,0.1l-1.1,0.2l-0.9,0.5l-0.9,0.1
					l-0.9-0.1l-0.8,0.2l-1.8-0.3c-0.7-0.2-1.2-0.6-1.7-1.3l-0.3-0.4l0.1-0.5c-0.1-0.5,0-1.3,0.2-1.9v-0.4l0.5-1.3l0.5-1.3
					c0-0.1,0.1-0.3,0.1-0.4l0.5-0.9l0.5-0.5c0-0.1,0.1-0.2,0.1-0.2l0.6-0.5l0.3-0.5c0.1-0.3,0.4-0.5,0.5-0.8l0.2-0.5l0.3-0.5
					l0.2-0.2c0.2-0.3,0.4-0.7,0.6-0.9l0.6-0.9l0.2-0.3l0.8-0.9l1.1-1.5l0.3-0.8l0.9-1.1l0.3-0.5l0.3-0.5l0.3-0.3l0.9-1.3l0.7-0.9
					l0.7-0.7c0.4-0.4,1.4-0.9,2.4-0.9c0.5,0.1,1,0.2,1.5,0.9v0.5l-0.1,0.9l-0.6,0.7l-0.8,0.9l-0.9,0.7l-1,0.9l-0.2,0.5l-1.3,1.3
					l-0.7,0.9l-0.5,0.7l-0.5,0.5c-0.1,0.2-0.1,0.3-0.1,0.4l-0.7,0.4c0,0.1-0.1,0.3-0.2,0.4l-1,1.1l-0.9,1.1l-0.5,0.7l-0.3,0.5
					l-0.7,1.3l-0.3,0.3c-0.3,0.3-0.3,0.3-0.3,0.5l-0.4,1.1l-0.1,0.3l-0.6,1.3l-0.3,1.3v0.3l-0.1,0.8v0.2h0.5l0.5,0.1l0.3-0.1
					l0.4-0.1l0.4,0.1h0.3c0.5-0.1,0.9-0.3,1.4-0.3l0.6-0.2l0.6-0.1c0.1-0.1,0.2-0.1,0.2-0.1l1.1-0.6l0.3-0.2l1.6-0.4l1.1-0.4
					l0.5-0.1l2.2-1.1l0.5-0.3l1.1-0.6l0.9-0.5l0.5-0.3l0.4-0.1l0.4-0.3l0.9-0.5l0.5-0.3l0.6-0.4l0.3-0.3l1.1-0.5l0.3-0.3l1.6-0.8
					l0.6-0.3l0.1-0.1l0.5-0.3h0.1l0.3-0.3l0.5-0.2l0.3-0.3l0.7-0.4l0.5-0.3l0.3-0.1l0.4-0.2c0.5-0.3,0.9-0.6,1.5-0.9l0.4-0.3
					l0.7,0.1l0.5,0.5l0.1,0.6l-0.7,0.8l-0.4,0.1l-0.4,0.3l-1.1,0.5l-2.1,1.3l-0.6,0.4l-0.9,0.7l-0.5,0.1l-0.3,0.1
					c-1.2,0.8-2.4,1.7-3.5,2.3l-0.4,0.4l-0.3,0.1l-0.7,0.3l-0.3,0.2L727.4,1251.8z M733.9,1218.8c0.1,0.4,0.1,0.8,0,1.5
					c-0.3,0.7-0.9,1.5-2.4,2.3l-0.8,0.6l-0.3,0.2c-0.3,0.3-0.9,0.6-1.1,0.9l-1.2,1.1l-1.1,0.9l-0.5,0.3c-0.3,0.2-0.8,0.2-1.3,0.2
					l-0.1-0.9l0.1-0.3l0.9-2.2l0.3-0.5l0.9-1.4l0.5-0.7l0.3-0.3l0.6-0.7l0.5-0.3l0.4-0.3l1-1l0.8-0.4l0.5-0.1
					C733,1217.8,733.5,1218.3,733.9,1218.8L733.9,1218.8z"/>
				<path class="st2" d="M766.7,1236.4c-0.1,0.1-0.1,0.3-0.1,0.3c0,0.5,0,0.9-0.6,1.5c-0.3,0.5-1.1,1.2-2,0.8l-0.7-0.3l-0.9-0.9
					l-0.1-0.5l-0.1-0.3v-0.5l0.1-0.4l-0.1-0.6l-0.1-0.3l-0.2-0.1l-0.3-0.3l-0.4-0.1c-0.3,0-0.5-0.1-0.7-0.1H759
					c-0.3-0.1-0.6,0-2,0.3l-1,0.3l-3.4,1l-1,0.4l-0.9,0.5l-0.5,0.2l-0.8,0.2l-1.3,0.5l-0.3,0.1l-1.5,0.8l-0.9,0.7l-0.3,0.3l-0.9,0.5
					l-0.4,0.3l-0.3,0.2l-0.4,0.3l-0.2,0.2l-0.5,0.7l-0.6,0.4l-0.3,0.3l-0.7,0.5c-0.2,0.3-0.4,0.6-0.4,0.8l0.1,0.3l0.2,0.3l0.9,0.9
					l0.3,0.2l0.7,0.4c0.3,0.1,0.6,0.3,0.9,0.3l0.7,0.3l0.5,0.3c0.1,0.1,0.5,0.1,0.6,0.1l0.6,0.4l1.5,0.6c0.2,0,0.5,0.1,0.7,0.1
					l0.7,0.1l0.6,0.3h0.1l0.3,0.2l1.3,0.4c0.2,0,0.4,0.1,0.6,0.1l0.3,0.2c0.5,0.1,1,0.3,1.5,0.3c0.3,0,0.7,0.1,1,0.1l1.5,0.3
					l1.5,0.7l0.7,1l0.1,0.9l-0.1,0.5l-0.5,0.5l-0.6,0.5l-1.1,0.5h-0.3l-0.4,0.3l-0.9,0.3l-0.1-0.1l-0.7,0.2l-1.7,0.1l-3,0.2H748
					l-2.7,0.1h-0.8l-0.9,0.1l-1-0.1l-0.8,0.2h-1.1l-1.7-0.1h-1.1l-0.7,0.1h0.1l-1.2,0.2h-0.3l-0.9,0.2h-0.5
					c-0.4,0.1-0.8,0.3-1.2,0.3l-0.9,0.2l-0.8,0.1l-0.7,0.1l-1.7,0.4l-0.3,0.1l-0.9,0.1H727l-0.3,0.1l-0.5,0.1l-0.6-0.7l-0.1-0.5
					l0.3-0.5l0.6-0.2l0.7-0.3l1.7-0.4l0.9-0.1l0.9-0.2l0.8-0.1l1.9-0.7h0.9l0.5-0.1l1,0.1l0.7-0.1l0.5-0.1l1.4-0.1l1.1-0.1l1-0.1
					l1.4-0.1h0.9l0.5-0.1l0.2,0.1h0.5c0.2,0,0.2-0.1,0.4-0.1c0.1-0.1,0.5-0.2,0.6-0.3l1.7-0.1l1-0.3h2.3l0.4-0.1h0.7l-0.5-0.2
					l-0.7-0.3l-0.6-0.2c-0.2,0-0.5-0.1-0.6-0.1l-0.3-0.1l-1.7-0.9c-0.1,0-0.2-0.1-0.3-0.1l-0.6-0.3l-1-0.5l-0.7-0.3
					c-0.2-0.1-0.1-0.2-0.4-0.3c-0.4-0.1-0.5-0.3-1.6-0.5c-0.5-0.1-0.7-0.3-1.1-0.6l-0.1-0.1c-0.1,0-0.3-0.1-0.4-0.1l-0.6-0.2
					c-0.1,0-0.3-0.1-0.4-0.1l-0.5-0.4l-0.3-0.2l0.1,0.1l-0.7-0.5l-0.9-0.9l-0.2-0.8v-0.4l0.1-0.5c0.1-0.3,0.3-0.7,0.6-1.2l0.1-0.2
					c0-0.1,0.1-0.3,0.1-0.3l0.8-1l0.8-0.9l0.5-0.6l0.3-0.2c0.1-0.1,0.3-0.4,0.3-0.5l0.6-0.3l0.2-0.2l0.8-0.6l0.9-0.5l1.1-0.6
					l0.3-0.2l1-0.5l0.1-0.1l0.5-0.2l0.3-0.2l1.1-0.6l0.4-0.1l1.5-0.5l0.6-0.3l0.5-0.1l1.8-0.5l1.1-0.3l1.5-0.5l0.5-0.1l0.3-0.1
					c0,0,0.1,0,0.3-0.1l0.7-0.1c0.4-0.1,0.8-0.2,1.2-0.3l1.8-0.2h2.5l1.3,0.3l0.4,0.1l0.9,0.3l0.9,0.6l0.5,0.5l0.1,0.3l0.2,0.7
					l0.1,0.7v0.6H766.7z"/>
				<path class="st2" d="M792.2,1249.4l-0.1,0.6l-0.3,0.7l-0.1,0.6c-0.1,0.3-0.1,0.5-0.1,0.7l0.1,0.3l0.3,0.3l0.3,0.1
					c0.1,0,0.3,0,0.5-0.1l0.7-0.3l0.2-0.1l2.5-1.3l0.4-0.1l2.6-1.7c0,0,0.1,0,0.1-0.1l1.4-0.9l0.3-0.2l0.4-0.3l0.7-0.4
					c0.3-0.2,0.7-0.5,1-0.7l0.2-0.1l0.7-0.5l0.7-0.6l1-0.7l0.6-0.1l0.4,0.3l0.3,0.5l0.1,0.6l-0.1,0.5l-0.6,0.1
					c-0.2,0.1-0.4,0.3-0.6,0.3l-0.8,0.5l-0.3,0.3l-0.7,0.6c-0.5,0.5-1.5,1.2-2.7,2l-0.7,0.5l-0.2,0.1l-0.3,0.3l-0.3,0.5l-0.5,0.3
					l-0.1,0.1c-0.1,0.1-0.3,0.3-0.4,0.3l-0.1,0.1l-0.7,0.4l-0.4,0.4l-0.4,0.1l-0.7,0.3l-0.5,0.3l-1.2,0.9l-0.1,0.1l-0.5,0.4
					l-0.5,0.3l-0.6,0.3l-0.6,0.1l-0.7,0.1l-0.3,0.1l-0.5,0.1c-0.3,0-0.4,0-0.7-0.1c-0.1,0-0.3,0.1-0.5,0.1l-0.6-0.5
					c-0.1-0.1-0.1-0.3-0.2-0.3l-0.5-0.4l-0.3-0.7l0.1-1.4l0.1-1.2l0.1-0.6l0.5-1.2c0-0.1,0.4-0.5,0.4-0.5l0.3-0.6l0.1-0.3l0.3-0.9
					l0.5-0.8c0.1-0.5,0.4-1.3,0.7-1.9l0.5-1.3l0.3-1.1c0.5-0.7,0.8-1.3,0.7-2.1v-0.2c-0.4,0-0.7,0.1-1.2,0.3l-1.2,0.6l-0.3,0.1
					c-0.2,0.1-0.4,0.2-0.5,0.3l-0.7,0.5l-0.1,0.1l-0.5,0.3l-0.5,0.4l-1.4,0.7l-0.2,0.1l-0.8,0.5l-0.3,0.3l-3.4,2l-0.7,0.4l-1.3,1.1
					l-1.3,1.1l-2.1,1.8l-1.9,1.5l-1.5,1.1l-0.4,0.2l-0.5,0.3l-0.9,0.5l-0.9,0.5l-0.9,0.6l-0.8,0.3h0.1l-0.7,0.2l-0.9,0.1l-0.6-0.1
					l-0.7-0.7l-0.1-0.8l0.1-1l0.3-1c0-0.1,0.1-0.5,0.1-0.5l0.5-1.3l0.3-0.6l0.6-1.3l0.5-1.1l0.3-0.5c0.3-0.5,0.7-1.3,0.9-1.9
					l0.2-0.5l0.9-1.5l0.5-0.8l0.9-1.5l0.5-1l0.6-0.9l0.7-0.9l0.3-0.3l0.9-1.5l0.2-0.4l0.3-0.3l0.5-0.7l0.2-0.5l0.4-0.7l0.7-0.8
					c0.1-0.3,0.3-0.5,1.1-1.5l1.2-2.2l0.5-0.3c1.1-1.6,2.5-3.5,3.7-5.1l0.1-0.1c0.1-0.1,0.1-0.2,0.1-0.3l0.2-0.4l0.4-0.5l0.5-0.8
					l0.2-0.3l0.9-1.3l0.3-0.5l0.2-0.3l0.8-1.3c0.1-0.2,0.3-0.4,0.3-0.6l0.5-0.6l1.1-1.7l0.7-1.2l1.3-2l0.4-0.6c0.4-0.7,1-1.3,1.4-2
					l0.1-0.1c0.1-0.1,0.1-0.1,0.1-0.2l0.8-1l0.3-0.6l0.3-0.6c0,0,0.1-0.2,0.1-0.3l1.3-1.8l0.9-1l1.6-1.7c0.9-0.8,1.6-1.1,2.1-0.9
					c0.9,0.2,1.3,2.1,0.9,2.7l-1.6,2.3l-1.2,1.5l-0.9,1l-0.9,1.3l-0.9,1.2l-1.9,2.4l-0.6,0.9l-0.3,0.5l-0.7,1.3l-0.5,0.5l-2.6,3.6
					l-0.6,0.7l-0.5,0.9l-0.3,0.5l-0.5,0.4l-0.3,0.5c-0.2,0.3-0.4,0.7-0.6,0.9l-1.1,1.5l-0.6,0.8l-1,1l-0.5,0.7
					c-0.1,0.1-0.1,0.2-0.1,0.3l-1,1.5l-0.6,1l-0.7,0.6c-1,1.4-2.1,3.1-3,4.6c-0.6,0.9-1.3,1.9-1.9,2.7l-0.2,0.4l-0.3,0.3
					c-0.6,0.8-1.1,1.8-1.9,3.1l-0.2,0.5c-0.1,0.3-0.3,0.5-0.4,0.9l-0.8,1.6l-0.2,0.8l-0.9,2.1c-0.1,0.4-0.1,0.1-0.2,0.5l-0.9,2.2
					c0,0.3-0.1,0.5-0.1,0.8h0.2l0.7-0.4l0.5-0.4l0.7-0.5l0.3-0.4l0.4-0.3l1.1-0.7l0.2-0.1l0.6-0.5l1.9-1.2l0.5-0.3l0.3-0.2l0.6-0.6
					l0.1-0.1c0.3-0.2,0.7-0.5,1-0.7l-0.1,0.1l2-1.7l1.7-1.1l1.3-0.7h0.1c0.6-0.4,0.9-0.7,1.3-0.9l0.5-0.3l1.2-0.8l1.7-1.1l0.6-0.3
					l1.7-0.5h0.3c1.1-0.3,2.5-0.3,3.8,0.3c1.9,0.9,1.5,2.1,0.9,3.6c-0.3,0.8-0.7,1.5-0.9,2.1c-0.1,0.3-0.1,0.5-0.3,0.7
					c-0.3,0.8-0.6,1.3-0.8,1.8l-0.8,1.9L792.2,1249.4z"/>
				<path class="st2" d="M826,1246.5l0.5-0.7l0.5-0.6h0.1l0.7-0.7l0.2-0.3l0,0l-0.8,0.2l-1.9,0.7l-0.7,0.1l-2.1,1.2l-0.5,0.3
					l-0.5,0.2l-0.5,0.3l-1.5,0.7l-1.7,1l-0.5,0.2l-1.2,0.5l-0.1,0.1l-0.9,0.5l-0.3,0.1c-0.4,0.2-0.8,0.5-1.2,0.7l-0.4,0.3l-0.7,0.5
					l-0.4,0.1c-0.1,0.1-0.5,0.2-0.5,0.2c-0.5,0.3-0.9,0.5-1.4,0.9l-1.3,0.7h-0.6l-0.8,0.3l-0.5-0.1c-0.1,0.1-0.3,0.1-0.6,0.2
					c-0.1,0.1-0.3,0.3-0.3,0.3l-1.3,0.5l-0.5,0.1l-1.1,0.5l-0.4,0.1l-0.5-0.1c-1.3,0.1-2.4-0.1-2.8-1.2c-0.3-0.9,0-2.1,0.5-3.3
					l0.3-0.9l0.4-0.5l0.1-0.1l0.5-0.8l0.5-0.7l0.7-0.8l0.8-0.8l0.3-0.3l0.6-0.5l0.7-0.7l3.1-2.7l0.9-0.7l0.5-0.5l0.8-0.7l0.1-0.1
					l0.5-0.3l1.3-1.2l1.1-0.9l0.5-0.4l1-0.5l0.1-0.1l0.6-0.3l0.2-0.1c0.2-0.1,0.4-0.3,1.1-0.5l2.4-1.2l0.6-0.3l0.4-0.1
					c0.4-0.1,0.7-0.3,1.1-0.3l0.3-0.2l0.7-0.1l0.4-0.1l0.5-0.1h1l1.5,0.2c0.1,0.1,0.3,0.1,0.3,0.1l0.7,0.6l0.1,0.7l-0.1,0.6
					c-0.2,0.5-1.1,1.7-2.5,1.6c-0.1,0-0.3,0.1-0.5,0.1H821l-0.5,0.1l-0.4,0.1l-0.9,0.3l-1.1,0.3l-1.5,0.6l-1.7,0.9l-0.3,0.2
					l-0.9,0.6l-3,2.2l-0.2,0.2l-0.6,0.7l-0.6,0.6l-0.5,0.3l-0.5,0.5l-0.1,0.1l-0.7,0.5v0.1l-0.7,0.8l-0.8,0.7v0.1l-0.4,0.5l-0.3,0.3
					l-0.1,0.2c0,0.1-0.1,0.2-0.1,0.2l-0.4,0.4l-0.3,0.3l-0.7,1l-0.4,0.9l-0.2,0.4l-0.3,0.4l-0.2,0.3l-0.1,0.1v0.5
					c0.5-0.1,0.7-0.4,1.2-0.5l0.6-0.1l1-0.3l0.5-0.1l2.3-1.1l0.3-0.2l0.6-0.3l0.9-0.3l0.4-0.2c0.5-0.2,0.5-0.1,1.7-0.8l0.5-0.3
					l0.6-0.3l0.2-0.2l0.4-0.1l0.8-0.4l0.5-0.3l0.5-0.3l1.8-0.9l0.5-0.3l2-0.9l0.3-0.1l1.1-0.5l0.8-0.6l1.1-0.5l0.3-0.3l0.5-0.3
					l0.3-0.3l0.8-0.5l1-0.6l2.1-0.5h0.9l0.7,0.1l0.7,0.4l0.1,0.1c0.3,0.1,0.7,0.4,1.1,1.1v0.4l-0.1,0.2l-0.3,0.4l-0.1,0.7l-0.6,0.4
					l-0.3,0.3l-0.6,0.9l-0.5,0.5l-1.4,1.6l-0.1,0.2l-0.7,0.9l-0.2,0.4l-0.1,0.3c-0.1,0.2-0.2,0.2-0.2,0.3c0.2,0,0.3-0.1,0.6-0.1
					l0.7-0.1h0.3l0.9-0.2l0.7-0.1l0.4-0.1l0.9-0.2l2.3-0.7l0.3-0.1l0.6-0.1l0.8-0.3l0.6-0.3l0.3-0.1l0.3-0.2l2.3-0.6l0.6-0.2
					l0.2-0.2l3.3-0.9l0.6-0.1l1.3-0.4c0.1,0,0.5,0,0.5,0.1c0.2,0.1,0.6,0.1,0.7,0.1v1.1l-0.7,0.6h-0.7l-1,0.3l-0.8,0.4H842l-0.9,0.3
					l-0.4,0.1l-1.6,0.7l-1.1,0.5l-1.3,0.4l-1.5,0.5l-0.4,0.1l-0.3,0.1l-0.5,0.4l-0.6,0.2l-0.4,0.1l-0.5,0.3l-0.3,0.1l-1.7,0.7
					l-0.5,0.3l-1.8,0.7l-0.7,0.3c-0.1,0.1-0.4,0.3-0.5,0.3l-1,0.3h-1l-0.6-0.1l-0.3-0.1l-0.5-0.1l-0.6-0.7v-0.7
					c-0.1-0.3-0.1-0.7,0-1l0.3-0.7v-0.1l0.6-0.8l0.2-0.3l0.5-0.7L826,1246.5z"/>
				<path class="st2" d="M843.3,1246.8L843.3,1246.8l0.6-0.9l0.5-0.8l0.7-1.1l1.5-2.5l0.3-0.5l0.2-0.3l0.9-1.9l1.3-2.4
					c0.1-0.3,0.4-1.2,0.6-2c0.1-0.6,0.1-1.1,0.1-1.4c0-0.5,0-0.9,0.1-1.3c0.2-0.6,1.1-1.2,1.8-1.2c1.7,0,2.4,1.1,1.9,2.7
					c-0.3,0.9-0.7,1.7-1.1,2.5l-1.3,2.7l-0.7,1l-0.3,0.7l-0.3,0.7l-0.9,1.2l-0.1,0.5l-0.4,0.4c-0.4,0.5-0.9,1.4-1.3,1.9l-1.1,1.5
					c-0.1,0.3-0.3,1-0.5,1.2l-0.5,0.8l0.1-0.1l0.9-0.8l1.7-1.6l0.2-0.3l0.1-0.3l1.1-0.7l0.3-0.3l1-0.7l0.2-0.1l1.7-1.1l0.3-0.1
					l1.1-0.6c0.2-0.1,0.4-0.3,0.6-0.3c0.5-0.2,1.7-0.7,2.1-0.6h0.3l1.5,0.1l0.9,0.7l0.6,0.9l0.2,1.1v0.6l-0.1,0.7l-0.1,0.8l-0.1,0.5
					v0.7l-0.4,1.7c0,0.2-0.1,0.3-0.1,0.5l0.1,0.5l0.1,0.3c0.1,0.2,0.2,0.6,0.3,0.7l0.1,0.3l0.3,0.5c0.1,0.1,0,0.1,0.1,0.1l0.6,0.3
					c0.8,0.1,1.7,0,2.8-0.2l1.2-0.5l0.5-0.1c0.3-0.1,0.7-0.3,0.9-0.3l0.5-0.1l1-0.4l2-0.8h0.2l1.1-0.4l2.3-1.1l0.9-0.6l0.3-0.1
					l1.5-0.7l0.5-0.3l0.5-0.5l0.6-0.3l1.9-0.9l2.3-1.3l0.4-0.3l0.9-0.5l0.3-0.1l0.9-0.6h0.7l0.4,0.3l0.2,0.3l-0.1,0.7l-0.7,0.5
					l-1.2,0.8c-0.8,0.6-1.5,1-2.1,1.3l-1,0.7l-0.7,0.3l-1,0.7l-0.8,0.4c-0.5,0.3-1.3,0.7-2.2,1.1l-1.1,0.6l-2.9,1.5h-0.1
					c-0.3,0.2-0.7,0.4-0.9,0.6l-0.9,0.5l-0.9,0.3c-0.3,0.1-0.6,0.3-0.9,0.5l-0.6,0.3l-0.7,0.1l-0.8,0.1l-0.5,0.1l-0.3,0.1l-0.3,0.1
					l-0.2,0.1c-0.1,0.1-0.4,0.1-0.8,0.1l-0.6,0.1l-0.7,0.2l-0.7,0.1l-0.8-0.1l-0.4,0.1l-0.7-0.1c-0.7,0-1.4-0.3-2-0.5H858l-0.3-0.1
					c-0.7-0.3-1.2-1.1-1.4-1.9c-0.1-0.3-0.1-0.7-0.1-1.2v-0.8l0.3-0.8l0.4-1.4l0.7-2.3c0-0.1,0.1-0.4,0.1-0.5
					c0.1-0.7-0.1-1.2-0.5-1.3c-0.2,0-0.5,0.1-0.7,0.1c0,0-0.1,0.1-0.3,0.2l-0.5,0.3l-0.7,0.3l-0.6,0.3l-0.9,0.7l-0.3,0.1l-0.7,0.7
					l-0.7,0.6l-0.8,0.5c-0.3,0.3-0.8,0.9-1.1,1.1l-0.6,0.4l-0.5,0.3l-0.2,0.2l-0.9,0.9l-0.1,0.1l-0.5,0.3l-0.3,0.3l-0.2,0.2l-0.9,1
					l-0.8,0.6l-1.2,1.3l-2,2.1l-0.4,0.4l-1.3,0.9l-0.6,0.1c-0.8-0.2-1.1-0.8-1.3-1.4c-0.1-0.5,0-1.4,0.9-2.5l0.5-0.7l1.4-1.9
					l0.4-0.7l0.6-0.8l0.1-0.3l1-1.5L843.3,1246.8z"/>
				<path class="st2" d="M945.5,1232.5L945.5,1232.5l3.8-4.6l0.3-0.6l1.5-1.6l0.7-1.3l0.5-0.2c0.7-0.9,1.3-1.7,1.9-2.5
					c0.8-1.1,1.7-2.4,2.5-3.5c0,0,0.1-0.1,0.1-0.2c0.1-0.1,0.3-0.5,0.4-0.7l0.3-1l0.9-1l1-1.8l0.3-0.5l0.5-1.1l0.2-0.5l1-1.5
					l0.4-0.9l0.5-0.9l0.9-2.3c0-0.1,0.1-0.3,0.1-0.5c0.1-0.3,0.1-0.7,0.1-1.7v-0.7l-0.1-0.3l-0.1-0.7c-0.1-0.1-0.1-0.3-0.1-0.3
					c-0.3-0.1-0.6-0.3-0.9-0.3c-0.9-0.3-2-0.3-2.7,0l-2.4,0.9l-0.7,0.3l-0.5,0.1c-0.7,0.3-1.3,0.7-2,0.9l-0.7,0.3l-0.3,0.2l-0.7,0.3
					l-0.7,0.2c-0.6,0.3-0.8,0.3-1.2,0.6l-0.8,0.5l-1.1,0.6l-0.1,0.1c-0.3,0.2-1.2,0.6-2.4,1.4l-2.1,1.1l-0.1,0.1l-3.9,2.7l-0.9,0.6
					l-0.9,0.5l-3.1,2.1l-0.7,0.5l-0.7,0.5l-0.7,0.5l-0.9,0.7l-0.9,0.5c-0.9,0.6-1.8,1.4-2.7,2.1l-2.3,1.8l-0.6,0.5l-0.8,0.7
					l-0.2,0.2l-1,0.9l-1.3,0.8l-1.6,1.3l-2.6,2.3l-1.5,1.8l-1.6,2.3l-1.2,1.5l-0.8,0.6c-1.5,1.1-2.8,1.1-3,1
					c-1.3-0.6-1.2-1.2-1.2-1.9v-0.4c0.1-0.7,0.5-1.4,1.5-2.7l2-2.2l0.5-0.5l0.9-0.7l1.3-1.2l0.6-0.5l1.9-1.3l0.2-0.2l0.3-0.2
					l0.5-0.5h0.1l0.6-0.5l1.9-1.5l0.9-0.6c0.2-0.2,0.4-0.3,0.6-0.5l0.5-0.4l1.1-0.9c0.7-0.5,1-0.9,1.4-1c0.1-0.1,0.3-0.1,0.6-0.3
					l3-2.1l0.4-0.3l0.4-0.4l2-1.3l0.8-0.5l0.9-0.5l1.3-0.8l1.5-0.9l1.3-0.8l0.2-0.2l1.3-0.7l1.4-1l1.3-0.9l1.9-0.9l0.3-0.3l1.2-0.6
					l1.7-0.8l0.9-0.5l1.1-0.7c1.1-0.6,2.1-1.1,3.5-1.7l0.9-0.4l1.1-0.5l0.8-0.2h0.1l0.2-0.1l1.3-0.7l1.5-0.6l0.6-0.1l0.8-0.1
					c0.1,0,0.1,0,0.2-0.1c0.8-0.2,2.2-0.4,3.8-0.3c1.4,0,2.9,0.5,3.4,1.4c0.3,0.5,0.5,1.3,0.5,2.1l0.2,0.5v0.7l-0.2,0.7l-0.5,0.9
					l-0.2,1.1l-0.2,0.5c-0.1,0.2-0.2,0.2-0.3,0.4l-0.3,0.5v0.5l-0.6,0.6v0.1l-0.3,0.6l-1.2,2.1l-0.3,0.5l-0.8,1.2l-0.3,0.4l-0.7,1.3
					c-1.5,2.5-3.5,5.3-5.7,8.1l-0.5,0.5l-0.1,0.1c-0.1,0.1-0.3,0.5-0.4,0.6l-1,1.4l-0.7,0.8l-2.5,3.5l-0.6,0.7l-2.3,3.2l-1.8,1.9
					l-0.6,0.8l-1.5,2.1l-0.5,0.5l-1.5,2l-1,1l-0.9,1.2l-0.7,1.1l-1.3,1.6l-0.1,0.3l0.7-0.5l0.7-0.7l1.5-1.1c0.1-0.1,0.1-0.3,0.3-0.3
					l1-1h0.1c0.1-0.1,0.3-0.4,0.5-0.5c0-0.2,0.1-0.5,0.7-0.6l3.7-3.7l1.6-1.7l1.3-1.1l1.9-1.4l0.8-0.7l0.7-0.7l0.3-0.3l1.5-1.2
					l1.9-1.5l1-0.9l0.4-0.2c0.3-0.3,0.3-0.2,0.5-0.4l1.3-1.1l0.6-0.3l0.4-0.3l1.7-1.3l0.7-0.5l0.9-0.7l0.5-0.3
					c0.1-0.1,0.3-0.3,0.3-0.4l1.1-0.7l0.5-0.5l0.1-0.1l1.4-0.8l1.3-0.7l0.3-0.3l0.4-0.3l1.7-0.9l2.1-1.1l0.9-0.5l0.9-0.5l0.5-0.3
					l0.2-0.1l1.2-0.4l0.3-0.1c1.3-0.5,2.5-0.7,3.7-0.4c0.7,0.2,1.1,0.4,1.3,1.1v0.2l0.1,0.1c0.2,0.4,0.3,0.9,0.3,1.2v0.8l-0.1,0.5
					l-0.7,1.4l-0.5,1.1l-0.6,0.9l-0.1,0.3l-1.1,1.7l-0.1,0.1l-0.1,0.5l-0.5,0.8c-0.1,0.3-0.4,0.5-0.5,0.8l-0.5,0.7l-0.3,0.1
					c0,0.1-0.1,0.1-0.1,0.1l-0.3,0.4l-0.4,0.5l-0.3,0.3c0,0.2-0.1,0.6-0.6,0.7l-0.5,0.5c0,0.1-0.1,0.3-0.1,0.3l-0.5,0.6l-0.3,0.5
					l-0.9,1l-0.8,1l-2.9,4l-1.1,1.7l-0.3,0.3l-0.3,0.4c-0.2,0.3-0.4,0.7-0.6,0.9l-0.3,0.2l-1.1,1.4l-0.1,0.1
					c-0.1,0.1-0.1,0.6-0.1,0.7l-0.8,1.4l-0.3,0.4l-0.9,1.8c-0.1,0.4-0.3,0.7-0.5,1.1l-0.9,1.8l-1.8,2.5l-0.3,0.8l-0.7,1.1l-0.4,0.9
					c-0.1,0.2-0.1,0.4-0.2,0.7l0.1-0.1l0.7-0.5l0.6-0.5l1-0.7l0.9-0.7l0.1-0.2l0.5-0.4l0.4-0.4l1-0.8l2.7-2.1l0.4-0.4l1-0.7l0.5-0.5
					l1-0.7l0.4-0.1l1-0.9c0-0.1,0.1-0.2,0.1-0.2l0.7-0.4l0.9-0.6l0.2-0.2l0.6-0.5l0.3-0.3l1.1-1v-0.1l0.7-0.4l3.7-3.3l0.3-0.5
					l0.2-0.2c0.1-0.2,0.2-0.7,1-0.9l0.5-0.3h0.1l0.8-0.7l0.8-0.7l3.4-2.8l0.5-0.6l0.6-0.3l1.5-1.4l0.7-0.5l4.2-3.5l1.1-0.9l0.9-0.5
					l2.1-1.8l1.9-1.9l1.2-0.8l1.6-1l1.2-1.1l0.5-0.5l2.5-1.9l0.4-0.3l0.3-0.2l1-0.9l0.4-0.3c1.5-1,1.5-1,3.6-2.9l0.5-0.3l1.2-1.1
					l1.3-1.1l0.8-0.4l0.3-0.3l0.3-0.3l0.4-0.3l0.9-0.5l1.7-1.1l0.8-0.7l0.2-0.1l0.7-0.5l0.9-0.6l0.5-0.2l1.1-0.3l0.9-0.1
					c1.1-0.3,2.8-0.6,4.1,0.5l0.9,1.5c0.1,0.3,0.8,2.3,0.7,3c-0.1,1.2-0.3,1.5-0.4,1.9l-0.3,1l-0.7,1.7l-0.1,0.3l-0.3,0.8
					c-0.1,0.4-0.3,0.9-0.3,1.3l-0.5,1.5l-0.1,0.7l-0.8,1.9l-1.2,2.5l-0.4,0.7l-1,2.2l-0.6,0.9l-0.3,0.6l-1.3,2.5l-0.4,0.8
					c-0.3,0.5-0.7,1.3-0.9,1.9c-0.7,1.5-1.3,2.4-1.9,3.5c-0.3,0.6-0.7,1.3-1.2,2.2l-2,3.8l-0.2,0.3l-0.5,0.9l-0.7,1.1
					c-0.1,0.3-0.5,0.9-0.7,1.2l-0.7,1.5l-0.3,0.3l-0.3,0.6l-0.3,0.8l-0.6,1.1l-0.5,0.6l-0.3,0.5l-1,1.5c0,0.1-0.1,0.3-0.1,0.4
					l-0.7,1.2l-0.2,0.4l-1.2,1.9c0,0.1-0.1,0.4-0.1,0.5l-2.7,4.3c0,0.1-0.1,0.3-0.1,0.3l-0.5,1.1l-0.8,1.2l-0.3,0.4l-1,1.6l-0.4,0.3
					l-0.5,0.7l-0.8,1.3l-0.4,0.5c-0.1,0.1-0.1,0.3-0.1,0.4l-1.3,2l-0.5,0.7l-1,2l-0.7,1l-0.2,0.4l-0.2,0.3c-1.1,1.9-1.4,2.7-2.1,4.2
					l-0.7,1.5l-0.9,1.9l-0.1,0.5l-0.3,0.8l-0.2,0.5l-0.8,1.7c-0.2,0.6-0.5,1.2-0.7,1.8l-0.4,0.9l-0.5,1.5c-0.1,0.1-0.3,0.4-0.3,0.5
					c-0.7,1.6-1.3,3.4-1.6,5.2v0.9l0.1,0.6l0.1,0.2l0.1,0.3c0.1,0.3,0.2,0.4,0.4,0.5c0.1-0.1,0.3-0.1,0.5-0.1
					c0.2-0.1,0.6-0.1,0.9-0.1c0.5,0,0.8,0.2,1.1,0.4c0.5,0.3,0.6,0.8,0.3,1.3c-0.3,0.6-0.8,1.1-1.3,1.5c-0.7,0.5-1.6,0.8-2.4,0.8
					c-0.9,0-1.7-0.4-2.2-1.1c-0.3-0.6-0.7-1.5-0.7-2.5c0.1-1.8,0.3-3.6,0.7-5.3c0.8-2.9,2.1-6.2,3.5-9l0.7-1.4
					c0.9-2.3,2.1-4.5,3.1-6.4l0.4-0.8l0.5-0.9l1.3-2.6l1.8-2.7c0.7-1.3,1.4-2.6,2.1-3.8c0.1-0.2,0.1-0.3,0.1-0.4l0.7-0.8l1.9-3.3
					l0.2-0.3c0-0.1,0.1-0.3,0.5-0.9l1.7-2.8l0.1-0.3l0.6-0.9l1.4-2.4l1.1-1.9c0.1-0.3,0.3-0.7,0.4-0.9l3.5-5.6l0.9-1.4l0.2-0.5
					l0.6-0.7l1.3-2.3l1.5-2.5l1.2-2.7l0.5-0.7l1.1-2.1c0.3-0.7,0.5-1.5,0.9-1.9l0.8-1.9l0.4-0.9l0.3-1.3l1-1.7l1.2-2.9l1.1-2.7
					l0.5-0.9l0.7-1.9l0.7-1.4l0.5-1.6l0.5-1.3c0.3-1,0.5-2.3,0.3-3.1l-0.2-0.6l-0.4-0.4h-0.5l-1.1,0.1l-0.8,0.4l-0.1,0.1l-0.9,0.5
					l-2.7,1.7l-0.9,0.6l-0.7,0.5l-1.3,0.7l-0.8,0.6l-4,2.7l-0.9,0.5l-0.2,0.2l-0.7,0.4l-2.9,2.2l-1.1,0.9l-1.3,1l-0.2,0.1
					c-0.3,0.3-0.7,0.7-1.1,0.9l-1.7,1.3l-0.3,0.3l-0.5,0.6l-0.7,0.5c-0.3,0.3-0.9,0.6-1.1,0.9l-0.7,0.7l-3.3,2.8l-1.3,1.1l-0.5,0.5
					l-0.5,0.3c-1,0.9-2.1,2-3.1,2.9l-1,0.7l-0.6,0.6l-0.7,0.7l-0.7,0.7l-0.2,0.1l-0.3,0.3l-0.5,0.3l-0.2,0.2l-1.5,1.3l-0.4,0.3
					l-0.4,0.7l-1.1,0.6l-0.1,0.2l-5.8,5.2c-0.1,0.1,0,0.1-1.2,1l-0.1,0.2l-1.7,1.5l-1.8,1.7l-0.4,0.3l-0.8,1l-0.8,0.3l-1.1,1
					c-0.3,0.3-0.8,0.6-1.3,0.9l-0.5,0.4l-1.1,1l-0.8,0.7l-0.7,0.4c-0.1,0.1-0.3,0.1-0.3,0.1l-2.3,2.3l-1.5,1.3l-0.6,0.7l-1.3,1.4
					l-1.1,1.3l-1.3,1.5l-0.5,0.3c-0.5,0.3-1.1,0.5-1.6,0.5c-1.6,0-2.3-0.5-2.3-2.1l0.1-0.9l0.1-0.4l0.3-0.7l0.5-0.9l0.4-0.9l1.3-2.4
					c0.3-0.7,0.8-1.4,1.3-2.1l0.5-0.9l0.9-1.5c0.1-0.2,0.3-0.5,0.5-1.1l1.3-2.1c0.3-0.7,0.8-1.3,1.1-2l0.4-0.5l0.2-0.5l1.3-1.9
					l0.7-1.1c0.1-0.2,0.4-0.5,0.5-0.7l0.3-0.3l1.3-2l0.9-1.5l0.5-0.5l0.9-1.3v-0.1c0.1-0.1,0.3-0.3,0.3-0.5l0.3-0.6
					c0-0.1,0.2-0.3,0.5-0.7l0.5-0.6l0.3-0.3l2.3-3.3l0.1-0.1l0.3-0.3l1.9-2.7l0.5-0.7l0.3-0.3c0-0.1,0.1-0.3,0.1-0.3l0.5-0.7
					l0.6-0.8l0.2-0.5l1.2-2l0.4-0.8c0-0.1,0.1-0.3,0.3-0.9v-0.6l0.1-0.6c-0.1-0.1-0.3-0.1-0.7-0.1c-1.1,0.3-2.1,0.6-3.1,1.1
					l-0.2,0.1l-2.9,1.6l-1.1,0.7l-0.6,0.5l-0.3,0.1l-0.7,0.3l-0.7,0.5l-2.4,1.5l-0.3,0.2l-0.2,0.1l-1.2,0.8l-0.8,0.5
					c-1.5,0.9-2.9,1.7-3.9,2.5c-0.5,0.3-0.9,0.7-1.3,1l-0.5,0.6l-0.5,0.3l-0.4,0.3l-0.6,0.4l-0.5,0.4l-2.4,2.1l-0.8,0.9l-0.9,0.9
					l-1.4,1.1l-0.8,0.7h0.1l-1.3,1.1l-4.1,4.2l-2.7,2.8l-0.5,0.5c-0.2,0.3-0.5,0.7-0.8,0.9l-0.8,0.8l-1.3,1.3l-0.3,0.5l-0.9,0.7
					c-0.1,0.1-0.3,0.3-0.3,0.3l-0.7,0.8l-2.2,2.3l-1.4,1.7c-0.3,0.3-0.5,0.9-0.8,1.1l-0.3,0.3l-0.4,0.3l-0.3,0.5l-2.1,2.6l-0.6,0.7
					c-1.1,1.2-2.3,2.1-3.6,1.9c-0.5-0.1-1.1-0.6-1.2-1.5c0-0.4,0-0.9,0.3-1.6l1-1.9l0.9-1.3l3-4.3l0.4-0.5l2.6-3.5l0.5-0.6l1.1-1.3
					l2.9-3.8l0.5-0.7l0.4-0.4l1.7-2.1c0.1-0.1,0.1-0.3,0.1-0.3l3.9-4.7L945.5,1232.5z"/>
				<path class="st2" d="M1045.1,1242.7c-0.1,0.3-0.1,0.5-0.6,1.7c-0.1,0.2-0.2,0.7-0.3,0.9l-0.7,0.9l-0.7,0.5l-0.6,0.6l-0.6,0.7
					l-0.7,0.5c-1.1,1.1-2.6,2-4.2,2.9l-0.1,0.1l-0.9,0.6l-0.4,0.1l-0.2,0.1l-0.6,0.4l-0.5,0.5l-0.4,0.1c-0.1,0.1-0.3,0.3-0.3,0.3
					l-0.6,0.3l-0.2,0.1l-0.7,0.2l-0.5,0.1l-0.3,0.1c-0.1,0.1-0.2,0.2-0.3,0.2l-0.2,0.1c-1.2,0.5-1.9,0.8-2.6,0.9l-0.2,0.2l-0.4,0.1
					l-0.9,0.1h-0.5l-1.3-0.1c-0.6,0-1.1-0.1-1.5-0.1c-0.3-0.1-0.7-0.1-1.5-0.5l-0.1-0.1c-0.7-0.3-1.5-1.1-1.7-1.5l-0.2-0.5l-0.1-0.6
					l0.3-1.3l0.5-0.8l0.6-0.9l2.4-2.4l0.8-0.7l0.7-0.5l0.3-0.3l1.5-1.1l0.1-0.1c0.1-0.1,0.3-0.3,0.4-0.3l0.7-0.6l0.3-0.3l1.6-1.2
					l0.5-0.5h0.2l0.7-0.5l0.7-0.5l0.9-0.5l1.3-0.9l0.3-0.2l0.3-0.2h-1c-0.1,0-0.3,0.1-0.5,0.1c-0.5,0.1-1.1,0.1-1.7,0.1l-1.7,0.1
					l-0.8-0.2l-0.5-0.3l-0.5-0.7l0.1-0.8l0.7-1.1l0.9-0.3l0.8-0.1l0.9-0.1l0.5,0.2l1.1,0.2c0.9,0,1.7,0.1,2.7,0.2h1l1,0.1l1.3-0.2
					l0.3,0.1l0.9-0.1c0.1-0.1,0.4-0.1,0.5-0.2l0.8-0.5l0.5-0.3h0.1l0.5-0.3l0.6-0.1l0.5-0.1c0.4-0.1,1.1-0.1,1.5-0.1h0.4l0.3,0.1
					c0.3,0.1,0.6,0.3,0.8,0.4l1.6-0.3l0.8-0.2l1-0.1l1.1-0.3l0.5-0.1l0.7-0.1h1.3l0.5-0.1l0.9,0.1c0.2,0,0.5,0,0.7-0.1h0.7
					c0.2,0,0.4-0.1,0.6-0.1l0.4-0.1l0.3,0.1h0.4l0.4-0.1h0.5l0.7,0.1l0.7-0.1l0.5,0.1h0.2l0.5,0.1l0.3,0.1c0.5,0.1,1.2,0.3,2.1,0.5
					l0.1,0.1h0.3l0.6,0.3h-0.1c0.6,0.1,0.6,0.3,0.7,0.4s0.2,0.1,0.3,0.1l0.9,0.9l0.3,0.5l0.1,0.8l-0.1,0.7l-0.3,0.7l-0.6,0.9
					c-0.3,0.5-0.4,0.6-0.6,0.8l-0.4,0.4l-0.8,0.2l-0.4-0.1l-0.1-0.8l0.1-0.3l0.1-0.5l0.3-0.5l0.5-0.8l0.3-0.9v-0.2l-0.5-0.3
					l-0.5-0.3l-1-0.3c-1.5-0.3-3.3-0.3-4.3-0.3h-1l-0.8,0.1c-0.3,0-0.6,0.1-0.9,0.1c-0.2,0.1-0.5,0.1-0.8,0.1
					c-2.9,0.2-5,0.5-7.1,0.8l-0.5,0.1l-0.3,0.2l-1.3-0.1l-1.3,0.2l-1.9,0.3l-0.5,0.2l0.3,0.3l0.1,0.1l0.5,0.3l1.1,1.1l0.3,0.6
					l0.3,0.8l-0.1,1.3L1045.1,1242.7L1045.1,1242.7z M1040.9,1244.8c0.5-0.7,0.8-1.2,1.1-1.7v-0.4l0.3-0.7c0-0.2,0.1-0.3,0.1-0.6
					c-0.1-0.1-0.3-0.6-0.3-0.7l-0.1-0.1l-0.5-0.3l-0.5-0.3l-0.4-0.1l-0.4-0.1l-0.8-0.5c0,0-0.1,0-0.2-0.1l-0.5,0.3
					c-0.7,0.5-1.7,1.2-3.9,2.3l-1.9,1.1l-0.8,0.5l-0.3,0.2c-0.5,0.3-0.9,0.7-1.4,0.9l-0.4,0.3l-0.9,0.6l-0.7,0.7l-0.7,0.5l-0.5,0.4
					l-0.9,0.7c-0.1,0.1-0.5,0.5-0.6,0.7l-0.6,0.8l-0.5,0.6c-0.3,0.5-0.7,1-0.9,1.5c-0.1,0.1-0.1,0.2-0.1,0.2l-0.1,0.3l-0.1,0.5
					l-0.1,0.2v0.4l0.4,0.4l0.3,0.2h0.1c2.1,0.1,2.5-0.1,4.7-0.8c1.1-0.3,2.1-0.7,2.9-1.1l0.1-0.1l1.2-0.6l1.3-1h0.5l1.9-1.3l0.3-0.3
					c0.5-0.4,1.1-0.9,1.6-1.4l0.2-0.3l0.7-0.6l0.6-0.6c0-0.1,0.1-0.2,0.1-0.2l0.5-0.5L1040.9,1244.8z"/>
				<path class="st2" d="M1088.6,1257l-0.9,0.6l-1.1,0.6l-1,0.5l-1,0.5l-0.5,0.1l-1.5,0.7l-0.7,0.1c-0.1,0-0.1,0.1-0.3,0.1l-0.5,0.1
					l-0.6-0.1l-0.7-0.1l-0.5-0.4l-0.6-0.6l-0.5-0.7l-0.6-1.2l-0.1-0.5v-2c-0.1-0.6,0-0.9,0.1-1.5c0-0.1,0.1-0.3,0.1-0.6v-0.3
					l0.3-2.1l0.4-1.1c0-0.1,0.1-0.3,0.1-0.4l0.4-1.5c0-0.1,0.1-0.2,0.1-0.3l0.3-0.4l0.7-1.6l0.1-0.3l0.1-0.5l0.5-1.2
					c0,0,0.1-0.2,0.1-0.3l0.2-0.6c0-0.1,0.1-0.3,0.1-0.3l0.2-0.5l-0.2-0.7l-0.1-0.2l-0.3-0.7l-0.1-0.1l-0.8,0.9l-1.1,1.3l-1.5,1.2
					l-1.1,0.9l-3,3l-0.1,0.1l-0.5,0.5l-0.4,0.3l-0.7,0.7l-0.5,0.4l-0.7,0.8l-0.5,0.7l-0.9,0.6c-0.2,0.3-0.6,0.5-0.7,0.7l-0.9,0.7
					l-0.7,0.4c-0.1,0.1-0.4,0.3-0.4,0.3l-0.7,0.5l-0.4,0.3l-1.8,1.1l-0.5,0.3l-0.5,0.3c-1.9,1.1-4,2-5.9,2c-0.4,0-1.2-0.4-1.6-0.5
					c-0.2-0.1-0.4-0.2-0.6-0.4c-0.1-0.1-0.3-0.2-0.8-1.5l-0.1-1.2l0.1-1.1l0.3-0.7c0.1-0.2,0.3-0.5,0.3-0.8l0.5-1l0.7-1.2l0.2-0.3
					l0.3-0.5l0.7-1l0.5-0.6l0.7-0.8v-0.1l0.5-0.5l2.7-2.5l0.9-0.7l1.7-1.6l0.3-0.2l0.8-0.7l0.3-0.1l0.9-0.6l0.4-0.4l0.7-0.4l0.4-0.3
					l0.5-0.3l1.1-0.7l1.1-0.6l0.5-0.3l0.5-0.1l1-0.4l0.8-0.5l0.8-0.4l0.2-0.1l0.7-0.3c0.2-0.1,0.3-0.1,0.6-0.1c0.1,0,0.1,0,0.5-0.2
					c0.7-0.3,2.1-0.1,3.1,0.1c0.1,0,0.3,0.1,0.5,0.1l0.6,0.3l0.5,0.3c0.2,0.1,0.6,0.4,0.7,0.7l0.1,0.1l0.3-0.3l1.6-1.5l0.7-0.7
					l1.6-1.5l0.5-0.7l1.4-1.5l0.8-0.9l1.7-1.9l1.8-2.1l1.2-1.4c0.3-0.3,0.5-0.8,0.8-1l0.5-0.7l0.3-0.3l0.2-0.5l2.1-2.5l1.4-1.7
					l0.4-0.4l1.3-1.7l0.2-0.3l1.4-1.9l0.4-0.5l1.1-1.5l0.4-0.5l0.2-0.3l1.2-1.5l0.4-0.6l1.2-1.4l1.7-2.2l0.7-0.9l0.3-0.5l0.5-0.7
					l0.8-0.8l1.2-1.3c0.9-0.5,1.4-0.5,2-0.5s1.1,0.1,1.5,1.1c0.2,0.7-0.2,1.4-0.6,2.1l-1,1.2l-0.9,1.1l-2,1.8
					c-0.1,0.1-0.3,0.4-0.4,0.5l-1,0.9l-0.5,0.5l-0.7,0.9l-1.4,1.5l-0.7,1l-0.1,0.1l-0.3,0.4l-0.5,0.4l-1.7,2.3
					c-0.3,0.5-0.9,1.3-1.1,1.7l-0.7,0.9l-0.7,1.4l-0.3,0.3l-0.3,0.5l-1.4,2.4l-0.3,0.3l-1.7,2.3l-0.5,0.7l-0.5,0.7l-1.9,2.5
					l-0.3,0.3l-1.3,1.8c-1.6,2.2-2.9,4.2-3.6,5.4c-0.1,0.1-0.3,0.3-0.5,0.7l-0.5,0.8c-0.9,1.5-1.7,2.5-2.5,4.2
					c0,0.1-0.1,0.2-0.1,0.3v0.4l-0.1,0.7v0.5l-0.2,0.5l-0.3,0.9l-0.4,0.8l-0.9,0.3h-0.1l-0.5,1.4l-0.3,0.8c-0.1,0.1-0.1,0.6-0.1,0.7
					l-0.4,1l-0.2,1.3l-0.3,1.3l-0.3,1.8c-0.1,1.7,0.3,2.5,0.9,2.9l0.5,0.2c0.2,0.1,0.3,0.1,0.5,0.1l0.5-0.2l1.1-0.3
					c0.3-0.1,0.6-0.3,0.7-0.4l0.5-0.1h0.9c1.1-0.5,2.6-1.4,3.9-2.2l1-0.7l0.4-0.2l0.3-0.3l0.7-0.5l0.5-0.3l0.6-0.3
					c0.5-0.5,1.3-1,1.8-1.5l0.9-0.4l0.9-0.7l0.5-0.5l1-0.7l0.2-0.1l0.3-0.2l0.6-0.5l0.5-0.3l1.6-1.2l0.7-0.4l1.8-1.5l0.9-0.6
					l0.5-0.5c0.5-0.5,1.2-0.7,1.6-0.3c0.3,0.3,0.9,1.1-0.1,1.6l-0.3,0.2c-0.5,0.4-1.1,0.8-1.5,1.2l-3.1,2.5l-0.4,0.5l-0.2,0.1
					l-0.3,0.3l-0.2,0.1c-1.1,0.9-2.3,1.7-3.3,2.5l-1.1,0.7l-0.4,0.3l-0.5,0.5l-0.3,0.1c-1.2,0.9-2.6,1.7-3.8,2.5l-0.3,0.3l-1.1,0.7
					h-0.1l-0.3,0.3L1088.6,1257z M1060.1,1246.4l-0.7,0.6l-0.6,0.7l-0.7,1.1c-0.1,0.1-0.3,0.4-0.3,0.5l-0.6,1.3
					c-0.1,0.5-0.3,1.1-0.5,1.7c-0.1,0.1-0.1,0.5-0.1,0.7l-0.1,0.9l0.2,0.7h0.4l0.3-0.1l0.3-0.1l0.7-0.4l0.8-0.5l0.3-0.2l0.9-0.5
					l0.8-0.4l0.2-0.2c1-0.7,1.9-1.3,2.7-1.9l0.9-0.6l0.5-0.3l0.4-0.3l0.3-0.5l1.1-0.9l0.5-0.4l0.8-0.7l0.7-0.6l1.6-1.4
					c1.3-1,2.4-2,3.5-3.1l1.5-1.5l1.1-1.1l0.9-0.8l0.5-0.7l0.2-0.3l-0.2-0.5l-0.5-0.5l-0.4-0.1c-0.4-0.1-0.9-0.1-1.4-0.1
					c-1.1,0.1-2.3,0.5-3.3,1l-1.2,0.7l-0.8,0.3l-0.8,0.3l-0.9,0.5c-1.1,0.6-2.3,1.2-4.8,3.3c-0.2,0.1-0.6,0.5-0.8,0.8
					c-0.2,0.3-0.4,0.7-0.6,0.9l-1.8,1.8l-0.5,0.6l-0.3,0.3L1060.1,1246.4z M1082,1237.6l0.5,1l0.1-0.1c0.1-0.1,0.3-0.6,0.5-0.8
					c0.1-0.1,0.1-0.2,0.1-0.3l0.3-0.4l0.8-1.3l0.3-0.5l0.9-1.5v-0.1c-0.3,0.4-0.7,0.9-1,1.3l-0.5,0.4L1082,1237.6z"/>
				<path class="st2" d="M1116.7,1251.8l-0.8,0.6l-0.9,0.4l-0.5,0.1l-0.5,0.3l-0.2,0.1c-0.3,0.1-0.6,0.3-0.9,0.3l-0.7,0.4l-0.3,0.1
					l-1.3,0.6l-0.3,0.2l-1.1,0.7l-0.5,0.2c-0.1,0.1-0.3,0.2-0.4,0.2l-0.9,0.5l-0.5,0.2l-0.5,0.1l-1.1,0.2l-0.9,0.5l-0.9,0.1
					l-0.9-0.1l-0.8,0.2l-1.8-0.3c-0.7-0.2-1.2-0.6-1.7-1.3l-0.3-0.4l0.1-0.5c-0.1-0.5,0-1.3,0.2-1.9v-0.4l0.5-1.3l0.5-1.3
					c0-0.1,0.1-0.3,0.1-0.4l0.5-0.9l0.5-0.5c0-0.1,0.1-0.2,0.1-0.2l0.6-0.5l0.3-0.5c0.1-0.3,0.4-0.5,0.5-0.8l0.2-0.5l0.3-0.5
					l0.2-0.2c0.2-0.3,0.4-0.7,0.6-0.9l0.6-0.9l0.2-0.3l0.8-0.9l1.1-1.5l0.3-0.8l0.9-1.1l0.3-0.5l0.3-0.5l0.3-0.3l0.9-1.3l0.7-0.9
					l0.7-0.7c0.4-0.4,1.4-0.9,2.4-0.9c0.5,0.1,1,0.2,1.5,0.9v0.5l-0.1,0.9l-0.6,0.7l-0.8,0.9l-0.9,0.7l-1,0.9l-0.2,0.5l-1.3,1.3
					l-0.7,0.9l-0.5,0.7l-0.5,0.5c-0.1,0.2-0.1,0.3-0.1,0.4l-0.7,0.4c0,0.1-0.1,0.3-0.2,0.4l-1,1.1l-0.9,1.1l-0.5,0.7l-0.3,0.5
					l-0.7,1.3l-0.3,0.3c-0.3,0.3-0.3,0.3-0.3,0.5l-0.4,1.1l-0.1,0.3l-0.6,1.3l-0.3,1.3v0.3l-0.1,0.8v0.2h0.5l0.5,0.1l0.3-0.1
					l0.4-0.1l0.4,0.1h0.3c0.5-0.1,0.9-0.3,1.4-0.3l0.6-0.2l0.6-0.1c0.1-0.1,0.2-0.1,0.2-0.1l1.1-0.6l0.3-0.2l1.6-0.4l1.1-0.4
					l0.5-0.1l2.2-1.1l0.5-0.3l1.1-0.6l0.9-0.5l0.5-0.3l0.4-0.1l0.4-0.3l0.9-0.5l0.5-0.3l0.6-0.4l0.3-0.3l1.1-0.5l0.3-0.3l1.6-0.8
					l0.6-0.3l0.1-0.1l0.5-0.3h0.1l0.3-0.3l0.5-0.2l0.3-0.3l0.7-0.4l0.5-0.3l0.3-0.1l0.4-0.2c0.5-0.3,0.9-0.6,1.5-0.9l0.4-0.3
					l0.7,0.1l0.5,0.5l0.1,0.6l-0.7,0.8l-0.4,0.1l-0.4,0.3l-1.1,0.5l-2.1,1.3l-0.6,0.4l-0.9,0.7l-0.5,0.1l-0.3,0.1
					c-1.2,0.8-2.4,1.7-3.5,2.3l-0.4,0.4l-0.3,0.1l-0.7,0.3l-0.3,0.2L1116.7,1251.8z M1123.2,1218.8c0.1,0.4,0.1,0.8,0,1.5
					c-0.3,0.7-0.9,1.5-2.4,2.3l-0.8,0.6l-0.3,0.2c-0.3,0.3-0.9,0.6-1.1,0.9l-1.2,1.1l-1.1,0.9l-0.5,0.3c-0.3,0.2-0.8,0.2-1.3,0.2
					l-0.1-0.9l0.1-0.3l0.9-2.2l0.3-0.5l0.9-1.4l0.5-0.7l0.3-0.3l0.6-0.7l0.5-0.3l0.4-0.3l1-1l0.8-0.4l0.5-0.1
					C1122.3,1217.8,1122.8,1218.3,1123.2,1218.8L1123.2,1218.8z"/>
			</g>
		</g>
	</g>
</g>
<g>
	<path class="st2" d="M445.2,1522h4.8v-41.7h-4.8v-4.5h14.5v4.5h-4.8v41.7h4.8v4.5h-14.5V1522z"/>
	<path class="st2" d="M511.2,1504.1h2v-0.4c0-7.6-2.7-10.2-9.4-10.2c-1.8,0-7.1,0.5-7.1,3.2v2.3H492v-3.5c0-5,8.6-6.1,11.8-6.1
		c11.4,0,14.2,6.1,14.2,13.9v17.4c0,1.1,0.6,1.6,1.6,1.6h3v4.2h-5c-3.1,0-4.3-1.4-4.3-4.3c0-1.6,0.1-2.7,0.1-2.7h-0.1
		c0.1,0-3,7.8-12,7.8c-6,0-12.3-3.5-12.3-10.7C489,1504.5,504.9,1504.1,511.2,1504.1z M502.1,1523.1c6.9,0,11.1-7.2,11.1-13.5v-1.7
		h-2.1c-5.7,0-17.1,0.1-17.1,8.3C494.1,1519.7,496.7,1523.1,502.1,1523.1z"/>
	<path class="st2" d="M532.3,1496c0-1-0.6-1.6-1.6-1.6h-3v-4.2h5c3,0,4.4,1.3,4.4,4v1.7c0,1.4-0.1,2.6-0.1,2.6h0.1
		c1.8-4.9,7.5-9.1,13.1-9.1c6.7,0,10.2,3.1,11.2,9.1h0.1c1.9-4.9,7.2-9.1,13.3-9.1c8.8,0,12,5.1,12,14v17.2c0,1.1,0.6,1.6,1.6,1.6h3
		v4.2h-5.1c-3.1,0-4.4-1.3-4.4-4.4v-17.4c0-5.9-1.2-10.8-7.8-10.8c-5.5,0-10,4.9-11.4,10.2c-0.5,1.6-0.6,3.3-0.6,5.3v17.1h-4.9
		v-21.8c0-5.5-0.8-10.8-7.6-10.8c-5.9,0-10.3,5.1-11.8,10.7c-0.4,1.5-0.6,3.2-0.6,4.8v17.1h-4.9V1496z"/>
	<path class="st2" d="M641.3,1504.1h2v-0.4c0-7.6-2.7-10.2-9.4-10.2c-1.8,0-7.1,0.5-7.1,3.2v2.3h-4.7v-3.5c0-5,8.6-6.1,11.8-6.1
		c11.4,0,14.2,6.1,14.2,13.9v17.4c0,1.1,0.6,1.6,1.6,1.6h3v4.2h-5c-3.1,0-4.3-1.4-4.3-4.3c0-1.6,0.1-2.7,0.1-2.7h-0.1
		c0.1,0-3,7.8-12,7.8c-6,0-12.3-3.5-12.3-10.7C619.1,1504.5,635,1504.1,641.3,1504.1z M632.2,1523.1c6.9,0,11.1-7.2,11.1-13.5v-1.7
		h-2.1c-5.7,0-17.1,0.1-17.1,8.3C624.2,1519.7,626.8,1523.1,632.2,1523.1z"/>
	<path class="st2" d="M685.2,1480.3h-4.7v-4.5h26.9c3.1,0,4.3,1.3,4.3,4.4v5H707v-3.4c0-1.1-0.6-1.6-1.6-1.6h-15.3v19h18.4v4.5
		h-18.4v22.7h-5L685.2,1480.3L685.2,1480.3z"/>
	<path class="st2" d="M721.4,1496c0-1-0.6-1.6-1.6-1.6h-3v-4.2h5.1c3.1,0,4.4,1.3,4.4,4.2v17.5c0,5.7,0.9,10.7,7.9,10.7
		c8.2,0,13.3-7.3,13.3-15.1v-17.4h4.9v30.4c0,1.1,0.6,1.6,1.6,1.6h3v4.2h-5c-3,0-4.4-1.3-4.4-4v-1.7c0-1.4,0.1-2.6,0.1-2.6h-0.1
		c-1.4,3.5-6.2,9.1-14.1,9.1c-8.6,0-12.2-4.6-12.2-14L721.4,1496L721.4,1496z"/>
	<path class="st2" d="M766.7,1481.6c0-1-0.6-1.6-1.6-1.6h-3v-4.2h5.1c3.1,0,4.4,1.3,4.4,4.4v40.4c0,1.1,0.6,1.6,1.6,1.6h3v4.2h-5.1
		c-3.1,0-4.4-1.3-4.4-4.4V1481.6z"/>
	<path class="st2" d="M786.1,1481.6c0-1-0.6-1.6-1.6-1.6h-3v-4.2h5.1c3.1,0,4.4,1.3,4.4,4.4v40.4c0,1.1,0.6,1.6,1.6,1.6h3v4.2h-5.1
		c-3.1,0-4.4-1.3-4.4-4.4V1481.6z"/>
	<path class="st2" d="M826.5,1516.4c0,0,5.1,6.2,13.1,6.2c5.5,0,10-3.6,10-9c0-12.5-25-10-25-25.7c0-7.1,6.1-13,15.5-13
		c4.9,0,13.7,2.1,13.7,8.7v3.6H849v-2.4c0-3-4.2-5.3-8.9-5.3c-6.6,0-10.4,3.8-10.4,8.1c0,11.7,25,8.9,25,25.6c0,7.6-5.8,14-15.3,14
		c-10.4,0-16.1-7.2-16.1-7.2L826.5,1516.4z"/>
	<path class="st2" d="M866.5,1494.3h-4.8v-4.1h4.8v-10h4.8v10h9.1v4.1h-9.1v18.4c0,8.5,5.4,9.6,8.1,9.6c1,0,1.7-0.1,1.7-0.1v4.4
		c0,0-0.9,0.1-2.1,0.1c-4.2,0-12.6-1.4-12.6-13.5L866.5,1494.3L866.5,1494.3z"/>
	<path class="st2" d="M910.3,1504.1h2v-0.4c0-7.6-2.7-10.2-9.4-10.2c-1.8,0-7.1,0.5-7.1,3.2v2.3h-4.7v-3.5c0-5,8.6-6.1,11.8-6.1
		c11.4,0,14.2,6.1,14.2,13.9v17.4c0,1.1,0.6,1.6,1.6,1.6h3v4.2h-5c-3.1,0-4.3-1.4-4.3-4.3c0-1.6,0.1-2.7,0.1-2.7h-0.1
		c0.1,0-3,7.8-12,7.8c-6,0-12.3-3.5-12.3-10.7C888.1,1504.5,904,1504.1,910.3,1504.1z M901.2,1523.1c6.9,0,11.1-7.2,11.1-13.5v-1.7
		h-2.1c-5.7,0-17.1,0.1-17.1,8.3C893.2,1519.7,895.8,1523.1,901.2,1523.1z"/>
	<path class="st2" d="M947.1,1489.3c4.1,0,12.9,1.7,12.9,7.7v3.2h-4.6v-2.1c0-3-5.3-4.5-8.3-4.5c-7.8,0-14,5.8-14,14.6
		c0,8.9,6.6,14.5,14.2,14.5c7.4,0,11.7-5.1,11.7-5.1l2.3,3.7c0,0-4.9,5.9-14.2,5.9c-10.8,0-19-7.7-19-18.9
		C928,1497.3,936.3,1489.3,947.1,1489.3z"/>
	<path class="st2" d="M970.8,1481.6c0-1-0.6-1.6-1.6-1.6h-3v-4.2h5.1c3.1,0,4.4,1.1,4.4,4.2v24.1h3.7c1.4,0,3.1-0.4,4.1-1.7
		l9.3-12.1h6l-10.4,13.2c-1.8,2.2-2.7,2.6-2.7,2.6v0.1c0,0,1.1,0.5,2.2,2.7l6.6,11.7c0.6,1.2,1.4,1.6,3.3,1.6h1.9v4.2h-3.4
		c-3.6,0-4.6-0.6-6.3-3.6l-7.2-13c-0.8-1.4-2.5-1.6-3.8-1.6h-3.3v18.1h-4.9L970.8,1481.6L970.8,1481.6z"/>
	<path class="st2" d="M1031.5,1480.3h-4.7v-4.5h20.3c15.3,0,25.4,9.3,25.4,25.3c0,16.1-10.2,25.3-25.4,25.3h-11.2
		c-3.1,0-4.4-1.3-4.4-4.4L1031.5,1480.3L1031.5,1480.3z M1038.1,1522h8.5c12.5,0,20.7-7.3,20.7-20.9c0-13.5-8.3-20.8-20.7-20.8
		h-10.1v40.1C1036.5,1521.5,1037.1,1522,1038.1,1522z"/>
	<path class="st2" d="M1098.1,1489.3c10,0,15.2,7.7,15.2,16.7c0,0.9-0.1,2.4-0.1,2.4h-27.8c0.1,9.1,6.6,14.4,14,14.4
		c6.6,0,10.9-4.5,10.9-4.5l2.4,3.7c0,0-5.3,5.2-13.5,5.2c-10.7,0-18.9-7.8-18.9-18.9C1080.3,1496.5,1088.4,1489.3,1098.1,1489.3z
		 M1108.3,1504.6c-0.3-7.5-4.9-11.2-10.2-11.2c-6,0-11.2,3.9-12.5,11.2H1108.3z"/>
	<path class="st2" d="M1123.6,1517.6c0,0,4,5.5,11.2,5.5c4,0,7.6-1.9,7.6-5.8c0-7.9-20.3-6.5-20.3-18.1c0-6.6,5.6-9.8,12.9-9.8
		c3.7,0,11,1.4,11,6.6v3.1h-4.6v-1.7c0-2.7-3.9-3.7-6.3-3.7c-5,0-8.1,1.7-8.1,5.3c0,8.1,20.3,6.3,20.3,18.3c0,6-5.5,10.2-12.7,10.2
		c-9.4,0-13.9-6.3-13.9-6.3L1123.6,1517.6z"/>
	<path class="st2" d="M1158.8,1496c0-1-0.6-1.6-1.6-1.6h-3v-4.2h5.1c3.1,0,4.4,1.3,4.4,4.4v26c0,1.1,0.6,1.6,1.6,1.6h3v4.2h-5.1
		c-3.1,0-4.4-1.3-4.4-4.4V1496z M1158.6,1475.8h4.8v6.2h-4.8V1475.8z"/>
	<path class="st2" d="M1190.7,1489.3c9.7,0,12,6.2,12,6.2h0.1c0,0,0-0.6,0-1.4c0-2.6,1.2-4,4.1-4h5v4.2h-3c-1,0-1.6,0.5-1.6,1.6
		v29.5c0,11.5-8.5,16-17.4,16c-4.1,0-8.3-1.1-11.8-2.9l1.9-4.1c0,0,4.5,2.5,9.8,2.5c7.1,0,12.7-3.3,12.7-11.4v-3.2
		c0-1.4,0.1-2.6,0.1-2.6h-0.1c-2.2,4-5.8,6.3-11.4,6.3c-9.7,0-16.1-7.7-16.1-18.6S1181,1489.3,1190.7,1489.3z M1202.7,1507.6
		c0-10.6-5-13.8-11.4-13.8c-7.1,0-11.2,5.1-11.2,13.8c0,8.6,4.7,14.3,11.8,14.3C1197.6,1521.8,1202.7,1518.3,1202.7,1507.6z"/>
	<path class="st2" d="M1221.8,1496c0-1-0.6-1.6-1.6-1.6h-3v-4.2h5c3,0,4.4,1.3,4.4,4v1.7c0,1.4-0.1,2.6-0.1,2.6h0.1
		c1.3-3.3,5.9-9.1,14.4-9.1c9,0,12.2,5.1,12.2,14v17.2c0,1.1,0.6,1.6,1.6,1.6h3v4.2h-5.1c-3.1,0-4.4-1.3-4.4-4.4v-17.4
		c0-5.7-0.9-10.7-7.8-10.7c-6.2,0-11.5,4.2-13.2,10.2c-0.4,1.5-0.6,3.2-0.6,4.9v17.4h-4.9V1496z"/>
	<path class="st2" d="M1281.8,1489.3c10,0,15.2,7.7,15.2,16.7c0,0.9-0.1,2.4-0.1,2.4h-27.8c0.1,9.1,6.6,14.4,14,14.4
		c6.6,0,10.9-4.5,10.9-4.5l2.4,3.7c0,0-5.3,5.2-13.5,5.2c-10.7,0-18.9-7.8-18.9-18.9C1264,1496.5,1272.1,1489.3,1281.8,1489.3z
		 M1292,1504.6c-0.3-7.5-4.9-11.2-10.2-11.2c-6,0-11.2,3.9-12.5,11.2H1292z"/>
	<path class="st2" d="M1308.6,1496c0-1-0.6-1.6-1.6-1.6h-3v-4.2h5c3,0,4.4,1.2,4.4,4.1v2.4c0,1.5-0.1,2.7-0.1,2.7h0.1
		c1.7-5.5,5.8-9.6,11.4-9.6c1,0,1.9,0.2,1.9,0.2v4.8c0,0-0.9-0.1-1.8-0.1c-5.1,0-8.9,4-10.5,9.4c-0.7,2.3-1,4.8-1,7.1v15.3h-4.9
		L1308.6,1496L1308.6,1496z"/>
</g>
</svg>
