<svg xmlns="http://www.w3.org/2000/svg" viewBox="0 0 262.5488 232.79675"><defs><style>.cls-1{fill-rule:evenodd;}.cls-2{fill:#fff;}</style></defs><title>graphics-design</title><g id="Layer_2" data-name="Layer 2"><g id="Layer_1-2" data-name="Layer 1"><path class="cls-1" d="M150.9688,69.0355q2.10285-2.5107,4.2107-5.0202c.2445.2405.4872.4762.7318.7166q-3.7968,5.78655-7.595,11.5716.2598.28485.5223.5729,3.0342-3.2838,6.0754-6.564a2.328,2.328,0,0,1,.6751-.4688c1.5238-.7716,3.5246-1.0798,4.502-2.373,3.6214-4.7822,9.8018-6.3029,13.9693-10.2577,2.8341-2.6898,6.6903-3.9254,9.3956-6.6626,1.4227-1.4373,2.6056-3.1391,4.2672-5.1816.0114,2.599.0188,4.5014.0286,6.993,1.375-.7918,2.2942-1.3198,3.2095-1.8505.0506.0547.0997.105.1518.159q-3.32505,3.42435-6.6518,6.8446c.0737.1047.1487.2114.2223.3163,1.6351-1.0722,3.2043-2.2346,4.9217-3.1912,1.6736-.9342,3.4972-1.6553,5.3816-2.535.2303-.6012.6212-1.6236,1.0136-2.647.8832,2.3809,1.5716,3.3778,3.1509,2.2107q10.21425-7.53465,20.4827-15.0081a55.33466,55.33466,0,0,1,4.6422-3.2339c.559-.3262,1.5357-.0752,2.4019-.0918a9.40636,9.40636,0,0,1,1.6337-2.197c4.8524-3.7639,9.8362-7.3646,14.6435-11.1788a35.48746,35.48746,0,0,0,4.3402-4.6383c1.1247-1.2775,2.5378-1.4342,4.9556.5315-2.5549.204-3.8854,1.3789-4.314,3.8563-.2491,1.4392-1.5585,2.3626-2.6108,3.2578-4.3858,3.7267-8.8069,7.4102-13.3089,10.9945-2.3652,1.8832-5.0521,3.3799-7.3531,5.3341-2.2,1.8644-3.9762,4.2306-6.1672,6.1085-1.1429.9801-3.0017,1.1286-4.1349,2.1158-2.389,2.0722-4.3431,4.6522-6.7706,6.6747-8.7749,7.312-17.6688,14.4835-26.5159,21.7071a5.08774,5.08774,0,0,0-1.1722,1.1407q32.27115-23.8266,64.548-47.6486.60465.67035,1.2155,1.348a20.1893,20.1893,0,0,1-2.7257,2.7881c-1.6567,1.1683-3.5843,1.9902-5.2571,3.1388q-6.2031,4.2543-12.2485,8.7018a12.74239,12.74239,0,0,0-2.0772,2.5665c.314.3158.625.6253.9378.9393q2.7129-2.669,5.4049-5.3343c.5465,1.1742.9445,2.0339,1.5416,3.319-.1935.0379-.8451.1355-1.4717.2785-.565.1279-1.6073.1424-1.5785.4817.4717,5.5216-3.978,6.828-5.8427,10.3268a5.56261,5.56261,0,0,0-1.1419,2.9755c1.5576-1.4416,3.1736-2.8166,4.6546-4.3372,3.0951-3.1823,6.001-6.5741,9.2395-9.5908,1.1268-1.0467,3.2909-.9048,4.4896-1.8927,3.0803-2.5386,5.8855-5.4059,9.3256-7.6168q-7.16295,8.392-14.3211,16.7802c.2597.2639.5225.5341.7838.7998.9418-.8364,1.9181-1.6379,2.8164-2.5229,1.356-1.3301,2.1845-3.399,5.3028-1.9863.6181.2781,1.2939-.5526,1.7203-1.4583q-1.03305-.0576-2.0629-.1113c2.3679-1.6444,2.8383-5.927,7.6856-4.3064.2089-.382.5575-1.0247.9132-1.6759.6511.6055,1.1547,1.0747,1.7729,1.6496-6.114,6.9583-12.3018,14.0031-18.4884,21.0467.1479.1564.2929.3117.4391.4664q11.0592-11.3496,22.1134-22.6951c.2393.2414.4758.4793.7153.7232q-6.2601,7.4037-12.5188,14.8118.3723.4002.7433.8016,4.42065-4.05945,8.8429-8.1142c.2183.2107.4362.4187.653.6275-4.3194,5.4218-10.2888,9.4251-10.3261,18.3241-.0203.9096.2688,2.0972-.1097,2.6838a69.0993,69.0993,0,0,1-16.3886,17.6957c-3.5064,2.6766-7.2413,5.0712-10.7271,7.7704-1.4665,1.1361-2.4346,2.8749-3.8533,4.0767-2.6194,2.212-5.4046,4.2287-8.1208,6.3273.184.252.3732.5056.5597.7583q7.32255-3.6201,14.645-7.243.4608.6009.919,1.2008-2.4123,1.5729-4.8258,3.1466c-5.1235,2.515-10.3593,4.8873-13.4651,9.9329,5.7529-1.7398,11.4435-3.5582,13.4499-9.9859.0747,1.2712.1494,2.5423.2526,4.2383q4.8465-2.5008,9.6581-4.9805l.7127.8282q-2.46,2.4783-4.9253,4.9549c.1149.1406.2296.2811.3418.4208q2.244-.9399,4.492-1.8798c.3096.4252.6136.8488.923,1.2742-4.8647,4.0849-10.5798,7.1216-15.5017,11.242q7.41135-3.41985,14.8253-6.8385c.1491.2021.2969.4026.4458.6021q-7.48125,5.78025-14.9615,11.5596c.2864.4462.5715.8933.8593,1.3412q3.9585-1.43535,7.9139-2.8745c.1994.1458.3985.2891.5993.4366-.2535.6486-.319,1.5226-.7972,1.9038-1.7299,1.3778-3.6153,2.5726-5.4098,3.8739-.9719.7039-2.8001.6346-1.9785,3.0282.0926.2753-.4964.6482-.8833.7881-5.3783,1.9357-8.8213,6.4628-14.0063,8.6989-2.005.8672-3.301,2.8445-4.5993,4.9002q3.2679-1.162,6.5367-2.328.0684.15.137.3-5.39925,4.17165-10.7972,8.3422c6.0623,1.4225,10.1663-1.1751,14.9903-2.2415.1893.2979.3812.5963.572.8987q-10.71255,4.6917-21.4249,9.3885l.0993.2761q3.87645-.60885,7.7551-1.217c.1772.3394.3518.6808.529,1.0201q-5.538,1.62855-11.0706,3.2614c.1167.2802.2335.5605.3473.8372q4.9629-.38625,9.9312-.7758c.1518.2912.3033.577.4563.8673-3.1187,1.0542-6.22,2.1392-9.3631,3.1563-2.1141.6869-4.4563,1.0235-6.3795,1.9831-1.7358.8679-2.9556,2.4777-4.5504,3.5718-4.676,3.2099-9.3135,6.4814-14.1769,9.442-5.353,3.2568-10.9057,6.2446-16.4291,9.2657-8.4869,4.643-17.6011,8.398-24.9809,14.5995-2.8634,2.4065-6.4118,4.0014-9.3599,6.4146q3.2265-1.22745,6.4589-2.4503c.1224.1523.2479.3083.3721.4652-1.6888,1.1167-3.3684,2.2497-5.0673,3.3537-4.6936,3.0411-9.2745,6.2396-14.1384,9.0477a87.24546,87.24546,0,0,1-10.5125,4.7588c-.447.1837-1.4831-.4564-2.2147-.8759a27.80993,27.80993,0,0,1-2.4698-1.8698c1.1558-.7635,2.2011-1.4537,3.7147-2.4585a44.28925,44.28925,0,0,1-5.9291.4474,4.20677,4.20677,0,0,1-3.6291-4.7873c-1.8111.0939-3.5268.1819-5.559.2846-.2016-1.1788-.3697-2.1544-.57-3.3168-2.0879-.2302-3.9969,1.0388-6.5593-1.4179-.2396-.2294-1.1088.257-1.6062.5236a10.05918,10.05918,0,0,1-9.3255.4873c-1.3595-.5579-2.7058-.3291-4.093-.6804a18.48917,18.48917,0,0,1-2.8701-1.3076,11.51011,11.51011,0,0,1,.3247-2.9234,18.9371,18.9371,0,0,1,1.9669-3.0719c-1.8361-.8836-3.2118-1.6229-4.5924-2.1967-4.0598-1.682-4.0604-1.6581-3.7606-5.4706-3.3974-.8884-3.8415-3.1708-3.6001-5.6566.1912-1.9733.4304-3.9223.6903-6.2751-2.1784.363-5.2702-5.4567-7.5193-1.5847-.4111.7087-3.2716-.6855-5.2215-1.1636.5974-1.9816,1.3565-3.6032,3.9382-3.3868.5517.0473.7492-1.1139,1.1105-1.7164-.7764-.4499-1.7519-1.3397-2.2834-1.2641a36.19514,36.19514,0,0,0-4.8816,1.2608c-.99-1.4814-1.7374-3.144-2.8909-4.1757a9.29733,9.29733,0,0,0-3.9085-1.8107c-3.2771-.8077-4.7444-2.8289-4.239-5.8919a21.94075,21.94075,0,0,0-.1214-3.8371c.4476.0278,1.1275.0727,1.7772.1148.3394-1.9587-1.8027-5.2694-3.7466-5.7256-2.3259-.5461-2.9179-1.653-3.9842-4.2336-2.3602-5.7089,2.0559-5.8105,3.2826-8.4957.193-.4284.6537-.6519,1.3748-1.3268-2.8869-.1214-5.1529-.214-7.4204-.3085-.2875-.4131-.5761-.8251-.8649-1.2399q4.2663-4.66365,8.5326-9.3327c-.1831-.2879-.366-.5755-.5506-.8652q-3.05-.1089-6.0954-.215c-.0732-.2611-.1451-.5231-.218-.7841q5.49225-1.8357,10.9883-3.6712c-.1391-.2953-.2797-.5925-.42-.8869q-5.74635.23685-11.4909.4786-.2808-.6564-.559-1.3146,3.4596-1.46445,6.9234-2.9266-.31365-.6042-.6257-1.207-2.5854.3747-5.1688.7475c-.1515-.2445-.3032-.4888-.4538-.737q11.9991-5.52675,23.9979-11.0589c-.1324-.2505-.2649-.501-.3999-.7496q-1.5342.4182-3.065.8451c-.0873-.1264-.1733-.2512-.2592-.3759a40.58781,40.58781,0,0,0,5.1509-3.1829,121.9421,121.9421,0,0,0,10.142-9.1561c4.7902-5.0269,9.311-10.3397,13.8851-15.5967,2.5204-2.8999,4.9284-5.9128,7.3505-8.9132,2.6923-3.3295,5.112-6.9485,8.0612-10.0003,4.7757-4.9395,9.9144-9.486,14.8309-14.2753,1.4486-1.4104,2.6633-3.078,4.2948-4.9883-.1386,1.2038-.2095,1.8406-.2818,2.4757,10.5783-13.0563,23.3343-23.4059,37.0451-32.6409.3102.3601.6217.7192.9304,1.0774q-3.13815,2.4246-6.2738,4.8472c.2314.3006.4638.5973.6938.8958q4.1298-2.741,8.2614-5.4804c.0683.1032.1364.2036.2057.3057q-12.19635,10.91385-24.3969,21.828c.2802.3332.5602.6637.8418.9961q1.5462-1.1946,3.0909-2.3882.2289.273.4555.5477-5.58315,6.8232-11.169,13.6481c.2422.2449.4861.4918.731.7376,3.9416-4.3537,7.5571-9.0845,11.921-12.9532,4.1305-3.6616,8.7217-6.7886,12.8963-10.4403,4.3593-3.8179,9.7472-6.4459,14.6858-9.5942.2876.3863.5794.7754.8673,1.1644-4.2109,2.7684-8.4902,5.4484-12.5913,8.3585-1.4971,1.0594-2.5343,2.6989-3.8308,4.021-2.3946,2.4381-4.8214,4.8393-7.2392,7.2514-.1148.1122-.2934.156-.4206.2602-.8162.6542-3.1425-.753-2.7013,1.6166-.5446-.2055-1.0904-.41-1.2886-.4833-.5661,1.5637-.9853,3.0518-1.6175,4.3751a68.83922,68.83922,0,0,1-4.0075,7.6651c-.8131,1.2662-2.3795,1.8385-3.3647,2.97a14.828,14.828,0,0,0-1.6374,3.1615c.3553.3047.712.6114,1.0646.9152a14.715,14.715,0,0,1,1.5198-1.4094,40.77055,40.77055,0,0,0,4.5502-3.1305c1.4255-1.3308,2.439-3.1221,3.7762-4.5611,1.9088-2.054,3.9468-3.9697,5.9296-5.9454.2909.2897.5814.5767.8724.8665q-5.69535,7.5135-11.3881,15.0255c.1382.1669.2805.336.4215.5035q3.36285-2.5983,6.7234-5.1947.34935.4092.6976.8194c-7.0924,6.5558-15.5956,11.6202-19.8792,21.2452,2.1743-1.68,4.3133-3.4033,6.5379-5.0192.9139-.6648,1.4759-2.0077,3.6429-.3859.5748.429,1.8393-.7949,2.7865-1.2593-.1638-.2643-.3268-.5325-.4896-.7978-.5368.015-1.0751.0281-1.1943.0319,7.796-8.4929,15.7488-17.157,23.7015-25.8211.3187.324.6379.6509.9555.9758q-3.6135,4.45455-7.2301,8.9083a44.96269,44.96269,0,0,0-3.6856,4.7675c-.3515.5804.1113,1.8751.1909,2.7574-.7856-.1839-1.5017-.3541-2.2162-.5221.391,1.1089.7834,2.2171,1.2592,3.5547,10.8707-8.399,21.4872-16.6016,32.1025-24.8032.2468.2973.495.5936.7418.8909q-5.38935,4.79025-10.7775,9.5824c.2121.2889.4257.5797.6377.8687,1.8133-1.3248,3.6415-2.6314,5.4358-3.9795a50.534,50.534,0,0,1,5.8847-4.0703c-10.6996,9.722-22.9309,17.7287-31.3458,30.075-.86-.1204-1.7174-.2401-3.0319-.4239.4838,1.1637.8734,2.0917,1.4373,3.4463,2.237-1.7283,4.139-3.2388,6.0863-4.6964,3.784-2.8324,7.6344-5.5809,11.3697-8.4728,1.6851-1.305,3.1206-2.9109,4.7528-4.2807a9.44109,9.44109,0,0,1,2.2846-1.2214c1.3138-.5797,3.252-.5132,1.9469-3.4445-.2817-.6293.4826-1.3814,1.2719-1.8206.069.5847.1364,1.1675.2981,2.5744,2.1105-1.6306,3.8574-2.9803,5.6067-4.3319.3674.4423.7362.8865,1.101,1.3278-7.374,6.2356-14.744,12.4736-22.2765,18.8461.6384.3007.989.4648,1.3384.6299-.3176.3544-.5293.8973-.9716,1.0331-1.1718.3586-2.4402.5477-3.6701.801.1682.3407.3359.6783.5024,1.0172.6431-.15,1.282-.3026,2.3134-.5437-.4287,1.1161-.743,1.9234-1.0805,2.8077,3.1717.5071,6.034.7065,7.7619-1.834a35.40455,35.40455,0,0,1,5.6995-6.1266c.8005-.7271,2.1706-.8066,3.2792-1.1812q.11415,2.1261.2285,4.2455c.2084.2035.4181.4061.6235.606q3.1134-4.1694,6.2238-8.3396Zm69.897-.21c-.0854-.1045-.1705-.2064-.2571-.3099Q194.868,88.4035,169.1284,108.2905c.0854.1045.1694.2073.2558.3109Q195.125,88.7135,220.8658,68.8255ZM113.3777,93.4343q.268.53805.537,1.0814c.781-.268,1.7922-.291,2.3025-.8439,1.7635-1.9153,3.2695-4.1018,5.0524-5.9911.6073-.6427,1.805-.636,2.6253-1.0816.5798-.3158,1.3643-.7364,1.3653-1.3899a20.84923,20.84923,0,0,0-.8728-4.0653c-1.7346,1.3402-3.5638,2.7535-5.5072,4.255,1.2454,2.807,1.0797,3.3644-1.2999,3.3388.1018-.8636.2055-1.7228.3431-2.8934-4.5663,2.2991-4.5663,2.2991-2.8954,7.4587C114.4844,93.3467,113.9317,93.3913,113.3777,93.4343Zm20.7379-10.6071c.3417.3739.6864.7516,1.0279,1.1256q3.4704-3.541,6.9377-7.0859-.4254-.46515-.8561-.935Q137.6719,79.3825,134.1156,82.8272Zm-20.7604,7.9872c-.3322-.3256-.6614-.6502-.9937-.9757-1.8344,1.6495-4.5775,2.3517-5.1865,5.2801q.4131.43965.8276.878Q110.6786,93.40405,113.3552,90.8144ZM76.5685,217.1635c-1.9436,1.0402-3.5813,1.9204-5.2199,2.8041C75.7398,221.079,76.7245,220.4742,76.5685,217.1635ZM202.0031,97.0881c.0853.0871.1703.1741.2543.2621q5.7954-4.47765,11.5931-8.9571l-.2297-.2811Q207.8107,92.601,202.0031,97.0881Zm-29.0058,58.3967c.2355.4355.4755.8763.7137,1.3124q3.4785-.98505,6.957-1.9705c-.182-.3356-.3622-.6666-.5457-1.0014Q176.55935,154.6557,172.9973,155.4848Zm53.11-76.735c-.042-.0441-.0813-.0872-.1221-.1321q-5.0784,3.9237-10.157,7.8475l.1172.1359Q221.0256,82.676,226.1073,78.7498ZM200.1646,98.9732l-.1606-.1966q-4.8021,3.71025-9.6041,7.4204l.1606.1966Q195.36245,102.68335,200.1646,98.9732ZM240.4954,67.013c-.1423-.152-.2869-.3019-.4293-.4565q-3.0186,3.12615-6.0325,6.2486c.1927.204.3868.4096.5795.6135Q237.55415,70.2161,240.4954,67.013ZM1.7321,145.8222c.2234.4036.4512.8099.6764,1.2178q2.5983-.6975,5.1955-1.3916c-.2333-.4255-.4664-.8481-.6997-1.2733Q4.3141,145.0975,1.7321,145.8222Zm18.7524-24.6671c-.1617-.3131-.3219-.6244-.4835-.9376q-3.248,1.72-6.4985,3.4391c.1681.2377.3364.4781.5033.7167Q17.2437,122.7626,20.4845,121.1551Z"/><path class="cls-1" d="M262.5488.7871c-1.0007,1.505-1.9574,3.0468-3.0182,4.4956-.5659.7666-1.8999,1.1476-1.8646,2.0786.1062,2.8376-1.1551,3.8178-3.7151,3.1937.1576,3.8327.1576,3.8327-4.367,2.7539C253.72,8.7078,257.633,4.3557,261.5428,0,261.8788.264,262.2131.5259,262.5488.7871Z"/><path class="cls-1" d="M155.5812,196.2775q-7.1229,4.0302-14.2494,8.0605-.372-.5286-.7467-1.0609,7.12425-4.03575,14.2476-8.0678C155.0808,195.5643,155.333,195.9222,155.5812,196.2775Z"/><path class="cls-1" d="M143.9114,72.4627c1.6214-1.9349,3.2341-3.8805,4.8699-5.8002.5232-.6128,1.1142-1.1576,1.2309-1.2773.2264.8658.5918,2.2595.9566,3.6503l.0092-.0598c-.7905.3667-1.789.5207-2.3296,1.1442C147.4482,71.5058,146.7704,73.5582,143.9114,72.4627Z"/><path class="cls-1" d="M131.6695,77.5109q1.62615-1.82085,3.2537-3.6429.55215.5616,1.1028,1.1238-1.524,1.95375-3.0492,3.9082Q132.32085,78.20745,131.6695,77.5109Z"/><path class="cls-1" d="M156.3811,62.9106q1.9734-3.0372,3.9479-6.0726c.2645.2454.5282.4944.7916.7407q-1.9671,3.0372-3.9329,6.0788C156.9187,63.4068,156.6511,63.1577,156.3811,62.9106Z"/><path class="cls-2" d="M219.9568,207.5h-194.5V48h194.5Zm-188.5-6h182.5V54h-182.5Z"/><path class="cls-1" d="M255.375,51.6943q-4.4187,4.058-8.8428,8.1141-.372-.40035-.7431-.8016,6.26175-7.4052,12.5188-14.8118c-.2395-.2439-.4761-.4818-.7154-.7232q-11.05545,11.3466-22.1135,22.695c-.1462-.1546-.291-.3099-.4389-.4663,6.1865-7.0436,12.3742-14.0884,18.4882-21.0467-.6181-.575-1.1215-1.0441-1.7729-1.6496-.3555.6512-.7041,1.2938-.9131,1.6759-4.8472-1.6207-5.3179,2.662-7.6855,4.3063q1.02825.0522,2.0627.1114c-.4263.9057-1.102,1.7364-1.7202,1.4583-3.1184-1.4127-3.9468.6562-5.3027,1.9863-.8982.8849-1.8748,1.6865-2.8165,2.5229-.2612-.2657-.5241-.5359-.7839-.7998q7.15725-8.3919,14.3213-16.7802c-3.4402,2.2108-6.2454,5.0782-9.3257,7.6168-1.1987.9878-3.3628.846-4.4895,1.8927-3.2385,3.0167-6.1445,6.4085-9.2395,9.5908-1.4809,1.5206-3.0972,2.8956-4.6548,4.3372a5.56177,5.56177,0,0,1,1.1421-2.9756c1.8645-3.4987,6.3142-4.8051,5.8425-10.3267-.0288-.3393,1.0137-.3538,1.5784-.4817.6267-.143,1.2783-.2406,1.4719-.2785-.5971-1.2851-.9951-2.1448-1.5417-3.3191q-2.68575,2.65785-5.4048,5.3345c-.3127-.3141-.6238-.6236-.938-.9394a12.757,12.757,0,0,1,2.0774-2.5666q6.0396-4.4544,12.2485-8.7017c1.6729-1.1486,3.6004-1.9704,5.2571-3.1388a20.17722,20.17722,0,0,0,2.7256-2.7881q-.609-.6759-1.2153-1.348Q212.176,53.21415,179.9036,77.0417a5.08726,5.08726,0,0,1,1.1721-1.1407c8.8472-7.2237,17.7412-14.3951,26.5161-21.7071,2.4275-2.0225,4.3814-4.6025,6.7705-6.6748,1.1333-.9871,2.992-1.1356,4.135-2.1157,2.191-1.8779,3.9671-4.2441,6.167-6.1085,2.3011-1.9542,4.9881-3.4509,7.3533-5.3341,4.5019-3.5843,8.9228-7.2678,13.3088-10.9945,1.0523-.8952,2.3616-1.8187,2.6109-3.2578.4284-2.4774,1.759-3.6523,4.3139-3.8563-2.4177-1.9657-3.8308-1.809-4.9555-.5315a35.49568,35.49568,0,0,1-4.3404,4.6383c-4.8073,3.8142-9.791,7.4149-14.6435,11.1788a9.40857,9.40857,0,0,0-1.6336,2.197c-.8662.0166-1.843-.2344-2.4018.0918a55.31992,55.31992,0,0,0-4.6423,3.2339q-10.254,7.4901-20.4827,15.0081c-1.5794,1.1671-2.2676.1702-3.1509-2.2107-.3926,1.0233-.7832,2.0458-1.0137,2.6471-1.8842.8796-3.708,1.6007-5.3816,2.5349-1.7172.9566-3.2866,2.119-4.9216,3.1911-.0735-.1048-.1487-.2115-.2222-.3163q3.3252-3.42045,6.6517-6.8445c-.052-.054-.1011-.1042-.1519-.1591-.9153.5307-1.8345,1.0588-3.2095,1.8506-.0097-2.4916-.0171-4.394-.0285-6.993-1.6617,2.0425-2.8445,3.7443-4.2671,5.1816-2.7053,2.7372-6.5616,3.9728-9.3958,6.6626-4.1675,3.9548-10.3479,5.4754-13.9692,10.2577-.9773,1.2932-2.9783,1.6014-4.502,2.3729a2.32845,2.32845,0,0,0-.675.4689q-3.049,3.273-6.0755,6.5639c-.1745-.1914-.3491-.383-.5222-.5728q3.7944-5.7894,7.595-11.5716c-.2446-.2404-.4876-.4762-.7319-.7166q-2.10465,2.5083-4.2107,5.0202l.0092-.0598q-3.1131,4.16925-6.2238,8.3396c-.2054-.1999-.4151-.4025-.6236-.6061q-.1131-2.1219-.2282-4.2454c-1.1089.3746-2.4788.4541-3.2793,1.1812a35.39226,35.39226,0,0,0-5.6995,6.1265c-1.728,2.5406-4.5903,2.3412-7.762,1.8341.3374-.8843.6518-1.6916,1.0805-2.8077-1.0314.2411-1.6703.3937-2.3134.5437-.1665-.3389-.3342-.6765-.5024-1.0172,1.23-.2533,2.4983-.4424,3.6702-.801.4422-.1358.6539-.6787.9715-1.0331-.3494-.1651-.6999-.3292-1.3384-.6299,7.5325-6.3725,14.9025-12.6105,22.2765-18.8461-.3647-.4413-.7336-.8855-1.1011-1.3278-1.7492,1.3516-3.4963,2.7013-5.6066,4.3319-.1617-1.4069-.229-1.9897-.2981-2.5744-.7893.4392-1.5535,1.1913-1.2718,1.8206,1.305,2.9312-.6333,2.8648-1.947,3.4445a9.44548,9.44548,0,0,0-2.2847,1.2214c-1.632,1.3698-3.0676,2.9756-4.7528,4.2807-3.7352,2.8919-7.5855,5.6404-11.3695,8.4728-1.9474,1.4576-3.8493,2.9681-6.0864,4.6964-.564-1.3547-.9534-2.2826-1.4373-3.4463,1.3145.1838,2.1719.3035,3.0318.4239,8.415-12.3464,20.6462-20.353,31.3459-30.0751a50.52623,50.52623,0,0,0-5.8847,4.0704c-1.7945,1.3481-3.6226,2.6547-5.4358,3.9794-.2122-.2889-.4256-.5797-.6377-.8686q5.38725-4.793,10.7776-9.5824-.37035-.4461-.742-.8909c-10.6152,8.2016-21.2317,16.4042-32.1025,24.8032-.4756-1.3377-.8682-2.4458-1.2592-3.5548.7146.1681,1.4307.3382,2.2163.5221-.0797-.8822-.5423-2.1769-.1909-2.7574a44.94621,44.94621,0,0,1,3.6857-4.7674q3.609-4.45995,7.23-8.9083c-.3175-.3249-.6367-.6518-.9555-.9757-7.9527,8.664-15.9055,17.328-23.7015,25.821.1191-.0038.6575-.0169,1.1943-.0319.1629.2653.3257.5335.4895.7978-.9471.4644-2.2116,1.6883-2.7863,1.2593-2.167-1.6218-2.7291-.2789-3.6429.3859-2.2247,1.6159-4.3637,3.3392-6.5381,5.0192,4.2837-9.6251,12.7869-14.6895,19.8793-21.2452q-.3477-.41055-.6976-.8194-3.36135,2.59695-6.7234,5.1947c-.141-.1675-.2832-.3366-.4215-.5035q5.6934-7.51215,11.388-15.0255c-.2908-.2898-.5815-.5768-.8723-.8665-1.9829,1.9757-4.0208,3.8914-5.9297,5.9454-1.3371,1.439-2.3505,3.2303-3.7761,4.5611a40.76258,40.76258,0,0,1-4.5503,3.1305,14.72427,14.72427,0,0,0-1.5197,1.4094c-.3526-.3038-.7093-.6105-1.0645-.9153a14.82927,14.82927,0,0,1,1.6373-3.1614c.9853-1.1315,2.5517-1.7038,3.3647-2.97a68.82244,68.82244,0,0,0,4.0075-7.6651c.6322-1.3234,1.0514-2.8114,1.6175-4.3751.1982.0733.744.2778,1.2885.4833-.4411-2.3696,1.8852-.9624,2.7014-1.6165.1272-.1044.3058-.1482.4207-.2604,2.4177-2.412,4.8445-4.8133,7.239-7.2514,1.2966-1.322,2.3338-2.9615,3.8308-4.021,4.1012-2.91,8.3804-5.59,12.5913-8.3584-.2878-.3891-.5796-.7781-.8672-1.1644-4.9387,3.1483-10.3265,5.7763-14.6857,9.5942-4.1747,3.6517-8.7659,6.7787-12.8963,10.4402-4.364,3.8688-7.9795,8.5995-11.9211,12.9533-.2449-.2457-.4888-.4927-.731-.7376q5.5851-6.8247,11.169-13.6481-.2271-.27435-.4555-.5477-1.5441,1.1931-3.0909,2.3882c-.2816-.3324-.5616-.6629-.8418-.9961q12.1962-10.914,24.3969-21.828c-.0693-.1022-.1374-.2026-.2056-.3057q-4.1319,2.7426-8.2616,5.4804c-.23-.2985-.4623-.5953-.6938-.8958q3.1365-2.4231,6.2738-4.8472c-.3086-.3583-.6201-.7173-.9303-1.0774-13.7108,9.235-26.4669,19.5846-37.0451,32.6408.0724-.635.1432-1.2718.2818-2.4757-1.6316,1.9103-2.8462,3.578-4.2949,4.9883-4.9164,4.7894-10.055,9.3359-14.8308,14.2754a58.4222,58.4222,0,0,0-4.269,5.0826V170h129.875q1.23735-.4227,2.476-.8437c-.1528-.2903-.3044-.5761-.4563-.8674q-4.9647.39165-9.9311.7758c-.1138-.2766-.2307-.557-.3474-.8371q5.5341-1.62975,11.0708-3.2614c-.1773-.3394-.3521-.6807-.5291-1.0201q-3.87855.6063-7.7551,1.217-.0495-.138-.0994-.2761,10.7106-4.69425,21.4251-9.3885c-.1909-.3024-.3828-.6009-.572-.8987-4.824,1.0664-8.928,3.664-14.9905,2.2414q5.3976-4.17015,10.7973-8.3421-.06885-.14985-.1369-.3-3.27,1.16385-6.5369,2.328c1.2984-2.0557,2.5945-4.033,4.5994-4.9002,5.185-2.2361,8.6282-6.7632,14.0063-8.6989.387-.1399.9759-.5128.8833-.7881-.8215-2.3936,1.0066-2.3243,1.9785-3.0282,1.7945-1.3013,3.68-2.4961,5.41-3.8739.478-.3812.5434-1.2552.7968-1.9038-.2007-.1475-.3996-.2908-.5991-.4366q-3.96015,1.4367-7.9141,2.8745c-.2876-.4479-.5727-.895-.8591-1.3412q7.47945-5.77875,14.9614-11.5596c-.1489-.1996-.2966-.4-.4458-.6021q-7.41315,3.417-14.8252,6.8385c4.9219-4.1204,10.637-7.1571,15.5018-11.242-.3096-.4255-.6136-.849-.9231-1.2743q-2.2482.9387-4.492,1.8799c-.1123-.1398-.227-.2802-.3418-.4208q2.46615-2.4744,4.9253-4.9549-.3582-.4161-.7126-.8282-4.82265,2.4822-9.6582,4.9805c-.1016-1.67-.1756-2.9277-.2491-4.1796l-.03.0147c-2.0278,6.3657-7.6934,8.1797-13.4233,9.9125,3.0974-5.0319,8.313-7.4051,13.4233-9.9125.0081-.0254.0186-.0478.0266-.0734l.0034.0587.0118-.0057q2.41365-1.57425,4.8256-3.1466-.4566-.5994-.9189-1.2008-7.3206,3.623-14.645,7.2429c-.1865-.2526-.3758-.5063-.5596-.7582,2.7161-2.0986,5.5012-4.1153,8.1206-6.3273,1.4187-1.2018,2.387-2.9406,3.8535-4.0766,3.4856-2.6993,7.2205-5.0939,10.7268-7.7705a69.09086,69.09086,0,0,0,16.3887-17.6957c.3787-.5866.0894-1.7743.1099-2.6839.0371-8.8989,6.0066-12.9022,10.3261-18.3241C255.8115,52.1128,255.5935,51.9049,255.375,51.6943ZM108.0026,95.9967c-.2755-.2929-.5523-.5849-.8275-.8779.6089-2.9284,3.352-3.6307,5.1865-5.2801.3323.3255.6614.6501.9936.9757Q110.67665,93.40415,108.0026,95.9967ZM123.895,86.599c-.8204.4457-2.0182.439-2.6255,1.0816-1.7829,1.8894-3.2888,4.0759-5.0523,5.9913-.5104.5528-1.5215.5758-2.3025.8438-.1791-.3614-.3583-.7228-.537-1.0814.554-.043,1.1067-.0876,1.6504-.1313-1.6709-5.1596-1.6709-5.1596,2.8953-7.4587-.1377,1.1706-.2413,2.0298-.3431,2.8934,2.3797.0256,2.5453-.5318,1.2998-3.3388,1.9435-1.5015,3.7728-2.9149,5.5074-4.255a20.849,20.849,0,0,1,.8727,4.0652C125.2592,85.8627,124.4746,86.2833,123.895,86.599Zm11.2486-2.6461c-.3416-.3741-.6863-.7517-1.0281-1.1257q3.5577-3.44535,7.1096-6.8953.4314.4692.856.935Q138.61085,80.408,135.1436,83.9529Zm38.5674,72.8443c-.2383-.4361-.4781-.8769-.7137-1.3124q3.56145-.82875,7.125-1.6595c.1834.3348.3636.6658.5457,1.0014Q177.18965,155.8122,173.711,156.7972Zm16.8496-50.4037c-.0533-.0649-.1062-.1297-.1607-.1965q4.8018-3.7101,9.604-7.4204c.0547.0668.1074.1316.1607.1966Q195.3625,102.6833,190.5606,106.3935Zm11.6967-9.0434c-.0839-.088-.1689-.1749-.2541-.262q5.80815-4.48755,11.6177-8.9761.1146.14055.2297.281Q208.0531,92.87215,202.2573,97.3501Zm-32.873,11.2513c-.0864-.1036-.1704-.2064-.2559-.3109q25.7388-19.8864,51.4803-39.7749c.0866.1035.1716.2054.257.3099Q195.12705,88.7119,169.3843,108.6014Zm46.561-22.0003-.1172-.1359,10.1573-7.8475c.0405.0449.08.088.122.132Q221.027,82.67505,215.9453,86.6011Zm18.6678-13.1825c-.1927-.2039-.3868-.4095-.5794-.6135q3.015-3.1233,6.0325-6.2486c.1423.1546.2868.3045.4292.4565Q237.55585,70.2143,234.6131,73.4186Z"/><path class="cls-1" d="M262.5488.7871c-1.0007,1.505-1.9574,3.0468-3.0182,4.4956-.5659.7666-1.8999,1.1476-1.8646,2.0786.1062,2.8376-1.1551,3.8178-3.7151,3.1937.1576,3.8327.1576,3.8327-4.367,2.7539C253.72,8.7078,257.633,4.3557,261.5428,0,261.8788.264,262.2131.5259,262.5488.7871Z"/><path class="cls-1" d="M143.9114,72.4627c1.6214-1.9349,3.2341-3.8805,4.8699-5.8002.5232-.6128,1.1142-1.1576,1.2309-1.2773.2264.8658.5918,2.2595.9566,3.6503l.0092-.0598c-.7905.3667-1.789.5207-2.3296,1.1442C147.4482,71.5058,146.7704,73.5582,143.9114,72.4627Z"/><path class="cls-1" d="M131.6695,77.5109q1.62615-1.82085,3.2537-3.6429.55215.5616,1.1028,1.1238-1.524,1.95375-3.0492,3.9082Q132.32085,78.20745,131.6695,77.5109Z"/><path class="cls-1" d="M156.3811,62.9106q1.9734-3.0372,3.9479-6.0726c.2645.2454.5282.4944.7916.7407q-1.9671,3.0372-3.9329,6.0788C156.9187,63.4068,156.6511,63.1577,156.3811,62.9106Z"/></g></g></svg>