<svg xmlns="http://www.w3.org/2000/svg" xmlns:xlink="http://www.w3.org/1999/xlink" viewBox="0 0 182.17891 129.32268"><defs><style>.cls-1{fill:none;}.cls-2,.cls-9{fill:#fff;}.cls-3{clip-path:url(#clip-path);}.cls-4{fill:#f63000;}.cls-5{fill:#262626;}.cls-6{fill:#999;}.cls-7{fill:#2d2d2d;}.cls-8{fill:#666;opacity:0.25;}.cls-9{stroke:#aaa;stroke-miterlimit:10;stroke-width:0.25px;}.cls-10{fill:#ddd;}</style><clipPath id="clip-path"><rect class="cls-1" x="0.39122" y="16.10098" width="46.2459" height="113.2217"/></clipPath></defs><title>layout-design</title><g id="Layer_2" data-name="Layer 2"><g id="OBJECTS"><rect class="cls-2" x="0.38292" y="16.10098" width="181.7877" height="113.2217" rx="5"/><g class="cls-3"><rect class="cls-4" y="16.10098" width="181.7877" height="113.2217" rx="5"/></g><rect class="cls-2" x="7.62692" y="70.59538" width="31.7745" height="2.2094" rx="1.0543"/><rect class="cls-2" x="7.62692" y="77.52138" width="31.7745" height="2.2094" rx="1.0543"/><rect class="cls-2" x="7.62692" y="84.44738" width="22.5117" height="2.2094" rx="1.0543"/><rect class="cls-2" x="7.62692" y="91.37338" width="22.5117" height="2.2094" rx="1.0543"/><rect class="cls-2" x="7.62692" y="105.28418" width="22.5117" height="2.2094" rx="1.0543"/><rect class="cls-2" x="7.62692" y="98.29948" width="31.7745" height="2.2093" rx="1.0543"/><path class="cls-5" d="M4.45282,0h173.6644a4.0617,4.0617,0,0,1,4.0617,4.0617V19.846a0,0,0,0,1,0,0H.39122a0,0,0,0,1,0,0V4.0616A4.0616,4.0616,0,0,1,4.45282,0Z"/><path class="cls-2" d="M13.56953,9.92307A3.08721,3.08721,0,1,1,10.4824,6.83579,3.08718,3.08718,0,0,1,13.56953,9.92307Z"/><path class="cls-6" d="M22.71749,9.92307a3.08721,3.08721,0,1,1-3.08714-3.08728A3.08719,3.08719,0,0,1,22.71749,9.92307Z"/><path class="cls-2" d="M31.86559,9.92307a3.08721,3.08721,0,1,1-3.08728-3.08728A3.08722,3.08722,0,0,1,31.86559,9.92307Z"/><circle class="cls-2" cx="23.51419" cy="46.06538" r="14.41239"/><path class="cls-7" d="M27.415,42.35078a3.8474,3.8474,0,1,1-3.8474-3.8473A3.84741,3.84741,0,0,1,27.415,42.35078Z"/><path class="cls-7" d="M15.12822,52.52948l1.3813-2.5699a4.54729,4.54729,0,0,1,4.0054-2.3944h5.6002a4.54714,4.54714,0,0,1,3.769,2.0032l1.9988,2.9611Z"/><path class="cls-4" d="M135.17117,31.653h31.5026a7.74,7.74,0,0,1,7.74,7.74v68.804a7.7399,7.7399,0,0,1-7.7399,7.7399h-31.5027a7.7399,7.7399,0,0,1-7.7399-7.7399V39.39288A7.7399,7.7399,0,0,1,135.17117,31.653Z" transform="translate(301.84503 147.58985) rotate(180)"/><rect class="cls-2" x="129.3929" y="40.90006" width="43.05923" height="65.78973" transform="translate(301.84503 147.58985) rotate(180)"/><rect class="cls-2" x="150.33464" y="29.93457" width="1.17576" height="13.51643" rx="0.58788" transform="translate(187.6153 -114.22973) rotate(90)"/><circle class="cls-2" cx="150.9225" cy="110.97538" r="2.59643"/><path class="cls-8" d="M168.84165,102.92329H133.3287a.58426.58426,0,0,1-.57235-.59551V96.69139l2.71145-2.82148h33.37385a.58428.58428,0,0,1,.57238.5955v7.86237A.58429.58429,0,0,1,168.84165,102.92329Z"/><path class="cls-8" d="M134.89568,96.66447h-2.13933l2.71169-2.82135V96.069A.58428.58428,0,0,1,134.89568,96.66447Z"/><rect class="cls-8" x="132.43097" y="49.56763" width="9.28176" height="17.32572"/><rect class="cls-8" x="154.71049" y="77.83845" width="14.70354" height="13.31349"/><rect class="cls-8" x="160.33332" y="49.56763" width="9.0807" height="9.0807"/><rect class="cls-8" x="142.97453" y="44.66657" width="26.4395" height="3.08375"/><rect class="cls-8" x="143.13596" y="49.56763" width="15.18525" height="1.47496"/><rect class="cls-8" x="143.13596" y="53.37047" width="15.18525" height="1.47499"/><rect class="cls-8" x="143.13596" y="57.17334" width="15.18525" height="1.47499"/><rect class="cls-8" x="143.13596" y="60.97618" width="26.27807" height="1.47499"/><rect class="cls-8" x="143.13596" y="64.77906" width="26.27807" height="1.47499"/><path class="cls-8" d="M134.43815,45.67014a1.00359,1.00359,0,1,1-1.00357-1.00357A1.00358,1.00358,0,0,1,134.43815,45.67014Z"/><path class="cls-8" d="M138.07546,45.67014a1.00359,1.00359,0,1,1-1.00361-1.00357A1.00361,1.00361,0,0,1,138.07546,45.67014Z"/><path class="cls-8" d="M141.71273,45.67014a1.00359,1.00359,0,1,1-1.00357-1.00357A1.00358,1.00358,0,0,1,141.71273,45.67014Z"/><rect class="cls-8" x="132.75635" y="89.69564" width="19.57166" height="1.57733" transform="translate(285.08437 180.96861) rotate(180)"/><rect class="cls-8" x="132.75635" y="85.74058" width="19.57166" height="1.57733" transform="translate(285.08437 173.05848) rotate(180)"/><rect class="cls-8" x="132.75635" y="81.78548" width="19.57166" height="1.57733" transform="translate(285.08437 165.14829) rotate(180)"/><rect class="cls-8" x="132.75635" y="77.83038" width="19.57166" height="1.57733" transform="translate(285.08437 157.2381) rotate(180)"/><rect class="cls-8" x="132.75635" y="73.87532" width="36.65767" height="1.57733" transform="translate(302.17038 149.32798) rotate(180)"/><rect class="cls-8" x="132.75635" y="69.92023" width="36.65767" height="1.57733" transform="translate(302.17038 141.41779) rotate(180)"/><rect class="cls-9" x="53.86172" y="31.65298" width="69.41231" height="38.9282" rx="3.1864"/><path class="cls-10" d="M62.65882,57.30928H103.393a1.0543,1.0543,0,0,1,1.0543,1.0543v.1008a1.0543,1.0543,0,0,1-1.0543,1.0543H62.6588a1.05429,1.05429,0,0,1-1.05429-1.05429v-.10081a1.0543,1.0543,0,0,1,1.0543-1.0543Z"/><rect class="cls-10" x="61.60452" y="62.49698" width="23.3449" height="2.2094" rx="1.0543"/><circle class="cls-10" cx="67.31244" cy="44.66858" r="7.01301"/><rect class="cls-9" x="53.86172" y="80.31657" width="33.3111" height="35.6203" rx="2.2997"/><rect class="cls-10" x="58.65212" y="111.16057" width="3.8469" height="2.2094" rx="1.0543"/><rect class="cls-10" x="58.65212" y="106.39997" width="23.8572" height="2.2094" rx="1.0543"/><circle class="cls-7" cx="70.18239" cy="93.85019" r="8.09168" transform="translate(-37.91334 139.11321) rotate(-75.93095)"/><rect class="cls-9" x="89.96293" y="80.31657" width="33.3111" height="35.6203" rx="2.2997"/><rect class="cls-10" x="94.75333" y="111.16057" width="3.8469" height="2.2094" rx="1.0543"/><rect class="cls-10" x="94.75333" y="106.39997" width="23.8572" height="2.2094" rx="1.0543"/><circle class="cls-7" cx="106.28361" cy="93.85019" r="8.09168" transform="translate(-10.58801 174.13151) rotate(-75.93095)"/></g></g></svg>