<svg xmlns="http://www.w3.org/2000/svg" viewBox="0 0 113.66234 225"><defs><style>.cls-1{fill:#fff;}</style></defs><title>Asset 24</title><g id="Layer_2" data-name="Layer 2"><g id="Layer_2-2" data-name="Layer 2"><g id="text"><path class="cls-1" d="M11.64334,202.46525l-.094.298-.031.094-.063.094-.141.29745c-.06247.157-.1725.345-.235.50148l-.03151.047-.29746.59547-.047.11-.063.094-.188.36049c-.06247.1255-.1255.31349-.188.43844l-.1255.251a.69806.69806,0,0,1-.01549.07851l-.047.094-.06248.15646-.26649.627-.047.094L9.152,207.80894l-.047.047a10.11915,10.11915,0,0,1-.533.972l.10947-.07851.31349-.251c.298-.25046.533-.48544.83045-.73645l.21949-.172.11-.11.39145-.282.157-.12551.50147-.34445.047-.063,1.0809-.68946.14154-.1255.20346-.15647.282-.188.157-.11.50147-.329.047-.01548.53243-.36049c.063-.047.094-.047.1725-.10947l.31349-.2195.094-.03151.84647-.611.047-.016.21894-.094.12551-.094.533-.31349.188-.125.329-.204.141-.047.07851-.047.094-.094.79948-.423.251-.1255.42241-.282.69-.329.10947-.016.10948-.06248.20346-.141.188-.07851.04755-.03151.188-.141.21894-.10947.26649-.07851.12606-.06248.29746-.141.36048-.141.17251-.09455.5175-.188a1.48186,1.48186,0,0,0,.45448-.188,7.86083,7.86083,0,0,1,1.86435-.43844l.31294-.047.12606-.016c.01548,0,.01548,0,.06192-.031l.0951-.016.57943-.10948.157-.03151.26649-.03152H26.327l.23553.03152.10947.12551.031.06247-.15591.157-.188.01548h-.094l-.18909.03152-.15591.06248-.26649.06247c-.36049.094-.73646.1725-1.09694.23553a10.48516,10.48516,0,0,0-1.58348.376l-.3439.12551-.2665.141-.36048.17195-.32952.12551-.125.03151c-.03207.01549-.07851.01549-.094.03152-.45448.20346-.89347.40748-1.33247.64246l-.21894.141-.14154.047-.5164.2665-.28308.21894-.39145.23553-.10947.047c-.07851.047-.094.094-.17251.141l-.345.141-.141.047.016-.016c-.329.18853-.627.37651-.925.5645l-.125.10947-.21949.157-.141.06248-.11.07851-.79892.48544-.423.28253-.11.094-.34445.20346-1.207.83044-.10947.094-.64246.439-.36048.2665-.533.50147-.20346.15647-.23554.1725-.376.235-.12551.1255-.235.141-.2195.1725-.329.25046-.078.063-.17251.10948-.094.094-.157.1255-.29745.20347-.157.1255-.21949.17251-.10948.1255-.141.10947-.15647.11-.18854.141-.141.12495-.141.11a.57638.57638,0,0,1-.07851.094l-.031.01548.07852.157c.34445.48544.67342.909.79892,1.06542.15647.251.298.47.47.70549a.21622.21622,0,0,0,.07851.047l.141.20346a.92131.92131,0,0,0,.188.2195c.12551.10947.251.26649.37652.376l.188.21949.40749.45448c.031.01548.01548,0,.141.141l.25046.29745.188.18854.03151.047.58.56394.43845.423.32952.26649.15647.157.094.125.12551.1255.39144.298a.16942.16942,0,0,0,.07851.031l.11.094.329.31349.188.11.376.21894.094.11.2195.12551.345.235c.031.031.094.047.125.07851.063.031.1255.094.188.125l.32952.1725.43845.15647.75248.50147c.07851.03152.25046.11.31349.12551l.39145.251.204.078.40692.251.31405.12551c.01548,0,.06192.031.07851.031l.23442.11.094.047.094.06248.64246.329a.94239.94239,0,0,1,.188.07851l.23553.07851a.29333.29333,0,0,0,.10947.03151l.23554.031.094.07851.031.07851-.094.188-.188.031-.063.016-.15591-.03152a.31408.31408,0,0,1-.14154-.01548l-.31294-.047-.14154-.063-.188-.094-.063-.06247-.15592-.094-.01658-.03151c-.26539-.10947-.6104-.282-.86141-.39145l-.54847-.298-.21949-.10947-.47-.23553c-.40748-.20346-.84648-.39145-1.22245-.62643l-.21949-.094-.10948-.07851-.07851-.047-.768-.45448-.094-.03152-.29746-.20346-.32952-.157-.125-.078-.188-.12551-.18854-.157-.376-.282-.235-.141-.15647-.1255-.12551-.094c-.03151-.01548-.07851-.07795-.11-.094l-.047-.047-.07795-.06248-.251-.188a5.40064,5.40064,0,0,1-.95595-.925l-.01548-.031-.03151-.047-.1725-.141-.031-.063a.73928.73928,0,0,1-.157-.15646l-.15647-.12551-.251-.2195-.39145-.564c-.42351-.50147-.83044-1.03446-1.22244-1.56689l-.12551-.1725-.06247-.07852-.47051-.674c-.01548-.01548-.078-.06248-.078-.078-.016,0-.016,0-.016-.03151l-.15647-.094-.03152-.141-.031-.063-.157-.141a1.64639,1.64639,0,0,0-.10947.188l-.07851.157-.141.235a.07772.07772,0,0,0-.01548.047l-.07851.10947-.157.18854-.078.125-.063.11-.10947.21894-.282.345c0,.01548-.016.047-.016.06247l-.21895.32953-.11.172c-.29746.439-.627.909-.93992,1.33247l-.45448.64246-.40748.53243c-.298.439-.65849.98746-.95595,1.41043l-.251.28252-.15647.15647c-.063.10947-.157.2195-.2195.329l-.10947.157-.18853.21895-.65794.674-.345.439-.51695.45448a.44106.44106,0,0,1-.36049.094c-.141-.03152-.26649-.10947-.376-.36049l-.03152-.1725L0,218.95137l.03151-.47051.141-.564.06248-.235a3.86158,3.86158,0,0,1,.298-.70549l.06247-.10947.15647-.282.5645-.815.29746-.376.1725-.188.345-.345a3.22028,3.22028,0,0,0,.21894-.26649l.643-.59546.141-.141.20347-.188.235-.235.26649-.251.11-.094.34446-.34445.06247-.07851.42352-.423.047-.063.06248-.06248.094-.11.251-.235.17251-.188.141-.17251.21895-.20346.298-.31349.2195-.188.26649-.204.43844-.35993a.59907.59907,0,0,1-.141-.23553l-.21949-.329-.047-.10947-.2195-.392-.031-.06247-.298-.6585-.047-.15647a1.0706,1.0706,0,0,1-.07851-.345v-.125c0-.07852-.031-.36049.36048-.40749a.4264.4264,0,0,1,.37652.282l.12495.36048.03152.06248.188.47.07851.2195.03152.1255.01548.07851.03151.047.078.2195.094.17195.07851.204.329-.54846.12551-.235.01548-.03152c0-.03151.03152-.10947.03152-.1255l.1725-.2665v-.047l.1725-.20347.47-.83044v.01548l.26649-.611.01548-.063.141-.329.157-.40748.047-.06247a3.24855,3.24855,0,0,0,.188-.42352l.094-.31294.141-.23553.26649-.64246c0-.031.03152-.10947.03152-.141l.094-.25046c0-.047.031-.094.031-.141l.157-.40748.10947-.37652c.016-.094.063-.20347.07852-.29746l.07851-.204.06247-.15647.094-.188.07851-.31349.047-.06247c.01548-.063.07851-.157.094-.2195l.188-.26649.31348-.204.20347-.06248.26649.141.016.486-.14154.43844-.125.298Zm-5.65718,9.32451-.50148.43845c-.20346.188-.45447.40748-.64246.61149l-.21949.219-.047.07851c-.20346.251-.47.51751-.68946.768l-.1255.094-.48544.517-.07851.11-.141.188-.188.188-.298.376-.094.141-.078.09454-.1725.25046-.141.141-.345.47-.29746.50147-.2195.36048-.157.37652a2.839,2.839,0,0,0-.06247.34445l-.047.188a.64847.64847,0,0,1-.03152.1725l.64246-.70494c.047-.07851.12551-.157.17251-.23553l.95595-1.03391.21949-.251.31349-.39145.235-.32952.65794-.93992.063-.11.141-.20347.141-.157.235-.34445.345-.50147.15647-.2195Z"/><path class="cls-1" d="M19.51762,213.37214l-.188.141-.21894.09454-.12606.031-.10948.07851-.04754.03152c-.06193.01548-.14044.06247-.20347.07795l-.15591.094-.07851.03151-.298.141-.063.047-.25046.157-.12551.047a.26783.26783,0,0,1-.094.047l-.2195.125-.10947.04755-.11.031-.25046.047-.21949.11-.2195.031-.21895-.01548-.18853.047-.423-.07851a.71742.71742,0,0,1-.39145-.29746l-.07851-.094.01548-.12551a1.188,1.188,0,0,1,.047-.45447v-.094l.11-.31349.125-.31349c0-.01548.03152-.06248.03152-.094l.1255-.2195.10948-.125a.1515.1515,0,0,1,.016-.047l.141-.12551.078-.1255c.03151-.06248.094-.12551.1255-.188l.047-.11.06248-.10948.04755-.047a2.315,2.315,0,0,1,.141-.20347l.141-.204.047-.07851.188-.219.25046-.345.07851-.188.204-.251.078-.10947.063-.12551.078-.06247.204-.31349.15646-.2195.17251-.15647a.89424.89424,0,0,1,.5645-.2195.57627.57627,0,0,1,.36048.20347v.11l-.03206.2195-.14044.15647-.188.20346-.22005.1725-.23443.204-.04755.10947-.29745.298-.157.219-.10948.157-.10947.10947a.27044.27044,0,0,0-.016.094l-.15647.094a.52286.52286,0,0,1-.047.09455l-.235.26594-.21949.251-.11.15647-.078.12551-.1725.298-.07851.07795a.27951.27951,0,0,0-.078.11l-.09454.26649-.031.078-.141.31349-.07851.31349v.06248l-.03152.18853v.047h.11l.10947.01548.06248-.01548.09454-.016.094.016h.078c.11-.016.204-.063.32953-.07851l.141-.047.141-.03151a.23261.23261,0,0,1,.047-.03152l.25046-.141.063-.047.376-.094.25046-.094.12551-.031.517-.251.12606-.06248.24991-.141.20457-.12551.125-.07851.094-.01548.094-.063.20347-.12495.10947-.063.14154-.094.063-.06247.24991-.12551.07851-.06248.376-.188.14155-.07851.031-.016.11058-.078h.031l.07851-.07851.10947-.047.063-.06247.1725-.094.10947-.063.06193-.031.094-.04755c.11058-.06247.20457-.141.345-.21894l.094-.07851.1725.01548.12606.11.01548.141-.1725.188-.094.03151-.094.078-.251.1255-.48544.298-.14154.094-.20346.17195-.10948.03152-.07851.03151c-.282.188-.564.39145-.83044.54847l-.094.094-.063.03152-.1725.06248-.063.047Zm1.52046-7.741a.84488.84488,0,0,1,0,.34445,1.16258,1.16258,0,0,1-.564.533l-.18909.141-.06193.047c-.07851.06247-.20346.141-.26649.20346l-.282.251-.251.20347-.10947.07851a.59759.59759,0,0,1-.29746.047l-.03206-.20346.01548-.063.22005-.517.06192-.10948.22005-.32952.125-.172.063-.07851.14043-.157.11058-.078.094-.07851.23443-.235.188-.094.12606-.03152a.49415.49415,0,0,1,.439.2665Z"/><path class="cls-1" d="M28.70226,209.76784a.17357.17357,0,0,0-.01548.07851.44692.44692,0,0,1-.14044.36048c-.07851.10948-.26649.282-.47106.188l-.1725-.07851-.20347-.20347-.031-.11-.031-.078v-.12551l.031-.094-.01548-.141-.03207-.07851-.04644-.03151-.07851-.06248-.094-.03151c-.063,0-.10947-.01548-.1725-.01548h-.36049c-.07851-.01549-.14043,0-.47.07851l-.23553.07795-.79837.23554-.23554.094-.21894.12495-.12606.047-.188.047-.29746.12551-.07851.03151-.36049.188-.21894.157-.063.06247-.21894.10948-.094.07851-.063.047-.094.06248-.04755.047-.12495.1725-.14154.094-.06192.063-.17251.10947a.414.414,0,0,0-.094.188l.031.063.04755.06248.219.2195.07851.047.157.094c.06192.01548.14043.06247.20346.07851l.157.078.10947.063a.45841.45841,0,0,0,.14043.031l.14154.094.345.14154c.04644,0,.125.031.1725.031l.1725.03152.14044.06247h.031l.063.047.29745.094c.04755,0,.094.016.14154.016l.07851.047c.10948.01548.23443.06248.36049.078.06192,0,.1725.03151.23442.03151l.345.07851.345.1725.157.235.01549.20347-.01549.11-.11057.125-.14044.1255-.251.11h-.07851l-.094.06247-.21895.06248-.03207-.01548-.15591.047-.408.03151-.70438.047H24.236l-.627.031h-.188l-.20347.016-.23442-.016-.18909.047h-.26539l-.408-.031h-.251l-.15592.01548h.01548l-.282.047h-.07851l-.22006.047H21.0237c-.094.016-.188.063-.282.07851l-.20347.047-.188.01548-.1725.016-.39256.094-.0774.01548-.22005.03151h-.063l-.06193.031-.10947.016-.14154-.157-.031-.10947.06192-.11.14154-.047.157-.06247.39144-.094.20347-.03152.22005-.047.188-.031.43789-.1725h.20457l.125-.03151.23554.01548.1725-.01548.12495-.03152.32953-.031.26538-.03151.23553-.01549.32953-.03151h.21894l.125-.03152.04755.016h.10947c.04755,0,.04755-.016.094-.016a1.1859,1.1859,0,0,1,.14154-.06247l.40693-.03152.23553-.06247H24.832l.094-.03152h.157l-.12606-.047-.1725-.07851-.14043-.047c-.04755,0-.10948-.031-.14155-.031l-.07851-.016-.40692-.20346c-.031,0-.04755-.03152-.063-.03152l-.14044-.06247-.23553-.11-.157-.06247c-.04644-.01549-.031-.047-.094-.06248a2.34536,2.34536,0,0,0-.376-.12551.63.63,0,0,1-.26649-.141l-.031-.01549c-.031,0-.07852-.016-.094-.016l-.14154-.047c-.031,0-.07851-.01548-.094-.01548l-.10947-.094-.063-.047.01659.01548-.157-.10948-.20347-.204-.04755-.188v-.094l.01548-.1255a.92816.92816,0,0,1,.14154-.282l.031-.047c0-.01548.03206-.06248.03206-.07851l.188-.235.188-.20347.125-.141.063-.047a.39552.39552,0,0,0,.06193-.11l.14154-.07851.04644-.047.18909-.141.21894-.12495.251-.14154.07851-.047.23442-.12495.01548-.016.10948-.047.063-.047.26649-.141.094-.01548.345-.1255.14043-.06248.12606-.03151.42241-.12551.26649-.078.345-.1255.10947-.03152.07851-.01548a.24793.24793,0,0,0,.063-.016l.157-.031a1.84569,1.84569,0,0,1,.282-.063l.4224-.047h.596l.31294.063.094.01548.20457.06248.20346.14154.10948.12495.031.063.04755.172.031.157Z"/><path class="cls-1" d="M34.67681,212.80819l-.03207.141-.07851.1725-.031.141a.59238.59238,0,0,0-.01548.15646l.01548.063.063.07851.06193.031a.27374.27374,0,0,0,.11058-.01549l.15591-.063.04755-.01549.59491-.31349.0951-.01548.61039-.40748a.05164.05164,0,0,0,.03207-.01548l.32842-.2195.07851-.047.094-.07851.1725-.094c.07851-.047.157-.12551.23553-.17251l.04645-.031.157-.11.15591-.141.23553-.15647.14154-.03151.094.06247.06192.11.03207.141-.03207.10947-.14043.03151c-.04755.01548-.094.06248-.14154.07851l-.188.10948-.063.06247-.17139.141a4.90594,4.90594,0,0,1-.627.47051l-.157.10947-.04755.03152-.07741.07851-.07851.10947-.12606.07851-.031.01548c-.031.01548-.063.06248-.094.07851l-.031.031-.157.09454-.094.094-.094.031-.157.063-.12495.06248-.282.20346-.03206.016-.125.094-.10947.06248-.14154.063-.14043.031-.157.016-.07851.031-.125.03152a.54153.54153,0,0,1-.157-.01548c-.031,0-.07851.01548-.10947.01548l-.14154-.12551c-.01549-.031-.01549-.06248-.04645-.06248l-.10947-.094-.07851-.157.01548-.329.01548-.282.01548-.141.10948-.282c0-.016.094-.11.094-.1255l.07851-.141.03207-.07851.0774-.20346.11058-.188a3.17156,3.17156,0,0,1,.15591-.45447l.11058-.298.06193-.2665a.77193.77193,0,0,0,.1725-.48543v-.047a.55121.55121,0,0,0-.282.078l-.282.141-.07851.016a.87976.87976,0,0,0-.125.078l-.157.1255-.01548.016-.12495.06247-.11058.094-.32842.15647-.04755.016-.188.10947-.063.063-.79837.47-.157.094-.31293.25046-.29856.251-.50092.423-.439.36049-.36048.26649-.094.047-.10947.06247-.20346.11-.22005.10947-.21895.141-.188.063h.01548l-.1725.047-.20347.01548-.14154-.01548-.1725-.17251-.031-.188.031-.235.07851-.23553c0-.031.031-.10947.031-.12495l.11058-.298.07741-.141.14154-.31349.10947-.25046.063-.11c.063-.125.157-.31349.20346-.43845l.04755-.11.21895-.36049.125-.188.22005-.34445.10947-.235.14154-.204.15592-.2195.063-.07851.21894-.34445.04755-.094.063-.06248.10947-.1725.04645-.11.094-.15647.1725-.188a3.25,3.25,0,0,1,.251-.36048l.282-.51751.12606-.078c.26539-.376.57943-.815.8614-1.19092l.031-.03152a.11969.11969,0,0,0,.01548-.06248l.04754-.094.094-.1255.10947-.188.04755-.07851.20346-.31349.07851-.10947.04645-.07851.188-.298c.01659-.047.063-.094.07851-.141l.10947-.141.251-.40748.157-.282.31293-.47.094-.141c.094-.157.23554-.31349.32953-.47051l.031-.031c.01659-.03151.01659-.03151.01659-.047l.188-.23553.0774-.141.063-.141a.23173.23173,0,0,0,.031-.06248l.314-.423.20346-.23553.376-.40693c.20457-.18853.376-.251.48654-.2195.20347.047.29746.50148.21895.62643l-.376.533-.282.36048-.22005.235-.21895.31349-.21894.282-.439.5645-.14154.2195-.07851.125-.1725.31349-.125.12551-.61149.84592-.14044.1725-.12606.204-.06192.10947-.10947.094-.07852.11c-.04754.06248-.094.172-.14154.21894l-.251.36049-.14043.188-.23553.23553-.125.172a.12036.12036,0,0,0-.01548.063l-.23553.34445-.14044.235-.157.14154c-.23553.329-.48544.73645-.70549,1.06543-.14043.21949-.29745.439-.439.64246l-.04645.094-.063.07851c-.14044.188-.2665.423-.45448.73645l-.04644.10947c-.01659.07851-.063.12551-.094.2195l-.188.376-.04755.18853-.21894.50147c-.03207.094-.01659.01549-.04755.10948l-.20347.517c0,.063-.031.11-.031.188h.04645l.157-.094.10947-.094.157-.10947.07851-.094.094-.07851.24991-.17251.04755-.01548.14043-.10947.45448-.28253.11058-.078.06192-.047.14154-.141.031-.016c.07851-.047.157-.12551.23554-.1725l-.01549.016.47-.392.39145-.26649.29746-.17195h.03206c.14044-.09455.21895-.17251.31294-.2195l.12495-.07851.28308-.188.40693-.26649.14154-.07851.39145-.10947h.063a1.36465,1.36465,0,0,1,.89237.06247c.439.2195.345.486.22005.84648-.063.188-.157.34445-.20347.486a.83.83,0,0,1-.063.172c-.07851.188-.14154.298-.188.42352l-.188.45447Z"/><path class="cls-1" d="M42.6108,212.11873l.125-.1725.125-.141h.01548l.157-.1725.04755-.06248h-.01548l-.18909.047-.43789.1725-.157.031-.48544.28253-.12606.078-.10948.047-.10947.063-.36048.17195-.408.23554-.10947.047-.282.125-.01549.016-.21894.125-.063.016c-.094.047-.188.1255-.282.1725l-.094.06248-.157.10947-.094.03151a.41234.41234,0,0,1-.12495.047,3.5239,3.5239,0,0,0-.32953.204l-.29745.15646H38.473l-.188.07851-.10948-.016c-.031.03152-.063.016-.14154.047a.35852.35852,0,0,0-.0774.07851l-.314.11-.10948.01548-.26649.10948-.094.016-.10947-.016c-.31405.03151-.564-.031-.65795-.282a1.146,1.146,0,0,1,.10948-.768l.07851-.21949.094-.10948a.05423.05423,0,0,0,.01548-.03151l.125-.188.10948-.15647.157-.188.188-.188.063-.07851.14043-.11.17251-.15647.721-.64246.22005-.1725.10947-.10948.188-.157.031-.01548.126-.07851.31294-.282.26649-.2195.10948-.094.23553-.12551.01548-.01548.14043-.06248.04755-.016a1.47624,1.47624,0,0,1,.251-.10947l.564-.282.14043-.063.094-.031c.094-.016.1725-.063.2665-.07851l.063-.047.157-.01548.094-.03151.10947-.03152h.23553l.3439.047a.167.167,0,0,0,.07851.03151l.1725.141.01548.15647-.031.14154a.626.626,0,0,1-.596.376c-.031,0-.07741.01549-.10948.01549h-.6115l-.10947.01548-.094.03151-.20346.063-.2665.078-.345.141-.40693.21949-.07851.047-.20346.141-.70549.5175-.04645.047-.14154.15647-.14154.141-.10947.063-.12495.10948-.031.03151-.157.125v.03151l-.157.188-.188.17251v.01548l-.094.11-.063.078-.031.04755a.16108.16108,0,0,1-.01548.047l-.094.094-.063.07795-.1725.235-.094.204-.04644.094-.07851.094-.04755.06248-.01548.03151v.11c.10947-.03152.1725-.09454.282-.12551l.14154-.03151.23443-.07851.10947-.01548.54957-.25046.07741-.04755.14154-.078.20346-.063.094-.047a1.48164,1.48164,0,0,0,.39144-.188l.11058-.078.14044-.07851.04754-.047.094-.016.188-.094.12495-.06247.10947-.06248.42352-.2195.10947-.07851.47-.2195.063-.01548.26649-.1255.188-.141.251-.12551.07851-.06248.12495-.07851.07851-.06247.188-.12551.23553-.141.48544-.10947h.21894l.1725.031.157.094.01548.016a.54584.54584,0,0,1,.26649.25046v.094l-.01548.047-.063.094-.031.157-.14154.094-.06193.06248-.14154.204-.12495.10948-.32952.376-.031.047-.157.2195-.04754.094-.031.07851c-.01548.047-.04644.047-.04644.06248.04644,0,.07741-.01549.14043-.01549l.157-.01548h.063l.20346-.047.1725-.03152.094-.03151.20347-.047.54847-.15647.07851-.03151.14043-.03152.188-.06247.14154-.06248.063-.016.06193-.047.54847-.141.14154-.047.04644-.047.76852-.2195.14043-.031.31405-.094a.34679.34679,0,0,1,.12495.01548.941.941,0,0,0,.157.03152v.26594l-.157.14154h-.1725l-.23443.06247-.188.094h-.094l-.22005.06247-.094.03152-.376.1725-.2665.12551-.31293.094-.345.125-.094.03152-.063.01548-.12495.094-.14154.04755-.094.031-.125.07851-.063.03151-.39144.15647-.125.06248-.42351.157-.1725.06248a.8503.8503,0,0,1-.10948.063l-.23553.06247h-.20346l-.14154-.01548-.07741-.03151-.11058-.03152-.14043-.15647v-.157a.39515.39515,0,0,1,0-.235l.07851-.1725v-.031l.14043-.188.04755-.07851.125-.15647Z"/><path class="cls-1" d="M46.64138,212.19724a.05641.05641,0,0,0,.01548-.03151l.10947-.188.11058-.188.1725-.251.36049-.59546.0774-.12551.04755-.06248.21895-.439.29856-.56395a4.725,4.725,0,0,0,.14043-.47,1.274,1.274,0,0,0,.01548-.32952.8502.8502,0,0,1,.03207-.29746.49367.49367,0,0,1,.42241-.282c.408,0,.56395.25046.45448.64246a3.12226,3.12226,0,0,1-.251.58l-.29745.64246-.157.235-.07741.1725-.07851.15647-.22005.282-.031.11-.094.094c-.094.125-.21895.329-.29746.45448l-.251.36048a2.71019,2.71019,0,0,1-.10947.282l-.12606.188.03206-.01548.20347-.18854.40693-.376.04755-.06248.031-.063.251-.17195.063-.063.23443-.1725.04754-.031.40693-.2665.063-.01548.251-.14154c.04644-.01548.094-.06247.14043-.078a1.6197,1.6197,0,0,1,.502-.141h.06192l.345.01548.22005.15647.14044.204.04755.2665v.141l-.01548.15647-.03207.188-.01548.11v.15647l-.094.392c0,.047-.01548.07851-.01548.12551l.031.12495.01548.07851a.86853.86853,0,0,0,.063.15647l.01548.07851.063.11c.01548.01549,0,.01549.01548.01549l.14154.06247a2.52059,2.52059,0,0,0,.65794-.047l.282-.125.10947-.016c.063-.01548.157-.06248.20346-.07851l.12606-.01548.23443-.094.46995-.188h.04755l.2665-.094.533-.251.20347-.141.07851-.01548.345-.1725.10948-.07851.12495-.10948.14154-.07851.439-.20346.53188-.31349.094-.06248.20457-.1255.07851-.03152.20346-.141h.17251l.094.07851.04644.07851-.031.17195-.157.11-.282.188a3.22517,3.22517,0,0,1-.50092.31349l-.23553.172-.157.063-.23443.15647-.188.094c-.12606.07851-.29856.157-.51751.2665l-.251.141-.6889.345H53.317c-.06192.047-.15591.094-.20346.141l-.21895.1255-.22005.06248a1.31547,1.31547,0,0,0-.20346.11l-.14154.06248-.1714.03152-.188.031-.11058.016-.06193.031-.063.016-.04755.01548a.451.451,0,0,1-.188.03151l-.14043.031-.157.047-.1725.016-.188-.016-.094.03152-.157-.01549a1.16635,1.16635,0,0,1-.47-.1255h-.01548l-.063-.03152a.67958.67958,0,0,1-.32842-.43844,1.54633,1.54633,0,0,1-.01548-.28253v-.188l.06193-.188.094-.329.157-.54847c0-.03152.01548-.094.01548-.12551.01548-.15647-.01548-.282-.10947-.31349a.67578.67578,0,0,0-.1725.03152.10694.10694,0,0,1-.063.047l-.10948.06248-.15591.07851-.14154.063-.21895.15647-.07851.03151-.157.15647-.157.141-.188.1255c-.063.06248-.188.20347-.251.25046l-.14043.09455-.12495.078-.04755.047-.21895.204-.03207.01548-.12495.07851-.07851.06248-.04644.047-.20457.235-.188.141-.282.298-.47.486-.094.094-.29746.20347-.14154.016a.42258.42258,0,0,1-.29745-.32952.75481.75481,0,0,1,.20346-.57943l.10948-.17251.32952-.439.094-.1725.14043-.188.03207-.06247.23443-.36049Z"/><path class="cls-1" d="M70.59209,208.85888h.03206l.87689-1.0809.063-.141.345-.37652.17251-.29745.10947-.047c.157-.204.29746-.40748.45448-.59546.188-.26649.39144-.5645.59491-.831a.26383.26383,0,0,1,.03207-.047,1.66148,1.66148,0,0,0,.094-.17195l.07851-.23553.20346-.235.23443-.423.063-.10948.12495-.26649.04755-.11.23553-.34445.094-.2195.10947-.20346.219-.533c0-.03151.03207-.07851.03207-.11a1.30748,1.30748,0,0,0,.01548-.39145v-.157l-.01548-.06248-.03207-.1725a.71768.71768,0,0,1-.031-.078,1.20763,1.20763,0,0,0-.22005-.07851,1.05381,1.05381,0,0,0-.62588,0l-.565.2195-.1725.078-.125.03151c-.157.06248-.31293.1725-.46995.2195l-.17251.07851-.063.047-.1725.078-.15591.047a1.58233,1.58233,0,0,0-.282.141l-.188.11-.251.141-.01549.01548c-.07851.047-.282.141-.565.32952l-.48544.25046-.031.01549-.92444.627-.20457.141-.21894.12551-.73645.50147-.157.12551-.17251.125-.15591.12551-.22005.157-.21895.12495c-.20346.14154-.42351.32952-.627.486l-.54846.423-.14154.11-.188.1725-.04644.047-.23553.20346-.29746.188-.376.31349-.6115.54846-.36049.423-.376.54846-.282.36049-.188.141a1.06108,1.06108,0,0,1-.70549.23553c-.31294-.14154-.282-.28253-.282-.439v-.094a1.47013,1.47013,0,0,1,.36049-.627l.47-.517.12606-.12551.20346-.1725.29746-.282.14154-.10948.45447-.31349.04645-.047.063-.047.12495-.1255h.03207l.14043-.10948.439-.345.21894-.141c.04755-.047.094-.063.14154-.11l.125-.094.26649-.20346a1.30773,1.30773,0,0,1,.32952-.235.69808.69808,0,0,0,.14044-.07851l.70549-.50147.094-.06248.094-.094.47-.31349.188-.11.22-.10947.29746-.188.345-.2195.31294-.188.04755-.047.29745-.1725.32953-.235.31293-.204.439-.20346.07851-.06248.282-.141.39145-.18854.20347-.10947.26649-.1725c.251-.141.502-.25046.815-.39145l.20347-.094.251-.11.188-.047h.01548l.04755-.01549.31294-.157.345-.141.14154-.031.188-.03151c.01548,0,.01548,0,.04644-.016a3.32508,3.32508,0,0,1,.89347-.078.93453.93453,0,0,1,.79948.329.98838.98838,0,0,1,.10947.50147l.04755.12551v.15647l-.04755.157-.10947.20346-.04755.251-.04644.125c-.01548.047-.04755.047-.063.094l-.07851.1255v.11l-.14043.141v.031l-.07851.141-.282.486-.063.1255-.188.282-.07851.094-.157.298A19.29755,19.29755,0,0,1,73.1,206.618l-.10947.12551-.03207.03152c-.031.031-.06192.10947-.094.141l-.23442.329-.17251.188-.596.815-.14044.15647-.533.75248-.42351.45448-.14044.188-.36048.50148-.12606.1255-.36048.47-.23443.235-.20346.282-.17251.251-.314.376-.031.063.157-.11.1714-.17251.36048-.26594c.01659-.03151.01659-.07851.063-.07851l.23553-.235h.031a.7936.7936,0,0,1,.10948-.1255c0-.047.03207-.12551.157-.141l.878-.87744.376-.40748.31293-.26649.439-.329.188-.157.1725-.15646.063-.07851.36049-.282.43789-.345L73.57,207.872l.094-.047c.063-.063.063-.047.10948-.094l.314-.2665.14043-.07851.094-.07851.39145-.29746.1725-.11.20457-.15647.10948-.07851a.40959.40959,0,0,0,.07851-.094l.2499-.15647.12606-.11.031-.01549.32953-.188.29745-.157.07851-.06248.094-.07851.39144-.21894.48655-.2665.21894-.11.219-.125.12606-.063.04644-.01549.282-.094.07851-.016a1.52611,1.52611,0,0,1,.86252-.094c.15591.047.26649.094.31293.251v.047l.01548.03151a.487.487,0,0,1,.063.282v.188l-.031.1255-.157.329-.12495.26649-.14154.2195-.031.07795-.251.392-.031.01549-.03207.11-.12495.188c-.03207.06248-.094.125-.12606.188l-.12495.1725-.063.01548a.05644.05644,0,0,1-.01549.03152l-.06192.094-.0951.10947-.0774.07851a.16982.16982,0,0,1-.14154.1725l-.10947.125a.35614.35614,0,0,1-.01548.063l-.12606.141-.07851.12551-.20347.235-.188.235-.67342.93991-.2665.40748-.07851.07851-.07851.094c-.04644.063-.094.1725-.14043.21949l-.063.047-.251.329-.031.03151a.70868.70868,0,0,0-.03207.15647l-.188.32953-.0774.094-.22005.423c-.031.094-.07851.15647-.10948.25046l-.21894.42351-.42352.59547-.063.188-.1725.25046-.094.204c-.01548.047-.031.094-.04644.15647l.031-.031.157-.11.14043-.12551.23554-.17195.21894-.1725.03207-.047.12495-.094.094-.094.23554-.188.627-.50147.094-.094.23442-.17251.12606-.1255.23443-.1725.094-.031.23553-.204a.06851.06851,0,0,1,.01548-.047l.1725-.094.20347-.141.04755-.047.14043-.12551.063-.06248.2665-.235v-.03151l.15591-.094.86251-.78345.07851-.11.04644-.047a.2642.2642,0,0,1,.23554-.20347l.10947-.063h.01548l.188-.17195.188-.157.79948-.65794.125-.141.14154-.07851.345-.329.157-.11.98636-.83044.251-.2195.20346-.10947.502-.423.439-.439.282-.188.376-.235.282-.251.12495-.1255.58054-.45448.094-.078.06192-.047.23554-.2195.094-.07851a4.25688,4.25688,0,0,0,.84592-.68946l.12606-.06247.282-.251.31293-.26649.188-.094.063-.06248.063-.07851.094-.07851.21894-.125.39145-.251.188-.1725.04755-.031.157-.12551.219-.141.10947-.047.26649-.07851.22005-.03152a1.06117,1.06117,0,0,1,.9554.11l.21895.36049a2.00734,2.00734,0,0,1,.157.70493,1.37889,1.37889,0,0,1-.094.439l-.063.235-.1714.392-.01659.06247-.0774.188c-.01659.094-.063.204-.07851.298l-.12606.34445-.031.1725-.188.45448-.282.59546-.094.15647-.23554.5175-.14043.20347-.07851.141-.29746.58-.094.188c-.063.12551-.157.31349-.20457.439-.1725.36048-.29745.564-.439.815-.07741.141-.1714.29746-.282.517l-.47.89348-.04644.07795-.12606.2195-.1725.251c-.031.06247-.125.20346-.1714.282l-.157.34445-.07851.063-.063.141-.07851.188-.14043.251-.125.141-.07851.10947-.23553.36049c0,.03151-.01548.07851-.01548.094l-.1725.282-.04645.094-.28308.439c0,.03152-.01548.094-.01548.12551l-.64246,1.00294c0,.01549-.01548.06248-.01548.078l-.12495.2665-.188.282-.063.094-.23554.37652-.094.078-.10947.1725-.188.298-.094.12495a.328.328,0,0,0-.031.09455l-.314.47-.10947.15646-.23553.47051-.15592.235-.04755.094-.04644.06247c-.251.439-.32952.64246-.502.98747l-.157.34445-.20346.439-.031.10948-.063.18853-.04645.10947-.188.40749a4.3641,4.3641,0,0,0-.157.423l-.094.204-.12606.36049a.316.316,0,0,0-.06192.125,5.34494,5.34494,0,0,0-.376,1.207v.20346l.01548.141.01548.047.01548.063a.272.272,0,0,0,.094.125c.01548-.01548.07851-.01548.10948-.031a.81747.81747,0,0,1,.20457-.016.493.493,0,0,1,.26649.09454.22731.22731,0,0,1,.0774.31294,1.33326,1.33326,0,0,1-.29745.36049.93819.93819,0,0,1-.564.188.61416.61416,0,0,1-.51751-.26594,1.262,1.262,0,0,1-.15591-.58,5.3614,5.3614,0,0,1,.17139-1.23793,13.5493,13.5493,0,0,1,.815-2.11591l.157-.329a13.52653,13.52653,0,0,1,.73645-1.50442l.094-.188.12606-.20346.31294-.6115.42351-.627c.15592-.29745.32842-.61094.50092-.89292a.27922.27922,0,0,0,.01548-.094l.157-.188.439-.784.04644-.078a.87945.87945,0,0,1,.12606-.2195l.40693-.65849.03207-.06248.14043-.2195.32953-.56395.251-.439c.01548-.06248.0774-.1725.094-.2195l.81386-1.31588.22005-.32952.04644-.10948.14154-.1725.31294-.54847.345-.58.282-.62643.10947-.1725.251-.50147a2.41429,2.41429,0,0,1,.20346-.439l.18909-.43844.094-.2195.0774-.31349.23553-.40748.282-.68945.251-.64246.12495-.204.157-.43844.157-.32953.12495-.376.10947-.31349a1.35027,1.35027,0,0,0,.063-.73646l-.04755-.141-.094-.094h-.12495l-.251.01548-.188.094-.031.03151-.20346.12551-.627.40748-.22005.141-.15592.10947-.29856.1725-.188.141-.93992.64246-.20346.12551-.04755.047-.17251.094-.67342.517-.26649.2195-.29746.235-.04755.016a2.89465,2.89465,0,0,1-.251.20346l-.39145.31349-.063.06248-.125.14154-.157.10947c-.0774.06248-.20346.141-.26649.20347l-.15592.157-.76852.65794-.29745.26649-.125.11-.12606.06247c-.23442.20347-.50092.47-.73645.674l-.23442.172-.14154.14154-.17251.17195-.157.1725-.04644.016-.063.06248-.10947.07851-.04645.047-.345.29745-.094.07851-.094.15647-.251.141-.031.047-1.36343,1.22245c-.01548.03151,0,.03151-.282.235l-.03207.047-.39145.345-.42351.392-.094.07795-.188.235-.188.07851-.26649.235a2.86466,2.86466,0,0,1-.29746.2195l-.12495.094-.2665.235-.188.1725-.157.094a.16264.16264,0,0,1-.07851.03152l-.533.533-.345.31293-.14044.157-.29745.329-.251.31349-.314.345-.10947.078a.76175.76175,0,0,1-.376.1255c-.376,0-.533-.1255-.54847-.486l.031-.20346.03206-.094.06193-.157.11058-.21894.094-.204.31293-.564a3.14444,3.14444,0,0,1,.29746-.486l.12606-.20346.21894-.36049c.01548-.047.07851-.1255.12606-.251l.31294-.48544c.07851-.157.188-.31349.26649-.47051l.094-.10947.04645-.12551.314-.439.1725-.26594a1.66422,1.66422,0,0,0,.125-.1725l.063-.07851.31293-.47.22005-.36048.10948-.11.21894-.29745v-.01548a.27487.27487,0,0,0,.07851-.11l.07851-.141c0-.03151.04755-.06247.125-.1725l.126-.141.07852-.07795.54846-.784.01548-.01549.06193-.07851.45448-.64246.11057-.15646.06193-.07851a.65842.65842,0,0,1,.01658-.07852l.125-.17194.14043-.18854.04755-.10947.282-.47.094-.188c0-.03152.031-.063.07851-.2195v-.141l.031-.141c-.01548-.03151-.07851-.03151-.1725-.016a3.08273,3.08273,0,0,0-.71987.26649l-.04755.01548-.67342.37652-.251.15647-.14154.11-.06192.031-.157.063-.1725.10947-.564.345-.063.047-.04644.031-.282.188-.18909.1255a9.61332,9.61332,0,0,0-.909.58,2.49355,2.49355,0,0,0-.29745.235l-.125.141-.10947.07851-.094.07851-.14154.094-.10947.094-.56395.50147-.188.21894-.22005.2195-.32841.2665-.188.1725h.01548l-.29856.25046-.95539.972-.64246.65794-.125.11a.87787.87787,0,0,1-.18909.21894l-.188.18854-.29746.31294-.07851.1255-.20346.1725c-.01548.01548-.063.06248-.063.07851l-.1725.188-.5164.54847-.32953.39144c-.06192.07851-.125.204-.188.2665l-.063.063-.094.07795-.06192.12551-.502.611-.14043.1725c-.2665.282-.533.50147-.847.45447a.36317.36317,0,0,1-.282-.36048.76353.76353,0,0,1,.07851-.376l.23553-.45447.20347-.31349.70549-1.00295.094-.10947.61039-.815.12606-.141.26649-.31349.68891-.89347.12606-.15647.094-.094.40693-.50148a.17237.17237,0,0,0,.01548-.07851l.92443-1.09693Z"/><path class="cls-1" d="M93.90863,211.24129a1.82787,1.82787,0,0,1-.14154.40748,1.73012,1.73012,0,0,1-.07851.21895l-.15592.2195-.1725.1255-.14154.141-.14043.15647-.157.12551a5.885,5.885,0,0,1-.972.68945l-.031.016-.20346.141-.094.031-.04754.03151-.14044.094-.11058.11-.094.01548a.42445.42445,0,0,1-.06192.07851l-.14154.06248-.04645.01548-.1725.047-.10947.03152-.063.01548c-.01548.016-.04755.047-.063.047l-.04644.016a4.39854,4.39854,0,0,1-.6115.2195l-.04644.047-.0951.01548-.219.03152h-.10947l-.29745-.016a2.222,2.222,0,0,1-.36049-.031,1.34647,1.34647,0,0,1-.345-.11l-.031-.01549a.89394.89394,0,0,1-.39255-.36048l-.04644-.12551-.01548-.141.06192-.31349.10947-.188.14154-.20346.564-.5645.188-.172.157-.12551.063-.063.3439-.25046.01658-.01548a.45188.45188,0,0,1,.094-.07851l.17251-.141.0774-.063.37707-.282.10948-.10947h.04644l.157-.11.1725-.10947.20347-.12551.31293-.2195.07851-.047.07851-.047H91.2448c-.03207,0-.063.016-.11058.016a2.85522,2.85522,0,0,1-.39145.031l-.39144.016-.188-.047-.12606-.07851-.12495-.15647.01548-.18854.157-.26594.20347-.07851.188-.03152.20346-.01548.11058.047.2665.047a4.18484,4.18484,0,0,1,.62587.047h.23553l.23553.01548.29746-.047.063.016.21894-.03151a.77076.77076,0,0,0,.10947-.047l.188-.12551.12606-.06247h.01548l.12495-.063.14154-.01548.125-.01549a1.35414,1.35414,0,0,1,.36048-.016h.094l.07851.03152a.6959.6959,0,0,1,.188.094l.376-.06248.188-.047.23553-.016.2499-.078.12606-.016.157-.01548H95.93l.12495-.01548.20457.01548a.71587.71587,0,0,0,.17251-.01548h.15591c.04755,0,.094-.016.14154-.016l.094-.031.063.01548h.094l.094-.01548H97.184l.1725.01548.15592-.01548.11058.031h.04644l.12495.016.07851.01548a3.13526,3.13526,0,0,1,.48655.1255l.031.01549h.063l.14043.07851h-.01548c.14154.031.14154.06247.1725.094a.11835.11835,0,0,0,.063.01548l.20347.204.063.12495.01548.188-.03207.157-.0774.15647-.14154.2195a.70153.70153,0,0,1-.14154.188l-.094.094-.188.047-.094-.01548-.01548-.188.01548-.07851.03207-.10948.06192-.1255.11058-.188.06192-.204v-.047l-.12495-.06248-.10947-.07851-.23554-.06247a4.81568,4.81568,0,0,0-1.00294-.07851H96.8865l-.18909.016a.81011.81011,0,0,0-.20346.031.62842.62842,0,0,1-.188.016c-.68891.047-1.17545.10947-1.66089.188l-.12495.031-.063.047-.29746-.01548-.314.047-.439.063-.10947.047.07851.06247.031.01548.12606.07852.24991.26649.063.141.07851.188-.01548.31349Zm-.972.48544a2.02938,2.02938,0,0,0,.251-.40748v-.094l.063-.1725c0-.047.01548-.078.01548-.141a1.47144,1.47144,0,0,1-.07851-.15647l-.01548-.01548-.10947-.07851-.12606-.07851-.094-.031-.094-.03152-.188-.11a.07643.07643,0,0,1-.04644-.01548l-.11058.07851a9.81167,9.81167,0,0,1-.909.54847l-.43789.26649-.188.125-.07851.047c-.11058.063-.22005.157-.32952.2195l-.094.07851-.20347.141-.1725.15647-.1725.11-.10947.094-.20347.15647a1.20865,1.20865,0,0,0-.14154.157l-.14154.188-.12495.141a1.9206,1.9206,0,0,0-.20347.345.07772.07772,0,0,0-.01548.047l-.03207.078-.01548.1255-.01548.047v.094l.094.094.07851.047h.031a2.11344,2.11344,0,0,0,1.09693-.188c.251-.07851.48655-.17251.69-.25046l.031-.016.282-.141.29856-.235h.10947l.439-.29746.0774-.063c.12606-.094.251-.2195.37708-.329l.04644-.06248.157-.14154.14043-.141a.161.161,0,0,1,.01549-.047l.11057-.10947Z"/><path class="cls-1" d="M104.09842,214.5791l-.20457.141-.26649.141-.23443.10948-.23553.1255-.10947.016-.345.15647-.1725.01548a.30563.30563,0,0,1-.0774.016l-.11058.01548-.14044-.01548-.157-.016-.12495-.094-.14154-.141-.10947-.1725-.14154-.282-.031-.12551v-.46995a1.25681,1.25681,0,0,1,.01548-.34445c0-.03152.01549-.07852.01549-.14154v-.078l.063-.50148.094-.26649c0-.01548.01548-.06248.01548-.094l.094-.36049c0-.03151.01659-.047.01659-.06247l.06192-.09455.157-.376.01548-.06248.031-.11.11058-.282a.23191.23191,0,0,0,.031-.06248l.04755-.141a.67354.67354,0,0,1,.01548-.07851l.04645-.12551-.04645-.15647-.01548-.047-.063-.157-.031-.031-.18909.20347-.26539.31349-.345.282-.251.204-.70549.70493-.031.016-.10948.125-.094.07851-.1725.15647-.10947.09454-.17251.188-.12605.172-.21895.14154c-.04755.06247-.14154.125-.1725.172l-.219.157-.1725.094a.55205.55205,0,0,0-.094.07851l-.1725.10947-.094.06248-.42352.26649-.10947.07851-.125.06248a2.8513,2.8513,0,0,1-1.38.47051,1.75656,1.75656,0,0,1-.376-.12551.37254.37254,0,0,1-.14043-.094c-.03207-.03151-.07851-.047-.188-.36048l-.01548-.282.031-.251.063-.15647c.01549-.047.06193-.1255.07741-.188l.12606-.23553.157-.282.04644-.078.063-.11.15592-.235.11058-.141.15591-.188v-.016l.12606-.10948.64246-.59546.20346-.157.39145-.376.07851-.047.188-.15647.063-.03152.20346-.141.094-.094.157-.094.094-.063.125-.078.251-.1725.26649-.141.10948-.06248.12606-.03152.23442-.094.188-.11.188-.094.04755-.01549.1725-.06247a.37778.37778,0,0,1,.14043-.016c.01548,0,.03207,0,.10948-.047a1.88146,1.88146,0,0,1,.721.016c.03206,0,.07851.01548.11057.01548l.14044.06248.12495.063a.53021.53021,0,0,1,.1725.15647l.01659.03151.06192-.063.376-.36048.1725-.172.376-.36049.12606-.1725.32842-.345.188-.20347.408-.439.42352-.48544.282-.329a1.47368,1.47368,0,0,1,.188-.23553l.12495-.172.07851-.063.04644-.12551.48654-.57943.32843-.392.094-.094.29856-.392.04644-.078.32952-.439.094-.1255.26649-.36049.094-.10947.04644-.07851.282-.36049.094-.141.282-.329.39255-.517.157-.204.06192-.125.12606-.1725.188-.188.282-.298a.84174.84174,0,0,1,.47-.10947c.14043,0,.251.031.345.25046a.69307.69307,0,0,1-.14154.50147l-.23442.282-.22005.251-.47.423a.69345.69345,0,0,1-.094.11l-.23554.20347-.10947.1255-.1725.2195-.32842.34445-.1725.235-.03207.016-.0774.094-.11058.094-.39145.533c-.063.10947-.21894.31293-.26649.39144l-.1725.204-.17251.329-.0774.07851-.063.10947-.32952.564-.07851.07851-.40693.54847-.12606.15647-.10947.1725-.439.59547-.06192.063-.314.423c-.376.517-.67342.98746-.84592,1.2534a.46.46,0,0,0-.12495.17251l-.11058.188c-.21895.345-.39145.59546-.59491.98746,0,.01548-.01548.047-.01548.06248v.094l-.03207.157v.10948l-.04645.11-.07851.2195-.094.188-.20346.078h-.03207l-.10947.32952-.06193.188a.62858.62858,0,0,0-.03206.1725l-.094.235-.04644.29745-.063.298-.063.423c-.031.40748.063.59547.20457.674l.125.047a.40357.40357,0,0,0,.10947.03152l.12606-.04755.2499-.078a.85835.85835,0,0,0,.17251-.094l.12606-.016h.21894c.251-.125.6115-.329.909-.517l.23442-.15646.0951-.047.0774-.07851.17251-.11.10947-.06247.14154-.07851c.12495-.10948.31293-.235.42351-.34446l.20347-.094.20346-.157.12495-.10947.23554-.157.04755-.01548.06192-.047.14154-.1255.12495-.078.376-.28253.157-.094.42352-.36049.21894-.141.12495-.10948c.12606-.1255.28308-.157.37708-.07851.0774.07851.20346.251-.01659.376l-.06192.047c-.10948.09455-.2665.18854-.36049.28253l-.721.57943-.094.11-.04755.01548-.07851.063-.04644.01548c-.2665.20346-.533.40748-.784.58l-.2665.172-.094.063-.10948.125-.0785.016c-.282.20346-.6104.39145-.89237.59546l-.07851.07851-.251.172h-.031l-.07851.063Zm-6.66013-2.47585-.157.141-.14154.15647-.15592.251a.30356.30356,0,0,0-.063.12495l-.14154.31349c-.01548.12551-.0774.2665-.10947.40748a.565.565,0,0,0-.031.157l-.01548.21894.04644.1725h.094l.07851-.03151.07851-.031.157-.094.188-.1255.07851-.047.20346-.10947.188-.09454.04644-.047c.23553-.15647.439-.29746.64246-.45448l.22005-.141.10947-.078.094-.07851.07851-.12551.251-.2195.10947-.094.188-.172.1725-.14154.376-.329a9.22983,9.22983,0,0,0,.815-.721l.345-.34445.2499-.26649.20457-.188.125-.157.04755-.078-.04755-.11-.10948-.125-.094-.03151a.76043.76043,0,0,0-.32952-.01548,2.542,2.542,0,0,0-.76741.235l-.282.15647-.188.07851-.188.06247-.22006.11a5.37475,5.37475,0,0,0-1.12789.76741,1.02671,1.02671,0,0,0-.188.18854,2.31454,2.31454,0,0,1-.14154.20346l-.42241.423-.12606.141-.07851.063Zm5.10872-2.05344.12495.23553.031-.03151c.01659-.03152.07851-.141.11058-.188a.12036.12036,0,0,0,.01548-.063l.07851-.094.188-.29746.06192-.11.22005-.35993v-.016c-.063.094-.1725.204-.23553.298l-.12495.094Z"/><path class="cls-1" d="M110.68447,213.37214l-.188.141-.21894.09454-.12606.031-.10947.07851-.04755.03152c-.06193.01548-.14044.06247-.20347.07795l-.15591.094-.07851.03151-.29857.141-.06192.047-.251.157-.125.047a.2773.2773,0,0,1-.094.047l-.22005.125-.10947.04755-.10947.031-.251.047-.21894.11-.22005.031-.219-.01548-.188.047-.42351-.07851a.71549.71549,0,0,1-.39145-.29746l-.07851-.094.01548-.12551a1.17827,1.17827,0,0,1,.04755-.45447v-.094l.10947-.31349.12495-.31349c0-.01548.03207-.06248.03207-.094l.12495-.2195.10948-.125a.15505.15505,0,0,1,.01548-.047l.14154-.12551.07851-.1255c.031-.06248.094-.12551.12495-.188l.04755-.11.06192-.10948.04755-.047a2.31737,2.31737,0,0,1,.14044-.20347l.14154-.204.04644-.07851.188-.219.251-.345.07851-.188.20346-.251.07851-.10947.063-.12551.07851-.06247.20347-.31349.157-.2195.1725-.15647a.89257.89257,0,0,1,.564-.2195.57625.57625,0,0,1,.36048.20347v.11l-.03206.2195-.14044.15647-.188.20346-.22005.1725-.23443.204-.04755.10947-.29745.298-.157.219-.10948.157-.10947.10947a.27925.27925,0,0,0-.01548.094l-.157.094a.46538.46538,0,0,1-.04755.09455l-.23442.26594-.22006.251-.10947.15647-.07851.12551-.1725.298-.07741.07795a.27694.27694,0,0,0-.07851.11l-.094.26649-.03207.078-.14044.31349-.0785.31349v.06248l-.031.18853v.047h.10946l.10948.01548.063-.01548.094-.016.094.016h.07851c.10947-.016.20346-.063.32841-.07851l.14154-.047.14044-.03151a.26567.26567,0,0,1,.04755-.03152l.251-.141.06192-.047.376-.094.251-.094.12606-.031.5164-.251.12606-.06248.24991-.141.20457-.12551.12495-.07851.094-.01548.094-.063.20346-.12495.10947-.063.14154-.094.063-.06247.24991-.12551.07851-.06248.376-.188.14154-.07851.031-.016.11058-.078h.031l.07851-.07851.10947-.047.063-.06247.1725-.094.10948-.063.06192-.031.094-.04755c.11058-.06247.20457-.141.345-.21894l.094-.07851.1725.01548.12606.11.01548.141-.1725.188-.094.03151-.094.078-.251.1255-.48544.298-.14154.094-.20346.17195-.10947.03152-.07852.03151c-.282.188-.56394.39145-.83044.54847l-.094.094-.063.03152-.1725.06248-.063.047Zm1.52045-7.741a.84488.84488,0,0,1,0,.34445,1.16256,1.16256,0,0,1-.564.533l-.18908.141-.06193.047c-.07851.06247-.20346.141-.26649.20346l-.282.251-.251.20347-.10947.07851a.59757.59757,0,0,1-.29745.047l-.03207-.20346.01548-.063.22005-.517.06192-.10948.22005-.32952.125-.172.063-.07851.14043-.157.11058-.078.094-.07851.23443-.235.188-.094.12606-.03152a.49415.49415,0,0,1,.439.2665Z"/></g><path class="cls-1" d="M98.72414,126.2713a62.32463,62.32463,0,0,1-3.68953-7.04742q-1.66257-3.66207-3.03944-7.46058A122.8163,122.8163,0,0,1,87.454,96.26208a148.98644,148.98644,0,0,1-2.68166-15.96742c-.60269-5.37158-.88867-10.778-.96955-16.18771-.10894-5.41325.19785-10.82351.53154-16.23013.26817-2.69491.42148-5.40446.79391-8.09028l.49409-4.03717.6161-4.02112A240.52514,240.52514,0,0,1,93.57021,0,220.2699,220.2699,0,0,0,85.314,31.57067l-.72082,4.024-.59905,4.045c-.44246,2.6921-.666,5.41237-1.00407,8.12017-.491,5.43335-.833,10.88891-.82344,16.35333-.00276,5.462.20207,10.93063.72815,16.3767a150.99651,150.99651,0,0,0,2.46934,16.22856A125.07067,125.07067,0,0,0,89.745,112.57092c.889,2.6,1.92708,5.15012,3.04928,7.66646a68.59391,68.59391,0,0,0,3.29337,6.47544,97.10553,97.10553,0,0,0-11.1909,11.54288l-1.37391,1.64478c-.45482.5507-.85714,1.14178-1.28817,1.71082l-2.54447,3.4468c-1.549,2.3969-3.19468,4.73608-4.58236,7.232a115.31433,115.31433,0,0,0-7.58523,15.33034q-1.44,3.5535-2.64515,7.17517c-.04724-1.64993-.08961-3.3-.161-4.94934l-.43566-7.18959-.218-3.59448c-.08855-1.19728-.22381-2.392-.33345-3.58808l-.69452-7.17395c-.27005-2.3877-.63574-4.76662-.94921-7.15l-.48881-3.57338-.64107-3.55327-.64289-3.55269c-.205-1.1858-.42511-2.36889-.71579-3.53963a125.47353,125.47353,0,0,0-8.85459-27.52957L49.15736,96.129c-.53476-1.08757-1.17542-2.12334-1.75835-3.18706l-.89518-1.5853c-.30333-.52562-.65783-1.02147-.98531-1.53284-.679-1.00764-1.30939-2.04774-2.02881-3.027a77.0722,77.0722,0,0,0-8.63354-10.06312,52.65125,52.65125,0,0,0,8.41-7.41012,99.06915,99.06915,0,0,0,7.78894-9.6536c.38978-.54467.75517-1.10375,1.13786-1.65258q2.92708,5.595,5.5151,11.3598c.59712,1.3241,1.1484,2.668,1.72513,4.00142l1.62772,4.04268c1.08294,2.7296,2.19337,5.44871,3.3821,8.135a158.17967,158.17967,0,0,0,7.93427,15.73312,97.68169,97.68169,0,0,0,10.1556,14.39179,59.82523,59.82523,0,0,0,6.20986,6.24555,29.94871,29.94871,0,0,0,7.34489,4.78612,29.85635,29.85635,0,0,1-7.041-5.12738,59.20912,59.20912,0,0,1-5.89949-6.41561,99.04011,99.04011,0,0,1-9.493-14.60264,156.52718,156.52718,0,0,1-7.4771-15.75064c-1.1133-2.68711-2.14842-5.40616-3.15688-8.13506L61.4448,72.56222c-.55961-1.35915-1.09431-2.72954-1.67508-4.08019-1.82434-4.32907-3.8405-8.57382-6.01066-12.73915,3.71637-5.50925,7.14623-11.18633,10.50529-16.88686,4.16393-7.06184,8.23128-14.17443,12.78692-20.9688a100.10459,100.10459,0,0,1,7.36658-9.79131A40.60857,40.60857,0,0,1,93.57021,0a40.81511,40.81511,0,0,0-9.46056,7.82006,97.86619,97.86619,0,0,0-7.66007,9.65178c-4.7468,6.70974-9.00151,13.73636-13.33844,20.68674-3.33749,5.3649-6.66292,10.73689-10.23536,15.91889q-4.551-8.52038-9.92359-16.56782Q38.03868,30.17891,32.495,23.29233a145.98932,145.98932,0,0,0-11.879-13.15079L14.3691,4.11312l4.08306,7.7042A117.04879,117.04879,0,0,1,28.47777,37.99665a123.68769,123.68769,0,0,1,3.64605,27.84311q.09828,5.14425-.194,10.28863c-.012.21636-.02549.43255-.03856.64892A147.4798,147.4798,0,0,1,29.84055,93.9011c-.82245,4.63171-1.897,9.21594-3.12072,13.75717a115.04728,115.04728,0,0,1-4.44423,13.33516l-.29965.72534.56448.505a95.22527,95.22527,0,0,1,7.50705,7.43567,104.46165,104.46165,0,0,1,6.66052,8.24119,137.02,137.02,0,0,1,11.06531,18.13412,173.02376,173.02376,0,0,1,8.56831,19.51606c1.2366,3.3368,2.36959,6.71285,3.42283,10.11487,1.05651,3.401,2.02881,6.83165,2.82781,10.30651a159.31258,159.31258,0,0,0-5.56433-20.66394,174.06263,174.06263,0,0,0-8.05447-19.87214,131.51948,131.51948,0,0,0-10.83957-18.55771,106.31476,106.31476,0,0,0-6.63121-8.50461,95.55749,95.55749,0,0,0-6.99632-7.21919A133.18316,133.18316,0,0,0,32.2943,94.34878a150.81771,150.81771,0,0,0,2.00935-15.07752,72.36042,72.36042,0,0,1,7.258,8.88091c.682.95782,1.27622,1.97688,1.91887,2.96131.31025.49966.64294.9849.93661,1.49487l.85989,1.543c.56008,1.03588,1.17689,2.04024,1.6912,3.10115l1.52558,3.192a122.97246,122.97246,0,0,1,8.53613,27.03091c.28066,1.15274.49175,2.32154.688,3.49373l.61651,3.50991.61552,3.50985.46508,3.537c.29782,2.35963.648,4.71182.90332,7.077l.65173,7.11083c.10268,1.18561.2309,2.36871.31266,3.55638l.1979,3.56752.39628,7.13439c.1212,2.37867.12653,4.76444.19562,7.14617l.197,7.14734.32267,11.70667,2.49741-11.45227A100.92788,100.92788,0,0,1,70.081,168.6544a112.61288,112.61288,0,0,1,7.33558-15.017c1.34232-2.4466,2.93823-4.73409,4.43685-7.08358l2.46494-3.37342c.4175-.557.80651-1.13674,1.24721-1.67532l1.33119-1.60873a98.52978,98.52978,0,0,1,11.59415-11.98663l.80235-.72768ZM31.21593,37.31679a110.33349,110.33349,0,0,0-6.47832-18.94767c1.9501,2.15188,3.84325,4.37081,5.68253,6.6103,3.675,4.49164,7.13621,9.16121,10.3974,13.96627A194.68774,194.68774,0,0,1,51.284,56.31333c-.551.77257-1.08576,1.55751-1.651,2.31913a97.23438,97.23438,0,0,1-7.78314,9.35267,52.41027,52.41027,0,0,1-7.22751,6.34728c.13567-2.84218.19691-5.68857.15894-8.53608A126.42764,126.42764,0,0,0,31.21593,37.31679Z"/></g></g></svg>