<?xml version="1.0" encoding="utf-8"?>
<!-- Generator: Adobe Illustrator 23.0.0, SVG Export Plug-In . SVG Version: 6.00 Build 0)  -->
<svg version="1.1" id="Layer_1" xmlns="http://www.w3.org/2000/svg" xmlns:xlink="http://www.w3.org/1999/xlink" x="0px" y="0px"
	 viewBox="0 0 595.3 841.9" style="enable-background:new 0 0 595.3 841.9;" xml:space="preserve">
<style type="text/css">
	.st0{clip-path:url(#SVGID_2_);fill:#FFFFFF;}
	.st1{clip-path:url(#SVGID_4_);}
	.st2{fill:#F63000;}
	.st3{fill:#FFFFFF;}
	.st4{enable-background:new    ;}
	.st5{clip-path:url(#SVGID_6_);}
	.st6{fill:#010101;}
	.st7{font-family:'JosefinSans-Light';}
	.st8{font-size:7px;}
	.st9{fill:#0D0A0D;}
	.st10{opacity:5.000000e-02;clip-path:url(#SVGID_8_);}
</style>
<g>
	<g>
		<g>
			<g>
				<defs>
					<rect id="SVGID_1_" y="0" width="595.3" height="841.9"/>
				</defs>
				<clipPath id="SVGID_2_">
					<use xlink:href="#SVGID_1_"  style="overflow:visible;"/>
				</clipPath>
				<rect y="0" class="st0" width="595.3" height="841.9"/>
			</g>
		</g>
	</g>
	<g>
		<g>
			<g>
				<defs>
					<rect id="SVGID_3_" y="0" width="595.3" height="841.9"/>
				</defs>
				<clipPath id="SVGID_4_">
					<use xlink:href="#SVGID_3_"  style="overflow:visible;"/>
				</clipPath>
				<g class="st1">
					<g>
						<path class="st2" d="M14.2,134.6c0,2.7,2.2,4.9,4.9,4.9H92c2.7,0,4.9-2.2,4.9-4.9V0c0-2.7-2.2-4.9-4.9-4.9H19
							c-2.7,0-4.9,2.2-4.9,4.9L14.2,134.6L14.2,134.6z"/>
					</g>
					<g>
						<g id="final_1_">
							<g>
								<path class="st3" d="M73.2,10.6c-3,2.8-5.5,6.2-7.8,9.6c-2.3,3.4-4.4,7-6.5,10.5c-2.2,3.5-4.4,7-6.9,10.3s-5.3,6.4-8.7,9
									l0.2-0.6c0.1,0.3,0.1,0.7-0.1,0.9l-0.1-0.7c1.7,1.6,3.3,3.6,4.6,5.6c0.7,1,1.2,2.1,1.8,3.2c0.5,1.1,1,2.2,1.5,3.3
									c1.8,4.5,3.2,9.1,4.2,13.8c0.6,2.3,0.9,4.7,1.3,7.1c0.4,2.4,0.7,4.8,1,7.1c0.2,2.4,0.5,4.8,0.6,7.2l0.4,7.2l-1.4-0.1
									c0.6-2.9,1.6-5.6,2.7-8.3c1.1-2.7,2.4-5.3,3.9-7.8c0.7-1.3,1.5-2.5,2.3-3.7c0.9-1.2,1.7-2.4,2.6-3.5
									c1.8-2.3,3.9-4.3,6.1-6.2l-0.1,0.8c-2.9-4.9-4.5-10.3-5.7-15.7c-1.1-5.5-1.6-11-1.6-16.6l0.1-4.2c0-1.4,0.2-2.8,0.3-4.1
									c0.2-2.8,0.7-5.5,1.2-8.2c0.2-1.4,0.5-2.7,0.8-4.1l0.9-4C71.6,15.9,72.5,13.3,73.2,10.6z M73.2,10.6c-0.7,2.6-1.4,5.3-2.1,8
									l-0.8,4.1c-0.3,1.4-0.6,2.7-0.7,4.1c-0.4,2.7-0.8,5.5-0.9,8.2l-0.3,2c-0.1,0.7-0.1,1.4-0.1,2.1l-0.1,4.1
									c0.1,5.5,0.7,11,1.9,16.3c0.3,1.3,0.6,2.7,1,4l0.6,2l0.7,1.9c0.9,2.6,2,5.1,3.4,7.4l0.3,0.5l-0.4,0.4
									c-2.1,1.9-4.1,3.9-5.9,6.1c-0.9,1.1-1.7,2.3-2.6,3.4c-0.8,1.2-1.6,2.4-2.3,3.6c-1.4,2.4-2.7,5-3.7,7.6
									c-1.1,2.6-1.9,5.4-2.5,8.1l-1.1,5.2l-0.3-5.4l-0.4-7.1c-0.2-2.4-0.4-4.8-0.6-7.1c-0.3-2.4-0.6-4.7-0.9-7.1
									c-0.4-2.3-0.7-4.7-1.3-7c-1-4.7-2.2-9.3-4-13.6c-0.4-1.1-1-2.2-1.4-3.2c-0.6-1-1.1-2.1-1.7-3.1c-1.2-2-2.6-3.8-4.4-5.5
									L42.2,50l0.3-0.3l0,0l0.2-0.6c3.3-2.4,6.1-5.4,8.6-8.6c2.5-3.2,4.8-6.7,7-10.1c2.2-3.5,4.4-7,6.8-10.4
									C67.5,16.6,70.1,13.3,73.2,10.6z"/>
							</g>
							<g>
								<path class="st3" d="M75.3,75.1c-2.8-1.2-5.1-3.3-7.1-5.5s-3.8-4.7-5.4-7.2c-1.6-2.6-2.9-5.3-4.2-8
									c-1.2-2.8-2.3-5.6-3.5-8.3c-2.4-5.5-5.4-10.6-8.7-15.6c-3.3-4.9-7.1-9.6-11.3-13.7l1.1-0.8c2.3,4.3,4.1,8.9,5.3,13.6
									s1.7,9.6,1.8,14.5s-0.4,9.7-1.3,14.5c-0.9,4.8-2.2,9.5-4.1,14L37.8,72c2.7,2.4,5.1,5.2,7.2,8.1c2.1,2.9,3.9,6,5.5,9.3
									c1.6,3.2,3,6.6,4.2,9.9c1.2,3.4,2.2,6.8,2.9,10.4c-0.9-3.5-2-6.9-3.3-10.2c-1.3-3.3-2.7-6.6-4.4-9.8
									c-1.7-3.1-3.5-6.2-5.7-9.1c-2.1-2.9-4.5-5.5-7.2-7.9l-0.3-0.2l0.1-0.4c1.8-4.4,3-9.1,3.8-13.8s1.2-9.5,1.2-14.3
									c-0.1-4.8-0.7-9.5-1.9-14.1c-1.1-4.6-2.9-9.1-5.1-13.3l-2-3.9l3.1,3c4.4,4.3,8.1,9,11.4,14c3.3,5,6.2,10.4,8.5,15.9
									c1.1,2.8,2.2,5.6,3.3,8.4c0.6,1.4,1.2,2.7,1.9,4.1c0.6,1.4,1.4,2.7,2.1,4c1.5,2.6,3.2,5.1,5.1,7.3c1,1.1,2,2.2,3.1,3.2
									C72.8,73.6,74,74.5,75.3,75.1z"/>
							</g>
						</g>
						<g class="st4">
							<path class="st3" d="M36.2,112.1L36.2,112.1L36.2,112.1L36.2,112.1l-0.1,0.2c0,0.1-0.1,0.1-0.1,0.2l0,0l-0.1,0.3l0,0l0,0
								l-0.1,0.2c0,0.1-0.1,0.1-0.1,0.2l-0.1,0.1l0,0l0,0v0.1l-0.1,0.3l0,0l-0.2,0.5l0,0c-0.1,0.2-0.2,0.3-0.2,0.4l0,0l0.1-0.1
								c0.1-0.1,0.2-0.2,0.4-0.3l0.1-0.1l0,0l0.2-0.1l0.1-0.1l0,0.1l0,0l0.5-0.3l0.1-0.1l0.1-0.1l0.1-0.1h0.1l0.2-0.1l0,0l0.2-0.2
								c0,0,0,0,0.1,0l0.1-0.1l0,0l0.4-0.3l0,0H38h0.1l0.2-0.1l0.1-0.1l0.1-0.1h0.1l0,0l0,0L39,112l0.1-0.1l0.2-0.1l0.3-0.1l0,0l0,0
								l0.1-0.1h0.1l0,0l0.1-0.1H40h0.1h0.1l0.1-0.1l0.2-0.1h0.1l0.2-0.1c0,0,0,0,0.2-0.1c0.3-0.1,0.5-0.1,0.8-0.2h0.1H42l0,0l0,0
								h0.3h0.1h0.1l0,0h0.1v0.1l0,0l-0.1,0.1h-0.1l0,0h-0.1h-0.1h-0.1c-0.2,0-0.3,0.1-0.5,0.1s-0.4,0.1-0.7,0.2l-0.1,0.1l-0.1,0.1
								l-0.2,0.1l-0.1,0.1h-0.1l0,0c-0.2,0.1-0.4,0.2-0.6,0.3l-0.1,0.1h-0.1l-0.2,0.1l-0.1,0.1l-0.2,0.1l0,0c0,0,0,0-0.1,0.1
								l-0.1,0.1h-0.1l0,0c-0.1,0.1-0.3,0.2-0.4,0.2h-0.1l-0.1,0.1H38l0,0l-0.3,0.2l-0.2,0.1l0,0l-0.1,0.1l-0.5,0.4l0,0l-0.3,0.2
								l-0.2,0.1l-0.2,0.2l-0.1,0.1l-0.1,0.1l-0.2,0.1l-0.1,0.1l-0.1,0.1l-0.1,0.1l-0.1,0.1l0,0h-0.1l0,0l-0.1,0.1l-0.1,0.1
								l-0.1,0.1l-0.1,0.1v0.1h-0.1h-0.1l-0.1,0.1l-0.1,0.1h-0.1l0,0l0,0v0.1c0.1,0.2,0.3,0.4,0.3,0.5c0.1,0.1,0.1,0.2,0.2,0.3l0,0
								l0.1,0.1l0.1,0.1c0.1,0,0.1,0.1,0.2,0.2l0.1,0.1l0.2,0.2c0,0,0,0,0.1,0.1l0.1,0.1l0.1,0.1l0,0l0.3,0.2l0.2,0.2l0.1,0.1
								l0.1,0.1v0.1l0.1,0.1l0.2,0.1l0,0l0,0l0.1,0.1h0.1l0.2,0.1l0,0l0.1,0.1l0.1,0.1c0,0,0,0,0.1,0c0,0,0.1,0,0.1,0.1l0.1,0.1
								l0.2,0.1l0.3,0.2c0,0,0.1,0,0.1,0.1l0.2,0.1h0.1l0.2,0.1l0.1,0.1l0,0h0.1l0,0l0,0l0.3,0.1h0.1h0.1l0,0h0.1l0,0l0,0v0.1h-0.1
								l0,0h-0.1c0,0,0,0-0.1,0h-0.1h-0.1h-0.1l0,0H39l0,0c-0.1,0-0.3-0.1-0.4-0.2l-0.2-0.1h-0.1l-0.2-0.1c-0.2-0.1-0.4-0.2-0.5-0.3
								h-0.1l0,0l0,0l-0.3-0.2l0,0l-0.1-0.1l-0.1-0.1h-0.1l-0.1-0.1l-0.1-0.1l-0.2-0.1l-0.1-0.1l-0.1-0.1h-0.1l0,0l0,0l0,0l-0.1-0.1
								c-0.2-0.1-0.3-0.3-0.4-0.4l0,0l0,0l-0.1-0.1l0,0c0,0,0,0-0.1-0.1l-0.1-0.1l-0.1-0.1l-0.2-0.2c-0.2-0.2-0.4-0.4-0.5-0.7
								l-0.1-0.1l0,0l-0.2-0.3l0,0l0,0h-0.1v-0.1l0,0l-0.1-0.1v0.1v0.1l-0.1,0.1l0,0l0,0l-0.1,0.1v0.1l0,0v0.1l-0.1,0.1l0,0
								l-0.1,0.1v0.1c-0.1,0.2-0.3,0.4-0.4,0.6l-0.2,0.3l-0.2,0.2c-0.1,0.2-0.3,0.4-0.4,0.6l-0.1,0.1l-0.1,0.1l-0.1,0.1v0.1
								l-0.1,0.1l-0.3,0.3l-0.1,0.2l-0.2,0.2c0,0-0.1,0-0.2,0s-0.1,0-0.2-0.2v-0.1v-0.1v-0.2l0.1-0.2v-0.1c0-0.1,0.1-0.2,0.1-0.3
								l0,0l0.1-0.1l0.2-0.4l0.1-0.2l0.1-0.1l0.1-0.1l0.1-0.1l0.3-0.3l0.1-0.1l0.1-0.1l0.1-0.1l0.1-0.1l0,0l0.1-0.1l0,0l0.2-0.2l0,0
								l0,0l0,0l0.1-0.1l0.1-0.1l0.1-0.1l0.1-0.1l0.1-0.1l0.1-0.1l0.1-0.1l0.2-0.2c0,0,0-0.1-0.1-0.1l-0.1-0.1l0,0l-0.1-0.2l0,0
								l-0.1-0.3v-0.1v-0.1v-0.1c0,0,0-0.2,0.2-0.2c0.1,0,0.1,0.1,0.2,0.1l0.1,0.2l0,0l0.1,0.2v0.1v0.1l0,0l0,0v0.1v0.1v0.1l0.1-0.2
								l0.1-0.1l0,0c0,0,0,0,0-0.1l0.1-0.1l0,0l0.1-0.1l0.2-0.4l0,0l0.1-0.3l0,0l0.1-0.1l0.1-0.2l0,0c0-0.1,0.1-0.1,0.1-0.2v-0.1
								l0.1-0.1l0.1-0.3c0,0,0,0,0-0.1V113c0,0,0,0,0-0.1l0.1-0.2v-0.2v-0.1v-0.1v-0.1v-0.1V112l0,0v-0.1l0.1-0.1l0.1-0.1h0.1
								l0.1,0.1v0.2l-0.1,0.2L36.2,112.1L36.2,112.1z M33.8,116.1l-0.2,0.2c-0.1,0.1-0.2,0.2-0.3,0.3l-0.1,0.1l0,0
								c-0.1,0.1-0.2,0.2-0.3,0.3h-0.1l-0.2,0.2l0,0l-0.1,0.1l-0.1,0.1l-0.1,0.2v0.1l0,0l-0.1,0.1l-0.1,0.1l-0.1,0.2l-0.1,0.2
								l-0.1,0.2l-0.1,0.2v0.1v0.1c0,0,0,0,0,0.1l0.3-0.3l0.1-0.1l0.4-0.4l0.1-0.1l0.1-0.2l0.1-0.1l0.3-0.4l0,0l0.1-0.1l0.1-0.1
								l0.1-0.1l0.1-0.2l0.1-0.1L33.8,116.1z"/>
							<path class="st3" d="M39.6,116.8L39.6,116.8l-0.2,0.1h-0.1l0,0l0,0h-0.1h-0.1l0,0L39,117l0,0l-0.1,0.1h-0.1l0,0l-0.1,0.1l0,0
								l0,0h-0.1h-0.1h-0.1h-0.1h-0.1H38c-0.1,0-0.1-0.1-0.2-0.1l0,0V117c0,0,0-0.1,0-0.2l0,0v-0.1l0.1-0.1l0,0l0.1-0.1v-0.1l0,0
								l0.1-0.1v-0.1c0,0,0-0.1,0.1-0.1l0,0l0,0l0,0c0,0,0-0.1,0.1-0.1l0.1-0.1l0,0l0.1-0.1l0.1-0.1v-0.1l0.1-0.1l0,0v-0.1l0,0
								l0.1-0.1l0.1-0.1l0.1-0.1c0,0,0.1-0.1,0.2-0.1c0,0,0.1,0,0.2,0.1l0,0v0.1l-0.1,0.1l-0.1,0.1l-0.1,0.1l-0.1,0.1l0,0l-0.1,0.1
								l-0.1,0.1v0.1l0,0l0,0h-0.1l0,0l-0.1,0.1l-0.1,0.1v0.1v0.1l-0.1,0.1l0,0l0,0v0.1l0,0l-0.1,0.1v0.1l0,0v0.1l0,0l0,0l0,0l0,0
								l0,0l0,0l0,0h0.1h0.1h0.1l0,0l0.1-0.1l0,0h0.2H39h0.1l0.2-0.1h0.1l0.1-0.1l0.1-0.1h0.1l0,0l0,0l0.1-0.1l0,0h0.1l0,0l0.1-0.1
								l0,0l0.2-0.1h0.1l0,0l0,0l0,0l0,0l0,0l0,0h0.1l0,0l0,0l0,0l0.1-0.1l0,0h0.1h0.1v0.1l-0.1,0.1l0,0l0,0l-0.1,0.1l-0.2,0.1h-0.1
								l-0.1,0.1l0,0l0,0C40,116.6,39.9,116.7,39.6,116.8L39.6,116.8L39.6,116.8L39.6,116.8L39.6,116.8L39.6,116.8z M40.2,113.5
								L40.2,113.5c0,0.2-0.1,0.2-0.2,0.3l-0.1,0.1l0,0l-0.1,0.1l-0.1,0.1l-0.1,0.1l0,0h-0.1v-0.1l0,0l0.1-0.2l0,0l0.1-0.1l0.1-0.1
								l0,0l0.1-0.1l0,0l0,0l0.1-0.1h0.1H40.2C40.2,113.4,40.2,113.4,40.2,113.5L40.2,113.5z"/>
							<path class="st3" d="M43.5,115.3L43.5,115.3c0,0.1,0,0.1-0.1,0.2c0,0-0.1,0.1-0.2,0.1h-0.1l-0.1-0.1l0,0l0,0v-0.1l0,0v-0.1
								l0,0l0,0l0,0l0,0c0,0,0,0-0.1,0h-0.2c0,0-0.1,0-0.2,0h-0.1l-0.3,0.1H42l-0.1,0.1h-0.1h-0.1l-0.1,0.1l0,0l-0.2,0.1l-0.1,0.1
								l0,0h-0.1l0,0l0,0l0,0l0,0l-0.1,0.1H41l0,0h-0.1v0.1l0,0l0,0l0.1,0.1l0,0h0.1h0.1h0.1l0,0c0,0,0,0,0.1,0h0.1l0.1,0.1h0.1h0.1
								h0.1l0,0l0,0H42c0,0,0,0,0.1,0l0,0c0,0,0.1,0,0.2,0h0.1h0.1l0.1,0.1l0.1,0.1v0.1l0,0v0.1l-0.1,0.1h-0.1l0,0l0,0h-0.1l0,0
								h-0.1h-0.2h-0.3h-0.1h-0.3h-0.1h-0.1h-0.1H41h-0.1h-0.2h-0.1h-0.1l0,0h-0.1l0,0h-0.1h-0.1h-0.1H40h-0.1h-0.1h-0.2l0,0h-0.1
								l0,0l0,0l0,0l-0.1-0.1l0,0l0,0h0.1h0.1h0.2h0.1H40h0.1l0.2-0.1h0.1h0.1h0.1h0.1h0.1h0.1H41h0.1h0.1h0.1h0.1l0,0l0,0l0,0
								c0,0,0,0,0.1,0h0.2h0.1H42l0,0h0h-0.1h-0.1h-0.1c0,0,0,0-0.1,0l0,0l-0.2-0.1l0,0h-0.1h-0.1h-0.1l0,0c0,0-0.1,0-0.2-0.1
								c0,0-0.1,0-0.1-0.1l0,0l0,0h-0.1l0,0l0,0l0,0l0,0h-0.1l-0.1-0.1V116l0,0v-0.1c0,0,0-0.1,0.1-0.1l0,0l0,0l0.1-0.1l0.1-0.1
								l0.1-0.1l0,0l0,0H41l0,0l0.1-0.1l0.1-0.1l0.1-0.1l0,0l0.1-0.1l0,0l0,0l0,0l0.1-0.1l0,0l0.1-0.1h0.1h0.1l0.2-0.1h0.1l0.1-0.1
								l0,0l0,0l0,0h0.1h0.1h0.2h0.3H43l0,0h0.1l0.1,0.1v0.1l0,0v0.1L43.5,115.3L43.5,115.3z"/>
							<path class="st3" d="M46.1,116.6L46.1,116.6L46.1,116.6v0.2c0,0,0,0,0,0.1l0,0l0,0l0,0l0,0h0.1l0,0l0.3-0.1l0,0l0.3-0.2l0,0
								l0.1-0.1l0,0l0,0H47l0.1-0.1l0,0h0.1l0.1-0.1l0.1-0.1h0.1l0,0l0,0v0.1l0,0h-0.1c0,0,0,0-0.1,0h-0.1l0,0l-0.1,0.1
								c0,0-0.1,0.1-0.3,0.2h-0.1l0,0l0,0l0,0h-0.1l0,0l0,0l0,0h-0.1l0,0l0,0h-0.1h-0.1l-0.1,0.1l0,0L46.1,116.6L46.1,116.6
								L46.1,116.6l-0.2,0.1h-0.1l0,0h-0.1c0,0,0,0-0.1,0l0,0l-0.1-0.1l0,0l0,0v-0.1v-0.1v-0.1v-0.1v-0.1c0,0,0,0,0-0.1v-0.1l0,0
								v-0.1v-0.1c0-0.1,0-0.1,0.1-0.2v-0.1v-0.1c0-0.1,0.1-0.1,0.1-0.2l0,0h-0.1l-0.1,0.1l0,0c0,0,0,0-0.1,0l-0.1,0.1l0,0h-0.1l0,0
								l-0.1,0.1l0,0H45l0,0l-0.3,0.2h-0.1l-0.1,0.1l-0.1,0.1l-0.2,0.2l-0.2,0.2l-0.2,0.1l0,0l0,0h-0.1h-0.1l-0.1,0.1h-0.1l0,0h-0.1
								h-0.1h-0.1l-0.1-0.1v-0.1v-0.1V116c0,0,0,0,0-0.1v-0.1v-0.1l0.1-0.1v-0.1l0,0c0-0.1,0.1-0.1,0.1-0.2l0,0l0.1-0.2l0.1-0.1
								l0.1-0.1v-0.1l0.1-0.1l0.1-0.1l0,0l0.1-0.1l0,0l0,0v-0.1l0,0v-0.1l0.1-0.1c0,0,0-0.1,0.1-0.2l0.1-0.2h0.1
								c0.1-0.2,0.3-0.4,0.4-0.5l0,0l0,0l0,0v-0.1v-0.1l0,0l0.1-0.1l0,0l0,0l0.1-0.1c0,0,0,0,0-0.1v-0.1l0.1-0.2l0.1-0.1l0.1-0.2
								v-0.1c0-0.1,0.1-0.1,0.1-0.2l0,0l0,0l0.1-0.1v-0.1v-0.1l0,0l0.1-0.2l0.1-0.1l0.2-0.2c0.1-0.1,0.2-0.1,0.2-0.1
								c0.1,0,0.1,0.2,0.1,0.3l-0.2,0.2l-0.1,0.2l-0.1,0.1l-0.1,0.1l-0.1,0.1l-0.2,0.2l-0.1,0.1v0.1l-0.1,0.1l-0.1,0.1l-0.3,0.4
								l-0.1,0.1l-0.1,0.1l0,0l0,0l0,0c0,0,0,0.1-0.1,0.1l-0.1,0.2l-0.1,0.1l-0.1,0.1l-0.1,0.1l0,0l-0.1,0.1l-0.1,0.1l-0.1,0.1
								c-0.1,0.1-0.2,0.3-0.3,0.5c-0.1,0.1-0.1,0.2-0.2,0.3l0,0l0,0c-0.1,0.1-0.1,0.2-0.2,0.3l0,0v0.1l-0.1,0.2v0.1l-0.1,0.2l0,0
								l-0.1,0.2c0,0,0,0,0,0.1l0,0h0.1l0,0h0.1l0,0l0,0l0.1-0.1l0,0H43l0.2-0.1l0,0l0,0l0.1-0.1l0,0l0.1-0.1l0,0l0.2-0.2l0.2-0.1
								l0.1-0.1l0,0c0.1,0,0.1-0.1,0.1-0.1h0.1l0.1-0.1l0.2-0.1h0.1h0.2l0,0c0.1,0,0.3,0,0.4,0c0.2,0.1,0.1,0.2,0.1,0.4
								c0,0.1-0.1,0.1-0.1,0.2c0,0,0,0,0,0.1s-0.1,0.1-0.1,0.2L46.1,116.6L46.1,116.6z"/>
							<path class="st3" d="M49.5,116.3L49.5,116.3L49.5,116.3L49.5,116.3l0.2-0.2l0,0l0,0h-0.1l-0.2,0.1h-0.1l-0.2,0.1H49l0,0l0,0
								l-0.2,0.1l-0.2,0.1l0,0l-0.1,0.1l0,0l-0.1,0.1l0,0l-0.1,0.1l0,0h-0.1l0,0c0,0,0,0-0.1,0l-0.1,0.1l-0.1,0.1h-0.1h-0.1l0,0
								c0,0,0,0-0.1,0l0,0h-0.1l0,0h-0.1l0,0l0,0c-0.1,0-0.2,0-0.3-0.1c0-0.1,0-0.2,0-0.3v-0.1l0,0l0,0l0.1-0.1v-0.1l0.1-0.1
								l0.1-0.1l0,0h0.1l0.1-0.1l0.3-0.3l0.1-0.1l0,0l0.1-0.1l0,0h0.1l0.1-0.1l0.1-0.1l0,0l0.1-0.1l0,0h0.1l0,0c0,0,0,0,0.1,0
								l0.2-0.1H49l0,0h0.1l0,0h0.1l0,0l0,0h0.1h0.1l0,0l0.1,0.1v0.1v0.1c0,0.1-0.1,0.2-0.3,0.2l0,0H49l0,0l0,0h-0.1h-0.1l-0.1,0.1
								l-0.2,0.1l0,0l-0.1,0.1l-0.3,0.2l0,0l-0.1,0.1l-0.1,0.1l0,0h-0.1l0,0l-0.1,0.1l0,0l-0.1,0.1l-0.1,0.1l0,0l0,0l0,0l0,0l0,0
								l0,0l0,0l-0.1,0.1v0.1l0,0l0,0l0,0l0,0l0,0c0,0,0.1,0,0.1-0.1h0.1h0.1l0,0l0.2-0.1l0,0H48h0.1l0,0c0.1,0,0.1,0,0.2-0.1l0,0
								h0.1l0,0l0,0h0.1h0.1l0,0l0.2-0.1l0,0l0.2-0.1l0,0l0-0.3l0.1-0.1l0.1-0.1l0,0h0.1l0,0l0.1-0.1l0.1-0.1h0.2h0.1h0.1H50l0,0
								c0,0,0.1,0,0.1,0.1l0,0l0,0l0,0v0.1H50l0,0l-0.1,0.1h-0.1l-0.1,0.2l0,0l-0.1,0.1l0,0l0,0l0,0c0,0,0,0,0.1,0h0.1l0,0h0.1H50
								l0,0h0.1l0.2-0.1l0,0h0.1h0.1h0.1l0,0l0,0l0.2-0.1h0.1l0,0l0.3-0.1h0.1h0.1c0,0,0,0,0.1,0h0.1v0.1l-0.1,0.1h-0.1h-0.1h-0.1
								l0,0h-0.1l0,0l-0.2,0.1l-0.1,0.1h-0.1l-0.1,0.1l0,0l0,0h-0.1h-0.1l0,0h-0.1l0,0l-0.2,0.1H50l-0.2,0.1h-0.1l0,0h-0.1h-0.1
								h-0.1l0,0l0,0l-0.1-0.1v-0.1v-0.1v-0.1l0,0l0.1-0.1l0,0l0.1-0.1L49.5,116.3z"/>
							<path class="st3" d="M51.3,116.3L51.3,116.3L51.3,116.3l0.1-0.2l0.1-0.1l0.2-0.3v-0.1l0,0l0.1-0.2l0.1-0.2c0,0,0-0.1,0.1-0.2
								c0-0.1,0-0.1,0-0.1c0-0.1,0-0.1,0-0.1c0-0.1,0.1-0.1,0.2-0.1c0.2,0,0.2,0.1,0.2,0.3c0,0.1-0.1,0.2-0.1,0.3l-0.1,0.3l-0.1,0.1
								v0.1v0.1L52,116l0,0l0,0c0,0.1-0.1,0.1-0.1,0.2l-0.1,0.2v0.1l-0.1,0.1l0,0l0.1-0.1l0.2-0.2l0,0l0,0l0.1-0.1l0,0L52,116l0,0
								l0.2-0.1l0,0l0.1-0.1c0,0,0,0,0.1,0s0.2-0.1,0.2-0.1l0,0h0.1l0.1,0.1l0.1,0.1v0.1v0.1v0.1v0.1l0,0v0.1v0.2c0,0,0,0,0,0.1v0.1
								l0,0v0.1l0,0l0,0l0,0H53c0.1,0,0.2,0,0.3,0l0.1-0.1l0,0h0.1h0.1h0.1l0.2-0.1l0,0H54l0.2-0.1l0.1-0.1l0,0l0.1-0.1l0,0h0.1h0.1
								l0.2-0.1l0.2-0.1l0,0l0.1-0.1l0,0l0.1-0.1h0.1l0,0l0,0v0.1h-0.1l-0.1,0.1c-0.1,0.1-0.1,0.1-0.2,0.1l-0.1,0.1h-0.1l-0.1,0.1
								h-0.1c-0.1,0-0.1,0.1-0.2,0.1l-0.1,0.1l-0.3,0.1l0,0c0,0-0.1,0-0.1,0.1l-0.1,0.1h-0.1h-0.1h-0.1h-0.1h-0.1l0,0l0,0l0,0l0,0
								c0,0,0,0-0.1,0H53h-0.1h-0.1h-0.1l0,0h-0.1c-0.1,0-0.1,0-0.2-0.1l0,0l0,0c-0.1,0-0.1-0.1-0.1-0.2v-0.1v-0.1v-0.1v-0.1
								l0.1-0.2c0,0,0,0,0-0.1s0-0.1,0-0.1h-0.1l0,0l0,0h-0.1h-0.1L52,116l0,0l-0.1,0.1l-0.1,0.1l-0.1,0.1l-0.1,0.1h-0.1h-0.1l0,0
								l-0.1,0.1l0,0h-0.1l0,0l0,0l-0.1,0.1l-0.1,0.1l-0.1,0.1l-0.2,0.2l0,0l-0.1,0.1h-0.1c-0.1,0-0.1-0.1-0.1-0.1
								c0-0.1,0-0.1,0.1-0.3v-0.1l0.1-0.2v-0.1l0.1-0.1l0,0L51.3,116.3L51.3,116.3z"/>
							<path class="st3" d="M61.6,114.9L61.6,114.9l0.4-0.5v-0.1l0.1-0.2l0.1-0.1l0,0c0.1-0.1,0.1-0.2,0.2-0.3
								c0.1-0.1,0.2-0.2,0.3-0.4l0,0v-0.1v-0.1l0.1-0.1l0.1-0.2l0,0l0.1-0.1l0,0l0.1-0.1v-0.1v-0.1l0.1-0.2l0,0c0,0,0-0.1,0-0.2
								v-0.1l0,0v-0.1l0,0h-0.1c-0.1,0-0.2,0-0.3,0l-0.2,0.1h-0.1h-0.1c-0.1,0-0.1,0.1-0.2,0.1h-0.1l0,0H62h-0.1
								c-0.1,0-0.1,0-0.1,0.1h-0.1l-0.1,0.1l0,0c0,0-0.1,0.1-0.2,0.1l-0.2,0.1l0,0l-0.4,0.3l-0.1,0.1l-0.1,0.1l-0.3,0.2l-0.1,0.1
								l-0.1,0.1l-0.1,0.1l-0.1,0.1l-0.1,0.1c-0.1,0.1-0.2,0.1-0.3,0.2l-0.2,0.2h-0.1l-0.1,0.1l0,0l-0.1,0.1l-0.1,0.1l-0.2,0.1
								l-0.3,0.2l-0.2,0.2L58,115l-0.1,0.2l-0.1,0.1c-0.2,0.1-0.3,0.1-0.3,0.1c-0.1-0.1-0.1-0.1-0.1-0.2l0,0c0-0.1,0.1-0.1,0.2-0.3
								l0.2-0.2l0.1-0.1l0.1-0.1l0.1-0.1h0.1l0.2-0.1l0,0l0,0l0.1-0.1l0,0h0.1l0.2-0.1l0.1-0.1c0,0,0,0,0.1,0h0.1l0.1-0.1
								c0.1-0.1,0.1-0.1,0.1-0.1s0,0,0.1,0l0.3-0.2l0,0l0,0l0.2-0.1H60h0.1l0.1-0.1l0.1-0.1l0.1-0.1l0,0l0.1-0.1l0.1-0.1l0.1-0.1
								l0.2-0.1l0,0l0.1-0.1l0.2-0.1h0.1l0.1-0.1c0.1-0.1,0.2-0.1,0.4-0.2h0.1H62h0.1l0,0l0,0l0.1-0.1l0.1-0.1h0.1h0.1l0,0
								c0.1,0,0.2,0,0.4,0c0.1,0,0.3,0,0.3,0.1s0,0.1,0,0.2v0.1v0.1v0.1v0.1v0.1v0.1l0,0v0.1l0,0l-0.1,0.1l0,0v0.1l-0.1,0.2v0.1
								l-0.1,0.1l0,0l-0.1,0.1c-0.1,0.3-0.4,0.5-0.6,0.8v0.1l0,0c0,0,0,0,0,0.1l-0.1,0.1L62,115l-0.3,0.4l-0.1,0.1l-0.2,0.3
								l-0.2,0.2l-0.1,0.1l-0.2,0.2l-0.1,0.1l-0.2,0.2l-0.1,0.1l-0.1,0.1l-0.1,0.1l-0.1,0.2l0,0h0.1l0.1-0.1l0.2-0.1l0,0l0.1-0.1
								l0,0c0,0,0,0,0-0.1c0,0,0-0.1,0.1-0.1l0.4-0.4l0.2-0.2l0.1-0.1l0.2-0.1l0.1-0.1l0.1-0.1l0,0l0.2-0.1l0.2-0.1l0.1-0.1l0,0l0,0
								l0.1-0.1h0.1l0,0l0.2-0.1h0.1L63,115l0,0l0,0l0.1-0.1h0.1l0,0l0.1-0.1l0.1-0.1l0,0l0,0l0.2-0.1l0.2-0.1h0.1l0.1-0.1h0.1l0,0
								h0.1l0,0c0.1,0,0.3-0.1,0.4,0c0.1,0,0.1,0,0.1,0.1l0,0l0,0v0.1v0.1v0.1l-0.1,0.1l-0.1,0.1l-0.1,0.1l0,0l-0.1,0.2l0,0l0,0
								l-0.1,0.1c0,0,0,0.1-0.1,0.1l-0.1,0.1l0,0l0,0l0,0l0,0l0,0c0,0,0,0.1-0.1,0.1v0.1l0,0l-0.1,0.1v0.1l-0.1,0.1l-0.1,0.1
								l-0.3,0.4l-0.1,0.2l0,0l0,0c0,0,0,0.1-0.1,0.1l0,0L63,117l0,0v0.1l-0.1,0.1l0,0l-0.1,0.2v0.1l-0.1,0.2l-0.2,0.3v0.1l-0.1,0.1
								v0.1c0,0,0,0,0,0.1l0,0h0.1l0.1-0.1l0.1-0.1l0.1-0.1l0,0h0.1l0,0L63,118l0.3-0.2l0,0l0.1-0.1l0.1-0.1l0.1-0.1l0,0l0.1-0.1
								l0,0h0.1l0.1-0.1l0,0l0.1-0.1l0,0l0.1-0.1l0,0h0.1l0.4-0.3l0,0l0,0c0,0,0-0.1,0.1-0.1l0,0l0,0l0.1-0.1l0.1-0.1l0.3-0.3
								l0.1-0.1h0.1l0.1-0.1h0.1l0.4-0.4l0.1-0.1h0.1l0.2-0.2l0.2-0.2l0.1-0.1l0.2-0.1l0.1-0.1l0.1-0.1l0.3-0.2l0,0l0,0l0.1-0.1l0,0
								c0.2-0.1,0.2-0.1,0.4-0.3H68l0.1-0.1l0.1-0.1h0.1l0,0l0,0l0,0l0.1-0.1l0.2-0.1l0.1-0.1l0,0l0.1-0.1l0.1-0.1l0,0H69h0.1
								c0.1,0,0.3-0.1,0.4,0l0.1,0.2c0,0,0.1,0.2,0.1,0.3c0,0.1,0,0.2,0,0.2v0.1l-0.1,0.2l0,0v0.1v0.1l-0.1,0.1v0.1l-0.1,0.2
								l-0.1,0.3v0.1l-0.1,0.2l-0.1,0.1v0.1l-0.1,0.3v0.1c0,0.1-0.1,0.1-0.1,0.2c-0.1,0.2-0.1,0.2-0.2,0.4c0,0.1-0.1,0.1-0.1,0.2
								l-0.2,0.4l0,0l-0.1,0.1l-0.1,0.1l-0.1,0.1l-0.1,0.1l0,0v0.1v0.1l-0.1,0.1l-0.1,0.1l0,0l-0.1,0.2l0,0l-0.1,0.1l0,0l-0.1,0.2
								c0,0,0,0,0,0.1l-0.3,0.4l0,0l-0.1,0.1l-0.1,0.1l0,0l-0.1,0.2l0,0v0.1l-0.1,0.1v0.1l0,0l-0.1,0.2v0.1l-0.1,0.2l-0.1,0.1l0,0
								l0,0c-0.1,0.2-0.1,0.3-0.2,0.4l-0.1,0.1l-0.1,0.2l0,0v0.1l0,0l-0.1,0.2c0,0.1-0.1,0.1-0.1,0.2v0.1l-0.1,0.2c0,0,0,0,0,0.1
								c-0.1,0.2-0.1,0.3-0.2,0.5v0.1v0.1l0,0l0,0c0,0,0,0,0,0.1l0,0h0.1h0.1c0,0,0.1,0.1,0,0.1c0,0.1-0.1,0.1-0.1,0.2
								c-0.1,0.1-0.2,0.1-0.2,0.1c-0.1,0-0.2,0-0.2-0.1s-0.1-0.2-0.1-0.3c0-0.2,0-0.4,0.1-0.5c0.1-0.3,0.2-0.6,0.4-0.9l0.1-0.1
								c0.1-0.2,0.2-0.5,0.3-0.6v-0.1l0.1-0.1l0.1-0.3l0.2-0.3c0.1-0.1,0.1-0.3,0.2-0.4l0,0l0.1-0.1l0.2-0.3l0,0c0,0,0,0,0.1-0.1
								l0.2-0.3l0,0l0.1-0.1l0.1-0.2l0.1-0.2v-0.1l0.4-0.6l0.1-0.1l0,0l0.1-0.1l0.1-0.2l0.1-0.3l0.1-0.3v-0.1l0.1-0.2
								c0-0.1,0.1-0.2,0.1-0.2l0.1-0.2v-0.1v-0.1l0.1-0.2l0.1-0.3l0.1-0.3l0.1-0.1l0.1-0.2l0.1-0.1l0.1-0.2v-0.1
								c0-0.1,0.1-0.2,0-0.3v-0.1l0,0h-0.1h-0.1h-0.1l0,0l-0.1,0.1l-0.3,0.2l-0.1,0.1h-0.1l-0.1,0.1l-0.1,0.1l-0.4,0.3l-0.1,0.1l0,0
								h-0.1l-0.3,0.2l-0.1,0.1l-0.1,0.1l0,0l-0.1,0.1l-0.2,0.1l0,0l-0.1,0.1h-0.1l-0.1,0.1l-0.1,0.1l-0.3,0.3l-0.1,0.1h-0.1H66
								c-0.1,0.1-0.2,0.2-0.3,0.3l-0.1,0.1l-0.1,0.1l-0.1,0.1l-0.1,0.1l0,0l0,0l0,0l0,0l-0.1,0.1l0,0v0.1l-0.1,0.1l0,0l-0.6,0.5
								c0,0,0,0-0.1,0.1l0,0l-0.2,0.1L64,118l0,0l-0.1,0.1h-0.1l-0.1,0.1l-0.1,0.1h-0.1l-0.1,0.1l-0.1,0.1h-0.1l0,0l-0.2,0.2
								l-0.1,0.1l-0.1,0.1l-0.1,0.1l-0.1,0.1l-0.1,0.1l0,0c-0.1,0-0.1,0.1-0.2,0.1c-0.2,0-0.2-0.1-0.2-0.2V119l0,0v-0.1v-0.1v-0.1
								l0.1-0.2c0-0.1,0.1-0.1,0.1-0.2l0.1-0.1l0.1-0.2c0,0,0-0.1,0.1-0.1l0.1-0.2c0-0.1,0.1-0.1,0.1-0.2l0,0v-0.1l0.1-0.2l0.1-0.1
								c0,0,0,0,0.1-0.1l0,0l0.1-0.2l0.1-0.2l0,0l0.1-0.1l0,0l0,0v-0.1c0,0,0,0,0.1-0.1l0.1-0.1l0,0l0.2-0.3l0,0l0,0l0.2-0.3v-0.1
								l0,0l0,0l0.1-0.1l0.1-0.1l0,0l0.1-0.2V115c0,0,0,0,0-0.1v-0.1v-0.1c0,0,0,0-0.1,0s-0.2,0.1-0.3,0.1l0,0l-0.3,0.2l-0.1,0.1
								h-0.1l0,0h-0.1h-0.1l-0.2,0.1l0,0l0,0l-0.1,0.1l-0.1,0.1c-0.1,0.1-0.3,0.2-0.4,0.3l-0.1,0.1l-0.1,0.1l0,0l0,0h-0.1l0,0
								l-0.2,0.2l-0.1,0.1l-0.1,0.1l-0.1,0.1l-0.1,0.1l0,0l-0.1,0.1L61,117l-0.3,0.3h-0.1l-0.1,0.1l-0.1,0.1l-0.1,0.1v0.1l-0.1,0.1
								l0,0l-0.1,0.1l-0.2,0.2l-0.1,0.2l-0.1,0.1l0,0l0,0v0.1l-0.2,0.3l-0.1,0.1c-0.1,0.1-0.2,0.2-0.4,0.2c-0.1,0-0.1-0.1-0.1-0.2
								c0,0,0-0.1,0-0.2l0.1-0.2l0.1-0.1l0.3-0.4l0,0l0.3-0.4l0.1-0.1l0.1-0.1l0.3-0.4l0.1-0.1l0,0l0.2-0.2l0,0l0.4-0.5L61.6,114.9z
								"/>
							<path class="st3" d="M71.7,115.9c0,0,0,0-0.1,0.2v0.1l-0.1,0.1l-0.1,0.1l-0.1,0.1l-0.1,0.1l-0.1,0.1
								c-0.1,0.1-0.3,0.2-0.4,0.3l0,0l-0.1,0.1l0,0l0,0h-0.1l0,0l0,0l0,0h-0.1l0,0h-0.1l0,0l0,0l0,0l0,0c-0.1,0-0.2,0.1-0.3,0.1l0,0
								l0,0h-0.1l0,0h-0.1c-0.1,0-0.1,0-0.2,0h-0.1l0,0c-0.1,0-0.2-0.1-0.2-0.2v-0.1v-0.1v-0.1v-0.1l0.1-0.1l0.2-0.2l0.1-0.1
								l0.1-0.1l0,0l0.1-0.1l0,0l0,0l0.1-0.1l0,0l0.2-0.1l0,0l0,0h0.1h0.1l0.1-0.1l0.1-0.1l0,0l0,0h-0.1l0,0c0,0-0.1,0-0.2,0h-0.2
								H70h-0.1l-0.1-0.1v-0.1l0.1-0.1H70h0.1h0.1l0,0h0.1c0.1,0,0.2,0,0.3,0h0.1h0.1h0.1l0,0H71l0,0l0.1-0.1h0.1l0,0h0.1h0.1h0.1
								c0,0,0.1,0,0.2,0l0,0l0,0h0.1H72h0.1h0.1h0.1h0.1h0.1h0.1h0.1h0.1c0,0,0,0,0.1,0H73c0,0,0,0,0.1,0l0,0l0,0l0,0l0,0l0,0h0.1
								h0.1l0,0l0,0h0.1l0,0c0.1,0,0.1,0,0.2,0.1l0,0l0,0h0.1l0,0c0.1,0,0.1,0,0.1,0l0,0l0.1,0.1v0.1v0.1v0.1v0.1l-0.1,0.1
								c0,0,0,0.1-0.1,0.1l0,0h-0.1l0,0v-0.1l0,0l0,0v-0.1v-0.1v-0.1l0,0h-0.1l0,0h-0.1c-0.1,0-0.3,0-0.4,0h-0.1h-0.1h-0.1
								c0,0,0,0-0.1,0c-0.3,0-0.5,0-0.7,0.1h-0.1l0,0h-0.1h-0.1h-0.2l0,0l0,0l0,0h0.1l0.1,0.1v0.1v0.1L71.7,115.9L71.7,115.9z
								 M71.2,116.1c0.1-0.1,0.1-0.1,0.1-0.2l0,0v-0.1c0,0,0,0,0-0.1v-0.1l0,0l0,0h-0.1l0,0l0,0h-0.1l0,0l0,0
								c-0.1,0-0.2,0.1-0.4,0.2l-0.2,0.1l-0.1,0.1l0,0l-0.1,0.1l0,0l-0.1,0.1l-0.1,0.1H70l0,0l-0.1,0.1l-0.1,0.1l-0.1,0.1l-0.1,0.1
								l-0.1,0.1l0,0l0,0v0.1l0,0l0,0l0,0l0,0l0,0c0.2,0,0.3,0,0.5-0.1c0.1,0,0.2-0.1,0.3-0.1l0,0l0.1-0.1l0.1-0.1l0,0l0.2-0.1l0,0
								c0.1,0,0.1-0.1,0.2-0.1l0,0l0.1-0.1L71.2,116.1C71.2,116.2,71.2,116.2,71.2,116.1L71.2,116.1L71.2,116.1z"/>
							<path class="st3" d="M76,117.3L76,117.3l-0.2,0.1h-0.1l-0.1,0.1l0,0l-0.1,0.1h-0.1l0,0l0,0h-0.1h-0.1h-0.1l-0.1-0.1v-0.1
								l-0.1-0.1v-0.1V117c0-0.1,0-0.1,0-0.1s0,0,0-0.1l0,0v-0.2v-0.1l0,0v-0.2l0,0l0,0l0.1-0.2l0,0l0,0V116l0,0v-0.1l0,0v-0.1v-0.1
								l0,0v-0.1l0,0l-0.1,0.1l-0.1,0.1l-0.1,0.1l-0.1,0.1l-0.3,0.3l0,0v0.1l0,0l-0.1,0.1l0,0l-0.1,0.1l-0.1,0.1l-0.1,0.1l-0.1,0.1
								l-0.1,0.1h-0.1l0,0h-0.1l0,0l-0.2,0.1l0,0h-0.1c-0.2,0.1-0.4,0.2-0.6,0.2c0,0-0.1,0-0.2-0.1c0,0,0,0-0.1,0c0,0,0,0-0.1-0.2
								v-0.1v-0.1v-0.1v-0.1l0.1-0.1l0.1-0.1l0,0l0,0l0.1-0.1v-0.1l0.1-0.1l0,0h0.1l0.3-0.3l0.1-0.1l0.2-0.2l0,0l0.1-0.1l0,0
								l0.1-0.1l0,0h0.1l0,0h0.1l0.1-0.1l0.1-0.1l0,0H74h0.1h0.1h0.1l0,0h0.1c0,0,0,0,0.1,0l0,0c0.1,0,0.2,0,0.3,0l0,0h0.1H75
								c0,0,0.1,0,0.1,0.1l0,0l0,0l0.2-0.2l0.1-0.1l0.2-0.2l0.1-0.1l0.1-0.1l0.1-0.1l0.2-0.2l0.2-0.2l0.1-0.1l0.1-0.1l0.1-0.1l0,0
								v-0.1l0.2-0.3l0.1-0.2l0,0l0.1-0.2l0,0l0.1-0.2v-0.1l0.1-0.2l0,0l0,0l0.1-0.2v-0.1l0.1-0.1l0.2-0.2l0.1-0.1v-0.1l0.1-0.1
								l0.1-0.1l0.1-0.1c0.1,0,0.1,0,0.2,0s0.1,0,0.1,0.1s0,0.1-0.1,0.2l-0.1,0.1l-0.1,0.1l-0.2,0.2l0,0l-0.1,0.1v0.1l-0.1,0.1
								l-0.1,0.1l-0.1,0.1l0,0l0,0l0,0l-0.2,0.2c0,0-0.1,0.1-0.1,0.2L77,113l-0.1,0.1l0,0l0,0l-0.1,0.2l0,0l-0.2,0.2l-0.1,0.1v0.1
								l-0.2,0.3l0,0l-0.1,0.2c-0.2,0.2-0.3,0.4-0.4,0.5c0,0,0,0-0.1,0.1v0.1c-0.1,0.1-0.2,0.3-0.3,0.4l0,0l0,0v0.1l0,0l0,0v0.1v0.1
								h-0.1l0,0v0.1v0.1v0.1v0.1v0.1v0.1v0.2c0,0.2,0,0.3,0.1,0.3h0.1l0,0h0.1h0.1h0.1h0.1H76c0.1-0.1,0.3-0.1,0.4-0.2l0.1-0.1l0,0
								l0,0h0.1l0,0h0.1c0.1,0,0.1-0.1,0.2-0.1H77l0.1-0.1h0.1l0.1-0.1l0,0l0,0l0.1-0.1h0.1l0.2-0.1h0.1l0.2-0.2l0.1-0.1h0.1
								c0.1-0.1,0.1-0.1,0.2,0c0,0,0.1,0.1,0,0.2l0,0c0,0-0.1,0.1-0.2,0.1l-0.3,0.3l0,0l0,0l0,0l0,0c-0.1,0.1-0.2,0.2-0.3,0.3
								l-0.1,0.1l0,0v0.1l0,0c-0.1,0.1-0.3,0.2-0.4,0.3l0,0l-0.1,0.1l0,0L76,117.3L76,117.3z M73.2,116.3L73.2,116.3L73.2,116.3
								l-0.2,0.2c0,0,0,0,0,0.1l-0.1,0.1c0,0.1,0,0.1,0,0.2v0.1v0.1v0.1l0,0l0,0l0,0H73l0.1-0.1l0,0h0.1h0.1l0,0
								c0.1-0.1,0.2-0.1,0.3-0.2l0.1-0.1l0,0l0,0v-0.1l0.1-0.1l0,0l0.1-0.1l0.1-0.1l0.2-0.1c0.1-0.1,0.2-0.2,0.4-0.3l0.1-0.1
								l0.1-0.1l0.1-0.1l0.1-0.1l0,0l0,0v-0.1l0,0h-0.1c-0.1,0-0.2,0.1-0.3,0.1l-0.1,0.1h-0.1h-0.1h-0.1c-0.1,0.1-0.2,0.1-0.5,0.3
								l-0.1,0.1c0,0,0,0.1-0.1,0.1L73.2,116.3L73.2,116.3L73.2,116.3L73.2,116.3z M75.4,115.4L75.4,115.4L75.4,115.4
								C75.5,115.5,75.5,115.4,75.4,115.4L75.4,115.4L75.4,115.4l0.2-0.1l0,0l0.1-0.2l0,0l-0.1,0.1h-0.1L75.4,115.4z"/>
							<path class="st3" d="M78.9,116.8L78.9,116.8l-0.2,0.1h-0.1l0,0l0,0h-0.1h-0.1l0,0l-0.1,0.1l0,0l-0.1,0.1h-0.1l0,0l-0.1,0.1
								l0,0l0,0h-0.1h-0.1h-0.1h-0.1h-0.1h-0.2c-0.1,0-0.1-0.1-0.2-0.1l0,0V117c0,0,0-0.1,0-0.2l0,0v-0.1l0.1-0.1l0,0l0.1-0.1v-0.1
								l0,0l0.1-0.1v-0.1c0,0,0-0.1,0.1-0.1l0,0l0,0l0,0c0,0,0-0.1,0.1-0.1l0.1-0.1l0,0l0.1-0.1l0.1-0.1v-0.1l0.1-0.1l0,0v-0.1l0,0
								l0.1-0.1l0.1-0.1l0.1-0.1c0,0,0.1-0.1,0.2-0.1c0,0,0.1,0,0.2,0.1l0,0v0.1l-0.1,0.1l-0.1,0.1l-0.1,0.1l-0.1,0.1l0,0l-0.1,0.1
								l-0.1,0.1v0.1l0,0l0,0H78l0,0l-0.1,0.1l-0.1,0.1v0.1v0.1l-0.1,0.1l0,0l0,0v0.1l0,0l-0.1,0.1v0.1l0,0v0.1l0,0l0,0l0,0l0,0l0,0
								l0,0l0,0h0.1h0.1h0.1l0,0l0.1-0.1l0,0h0.2h0.1h0.1l0.2-0.1h0.1l0.1-0.1l0.1-0.1H79l0,0l0,0l0.1-0.1l0,0h0.1l0,0l0.1-0.1l0,0
								l0.2-0.1h0.1l0,0l0,0l0,0l0,0l0,0l0,0h0.1l0,0l0,0l0,0l0.1-0.1l0,0h0.1H80v0.1l-0.1,0.1l0,0l0,0l-0.1,0.1l-0.2,0.1h-0.1
								l-0.1,0.1l0,0l0,0C79.3,116.6,79.2,116.7,78.9,116.8L78.9,116.8L78.9,116.8L78.9,116.8L78.9,116.8L78.9,116.8z M79.5,113.5
								L79.5,113.5c0,0.2-0.1,0.2-0.2,0.3l-0.1,0.1l0,0l-0.1,0.1l-0.1,0.1l-0.1,0.1l0,0h-0.1v-0.1l0,0l0.1-0.2l0,0l0.1-0.1l0.1-0.1
								l0,0l0.1-0.1l0,0l0,0l0.1-0.1H79.5L79.5,113.5C79.5,113.4,79.5,113.4,79.5,113.5L79.5,113.5z"/>
						</g>
					</g>
				</g>
			</g>
		</g>
	</g>
	<g>
		<g>
			<g>
				<defs>
					<rect id="SVGID_5_" y="0" width="595.3" height="841.9"/>
				</defs>
				<clipPath id="SVGID_6_">
					<use xlink:href="#SVGID_5_"  style="overflow:visible;"/>
				</clipPath>
				<g class="st5">
					<g id="email_id">
						<g>
							<g>
								<path class="st6" d="M569.8,822c0,3.1,2.5,5.7,5.7,5.7c3.1,0,5.7-2.5,5.7-5.7c0-3.1-2.5-5.7-5.7-5.7
									C572.3,816.4,569.8,818.9,569.8,822z M571.8,822l2.1-3.4v6.7L571.8,822z M577.2,818.7L577.2,818.7c0.3,0,0.6,0.3,0.6,0.6
									v5.6c0,0.3-0.3,0.6-0.6,0.6H574h-0.1l2-3.2l0,0l0,0c0,0,0,0,0-0.1l0,0v-0.1l0,0l0,0V822l0,0c0,0,0,0,0-0.1l0,0l0,0l-2-3.2
									h0.1H577.2L577.2,818.7z"/>
							</g>
						</g>
						<text transform="matrix(0 -1 1 0 577.6068 811.3786)" class="st7 st8">kishan.modi1995@gmail.com</text>
					</g>
					<g id="phone">
						<g>
							<path class="st6" d="M569.8,711.4c0,3.1,2.5,5.7,5.7,5.7c3.1,0,5.7-2.5,5.7-5.7s-2.5-5.7-5.7-5.7S569.8,708.3,569.8,711.4z
								 M578,708.4l0.5,0.5c0.1,0.1,0.1,0.3,0.1,0.3c0,1.4-0.6,2.8-1.6,3.8s-2.4,1.6-3.8,1.6c0,0-0.2-0.1-0.3-0.1l-0.5-0.5
								c-0.2-0.2-0.2-0.5-0.2-0.7v-0.1c0.1-0.2,0.3-0.5,0.5-0.5l0.8-0.2c0.2-0.1,0.6,0,0.7,0.2l0.3,0.3c1.1-0.3,2-1.2,2.3-2.3
								l-0.3-0.3c-0.2-0.2-0.2-0.5-0.2-0.7l0.2-0.8c0.1-0.2,0.3-0.5,0.5-0.5h0.1C577.6,708.2,577.9,708.2,578,708.4z"/>
						</g>
						<text transform="matrix(0 -1 1 0 577.6068 700.7243)" class="st7 st8">99096 48096</text>
					</g>
					<g id="skype">
						<g>
							<g>
								<g>
									<g>
										<path class="st9" d="M569.8,644.8c0,3.1,2.5,5.7,5.7,5.7s5.7-2.5,5.7-5.7s-2.5-5.7-5.7-5.7S569.8,641.6,569.8,644.8z
											 M578.8,643.2c0,0.4-0.1,0.7-0.3,1c0,0.2,0.1,0.4,0.1,0.6c0,1.7-1.4,3.1-3.1,3.1c-0.2,0-0.3,0-0.5,0
											c-0.3,0.2-0.6,0.3-1,0.3c-1,0-1.9-0.8-1.9-1.9c0-0.4,0.1-0.7,0.3-1c0-0.2,0-0.3,0-0.5c0-1.7,1.4-3.1,3.1-3.1
											c0.1,0,0.3,0,0.4,0c0.3-0.2,0.7-0.3,1-0.3C578,641.4,578.8,642.2,578.8,643.2z"/>
										<path class="st9" d="M574.9,645.2c-0.2,0.9-1,0.4-1-0.3s0.8-1.1,0.7-1.4c0-0.3-0.5-0.6-1-0.1c-0.4,0.4-0.6,1-0.5,1.8
											c0.1,0.7,0.5,1.3,1.3,1.4c0.8,0.1,1.3-0.9,1.4-1.7c0.1-0.6,0.3-1.3,0.9-0.9c0.5,0.4,0.2,1.2,0.1,1.4
											c-0.1,0.2-0.6,0.4-0.6,0.8c0,0.4,0.5,0.6,1,0.1c0.4-0.4,0.6-0.9,0.6-1.9c-0.1-1-0.9-1.9-1.8-1.5
											C575.2,643.3,575.1,644.3,574.9,645.2z"/>
									</g>
								</g>
							</g>
						</g>
						<text transform="matrix(0 -1 1 0 577.7475 634.111)" class="st7 st8">kishan.modi1722</text>
					</g>
				</g>
			</g>
		</g>
	</g>
	<g>
		<g>
			<g>
				<defs>
					<rect id="SVGID_7_" y="0" width="595.3" height="841.9"/>
				</defs>
				<clipPath id="SVGID_8_">
					<use xlink:href="#SVGID_7_"  style="overflow:visible;"/>
				</clipPath>
				<g id="logo" class="st10">
					<g>
						<path class="st6" d="M397.7,141.7c-8.5,7.9-16.3,16.6-23.5,25.7c-7.2,9.1-13.9,18.6-20.4,28.3C341,215.1,329.1,235.1,317,255
							c-12.2,19.9-24.7,39.6-38.8,58.3c-14.1,18.7-30.1,36.3-49,50.5l1.1-3.5c0.6,1.9,0.4,3.8-0.6,5.4l-0.4-3.8
							c1.1,1.1,2.3,2.3,3.6,3.5c1.2,1.2,2.4,2.4,3.6,3.7c1.2,1.2,2.3,2.6,3.5,3.8c1.1,1.3,2.3,2.6,3.3,4c4.3,5.4,8.3,11,12,16.8
							c3.6,5.8,7,11.8,10.1,17.9c1.5,3.1,3,6.1,4.4,9.3c1.4,3.1,2.8,6.2,4.1,9.4c5.3,12.6,9.7,25.5,13.6,38.5s7.2,26.2,10.1,39.5
							l2.1,10c0.7,3.3,1.3,6.7,1.9,10c1.3,6.7,2.3,13.4,3.4,20.1c0.6,3.3,1,6.7,1.5,10.1l1.4,10.1c0.8,6.7,1.7,13.5,2.4,20.2
							c2.9,27,4.8,54,5.8,81.1l-8.1-0.6c0.9-4.2,1.9-8.1,3-12.1s2.3-7.9,3.5-11.8c2.5-7.8,5.3-15.5,8.4-23.1
							c6.1-15.2,13.4-29.9,21.6-44c4.2-7.1,8.6-14,13.2-20.7c4.7-6.7,9.6-13.3,14.9-19.6c10.4-12.7,22-24.4,34.5-35l-0.7,4.8
							c-0.6-0.9-1.1-1.8-1.6-2.7c-0.5-0.9-1-1.7-1.5-2.6c-1-1.7-1.9-3.5-2.8-5.3c-1.8-3.5-3.5-7.1-5.1-10.7
							c-3.2-7.2-6.2-14.5-8.7-22c-5.3-14.9-9.3-30.1-12.6-45.4c-3.2-15.4-5.6-30.9-7.1-46.5s-2.1-31.3-2-47l0.2-11.7l0.5-11.7
							l0.3-5.9l0.5-5.9c0.3-3.9,0.6-7.8,1-11.7l1.3-11.7l0.7-5.8l0.9-5.8l1.7-11.6c0.6-3.9,1.4-7.7,2.1-11.5
							C379.6,201.4,387.6,171.2,397.7,141.7z M397.7,141.7c-9,29.9-16.1,60.2-21,91c-0.6,3.8-1.2,7.7-1.8,11.5l-1.4,11.6l-0.7,5.8
							l-0.5,5.8l-1.1,11.6c-0.3,3.9-0.5,7.8-0.7,11.6l-0.4,5.8l-0.2,5.8l-0.3,11.6v11.6c0.3,15.5,1.1,31,2.8,46.4
							c1.7,15.4,4.2,30.7,7.6,45.8c3.4,15.1,7.6,30,13,44.5c2.6,7.3,5.5,14.4,8.7,21.4c1.6,3.5,3.3,6.9,5,10.4
							c0.9,1.7,1.8,3.4,2.7,5c0.5,0.8,0.9,1.7,1.4,2.5s1,1.6,1.4,2.3l1.7,2.7l-2.4,2.1c-12,10.5-23.2,21.9-33.3,34.3
							c-5.1,6.2-9.8,12.6-14.3,19.2c-4.5,6.6-8.8,13.3-12.8,20.2c-8,13.8-15.1,28.2-21,43.1c-3,7.4-5.7,14.9-8.1,22.5
							c-1.2,3.8-2.3,7.6-3.4,11.5c-1,3.8-2,7.8-2.8,11.5l-6.8,33l-1.4-33.6c-1.1-26.9-2.8-53.8-5.6-80.5
							c-2.8-26.7-6.9-53.3-12.3-79.6c-2.8-13.1-5.9-26.2-9.7-39c-3.8-12.9-8-25.5-13.1-37.9c-1.2-3.1-2.6-6.1-3.9-9.2
							c-1.4-3-2.8-6-4.2-9c-3-5.9-6.1-11.8-9.6-17.5s-7.2-11.1-11.3-16.3c-1-1.3-2.1-2.5-3.1-3.8c-1.1-1.2-2.2-2.5-3.3-3.7
							s-2.3-2.4-3.4-3.6c-1.2-1.2-2.3-2.3-3.6-3.7l-2.1-2.2l1.7-1.6l0.1-0.2l1.1-3.5c18.5-13.5,34.3-30.6,48.6-48.7
							c14.3-18.2,27-37.6,39.6-57.2c12.6-19.5,24.9-39.4,38.3-58.4c6.7-9.5,13.7-18.9,21.2-27.8
							C380.8,157.8,388.9,149.3,397.7,141.7z"/>
					</g>
					<g>
						<path class="st6" d="M409.5,505.7c-3.9-1.6-7.6-3.7-11.2-5.9c-3.6-2.3-7-4.8-10.3-7.4c-1.7-1.3-3.3-2.7-4.9-4.1
							s-3.2-2.8-4.7-4.3l-2.3-2.2l-2.2-2.3c-1.5-1.5-2.9-3.1-4.4-4.6c-11.6-12.5-21.4-26.4-30.4-40.9c-4.5-7.2-8.6-14.7-12.6-22.2
							c-1.9-3.8-3.9-7.6-5.7-11.4l-2.8-5.7l-2.6-5.8c-3.5-7.7-6.8-15.6-9.9-23.5l-4.7-11.7c-1.6-3.9-3.3-7.7-4.9-11.6
							c-13.6-30.8-30.1-60.2-48.9-88c-9.4-13.9-19.5-27.4-30.1-40.4c-5.3-6.5-10.8-12.9-16.4-19.1c-2.8-3.1-5.7-6.2-8.6-9.2
							c-2.9-3-5.9-6-8.8-8.8l6.3-4.8c6.5,12.1,12.3,24.7,17.2,37.5c4.9,12.9,9.2,26,12.4,39.4c6.6,26.7,9.9,54.2,10.3,81.7
							c0.4,27.5-2.2,54.9-7.2,81.9c-2.5,13.5-5.7,26.8-9.5,40c-1.9,6.6-4,13.1-6.2,19.6c-2.3,6.5-4.6,12.9-7.5,19.3l-0.8-3.6
							c15.2,13.7,28.6,29.3,40.4,45.8c11.8,16.6,22.2,34.2,31.2,52.3c9,18.2,16.9,36.9,23.5,56.1c6.6,19.1,12.3,38.6,16.4,58.4
							c-2.4-9.8-5.2-19.5-8.3-29.1c-3.1-9.6-6.4-19.1-10.1-28.6c-7.3-18.8-15.5-37.3-24.9-55.1s-19.9-35-31.9-51.1
							S209,505.2,194,492l-1.6-1.4l0.9-2.1c2.5-6.1,4.8-12.5,6.9-18.9c2.1-6.4,4-12.9,5.8-19.4c3.5-13,6.5-26.2,8.9-39.5
							s4.1-26.7,5.2-40.1c0.6-6.7,0.9-13.4,1.1-20.2c0.2-6.7,0.3-13.5,0.2-20.2c-0.5-26.9-3.8-53.8-10.3-79.8
							c-3.2-13-7.3-25.9-12-38.4c-4.8-12.5-10.4-24.8-16.7-36.6L171,153.9l17.6,16.7c3.2,3,6.2,6,9.1,9.1c2.9,3.1,5.9,6.2,8.7,9.4
							c5.7,6.3,11.2,12.8,16.5,19.5c10.7,13.3,20.7,27,30.1,41.2c18.9,28.3,35,58.5,48.2,89.8c1.6,3.9,3.2,7.9,4.8,11.8l4.5,11.9
							c2.9,7.9,6,15.7,9.3,23.5l2.5,5.8l2.6,5.8c1.7,3.9,3.6,7.6,5.4,11.4c3.8,7.5,7.6,15,11.8,22.3c8.4,14.6,17.8,28.6,28.8,41.4
							c5.5,6.4,11.4,12.4,17.7,17.9c3.2,2.8,6.5,5.4,10,7.8C402,501.7,405.6,503.9,409.5,505.7z"/>
					</g>
				</g>
			</g>
		</g>
	</g>
</g>
</svg>
