<svg xmlns="http://www.w3.org/2000/svg" xmlns:xlink="http://www.w3.org/1999/xlink" viewBox="0 0 545.56024 545.56024"><defs><style>.cls-1{fill:#262626;}.cls-2{fill:url(#linear-gradient);}.cls-3{opacity:0.25;}.cls-4{fill:#fff;}</style><linearGradient id="linear-gradient" x1="371.31385" y1="439.02267" x2="-88.3525" y2="524.29977" gradientTransform="translate(70.60584 -201.95001) rotate(2.01146)" gradientUnits="userSpaceOnUse"><stop offset="0" stop-color="#404040"/><stop offset="1" stop-color="#262626"/></linearGradient></defs><title>video-editing_2</title><g id="Layer_2" data-name="Layer 2"><g id="mockup"><path class="cls-1" d="M282.353.17127C131.79517-5.11563,5.45827,112.64967.17127,263.20727c-5.287,150.5578,112.4781,276.8947,263.0359,282.1817S540.102,432.91087,545.389,282.35307C550.67587,131.79547,432.91087,5.45827,282.353.17127Zm-10.8868,310.0253a37.43946,37.43946,0,1,1,38.7304-36.1025A37.43941,37.43941,0,0,1,271.46617,310.19657Z"/><path class="cls-2" d="M263.60867,533.95617a261.33738,261.33738,0,0,1-169.023-452.3408A261.33741,261.33741,0,0,1,450.97457,463.945,259.6272,259.6272,0,0,1,263.60867,533.95617Zm10.8868-310.0252a48.87931,48.87931,0,1,0,47.1339,50.5646A48.93446,48.93446,0,0,0,274.49547,223.931Z"/><g class="cls-3"><path class="cls-4" d="M271.55415,98.34305c30.67367,0,61.39614,8.70683,88.8463,25.1812a192.34157,192.34157,0,0,1,46.346,39.01454l-45.858-1.51264a9.75813,9.75813,0,1,0-.64043,19.50575l63.44858,2.09513A9.75781,9.75781,0,0,0,436.429,169.87327l-2.089-63.43333a9.76141,9.76141,0,0,0-19.51795.43611c0,.07319,0,.14028.0061.21043l1.20767,36.59615a212.87555,212.87555,0,0,0-45.5927-36.90112c-30.48155-18.28893-64.6776-27.95641-98.8889-27.95641-54.65025,0-105.037,22.53408-141.85888,63.44857C97.0759,178.51911,77.60065,227.30483,77.60065,272.7786a9.759,9.759,0,0,0,19.518,0c0-40.78336,17.5997-84.68959,47.084-117.4462C177.27942,118.58682,222.50311,98.34305,271.55415,98.34305Z"/><path class="cls-4" d="M458.20062,263.01962a9.75629,9.75629,0,0,0-9.759,9.759c0,40.78031-17.5997,84.68959-47.084,117.44924-33.07682,36.74559-78.30052,56.98326-127.35156,56.98326-30.67367,0-61.39614-8.70074-88.8463-25.1751a192.48062,192.48062,0,0,1-46.346-39.01455l45.858,1.51264a9.76118,9.76118,0,0,0,.64043-19.51185l-63.44857-2.09208a9.75686,9.75686,0,0,0-12.73241,12.75071l2.089,63.43333a9.76137,9.76137,0,1,0,19.51794-.43306c0-.07014,0-.13723-.0061-.21042l-1.20767-36.59615a212.98177,212.98177,0,0,0,45.5927,36.90416c30.48155,18.292,64.6776,27.95641,98.8889,27.95641,54.65025,0,105.03705-22.531,141.85888-63.44552,32.61937-36.24849,52.09462-85.03421,52.09462-130.511A9.75629,9.75629,0,0,0,458.20062,263.01962Z"/></g></g></g></svg>