<?xml version="1.0" encoding="utf-8"?>
<!-- Generator: Adobe Illustrator 23.0.3, SVG Export Plug-In . SVG Version: 6.00 Build 0)  -->
<svg version="1.1" id="Illustration" xmlns="http://www.w3.org/2000/svg" xmlns:xlink="http://www.w3.org/1999/xlink" x="0px"
	 y="0px" viewBox="0 0 200 200" style="enable-background:new 0 0 200 200;" xml:space="preserve">
<style type="text/css">
	.st0{fill:#FFFFFF;}
</style>
<g>
	<g id="Design_structure_matrix_1_">
		<g>
			<polygon class="st0" points="117.7,128.51 83.3,128.51 63.74,95.39 83.3,61.69 117.7,61.69 137.39,95.97 			"/>
			<path d="M117.7,128.88H83.3c-0.13,0-0.26-0.07-0.32-0.18L63.41,95.59c-0.07-0.12-0.07-0.26,0-0.38l19.57-33.7
				c0.07-0.12,0.19-0.19,0.32-0.19h34.39c0.13,0,0.26,0.07,0.32,0.19l19.69,34.28c0.07,0.12,0.07,0.26,0,0.38l-19.69,32.54
				C117.95,128.81,117.83,128.88,117.7,128.88z M83.51,128.13h33.97l19.47-32.17l-19.47-33.9H83.52L64.17,95.39L83.51,128.13z"/>
		</g>
		<g>
			<polygon class="st0" points="116.2,199.63 81.81,199.63 62.24,166.51 81.81,132.81 116.2,132.81 135.89,167.09 			"/>
			<path d="M116.2,200H81.81c-0.13,0-0.26-0.07-0.32-0.18L61.92,166.7c-0.07-0.12-0.07-0.26,0-0.38l19.57-33.7
				c0.07-0.12,0.19-0.19,0.32-0.19h34.39c0.13,0,0.26,0.07,0.32,0.19l19.69,34.28c0.07,0.12,0.07,0.26,0,0.38l-19.69,32.54
				C116.45,199.93,116.33,200,116.2,200z M82.02,199.25h33.97l19.47-32.17l-19.47-33.9H82.02l-19.35,33.32L82.02,199.25z"/>
		</g>
		<g>
			<polygon class="st0" points="174.9,164.81 140.5,164.81 120.94,131.7 140.5,98 174.9,98 194.58,132.28 			"/>
			<path d="M174.9,165.19H140.5c-0.13,0-0.26-0.07-0.32-0.18l-19.56-33.11c-0.07-0.12-0.07-0.26,0-0.38l19.57-33.7
				c0.07-0.12,0.19-0.19,0.32-0.19h34.39c0.13,0,0.26,0.07,0.32,0.19l19.69,34.28c0.07,0.12,0.07,0.26,0,0.38l-19.69,32.54
				C175.15,165.12,175.03,165.19,174.9,165.19z M140.71,164.44h33.97l19.47-32.17l-19.47-33.9h-33.96l-19.35,33.32L140.71,164.44z"
				/>
		</g>
		<g>
			<polygon class="st0" points="59,93.32 24.61,93.32 5.04,60.21 24.61,26.51 59,26.51 78.69,60.79 			"/>
			<path d="M59,93.7H24.61c-0.13,0-0.26-0.07-0.32-0.18L4.72,60.4c-0.07-0.12-0.07-0.26,0-0.38l19.57-33.7
				c0.07-0.12,0.19-0.19,0.32-0.19H59c0.13,0,0.26,0.07,0.32,0.19L79.02,60.6c0.07,0.12,0.07,0.26,0,0.38L59.32,93.52
				C59.25,93.63,59.13,93.7,59,93.7z M24.82,92.95h33.97l19.47-32.17l-19.47-33.9H24.82L5.47,60.21L24.82,92.95z"/>
		</g>
		<g>
			<polygon class="st0" points="175.27,94.44 140.88,94.44 121.31,61.33 140.88,27.63 175.27,27.63 194.96,61.91 			"/>
			<path d="M175.27,94.82h-34.39c-0.13,0-0.26-0.07-0.32-0.18l-19.57-33.11c-0.07-0.12-0.07-0.26,0-0.38l19.56-33.7
				c0.07-0.12,0.19-0.19,0.32-0.19h34.39c0.13,0,0.26,0.07,0.32,0.19l19.69,34.28c0.07,0.12,0.07,0.26,0,0.38l-19.69,32.54
				C175.52,94.75,175.4,94.82,175.27,94.82z M141.09,94.07h33.97l19.47-32.17l-19.47-33.9h-33.96l-19.35,33.32L141.09,94.07z"/>
		</g>
		<g>
			<g>
				<g>
					<g>
						<path d="M104.62,116.67c-0.16-0.24-0.16-0.55,0-0.79c0.23-0.33,0.35-0.69,0.35-1.06c0-1.73-2.68-3.13-5.98-3.13
							c-3.3,0-5.98,1.4-5.98,3.13c0,0.37,0.12,0.73,0.35,1.06c0.16,0.24,0.16,0.55,0,0.79c-0.23,0.33-0.35,0.69-0.35,1.06
							c0,0.82,0.6,1.57,1.59,2.13c-0.02,0.09-0.03,0.19-0.03,0.28c0,1.28,1.98,2.32,4.43,2.32c2.45,0,4.43-1.04,4.43-2.32
							c0-0.1-0.01-0.19-0.03-0.28c0.99-0.56,1.59-1.31,1.59-2.13C104.97,117.36,104.85,117,104.62,116.67z"/>
						<path d="M98.99,122.84c-2.69,0-4.8-1.18-4.8-2.69c0-0.03,0-0.06,0-0.09c-1.01-0.63-1.56-1.45-1.56-2.32
							c0-0.44,0.14-0.87,0.42-1.27c0.08-0.11,0.08-0.25,0-0.37c-0.28-0.4-0.42-0.83-0.42-1.27c0-1.97,2.79-3.51,6.36-3.51
							c3.57,0,6.36,1.54,6.36,3.51c0,0.44-0.14,0.87-0.42,1.27c-0.08,0.11-0.08,0.25,0,0.36c0,0,0,0,0,0
							c0.28,0.4,0.42,0.83,0.42,1.27c0,0.87-0.55,1.69-1.56,2.32c0,0.03,0,0.06,0,0.09C103.79,121.65,101.68,122.84,98.99,122.84z
							 M98.99,112.06c-3.04,0-5.61,1.26-5.61,2.76c0,0.29,0.1,0.57,0.29,0.85c0.25,0.37,0.25,0.85,0,1.21
							c-0.19,0.28-0.29,0.56-0.29,0.85c0,0.65,0.5,1.29,1.4,1.8c0.14,0.08,0.22,0.25,0.18,0.41c-0.02,0.07-0.02,0.14-0.02,0.2
							c0,0.94,1.63,1.95,4.05,1.95c2.42,0,4.05-1.01,4.05-1.95c0-0.06-0.01-0.13-0.02-0.2c-0.04-0.16,0.04-0.33,0.18-0.41
							c0.9-0.51,1.4-1.15,1.4-1.8c0-0.29-0.1-0.57-0.29-0.85c-0.25-0.37-0.25-0.85,0-1.21c0.19-0.28,0.29-0.56,0.29-0.85
							C104.6,113.32,102.03,112.06,98.99,112.06z"/>
					</g>
					<g>
						<path class="st0" d="M115.23,90.78c0-8.88-7.38-16.45-16.25-16.45c-8.85,0-16.15,7.37-16.21,16.23
							c-0.03,4.51,2.14,8.71,5.11,11.65c2.14,2.12,3.7,4.75,4.45,7.67l0.04,0.14c0.73,2.83,3.29,4.8,6.21,4.8h1.2
							c2.92,0,5.47-1.98,6.21-4.8l0.02-0.09c0.75-2.89,2.25-5.55,4.39-7.64C113.37,99.37,115.23,95.29,115.23,90.78z"/>
						<path d="M99.77,115.19h-1.2c-3.09,0-5.79-2.09-6.57-5.08l-0.04-0.14c-0.73-2.8-2.23-5.39-4.35-7.49
							c-3.35-3.31-5.25-7.66-5.22-11.92c0.06-9.15,7.5-16.6,16.59-16.6c9.01,0,16.62,7.71,16.62,16.83c0,4.47-1.76,8.65-4.96,11.77
							c-2.06,2.01-3.54,4.59-4.28,7.47l-0.02,0.09C105.56,113.1,102.86,115.19,99.77,115.19z M98.98,74.71
							c-8.67,0-15.78,7.11-15.84,15.86c-0.03,4.06,1.79,8.2,5,11.38c2.22,2.2,3.79,4.91,4.55,7.84l0.04,0.14
							c0.69,2.66,3.09,4.52,5.84,4.52h1.2c2.75,0,5.15-1.86,5.84-4.52l0.02-0.09c0.78-3.01,2.33-5.71,4.49-7.82
							c3.05-2.98,4.73-6.97,4.73-11.24C114.86,82.07,107.59,74.71,98.98,74.71z"/>
					</g>
				</g>
				<g>
					<path d="M99.89,112.89C99.89,112.89,99.89,112.89,99.89,112.89c-0.21,0-0.38-0.17-0.37-0.38c0.04-8.67,5.09-18.44,6.1-20.32
						c0.6-1.1,0.82-2,0.7-2.75c-0.19-1.1-0.75-1.81-1.67-2.11c-0.65-0.21-1.64-0.23-2.5,0.23c1.13,1.17,1.88,3.05,1.39,4.76
						c-0.19,0.68-0.74,1.16-1.46,1.28c-0.83,0.14-1.69-0.22-2.18-0.93c-0.42-0.6-0.92-1.96,0.41-4.32c0.18-0.32,0.4-0.6,0.63-0.83
						c-0.02-0.01-0.03-0.02-0.05-0.03c-0.66-0.42-1.75-0.72-2.82-0.32c-0.28,0.1-0.55,0.25-0.8,0.45c1.2,0.9,1.79,3.14,1.54,4.4
						c-0.2,0.98-0.77,1.69-1.58,1.93c-0.69,0.21-1.43,0.02-1.94-0.49c-0.7-0.7-0.87-1.88-0.46-3.22c0.31-1.03,0.72-1.79,1.16-2.36
						c-1.74-0.44-2.95,0.39-3.28,1.21c-0.4,0.98-0.25,2.15,0.38,3.05c1.48,2.12,4.95,8.32,5.12,19.99c0,0.21-0.16,0.38-0.37,0.38
						c0,0,0,0-0.01,0c-0.2,0-0.37-0.16-0.37-0.37c-0.17-11.46-3.54-17.5-4.99-19.57c-0.78-1.12-0.96-2.53-0.46-3.76
						c0.55-1.35,2.37-2.26,4.54-1.54c0.44-0.4,0.88-0.64,1.26-0.78c1.33-0.49,2.67-0.12,3.48,0.39c0.09,0.05,0.17,0.11,0.26,0.18
						c1.12-0.7,2.47-0.69,3.32-0.42c1.19,0.38,1.95,1.32,2.18,2.7c0.16,0.93-0.09,1.96-0.78,3.23c-1,1.84-5.97,11.48-6.01,19.96
						C100.27,112.73,100.1,112.89,99.89,112.89z M96.73,88.15c-0.49,0.57-0.89,1.35-1.18,2.3c-0.33,1.07-0.22,1.97,0.28,2.48
						c0.32,0.32,0.77,0.43,1.2,0.31c0.53-0.16,0.92-0.66,1.06-1.36C98.29,90.82,97.72,88.77,96.73,88.15z M101.52,88.01
						c-0.21,0.2-0.4,0.44-0.56,0.72c-1.14,2.01-0.77,3.07-0.45,3.52c0.33,0.47,0.89,0.71,1.44,0.62c0.43-0.07,0.75-0.34,0.86-0.74
						C103.22,90.69,102.53,89.01,101.52,88.01z"/>
					<path d="M106.43,101.25c-0.12,0-0.25-0.06-0.32-0.17c-0.11-0.18-0.06-0.41,0.12-0.52c2.86-1.8,4.91-4.72,5.64-8.01
						c0.04-0.2,0.24-0.33,0.45-0.29c0.2,0.04,0.33,0.24,0.29,0.45c-0.77,3.49-2.95,6.58-5.97,8.49
						C106.57,101.23,106.5,101.25,106.43,101.25z"/>
					<path d="M88.95,99.38c-0.1,0-0.21-0.04-0.28-0.13c-2.19-2.46-3.39-5.63-3.39-8.93c0-5.14,2.86-9.76,7.46-12.05
						c0.19-0.09,0.41-0.02,0.5,0.17c0.09,0.19,0.02,0.41-0.17,0.5c-4.35,2.16-7.05,6.52-7.05,11.38c0,3.11,1.14,6.11,3.2,8.43
						c0.14,0.15,0.12,0.39-0.03,0.53C89.13,99.35,89.04,99.38,88.95,99.38z"/>
					<path class="st0" d="M100.01,116.87c-0.18,0-0.34-0.13-0.37-0.31c-0.04-0.2,0.1-0.4,0.31-0.43c0.54-0.09,1.07-0.21,1.57-0.35
						c0.2-0.06,0.41,0.06,0.46,0.26c0.06,0.2-0.06,0.41-0.26,0.46c-0.52,0.15-1.07,0.27-1.64,0.37
						C100.06,116.87,100.03,116.87,100.01,116.87z"/>
					<path class="st0" d="M97.49,119.95c-0.21,0-0.37-0.17-0.37-0.37c0-0.21,0.16-0.38,0.37-0.38c1.22-0.01,3.02-0.18,4.62-0.93
						c0.19-0.09,0.41-0.01,0.5,0.18c0.09,0.19,0.01,0.41-0.18,0.5C100.7,119.76,98.79,119.94,97.49,119.95
						C97.49,119.95,97.49,119.95,97.49,119.95z"/>
				</g>
			</g>
		</g>
	</g>
	<g>
		<g>
			<g>
				<path d="M144.69,151.03v-39.56h10.27c2.82,0,5.35,0.79,7.6,2.38c2.25,1.58,4,3.82,5.27,6.71c1.26,2.89,1.9,6.13,1.92,9.71v1.82
					c0,3.62-0.62,6.87-1.85,9.74c-1.23,2.87-2.97,5.12-5.21,6.74c-2.24,1.62-4.74,2.44-7.5,2.46H144.69z M152.38,118.83v24.86h2.67
					c2.2,0,3.9-0.97,5.08-2.92c1.18-1.95,1.77-4.84,1.77-8.68v-1.71c0-3.82-0.59-6.7-1.77-8.64s-2.91-2.91-5.17-2.91H152.38z"/>
				<path d="M144.69,151.4c-0.21,0-0.37-0.17-0.37-0.37v-39.56c0-0.21,0.17-0.37,0.37-0.37h10.27c2.88,0,5.51,0.82,7.81,2.45
					c2.29,1.62,4.11,3.93,5.39,6.87c1.28,2.92,1.93,6.24,1.95,9.86v1.82c0,3.66-0.63,6.98-1.88,9.89c-1.26,2.92-3.05,5.24-5.34,6.89
					c-2.3,1.66-4.89,2.51-7.72,2.53H144.69z M145.07,150.65h10.11c2.66-0.02,5.11-0.82,7.28-2.39c2.17-1.57,3.89-3.79,5.09-6.58
					c1.21-2.81,1.82-6.04,1.82-9.59v-1.82c-0.01-3.52-0.65-6.73-1.89-9.56c-1.23-2.81-2.96-5.02-5.14-6.55
					c-2.17-1.53-4.66-2.31-7.38-2.31h-9.9V150.65z M155.05,144.06h-2.67c-0.21,0-0.37-0.17-0.37-0.37v-24.86
					c0-0.21,0.17-0.37,0.37-0.37h2.58c2.39,0,4.24,1.04,5.49,3.09c1.21,1.99,1.83,4.96,1.83,8.84v1.71c0,3.89-0.62,6.88-1.83,8.88
					C159.2,143.02,157.39,144.06,155.05,144.06z M152.75,143.31h2.3c2.08,0,3.64-0.9,4.76-2.74c1.14-1.88,1.72-4.73,1.72-8.49v-1.71
					c0-3.73-0.58-6.58-1.72-8.45c-1.12-1.84-2.71-2.73-4.85-2.73h-2.21V143.31z"/>
			</g>
			<g>
				<path class="st0" d="M147.52,151.03v-39.56h10.27c2.82,0,5.35,0.79,7.6,2.38c2.25,1.58,4,3.82,5.27,6.71
					c1.26,2.89,1.9,6.13,1.92,9.71v1.82c0,3.62-0.62,6.87-1.85,9.74c-1.23,2.87-2.97,5.12-5.21,6.74c-2.24,1.62-4.74,2.44-7.5,2.46
					H147.52z M155.2,118.83v24.86h2.67c2.2,0,3.9-0.97,5.08-2.92c1.18-1.95,1.77-4.84,1.77-8.68v-1.71c0-3.82-0.59-6.7-1.77-8.64
					c-1.18-1.94-2.91-2.91-5.17-2.91H155.2z"/>
				<path d="M147.52,151.4c-0.21,0-0.37-0.17-0.37-0.37v-39.56c0-0.21,0.17-0.37,0.37-0.37h10.27c2.88,0,5.51,0.82,7.81,2.45
					c2.29,1.62,4.11,3.93,5.39,6.87c1.28,2.92,1.93,6.24,1.95,9.86v1.82c0,3.66-0.63,6.98-1.88,9.89c-1.26,2.92-3.05,5.24-5.34,6.89
					c-2.3,1.66-4.89,2.51-7.72,2.53H147.52z M147.89,150.65h10.11c2.66-0.02,5.11-0.82,7.28-2.39c2.17-1.57,3.89-3.79,5.09-6.58
					c1.21-2.81,1.82-6.04,1.82-9.59v-1.82c-0.01-3.52-0.65-6.74-1.89-9.56c-1.23-2.81-2.96-5.02-5.14-6.55
					c-2.17-1.53-4.66-2.31-7.38-2.31h-9.9V150.65z M157.88,144.06h-2.67c-0.21,0-0.37-0.17-0.37-0.37v-24.86
					c0-0.21,0.17-0.37,0.37-0.37h2.58c2.39,0,4.24,1.04,5.49,3.09c1.21,1.99,1.83,4.96,1.83,8.84v1.71c0,3.89-0.62,6.88-1.83,8.88
					C162.03,143.02,160.21,144.06,157.88,144.06z M155.58,143.31h2.3c2.08,0,3.64-0.9,4.76-2.74c1.14-1.88,1.72-4.73,1.72-8.49
					v-1.71c0-3.73-0.58-6.58-1.72-8.45c-1.12-1.84-2.71-2.73-4.85-2.73h-2.21V143.31z"/>
			</g>
		</g>
		<g>
			<g>
				<path d="M111.92,179.8h-7.64l-11.3-24.62v24.62h-7.69v-39.56h7.69l11.28,24.62v-24.62h7.66V179.8z"/>
				<path d="M111.92,180.18h-7.64c-0.15,0-0.28-0.09-0.34-0.22L93.35,156.9v22.9c0,0.21-0.17,0.37-0.37,0.37h-7.69
					c-0.21,0-0.37-0.17-0.37-0.37v-39.56c0-0.21,0.17-0.37,0.37-0.37h7.69c0.15,0,0.28,0.09,0.34,0.22l10.56,23.06v-22.9
					c0-0.21,0.17-0.37,0.37-0.37h7.66c0.21,0,0.37,0.17,0.37,0.37v39.56C112.3,180.01,112.13,180.18,111.92,180.18z M104.52,179.43
					h7.03v-38.81h-6.92v24.24c0,0.18-0.12,0.33-0.29,0.37c-0.17,0.04-0.35-0.05-0.42-0.21l-11.18-24.4h-7.07v38.81h6.94v-24.24
					c0-0.18,0.12-0.33,0.29-0.37c0.17-0.04,0.35,0.05,0.42,0.21L104.52,179.43z"/>
			</g>
			<g>
				<path class="st0" d="M114.75,179.8h-7.64l-11.3-24.62v24.62h-7.69v-39.56h7.69l11.28,24.62v-24.62h7.66V179.8z"/>
				<path d="M114.75,180.18h-7.64c-0.15,0-0.28-0.09-0.34-0.22L96.18,156.9v22.9c0,0.21-0.17,0.37-0.37,0.37h-7.69
					c-0.21,0-0.37-0.17-0.37-0.37v-39.56c0-0.21,0.17-0.37,0.37-0.37h7.69c0.15,0,0.28,0.09,0.34,0.22l10.56,23.06v-22.9
					c0-0.21,0.17-0.37,0.37-0.37h7.66c0.21,0,0.37,0.17,0.37,0.37v39.56C115.12,180.01,114.95,180.18,114.75,180.18z M107.34,179.43
					h7.03v-38.81h-6.91v24.24c0,0.18-0.12,0.33-0.29,0.37c-0.17,0.04-0.35-0.05-0.42-0.21l-11.18-24.4h-7.07v38.81h6.94v-24.24
					c0-0.18,0.12-0.33,0.29-0.37c0.17-0.04,0.35,0.05,0.42,0.21L107.34,179.43z"/>
			</g>
		</g>
		<g>
			<g>
				<path d="M41.2,65.7h-4.16V79.7h-7.69V40.13H41.9c3.78,0,6.74,1.04,8.87,3.12c2.13,2.08,3.2,5.02,3.2,8.82
					c0,2.75-0.45,5.03-1.35,6.84c-0.9,1.81-2.3,3.28-4.22,4.4l6.66,15.97v0.41h-8.23L41.2,65.7z M37.04,58.37h4.86
					c1.46,0,2.56-0.48,3.3-1.43c0.74-0.95,1.11-2.28,1.11-3.99c0-1.71-0.37-3.05-1.12-4.02c-0.74-0.97-1.84-1.46-3.28-1.46h-4.86
					V58.37z"/>
				<path d="M55.06,80.07h-8.23c-0.15,0-0.29-0.09-0.35-0.23l-5.53-13.76h-3.53V79.7c0,0.21-0.17,0.37-0.37,0.37h-7.69
					c-0.21,0-0.37-0.17-0.37-0.37V40.13c0-0.21,0.17-0.37,0.37-0.37H41.9c3.86,0,6.94,1.09,9.13,3.23c2.2,2.15,3.31,5.2,3.31,9.09
					c0,2.8-0.47,5.15-1.39,7.01c-0.88,1.78-2.25,3.25-4.08,4.38l6.53,15.68c0.02,0.05,0.03,0.09,0.03,0.14v0.41
					C55.43,79.9,55.26,80.07,55.06,80.07z M47.08,79.32h7.59l-6.61-15.86c-0.07-0.17-0.01-0.37,0.16-0.47
					c1.84-1.08,3.21-2.51,4.07-4.24c0.87-1.75,1.31-3.99,1.31-6.67c0-3.68-1.04-6.55-3.08-8.55c-2.05-2-4.95-3.01-8.61-3.01H29.72
					v38.81h6.94V65.7c0-0.21,0.17-0.37,0.37-0.37h4.16c0.15,0,0.29,0.09,0.35,0.23L47.08,79.32z M41.9,58.74h-4.86
					c-0.21,0-0.37-0.17-0.37-0.37v-10.9c0-0.21,0.17-0.37,0.37-0.37h4.86c1.56,0,2.77,0.54,3.58,1.6c0.79,1.03,1.19,2.46,1.19,4.25
					c0,1.78-0.4,3.2-1.18,4.22C44.68,58.21,43.47,58.74,41.9,58.74z M37.41,57.99h4.49c1.35,0,2.33-0.42,3-1.28
					c0.68-0.88,1.03-2.15,1.03-3.76c0-1.61-0.35-2.89-1.04-3.79c-0.68-0.88-1.65-1.31-2.99-1.31h-4.49V57.99z"/>
			</g>
			<g>
				<path class="st0" d="M44.02,65.7h-4.16V79.7h-7.69V40.13h12.55c3.78,0,6.74,1.04,8.87,3.12c2.13,2.08,3.2,5.02,3.2,8.82
					c0,2.75-0.45,5.03-1.35,6.84c-0.9,1.81-2.3,3.28-4.22,4.4l6.66,15.97v0.41h-8.23L44.02,65.7z M39.86,58.37h4.86
					c1.46,0,2.56-0.48,3.3-1.43c0.74-0.95,1.11-2.28,1.11-3.99c0-1.71-0.37-3.05-1.12-4.02c-0.74-0.97-1.84-1.46-3.28-1.46h-4.86
					V58.37z"/>
				<path d="M57.88,80.07h-8.23c-0.15,0-0.29-0.09-0.35-0.23l-5.53-13.76h-3.53V79.7c0,0.21-0.17,0.37-0.37,0.37h-7.69
					c-0.21,0-0.37-0.17-0.37-0.37V40.13c0-0.21,0.17-0.37,0.37-0.37h12.55c3.86,0,6.94,1.09,9.13,3.23c2.2,2.15,3.31,5.2,3.31,9.09
					c0,2.8-0.47,5.15-1.39,7.01c-0.88,1.78-2.25,3.25-4.08,4.38l6.53,15.68c0.02,0.05,0.03,0.09,0.03,0.14v0.41
					C58.26,79.9,58.09,80.07,57.88,80.07z M49.9,79.32h7.59l-6.61-15.86c-0.07-0.17-0.01-0.37,0.16-0.47
					c1.84-1.08,3.21-2.51,4.07-4.24c0.87-1.75,1.31-3.99,1.31-6.67c0-3.68-1.04-6.55-3.08-8.55c-2.05-2-4.94-3.01-8.61-3.01H32.55
					v38.81h6.94V65.7c0-0.21,0.17-0.37,0.37-0.37h4.16c0.15,0,0.29,0.09,0.35,0.23L49.9,79.32z M44.72,58.74h-4.86
					c-0.21,0-0.37-0.17-0.37-0.37v-10.9c0-0.21,0.17-0.37,0.37-0.37h4.86c1.56,0,2.77,0.54,3.58,1.6c0.79,1.03,1.19,2.46,1.19,4.25
					c0,1.78-0.4,3.2-1.18,4.22C47.5,58.21,46.3,58.74,44.72,58.74z M40.23,57.99h4.49c1.35,0,2.33-0.42,3-1.28
					c0.68-0.88,1.03-2.15,1.03-3.76c0-1.61-0.35-2.89-1.04-3.79c-0.68-0.88-1.65-1.31-2.99-1.31h-4.49V57.99z"/>
			</g>
		</g>
		<g>
			<g>
				<path d="M45.13,137.83H34.59l-1.84,7.39h-8.21l11.69-39.56h7.23l11.78,39.56h-8.26L45.13,137.83z M36.43,130.47h6.85
					l-3.44-13.72L36.43,130.47z"/>
				<path d="M55.25,145.6h-8.26c-0.17,0-0.32-0.12-0.36-0.28l-1.79-7.11h-9.95l-1.77,7.11c-0.04,0.17-0.19,0.28-0.36,0.28h-8.21
					c-0.12,0-0.23-0.06-0.3-0.15c-0.07-0.09-0.09-0.22-0.06-0.33l11.69-39.56c0.05-0.16,0.19-0.27,0.36-0.27h7.23
					c0.17,0,0.31,0.11,0.36,0.27l11.78,39.56c0.03,0.11,0.01,0.24-0.06,0.33C55.47,145.54,55.36,145.6,55.25,145.6z M47.28,144.85
					h7.46l-11.56-38.81h-6.67l-11.47,38.81h7.42l1.77-7.11c0.04-0.17,0.19-0.28,0.36-0.28h10.53c0.17,0,0.32,0.12,0.36,0.28
					L47.28,144.85z M43.29,130.84h-6.85c-0.12,0-0.22-0.05-0.3-0.14c-0.07-0.09-0.1-0.21-0.07-0.32l3.42-13.72
					c0.04-0.17,0.19-0.28,0.36-0.28c0,0,0,0,0,0c0.17,0,0.32,0.12,0.36,0.28l3.44,13.72c0.03,0.11,0,0.23-0.07,0.32
					C43.51,130.79,43.4,130.84,43.29,130.84z M36.91,130.1h5.89l-2.96-11.8L36.91,130.1z"/>
			</g>
			<g>
				<path class="st0" d="M47.95,137.83H37.42l-1.84,7.39h-8.21l11.69-39.56h7.23l11.78,39.56h-8.26L47.95,137.83z M39.26,130.47
					h6.85l-3.44-13.72L39.26,130.47z"/>
				<path d="M58.07,145.6h-8.26c-0.17,0-0.32-0.12-0.36-0.28l-1.79-7.11h-9.95l-1.77,7.11c-0.04,0.17-0.19,0.28-0.36,0.28h-8.21
					c-0.12,0-0.23-0.06-0.3-0.15c-0.07-0.09-0.09-0.22-0.06-0.33l11.69-39.56c0.05-0.16,0.19-0.27,0.36-0.27h7.23
					c0.17,0,0.31,0.11,0.36,0.27l11.78,39.56c0.03,0.11,0.01,0.24-0.06,0.33C58.3,145.54,58.19,145.6,58.07,145.6z M50.11,144.85
					h7.46l-11.56-38.81h-6.67l-11.47,38.81h7.42l1.77-7.11c0.04-0.17,0.19-0.28,0.36-0.28h10.53c0.17,0,0.32,0.12,0.36,0.28
					L50.11,144.85z M46.11,130.84h-6.85c-0.12,0-0.22-0.05-0.3-0.14c-0.07-0.09-0.1-0.21-0.07-0.32l3.42-13.72
					c0.04-0.17,0.19-0.28,0.36-0.28c0,0,0,0,0,0c0.17,0,0.32,0.12,0.36,0.28l3.44,13.72c0.03,0.11,0,0.23-0.07,0.32
					C46.34,130.79,46.23,130.84,46.11,130.84z M39.74,130.1h5.89l-2.96-11.8L39.74,130.1z"/>
			</g>
		</g>
	</g>
	<g>
		<g>
			<path d="M108.81,39.94V0.37h11.45c4.1,0,7.22,0.93,9.36,2.8c2.14,1.87,3.21,4.57,3.21,8.12c0,2.05-0.38,3.79-1.14,5.24
				c-0.76,1.45-1.88,2.52-3.35,3.21c1.66,0.54,2.94,1.56,3.83,3.04s1.34,3.3,1.34,5.43c0,3.88-0.99,6.79-2.97,8.74
				c-1.98,1.95-4.91,2.94-8.79,2.98H108.81z M116.5,16.87h4.01c1.68-0.02,2.88-0.4,3.59-1.14c0.72-0.74,1.07-1.84,1.07-3.3
				c0-1.67-0.39-2.87-1.16-3.61c-0.77-0.74-2.02-1.1-3.74-1.1h-3.77V16.87z M116.5,23.12v9.48h5.04c1.39,0,2.45-0.39,3.2-1.18
				c0.74-0.79,1.12-1.9,1.12-3.33c0-3.3-1.32-4.95-3.96-4.97H116.5z"/>
			<path d="M108.82,40.31c-0.21,0-0.37-0.17-0.37-0.37V0.37c0-0.21,0.17-0.37,0.37-0.37h11.45c4.18,0,7.41,0.97,9.61,2.89
				c2.21,1.93,3.34,4.76,3.34,8.41c0,2.1-0.4,3.92-1.18,5.42c-0.66,1.26-1.6,2.26-2.78,2.98c1.37,0.61,2.46,1.59,3.25,2.91
				c0.92,1.54,1.39,3.43,1.39,5.63c0,3.96-1.04,6.99-3.08,9c-2.04,2.01-5.09,3.05-9.05,3.08H108.82z M109.19,39.56h12.57
				c3.76-0.04,6.63-1,8.53-2.87c1.9-1.86,2.86-4.71,2.86-8.47c0-2.06-0.43-3.82-1.28-5.24c-0.84-1.4-2.06-2.37-3.63-2.88
				c-0.15-0.05-0.25-0.18-0.26-0.33c-0.01-0.15,0.08-0.3,0.22-0.36c1.39-0.65,2.46-1.67,3.18-3.04c0.73-1.39,1.1-3.09,1.1-5.07
				c0-3.42-1.04-6.06-3.08-7.84c-2.06-1.8-5.13-2.71-9.12-2.71h-11.08V39.56z M121.54,32.98h-5.04c-0.21,0-0.37-0.17-0.37-0.37
				v-9.48c0-0.21,0.17-0.37,0.37-0.37h5.39c1.98,0.01,4.34,0.95,4.34,5.35c0,1.52-0.41,2.73-1.22,3.59
				C124.19,32.54,123.03,32.98,121.54,32.98z M116.88,32.23h4.66c1.29,0,2.25-0.35,2.92-1.06c0.67-0.71,1.01-1.74,1.01-3.07
				c0-3.08-1.17-4.58-3.59-4.6h-5.01V32.23z M116.5,17.24c-0.21,0-0.37-0.17-0.37-0.37V7.71c0-0.21,0.17-0.37,0.37-0.37h3.77
				c1.81,0,3.16,0.41,4,1.21c0.85,0.81,1.28,2.11,1.28,3.88c0,1.55-0.4,2.74-1.18,3.56c-0.78,0.82-2.08,1.24-3.86,1.26H116.5z
				 M116.88,16.49h3.63c1.56-0.02,2.68-0.36,3.32-1.03c0.64-0.67,0.97-1.69,0.97-3.04c0-1.56-0.35-2.68-1.04-3.34
				c-0.7-0.66-1.87-1-3.49-1h-3.39V16.49z"/>
		</g>
		<g>
			<path class="st0" d="M111.64,39.94V0.37h11.45c4.1,0,7.22,0.93,9.36,2.8c2.14,1.87,3.21,4.57,3.21,8.12
				c0,2.05-0.38,3.79-1.14,5.24c-0.76,1.45-1.88,2.52-3.35,3.21c1.66,0.54,2.94,1.56,3.83,3.04s1.34,3.3,1.34,5.43
				c0,3.88-0.99,6.79-2.97,8.74c-1.98,1.95-4.91,2.94-8.79,2.98H111.64z M119.33,16.87h4.01c1.68-0.02,2.88-0.4,3.59-1.14
				c0.72-0.74,1.07-1.84,1.07-3.3c0-1.67-0.39-2.87-1.16-3.61c-0.77-0.74-2.02-1.1-3.74-1.1h-3.77V16.87z M119.33,23.12v9.48h5.04
				c1.39,0,2.45-0.39,3.2-1.18c0.74-0.79,1.12-1.9,1.12-3.33c0-3.3-1.32-4.95-3.96-4.97H119.33z"/>
			<path d="M111.64,40.31c-0.21,0-0.37-0.17-0.37-0.37V0.37c0-0.21,0.17-0.37,0.37-0.37h11.45c4.18,0,7.41,0.97,9.61,2.89
				c2.21,1.93,3.34,4.76,3.34,8.41c0,2.1-0.4,3.92-1.18,5.42c-0.66,1.26-1.6,2.26-2.78,2.98c1.37,0.61,2.46,1.59,3.25,2.91
				c0.92,1.54,1.39,3.43,1.39,5.63c0,3.96-1.04,6.99-3.08,9c-2.04,2.01-5.09,3.05-9.05,3.08H111.64z M112.01,39.56h12.57
				c3.76-0.04,6.63-1,8.53-2.87c1.9-1.86,2.86-4.71,2.86-8.47c0-2.06-0.43-3.82-1.28-5.24c-0.84-1.4-2.06-2.37-3.63-2.88
				c-0.15-0.05-0.25-0.18-0.26-0.33c-0.01-0.15,0.08-0.3,0.22-0.36c1.39-0.65,2.46-1.67,3.18-3.04c0.73-1.39,1.1-3.09,1.1-5.07
				c0-3.42-1.04-6.06-3.08-7.84c-2.06-1.8-5.13-2.71-9.12-2.71h-11.08V39.56z M124.36,32.98h-5.04c-0.21,0-0.37-0.17-0.37-0.37
				v-9.48c0-0.21,0.17-0.37,0.37-0.37h5.39c1.98,0.01,4.34,0.95,4.34,5.35c0,1.52-0.41,2.73-1.22,3.59
				C127.02,32.54,125.85,32.98,124.36,32.98z M119.7,32.23h4.66c1.29,0,2.25-0.35,2.92-1.06c0.67-0.71,1.01-1.74,1.01-3.07
				c0-3.08-1.17-4.58-3.59-4.6h-5.01V32.23z M119.33,17.24c-0.21,0-0.37-0.17-0.37-0.37V7.71c0-0.21,0.17-0.37,0.37-0.37h3.77
				c1.81,0,3.16,0.41,4,1.21c0.85,0.81,1.28,2.11,1.28,3.88c0,1.55-0.4,2.74-1.18,3.56c-0.78,0.82-2.08,1.24-3.86,1.26H119.33z
				 M119.7,16.49h3.63c1.56-0.02,2.68-0.36,3.32-1.03c0.64-0.67,0.97-1.69,0.97-3.04c0-1.56-0.35-2.68-1.04-3.34
				c-0.7-0.66-1.87-1-3.49-1h-3.39V16.49z"/>
		</g>
	</g>
</g>
</svg>
