<svg width="4255" height="2000" viewBox="0 0 4255 2000" fill="none" xmlns="http://www.w3.org/2000/svg">
<g clip-path="url(#clip0_55_231)">
<path d="M4250.06 1556.69C4250.06 1556.69 4196.19 1359.51 4033 1492C3869.81 1624.51 3569.26 1473.87 3477.21 1399.26C3385.16 1324.65 2756.83 909.708 2549.71 895.067C2342.6 880.427 1579.51 1057.73 1497.92 1054.59C1416.32 1051.46 1350.43 982.419 1319.04 871.016C1287.66 759.613 1155.86 204.165 1140.17 197.888C1124.48 191.611 1060.14 191.611 972.279 255.94C884.408 320.269 709.724 497.577 721.231 539.422C732.737 581.266 984.834 809.302 1015.17 807.206C1045.51 805.111 858.261 570.798 866.634 532.097C875.007 493.396 1054.4 266.399 1038.7 260.65C1023.02 254.902 729.594 506.998 739.533 531.578C749.473 556.158 1032.95 798.843 1033.3 791.172C1033.65 783.501 890.695 541.864 896.271 525.128C901.846 508.392 1062.59 267.1 1082.47 251.066C1102.35 235.022 1136.43 191.159 1136.43 171.981C1136.43 152.804 1112.98 51.4462 1133.38 26.3376C1153.78 1.22886 1215.49 -12.3637 1245.3 51.4462C1275.11 115.256 1438.13 875.553 1459.75 879.735C1481.36 883.917 1871.19 540.124 1857.94 515.015C1844.69 489.906 1548.31 216.546 1523.9 234.676C1499.49 252.806 1710.1 491.31 1699.63 506.652C1689.17 521.994 1529.48 754.913 1535.05 762.584C1540.63 770.255 1825.16 528.271 1816.78 510.833C1808.41 493.396 1515.53 243.741 1515.53 260.477C1515.53 277.213 1659.88 485.725 1653.61 506.642C1647.33 527.56 1462.53 780.704 1461.83 812.782C1461.13 844.86 1484.84 944.583 1466.71 973.873C1448.58 1003.16 1416.33 995.493 1397.5 976.142C1378.67 956.791 1345.73 883.042 1354.09 889.319C1362.46 895.596 1425.74 965.683 1444.05 966.202C1462.35 966.721 1506.29 866.825 1572.19 841.197C1638.09 815.569 1856.19 876.236 1947.71 877.284C2039.24 878.332 2336.84 881.465 2331.61 889.838C2326.38 898.211 1443 1059.29 1347.8 1081.27C1252.62 1103.23 1140.69 1087.55 1116.63 1070.81C1092.56 1054.07 846.745 710.972 768.295 696.322C689.845 681.682 606.857 711.664 604.07 730.496C601.282 749.327 886.504 1186.92 928.339 1230.85C970.183 1274.78 1450.32 1473.54 1409.52 1484C1368.72 1494.46 1053.86 1377.82 840.468 1358.99C627.073 1340.16 572.155 1322.91 474.873 1253.87C377.592 1184.83 154.257 1088.94 140.318 1061.74C126.37 1034.55 233.764 932.038 291.643 963.415C349.522 994.8 583.142 1234.69 631.956 1253.52C680.77 1272.35 876.728 1321.86 865.577 1330.23C854.416 1338.6 682.866 1297.45 613.134 1262.58C543.403 1227.71 19.6869 768.149 7.13257 738.859C-5.42178 709.569 38.5184 579.863 201.696 656.573C364.874 733.284 518.996 898.557 565.714 973.172C612.442 1047.79 734.477 1209.58 754.001 1231.2C773.524 1252.82 1004.36 1339.99 993.889 1342.78C983.43 1345.56 826.52 1313.48 728.19 1228.41C629.861 1143.34 283.27 606.366 288.856 570.798C294.431 535.231 475.748 507.334 539.212 591.716C602.676 676.097 606.684 706.781 602.493 710.963C598.302 715.144 578.961 719.855 585.757 733.457C592.553 747.059 882.313 1233.99 921.36 1257.7C960.417 1281.42 1474.37 1517.81 1529.46 1528.98C1584.55 1540.14 2225.43 1407.63 2449.28 1457.84C2673.13 1508.05 3145.94 1959.94 3237.99 1964.13C3330.04 1968.31 3428.37 1392.99 3399.08 1399.27C3369.79 1405.55 3269.38 1846.98 3204.52 1842.8C3139.66 1838.61 2804.93 1493.42 2666.86 1629.4C2528.78 1765.38 2187.69 2148.23 1717 1928.57C1246.33 1708.9 548.613 1470.4 18.2738 1708.9" stroke="#171717" stroke-width="14" stroke-miterlimit="10"/>
</g>
<defs>
<clipPath id="clip0_55_231">
<rect width="4255" height="2000" fill="white"/>
</clipPath>
</defs>
</svg>
