<?xml version="1.0" encoding="utf-8"?>
<!-- Generator: Adobe Illustrator 23.0.3, SVG Export Plug-In . SVG Version: 6.00 Build 0)  -->
<svg version="1.1" id="OBJECTS" xmlns="http://www.w3.org/2000/svg" xmlns:xlink="http://www.w3.org/1999/xlink" x="0px" y="0px"
	 viewBox="0 0 200 200" style="enable-background:new 0 0 200 200;" xml:space="preserve">
<style type="text/css">
	.st0{fill:#FFFFFF;}
</style>
<g>
	<g>
		<g>
			<g>
				<path d="M127.76,123.87l-40.99,0.26c-0.27,0-0.35,0.25-0.35,0.48v34.87c0,3.34-23.29,12.01-23.52,11.57l-0.03,3.69
					c0,0.69,0.6,1.3,1.37,1.3h0.51c0,0,0.01,0,0.01,0h34.37c1.59,0,3.17-0.36,4.61-0.96l18.9-7.96c3.4-1.43,5.55-4.51,5.55-7.86
					v-34.91C128.19,124.12,128.03,123.87,127.76,123.87z"/>
				<g>
					<path class="st0" d="M82.27,122.1v34.88c0,3.44-2.21,6.57-5.69,8.06l-12.75,5.44c-0.83,0.36-0.55,1.47,0.37,1.47h35.02
						c1.57,0,3.13-0.31,4.55-0.91l14.12-5.95c3.5-1.47,5.74-4.62,5.74-8.08V122.1c0-0.14-0.13-0.26-0.29-0.26h-40.8
						C82.4,121.84,82.27,121.95,82.27,122.1z"/>
					<path d="M99.23,172.21H64.2c-0.65,0-1.02-0.42-1.11-0.85c-0.1-0.47,0.16-0.92,0.63-1.13l12.75-5.44
						c3.36-1.43,5.53-4.5,5.53-7.82V122.1c0-0.29,0.25-0.52,0.55-0.52h40.8c0.3,0,0.55,0.23,0.55,0.52v34.92
						c0,3.54-2.31,6.81-5.9,8.32l-14.12,5.95C102.44,171.89,100.83,172.21,99.23,172.21z M82.53,122.11v34.87
						c0,3.52-2.3,6.78-5.85,8.3l-12.75,5.44c-0.25,0.11-0.37,0.31-0.33,0.54c0.04,0.2,0.22,0.43,0.6,0.43h35.02
						c1.53,0,3.07-0.31,4.45-0.89l14.12-5.95c3.39-1.43,5.58-4.5,5.58-7.84V122.1c0,0-0.01,0-0.03,0h-40.8
						C82.54,122.1,82.53,122.1,82.53,122.11z"/>
				</g>
			</g>
			<g>
				<path d="M5.64,142.09l176.68,0.4c1.55,0,3.09-1.16,3.28-2.7l14.36-110.55c0.34-2.68-1.73-5.34-4.4-5.28L20.94,24.88L5.64,142.09
					z"/>
				<g>
					<path class="st0" d="M188.63,24.58c3.04,0,5.78,3.08,5.4,6.1l-13.94,108.83c-0.2,1.54-1.84,2.84-3.39,2.84L3.14,142.07
						c-1.85,0-3.09-1.54-2.85-3.38L14.72,27.84c0.2-1.54,1.21-3.26,2.76-3.26H188.63z"/>
					<path d="M176.7,142.61L3.14,142.33c-0.94,0-1.77-0.37-2.36-1.03c-0.61-0.69-0.88-1.65-0.76-2.65L14.46,27.81
						c0.22-1.69,1.35-3.49,3.02-3.49h171.14c1.53,0,3.06,0.74,4.19,2.02c1.12,1.27,1.65,2.87,1.46,4.37l-13.94,108.83
						C180.13,141.18,178.43,142.61,176.7,142.61z M17.48,24.84c-1.37,0-2.31,1.56-2.5,3.03L0.55,138.72
						c-0.11,0.85,0.11,1.65,0.63,2.23c0.48,0.55,1.18,0.85,1.97,0.85l173.55,0.28c1.46,0,2.95-1.24,3.13-2.61l13.94-108.83
						c0.17-1.36-0.31-2.8-1.33-3.96c-1.03-1.17-2.42-1.85-3.8-1.85H17.48z"/>
				</g>
				<path d="M172.61,137.66L8.64,137.4c-0.87,0-1.64-0.34-2.18-0.96c-0.56-0.64-0.82-1.53-0.7-2.45L19.03,32.02
					c0.2-1.56,1.25-3.23,2.8-3.23h161.76c1.42,0,2.83,0.68,3.87,1.87c1.04,1.18,1.53,2.65,1.35,4.04l-12.82,100.12
					C175.8,136.33,174.22,137.66,172.61,137.66z M21.83,29.31c-1.25,0-2.11,1.43-2.28,2.77L6.27,134.06c-0.1,0.78,0.1,1.5,0.57,2.04
					c0.44,0.5,1.08,0.78,1.79,0.78l163.98,0.26c1.33,0,2.7-1.14,2.86-2.38L188.3,34.64c0.16-1.24-0.29-2.56-1.22-3.63
					c-0.95-1.08-2.22-1.69-3.48-1.69H21.83z"/>
			</g>
		</g>
	</g>
	<g>
		<g>
			<path d="M166.35,43.13H99.69c-0.08,0-0.15-0.03-0.2-0.09c-0.05-0.06-0.07-0.13-0.06-0.21l0.45-3.34
				c0.02-0.13,0.13-0.23,0.26-0.23h66.66c0.08,0,0.15,0.03,0.2,0.09c0.05,0.06,0.07,0.13,0.06,0.21l-0.45,3.34
				C166.59,43.04,166.48,43.13,166.35,43.13z M99.99,42.61h66.13l0.38-2.82h-66.13L99.99,42.61z"/>
			<polygon points="180.73,48.38 112.82,48.38 113.27,45.04 181.18,45.04 			"/>
			<path d="M171.8,54.15h-35.1c-0.08,0-0.15-0.03-0.2-0.09c-0.05-0.06-0.07-0.13-0.06-0.21l0.45-3.34c0.02-0.13,0.13-0.23,0.26-0.23
				h35.1c0.08,0,0.15,0.03,0.2,0.09c0.05,0.06,0.07,0.13,0.06,0.21l-0.45,3.34C172.05,54.05,171.93,54.15,171.8,54.15z M137,53.63
				h34.58l0.38-2.82h-34.58L137,53.63z"/>
			<path d="M160.42,87.21H93.77c-0.08,0-0.15-0.03-0.2-0.09c-0.05-0.06-0.07-0.13-0.06-0.21l0.45-3.34
				c0.02-0.13,0.13-0.23,0.26-0.23h66.65c0.08,0,0.15,0.03,0.2,0.09c0.05,0.06,0.07,0.13,0.06,0.21l-0.45,3.34
				C160.67,87.11,160.55,87.21,160.42,87.21z M94.07,86.69h66.13l0.38-2.82H94.45L94.07,86.69z"/>
			<path d="M124.36,92.72H106.9c-0.08,0-0.15-0.03-0.2-0.09c-0.05-0.06-0.07-0.13-0.06-0.21l0.45-3.34
				c0.02-0.13,0.13-0.23,0.26-0.23h15.8c0.14,0,0.26,0.12,0.26,0.26c0,0.14-0.12,0.26-0.26,0.26h-15.57l-0.38,2.82h17.16
				c0.14,0,0.26,0.12,0.26,0.26S124.5,92.72,124.36,92.72z"/>
			<path d="M174.81,92.72h-41.95c-0.14,0-0.26-0.12-0.26-0.26s0.12-0.26,0.26-0.26h41.72l0.38-2.82H130.6
				c-0.14,0-0.26-0.12-0.26-0.26c0-0.14,0.12-0.26,0.26-0.26h44.66c0.08,0,0.15,0.03,0.2,0.09c0.05,0.06,0.07,0.13,0.06,0.21
				l-0.45,3.34C175.05,92.62,174.94,92.72,174.81,92.72z"/>
			<path d="M174.07,98.23h-36.28c-0.14,0-0.26-0.12-0.26-0.26s0.12-0.26,0.26-0.26h36.05l0.38-2.82h-38.43
				c-0.14,0-0.26-0.12-0.26-0.26c0-0.14,0.12-0.26,0.26-0.26h38.72c0.08,0,0.15,0.03,0.2,0.09c0.05,0.06,0.07,0.13,0.06,0.21
				L174.33,98C174.31,98.13,174.2,98.23,174.07,98.23z"/>
			<path d="M129.93,103.51h-24.74c-0.08,0-0.15-0.03-0.2-0.09c-0.05-0.06-0.07-0.13-0.06-0.21l0.45-3.34
				c0.02-0.13,0.13-0.23,0.26-0.23H126c0.14,0,0.26,0.12,0.26,0.26c0,0.14-0.12,0.26-0.26,0.26h-20.13l-0.38,2.82h24.44
				c0.14,0,0.26,0.12,0.26,0.26C130.19,103.39,130.08,103.51,129.93,103.51z"/>
			<polygon points="164.13,59.4 97.47,59.4 97.92,56.06 164.58,56.06 			"/>
			<polygon points="168.79,64.91 110.6,64.91 111.05,61.57 168.88,61.57 			"/>
			<path d="M160.65,76.19h-26.91c-0.08,0-0.15-0.03-0.2-0.09c-0.05-0.06-0.07-0.13-0.06-0.21l0.45-3.34
				c0.02-0.13,0.13-0.23,0.26-0.23h26.91c0.08,0,0.15,0.03,0.2,0.09c0.05,0.06,0.07,0.13,0.06,0.21l-0.45,3.34
				C160.89,76.09,160.78,76.19,160.65,76.19z M134.04,75.67h26.39l0.38-2.82h-26.39L134.04,75.67z"/>
			<polygon points="167.96,81.43 141.05,81.43 141.49,78.09 168.41,78.09 			"/>
			<polygon points="166.66,70.42 134.48,70.42 134.93,67.08 166.8,67.08 			"/>
			<polygon class="st0" points="157.46,108.98 90.81,108.98 91.26,105.64 157.91,105.64 			"/>
			<path d="M139.12,114.75h-35.19c-0.08,0-0.15-0.03-0.2-0.09c-0.05-0.06-0.07-0.13-0.06-0.21l0.45-3.34
				c0.02-0.13,0.13-0.23,0.26-0.23h33.54c0.14,0,0.26,0.12,0.26,0.26c0,0.14-0.12,0.26-0.26,0.26h-33.31l-0.38,2.82h34.89
				c0.14,0,0.26,0.12,0.26,0.26C139.38,114.64,139.27,114.75,139.12,114.75z"/>
			<path d="M157.63,120.26h-29.82c-0.08,0-0.15-0.03-0.2-0.09c-0.05-0.06-0.07-0.13-0.06-0.21l0.45-3.34
				c0.02-0.13,0.13-0.23,0.26-0.23h28.3c0.14,0,0.26,0.12,0.26,0.26c0,0.14-0.12,0.26-0.26,0.26h-28.07l-0.38,2.82h29.52
				c0.14,0,0.26,0.12,0.26,0.26C157.89,120.15,157.78,120.26,157.63,120.26z"/>
			<polygon class="st0" points="155.24,125.51 88.58,125.51 89.03,122.17 155.69,122.17 			"/>
			<path d="M157.36,131.28h-55.65c-0.08,0-0.15-0.03-0.2-0.09c-0.05-0.06-0.07-0.13-0.06-0.21l0.45-3.34
				c0.02-0.13,0.13-0.23,0.26-0.23h55.47c0.14,0,0.26,0.12,0.26,0.26c0,0.14-0.12,0.26-0.26,0.26h-55.24l-0.38,2.82h55.36
				c0.14,0,0.26,0.12,0.26,0.26S157.51,131.28,157.36,131.28z"/>
		</g>
		<g>
			<polygon points="88.97,81.37 82.48,81.37 82.91,78.16 89.4,78.16 			"/>
			<polygon points="94.39,42.87 87.62,42.87 88.07,39.53 94.84,39.53 			"/>
			<polygon points="95.07,37.81 88.3,37.81 88.75,34.47 95.52,34.47 			"/>
			<polygon points="93.6,48.38 86.88,48.38 87.33,45.04 94.05,45.04 			"/>
			<polygon points="92.63,53.89 86.25,53.89 86.7,50.55 93.08,50.55 			"/>
			<polygon points="91.92,59.4 85.43,59.4 85.88,56.06 92.37,56.06 			"/>
			<polygon points="91.15,64.91 84.66,64.91 85.11,61.57 91.6,61.57 			"/>
			<polygon points="89.86,75.71 83.43,75.71 83.88,72.37 90.31,72.37 			"/>
			<polygon points="90.44,70.2 84.29,70.2 84.74,66.86 90.89,66.86 			"/>
			<polygon points="86.72,98.11 80.23,98.11 80.66,94.9 87.15,94.9 			"/>
			<polygon points="87.61,92.44 81.18,92.44 81.63,89.1 88.06,89.1 			"/>
			<polygon points="88.19,86.93 82.04,86.93 82.49,83.59 88.64,83.59 			"/>
			<polygon points="82.34,130.7 75.85,130.7 76.28,127.49 82.77,127.49 			"/>
			<polygon points="86,103.22 79.62,103.22 80.07,99.87 86.45,99.87 			"/>
			<polygon points="85.29,108.73 78.8,108.73 79.25,105.38 85.74,105.38 			"/>
			<polygon points="84.52,114.23 78.03,114.23 78.48,110.89 84.97,110.89 			"/>
			<polygon points="83.23,125.03 76.8,125.03 77.25,121.69 83.68,121.69 			"/>
			<polygon points="83.8,119.52 77.66,119.52 78.11,116.18 84.25,116.18 			"/>
		</g>
		<g>
			<polygon points="59.97,37.08 27.89,37.08 28.32,33.87 60.4,33.87 			"/>
			<path d="M65.61,42.91H31.79c-0.08,0-0.15-0.03-0.2-0.09c-0.05-0.06-0.07-0.13-0.06-0.21l0.45-3.34c0.02-0.13,0.13-0.23,0.26-0.23
				h33.82c0.08,0,0.15,0.03,0.2,0.09c0.05,0.06,0.07,0.13,0.06,0.21l-0.45,3.34C65.85,42.81,65.74,42.91,65.61,42.91z M32.09,42.39
				h33.29l0.38-2.82h-33.3L32.09,42.39z"/>
			<path d="M74.45,48.42h-39.4c-0.08,0-0.15-0.03-0.2-0.09c-0.05-0.06-0.07-0.13-0.06-0.21l0.45-3.34c0.02-0.13,0.13-0.23,0.26-0.23
				h39.4c0.08,0,0.15,0.03,0.2,0.09c0.05,0.06,0.07,0.13,0.06,0.21l-0.45,3.34C74.69,48.32,74.58,48.42,74.45,48.42z M35.35,47.9
				h38.88l0.38-2.82H35.73L35.35,47.9z"/>
			<path d="M79.5,53.93H46.62c-0.08,0-0.15-0.03-0.2-0.09c-0.05-0.06-0.07-0.13-0.06-0.21l0.45-3.34c0.02-0.13,0.13-0.23,0.26-0.23
				h32.88c0.08,0,0.15,0.03,0.2,0.09c0.05,0.06,0.07,0.13,0.06,0.21l-0.45,3.34C79.74,53.83,79.63,53.93,79.5,53.93z M46.92,53.41
				h32.36l0.38-2.82H47.3L46.92,53.41z"/>
			<polygon points="47.95,81.15 21.96,81.15 22.39,77.94 48.38,77.94 			"/>
			<path d="M48.36,86.99h-19c-0.08,0-0.15-0.03-0.2-0.09c-0.05-0.06-0.07-0.13-0.06-0.21l0.45-3.34c0.02-0.13,0.13-0.23,0.26-0.23
				h19c0.08,0,0.15,0.03,0.2,0.09c0.05,0.06,0.07,0.13,0.06,0.21l-0.45,3.34C48.6,86.89,48.49,86.99,48.36,86.99z M29.65,86.47
				h18.48l0.38-2.82H30.03L29.65,86.47z"/>
			<path d="M55.16,92.5H36.97c-0.08,0-0.15-0.03-0.2-0.09c-0.05-0.06-0.07-0.13-0.06-0.21l0.45-3.34c0.02-0.13,0.13-0.23,0.26-0.23
				h18.19c0.08,0,0.15,0.03,0.2,0.09c0.05,0.06,0.07,0.13,0.06,0.21l-0.45,3.34C55.4,92.4,55.29,92.5,55.16,92.5z M37.27,91.97
				h17.67l0.38-2.82H37.64L37.27,91.97z"/>
			<path d="M67.2,98.01H44.18c-0.08,0-0.15-0.03-0.2-0.09c-0.05-0.06-0.07-0.13-0.06-0.21l0.45-3.34c0.02-0.13,0.13-0.23,0.26-0.23
				h23.02c0.08,0,0.15,0.03,0.2,0.09c0.05,0.06,0.07,0.13,0.06,0.21l-0.45,3.34C67.45,97.91,67.34,98.01,67.2,98.01z M44.48,97.48
				h22.5l0.38-2.82h-22.5L44.48,97.48z"/>
			<polygon points="48.57,59.18 25.33,59.18 25.78,55.84 49.02,55.84 			"/>
			<path d="M77.45,64.95h-35.9c-0.08,0-0.15-0.03-0.2-0.09c-0.05-0.06-0.07-0.13-0.06-0.21l0.45-3.34c0.02-0.13,0.13-0.23,0.26-0.23
				h35.9c0.08,0,0.15,0.03,0.2,0.09c0.05,0.06,0.07,0.13,0.06,0.21l-0.45,3.34C77.69,64.85,77.58,64.95,77.45,64.95z M41.84,64.43
				h35.38l0.38-2.82H42.22L41.84,64.43z"/>
			<polygon points="47.38,70.19 24.14,70.19 24.59,66.85 47.83,66.85 			"/>
			<path d="M76.26,75.96h-35.9c-0.08,0-0.15-0.03-0.2-0.09c-0.05-0.06-0.07-0.13-0.06-0.21l0.45-3.34c0.02-0.13,0.13-0.23,0.26-0.23
				h35.9c0.08,0,0.15,0.03,0.2,0.09c0.05,0.06,0.07,0.13,0.06,0.21l-0.45,3.34C76.5,75.86,76.39,75.96,76.26,75.96z M40.65,75.44
				h35.38l0.38-2.82H41.03L40.65,75.44z"/>
			<polygon points="47.89,103.19 19,103.19 19.43,99.98 48.32,99.98 			"/>
			<path d="M66.59,109.02H19.41c-0.08,0-0.15-0.03-0.2-0.09c-0.05-0.06-0.07-0.13-0.06-0.21l0.45-3.34
				c0.02-0.13,0.13-0.23,0.26-0.23h47.18c0.08,0,0.15,0.03,0.2,0.09c0.05,0.06,0.07,0.13,0.06,0.21l-0.45,3.34
				C66.84,108.93,66.73,109.02,66.59,109.02z M19.71,108.5h46.65l0.38-2.82H20.09L19.71,108.5z"/>
			<path d="M66.43,114.53H39.35c-0.08,0-0.15-0.03-0.2-0.09c-0.05-0.06-0.07-0.13-0.06-0.21l0.45-3.34
				c0.02-0.13,0.13-0.23,0.26-0.23h27.09c0.08,0,0.15,0.03,0.2,0.09c0.05,0.06,0.07,0.13,0.06,0.21l-0.45,3.34
				C66.68,114.44,66.57,114.53,66.43,114.53z M39.65,114.01h26.56l0.38-2.82H40.03L39.65,114.01z"/>
			<polygon points="55.07,125.29 36.96,125.29 35.5,121.95 55.52,121.95 			"/>
			<path d="M71.85,119.61H45.87c-0.08,0-0.15-0.03-0.2-0.09c-0.05-0.06-0.07-0.13-0.06-0.21l0.45-3.34
				c0.02-0.13,0.13-0.23,0.26-0.23H72.3c0.08,0,0.15,0.03,0.2,0.09c0.05,0.06,0.07,0.13,0.06,0.21l-0.45,3.34
				C72.09,119.51,71.98,119.61,71.85,119.61z M46.17,119.09h25.45l0.38-2.82H46.55L46.17,119.09z"/>
			<path d="M60.43,131.06H39.7c-0.14,0-0.26-0.12-0.26-0.26s0.12-0.26,0.26-0.26h20.5l0.38-2.82H38.74c-0.14,0-0.26-0.12-0.26-0.26
				c0-0.14,0.12-0.26,0.26-0.26h22.14c0.08,0,0.15,0.03,0.2,0.09c0.05,0.06,0.07,0.13,0.06,0.21l-0.45,3.34
				C60.67,130.97,60.56,131.06,60.43,131.06z"/>
		</g>
	</g>
</g>
</svg>
