<svg width="2950" height="2000" viewBox="0 0 2950 2000" fill="none" xmlns="http://www.w3.org/2000/svg">
<g clip-path="url(#clip0_61_253)">
<path d="M0.0625 1962.56C0.0625 1962.56 1364.92 2027.56 1350.13 1983.19C1335.34 1938.83 1231.18 1410.23 1244.33 1410.23C1257.48 1410.23 1533.52 1339.57 1548.31 1277.12C1563.09 1214.67 1584.45 1069.24 1572.13 987.081C1559.81 904.916 1550.77 876.978 1551.59 836.721C1552.41 796.458 1560.63 696.22 1556.11 694.99C1551.59 693.76 1539.27 697.042 1532.29 716.765C1525.3 736.488 1523.97 796.259 1528.28 801.804C1532.59 807.349 1549.23 805.5 1549.54 797.181C1549.85 788.861 1550.47 728.472 1551.7 716.456C1552.93 704.44 1561.86 681.639 1556.01 679.482C1550.16 677.325 1546.15 679.791 1547.38 673.319C1548.61 666.848 1621.02 576.265 1617.32 567.018C1613.62 557.777 1431.85 428.984 1429.39 408.03C1426.92 387.077 1466.98 375.37 1483.61 391.391C1500.25 407.412 1641.34 522.033 1645.66 514.635C1649.97 507.242 1762.73 439.455 1792.92 451.78C1823.12 464.105 1889.66 456.094 1898.91 428.366C1908.15 400.637 1881.65 350.72 1881.04 328.536C1880.42 306.353 1884.73 239.183 1898.29 194.816C1911.85 150.448 1943.58 66.949 1940.19 59.5561C1936.8 52.1633 1924.48 45.6919 1915.54 52.4669C1906.61 59.2472 1828.05 165.239 1830.82 176.946C1833.6 188.653 1839.14 225.319 1819.42 248.121C1799.71 270.922 1756.27 269.383 1732.55 251.817C1708.83 234.251 1713.14 177.868 1731.32 159.998C1749.49 142.129 1759.66 145.825 1773.52 146.443C1787.39 147.061 1798.17 140.589 1804.64 129.186C1811.11 117.788 1887.51 22.5762 1885.67 14.8744C1883.82 7.17267 1863.18 -3.61292 1854.55 3.77992C1845.92 11.1728 1738.5 96.4209 1681.4 117.369C1624.3 138.322 1598.43 134.626 1580.36 130.924C1562.28 127.228 1545.85 121.474 1529.01 131.746C1512.17 142.019 1484.65 198.298 1501.9 218.429C1519.15 238.56 1530.65 249.241 1531.06 259.508C1531.47 269.781 1534.76 332.636 1526.95 360.982C1519.15 389.328 1510.93 404.119 1514.63 408.638C1518.32 413.156 1674.63 525.106 1678.32 544.206C1682.02 563.306 1673.39 583.029 1660.45 583.438C1647.51 583.846 1627.59 568.856 1617.52 561.254C1607.46 553.651 1458.31 425.224 1454.24 428.764C1450.17 432.303 1236.12 711.818 1241.87 715.928C1247.62 720.038 1330.59 804.663 1351.96 831.779C1373.32 858.894 1402.08 865.465 1402.9 862.177C1403.72 858.889 1416.76 791.003 1446.03 741.394C1475.3 691.786 1512.37 680.796 1521.82 677.921C1531.27 675.047 1547.7 676.073 1544.62 677.304C1541.54 678.534 1521.21 677.712 1494.71 696.199C1468.22 714.687 1434.94 759.876 1427.55 790.275C1420.16 820.674 1414.2 858.266 1410.5 861.758C1406.81 865.251 1404.55 868.329 1404.55 869.151C1404.55 869.973 1478.9 967.75 1486.7 998.971C1494.51 1030.19 1492.04 1052.38 1466.99 1057.31C1441.93 1062.24 1390.58 1039.23 1393.05 1028.96C1395.51 1018.69 1439.05 973.913 1457.54 985.002C1476.02 996.097 1490.4 1031.01 1480.13 1038C1469.86 1044.98 1446.45 1049.5 1428.37 1042.52C1410.3 1035.53 1388.11 1031.84 1364.29 1016.22C1340.47 1000.61 1133.64 795.615 1127.48 775.892C1121.32 756.175 1134.57 705.336 1170.61 699.173C1206.66 693.011 1248.56 717.043 1237.78 715.812C1226.99 714.582 1194.64 700.713 1168.76 706.875C1142.89 713.037 1134.88 741.075 1134.26 754.326C1133.64 767.573 1139.1 778.432 1134.26 778.976C1129.42 779.521 1086.2 768.5 1063.4 787.605C1040.6 806.71 1039.37 841.831 1052.93 859.706C1066.48 877.575 1293.84 1096.95 1331.43 1115.44C1369.02 1133.93 1403.73 1125.09 1400.86 1102.91C1397.98 1080.73 1377.85 1042.52 1368.82 1042.11C1359.78 1041.7 1314.6 1075.39 1321.17 1090.99C1327.74 1106.61 1343.35 1114.82 1368 1115.23C1392.64 1115.64 1392.64 1100.85 1390.18 1090.58C1387.71 1080.31 1378.27 1043.34 1351.98 1015.4C1325.68 987.463 1211.9 883.733 1182.94 851.69C1153.98 819.647 1120.71 783.29 1109.62 783.29C1098.52 783.29 1065.87 785.139 1059.09 807.94C1052.31 830.742 1056.01 857.24 1042.46 860.318C1028.9 863.397 983.921 877.575 980.838 911.466C977.759 945.357 1007.33 979.866 1046.15 1010.07C1084.97 1040.26 1214.36 1172.75 1255.03 1181.38C1295.7 1190.01 1321.57 1180.97 1317.88 1159.6C1314.18 1138.24 1296.11 1101.67 1281.32 1104.96C1266.53 1108.25 1231.2 1143.58 1239.01 1156.32C1246.82 1169.05 1275.98 1175.62 1285.84 1174.8C1295.7 1173.98 1309.25 1170.69 1307.61 1152.2C1305.97 1133.72 1280.5 1089.76 1257.5 1065.93C1234.49 1042.1 1137.96 957.886 1106.33 924.2C1074.7 890.513 1046.77 866.685 1037.73 866.685C1028.69 866.685 997.883 881.476 993.774 901.602C989.664 921.734 1009.43 960.478 1003.22 960.761C997.009 961.043 929.077 968.153 918.602 998.966C908.126 1029.78 943.249 1068.6 983.916 1108.65C1024.58 1148.71 1112.08 1215.88 1166.71 1230.26C1221.35 1244.64 1258.32 1232.73 1255.44 1213.42C1252.56 1194.11 1223.81 1171.51 1212.72 1173.98C1201.63 1176.44 1162.19 1218.34 1174.1 1224.1C1186.01 1229.85 1236.13 1231.9 1236.54 1220.4C1236.96 1208.9 1223.81 1176.03 1197.11 1153.03C1170.41 1130.02 1069.36 1049.5 1040.6 1023.21C1011.85 996.913 993.774 973.085 976.11 973.907C958.447 974.73 924.35 987.054 928.46 1005.54C932.569 1024.03 965.017 1070.86 958.855 1079.49C952.693 1088.12 801.527 1276.28 798.24 1304.21C794.952 1332.15 800.705 1378.98 842.603 1409.38C884.5 1439.78 954.332 1428.27 976.513 1398.7C998.695 1369.12 1134.56 1215.27 1123.47 1220.2C1112.38 1225.13 1077.57 1265.8 1084.96 1277.82C1092.35 1289.83 1117.41 1313.25 1159.31 1339.95C1201.21 1366.66 1224.21 1374.46 1230.79 1384.32C1237.36 1394.18 1243.11 1402.39 1248.45 1402.81C1253.79 1403.22 1544.78 1253.79 1540.92 1274.63C1537.07 1295.48 1559.82 1395.41 1607.47 1572.88C1655.12 1750.36 1689.94 1958.84 1719.51 1962.54C1749.09 1966.23 2950 1979.39 2950 1979.39" stroke="black" stroke-width="14" stroke-miterlimit="10"/>
</g>
<defs>
<clipPath id="clip0_61_253">
<rect width="2950" height="2000" fill="white"/>
</clipPath>
</defs>
</svg>
