<svg width="1790" height="2000" viewBox="0 0 1790 2000" fill="none" xmlns="http://www.w3.org/2000/svg">
<g clip-path="url(#clip0_57_237)">
<path d="M770.725 1994.9L441.944 1620.36C441.666 1620.05 441.261 1619.86 440.833 1619.86H140.38C89.4382 1619.86 53.7756 1592.7 53.7756 1515.15V960.487C53.7756 907.286 99.0582 899.357 155.66 899.357H536.716C537.573 899.357 538.248 900.071 538.192 900.929C537.224 914.897 527.842 1015.63 461.311 938.978C411.441 881.523 332.496 788.765 325.908 781.019C325.63 780.685 325.217 780.503 324.781 780.503H91.1368C44.7191 780.503 3.96875 779.368 3.96875 677.49V85.4723C3.96875 26.6047 26.6061 3.96875 93.3989 3.96875H813.38C877.903 3.96875 894.889 24.3427 894.889 87.7343V236.812C894.889 237.63 894.23 238.289 893.413 238.289H703.091C702.678 238.289 702.297 238.122 702.019 237.828C693.836 229.09 569.958 101.251 450.469 239.36C449.913 240.003 448.945 240.058 448.334 239.471C434.213 225.859 287.769 91.2821 193.029 269.98C96.1849 452.655 429.967 650.307 448.627 661.172C449.127 661.466 449.738 661.434 450.215 661.101C467.764 648.727 777.13 427.503 707.821 256.17C707.425 255.194 708.131 254.138 709.179 254.138H1746.19C1791.48 254.138 1785.82 290.362 1785.82 337.904V690.737C1785.82 691.554 1785.16 692.213 1784.34 692.213H1612.97C1612.15 692.213 1611.49 691.554 1611.49 690.737V610.71C1611.49 564.295 1562.81 540.524 1514.13 540.524H1429.87C1428.95 540.524 1428.25 539.691 1428.41 538.786C1431.98 518.753 1462.31 332.737 1351.12 367.334C1300.31 383.144 1269.77 499.173 1198.84 555.937C1198.49 556.215 1198.29 556.636 1198.29 557.08V868.8C1198.29 895.968 1174.52 899.365 1146.22 899.365H1051.13C1021.7 899.365 1011.5 876.729 1011.5 841.632V573.359C1011.5 545.056 1037.54 541.667 1083.96 541.667H1174.17C1174.99 541.667 1175.65 542.326 1175.65 543.143V848.117C1175.65 848.704 1175.99 849.236 1176.53 849.466C1185.36 853.268 1259.02 884.285 1338.66 895.968C1423.56 908.421 1546.95 907.286 1585.45 888.047C1621.7 869.919 1614.77 728.294 1613.84 711.881C1613.79 711.031 1614.47 710.333 1615.31 710.333H1784.56C1785.38 710.333 1786.04 710.992 1786.04 711.809V961.63C1786.04 992.194 1760.91 1018.23 1717.89 1018.23H1407.35C1406.86 1018.23 1406.41 1018.46 1406.14 1018.85C1397.24 1031.56 1255.55 1232.34 1206.21 1202.74C1155.27 1172.17 1235.64 1012.57 1156.4 1011.43C1077.15 1010.3 905.089 1011.43 860.941 1011.43C816.793 1011.43 779.432 1006.91 779.432 928.803V780.86C779.432 780.042 780.091 779.384 780.909 779.384H831.501C850.749 779.384 895.008 764.669 895.008 686.562V282.798C895.008 281.981 894.349 281.322 893.532 281.322H797.887C797.069 281.322 796.41 281.981 796.41 282.798V764.327C796.41 765.145 795.751 765.804 794.934 765.804H543.177C542.359 765.804 541.701 766.462 541.701 767.28V896.762C541.701 897.579 542.359 898.238 543.177 898.238H810.777C811.594 898.238 812.253 898.897 812.253 899.714V946.915C812.253 972.948 892.627 982.004 983.192 982.004C1073.76 982.004 1070.36 1010.31 1070.36 1052.19V1541.2C1070.36 1589.56 1043.54 1616.7 966.579 1617.04C965.762 1617.04 965.079 1616.37 965.079 1615.56V1435.36C965.079 1383.29 897.723 1316.51 843.947 1317.64C790.172 1318.77 660.555 1259.34 728.482 1160.3C796.402 1061.25 933.607 1144.45 895.008 1256.52C856.409 1368.58 547.36 1284.82 473.209 1197.66C399.058 1110.49 579.054 1009.18 635.655 1113.89C694.995 1223.66 604.525 1249.16 521.881 1270.1C439.245 1291.05 295.476 1353.87 248.495 1297.83C201.514 1241.8 222.46 1139.36 328.868 1137.66C435.277 1135.96 434.713 1249.16 400.749 1286.52C366.785 1323.88 230.374 1283.12 195.283 1391.23C160.192 1499.33 169.812 1518.01 251.32 1519.71C325.717 1521.26 382.66 1520.92 392.034 1520.85C392.804 1520.85 393.431 1520.26 393.486 1519.5C394.78 1501.81 408.155 1316.36 397.915 1324.45C387.16 1332.94 352.069 1528.2 409.806 1523.11C465.018 1518.23 717.442 1522.68 739.404 1523.07C740.246 1523.09 740.92 1522.42 740.896 1521.57C740.46 1502.46 735.189 1310.68 701.305 1318.22C665.642 1326.14 726.776 1527.63 749.985 1525.37C771.947 1523.23 928.734 1525.14 945.505 1525.35C946.315 1525.36 946.958 1526.02 946.958 1526.83V1617.28C946.958 1618.09 946.299 1618.75 945.482 1618.75H653.538C652.72 1618.75 652.062 1619.41 652.062 1620.23V2000.03" stroke="black" stroke-width="14" stroke-miterlimit="10"/>
</g>
<defs>
<clipPath id="clip0_57_237">
<rect width="1790" height="2000" fill="white"/>
</clipPath>
</defs>
</svg>
