<svg width="3425" height="2000" viewBox="0 0 3425 2000" fill="none" xmlns="http://www.w3.org/2000/svg">
<path d="M0 1478.44H481.268C483.016 1478.44 484.468 1479.77 484.612 1481.51C485.532 1492.91 489.834 1533.71 505.766 1564.81C524.464 1601.31 980.36 1978.84 1036.45 1994.86C1092.55 2010.89 2266.12 1880 2267.01 1875.55C2267.81 1871.56 2237.89 1839.71 2231.64 1833.11C2230.93 1832.36 2229.9 1831.98 2228.87 1832.09C2202.54 1834.8 1867.65 1869.31 1856.53 1869.31C1845.41 1869.31 1634.81 1739.78 1638.37 1737.33C1641.64 1735.07 2029.15 1701.86 2092.63 1696.44C2095.7 1696.17 2096.81 1692.26 2094.35 1690.42L2059.7 1664.43C2059.02 1663.92 2058.18 1663.69 2057.34 1663.78C2014.43 1668.26 927.685 1781.65 891.611 1775.83C854.808 1769.89 617.362 1577.57 629.235 1572.82C641.108 1568.07 2552.07 1441.95 2572.26 1441.95C2592.45 1441.95 2979.94 1583.51 2975.19 1587.06C2970.73 1590.42 2205.26 1655.69 2113.85 1663.47C2110.76 1663.74 2109.67 1667.68 2112.17 1669.52L2139.54 1689.59C2140.2 1690.08 2141.02 1690.3 2141.84 1690.22C2165.44 1687.94 2510.16 1654.65 2520.48 1652.35C2531.17 1649.98 2786.42 1746.14 2779.29 1755.64C2772.17 1765.14 2259.29 1818.16 2256.91 1827.66C2254.84 1835.95 2274.81 1865.39 2279.89 1872.7C2280.6 1873.72 2281.8 1874.27 2283.03 1874.12C2334.64 1867.92 3379.54 1742.28 3407.33 1730.71C3435.82 1718.84 3419.2 1696.28 3369.34 1679.66C3319.48 1663.04 2632.96 1417.89 2574.2 1411.66C2515.43 1405.42 532.475 1555.9 517.334 1541.65C502.201 1527.41 407.812 208.744 402.469 116.138C397.126 23.5389 434.522 7.50907 530.689 3.95196C626.856 0.387249 2180.63 47.5798 2284.81 48.469C2388.99 49.3583 2399.67 129.492 2408.57 222.091C2417.17 311.482 2515.66 1231.46 2522.47 1295.1C2522.68 1296.99 2521.26 1298.67 2519.36 1298.79L580.164 1425.39C578.385 1425.5 576.827 1424.21 576.614 1422.44L563.153 1309.15C562.932 1307.26 564.316 1305.57 566.208 1305.41L721.526 1292.61C723.342 1292.45 724.71 1290.88 724.596 1289.06L686.728 672.62C686.607 670.69 688.142 669.063 690.073 669.063H707.395C709.166 669.063 710.633 670.439 710.74 672.21C713.681 719.661 748.98 1288.08 750.12 1288.08C751.101 1288.08 780.22 1287.28 790.39 1286.99C792.283 1286.94 793.757 1285.32 793.643 1283.43L775.849 987.972C775.735 986.094 777.187 984.49 779.064 984.422L802.437 983.502C804.262 983.434 805.805 984.832 805.919 986.657L823.332 1277.68C823.439 1279.5 824.989 1280.9 826.814 1280.83L868.413 1279.12C870.283 1279.05 871.727 1277.46 871.629 1275.59L849.039 856.738C848.94 854.884 850.361 853.303 852.223 853.212L869.31 852.361C871.142 852.269 872.708 853.66 872.822 855.492L900.284 1275C900.406 1276.87 902.032 1278.27 903.894 1278.13L950.025 1274.5C951.856 1274.36 953.232 1272.76 953.11 1270.93L924.493 854.512C924.364 852.604 925.846 850.977 927.754 850.932L945.396 850.498C947.182 850.453 948.694 851.821 948.824 853.607L979.22 1270.39C979.349 1272.21 980.907 1273.58 982.724 1273.5L1025.9 1271.45C1027.77 1271.35 1029.21 1269.74 1029.08 1267.86L995.744 791.768C995.607 789.799 997.188 788.135 999.165 788.181L1019.14 788.621C1020.87 788.659 1022.29 790.012 1022.41 791.738L1055.8 1268C1055.93 1269.83 1057.49 1271.21 1059.31 1271.12L1100.71 1269.07C1102.58 1268.98 1104.01 1267.37 1103.88 1265.5L1080.01 910.908C1079.88 909.001 1081.37 907.374 1083.28 907.329L1103.3 906.88C1105.08 906.842 1106.59 908.21 1106.72 909.989L1132.36 1261.97C1132.5 1263.82 1134.12 1265.21 1135.97 1265.07L1181.5 1261.45C1183.34 1261.31 1184.73 1259.68 1184.57 1257.83L1176.25 1157.38C1176.09 1155.42 1177.63 1153.74 1179.6 1153.74H1196.65C1198.38 1153.74 1199.82 1155.06 1199.99 1156.77L1209.49 1255.66C1209.66 1257.42 1211.18 1258.75 1212.95 1258.69L1254.99 1257.16C1256.89 1257.09 1258.35 1255.45 1258.21 1253.55L1241.51 1028.96C1241.38 1027.08 1242.81 1025.45 1244.7 1025.37L1262.93 1024.5C1264.74 1024.42 1266.3 1025.78 1266.44 1027.59L1283.74 1253.18C1283.88 1255 1285.45 1256.37 1287.26 1256.27L1326.89 1254.25C1328.76 1254.15 1330.2 1252.54 1330.07 1250.67L1310.36 964.341C1310.23 962.433 1311.72 960.799 1313.64 960.761L1334.23 960.313C1336.02 960.275 1337.53 961.65 1337.65 963.437L1357.39 1250.19C1357.52 1252.01 1359.08 1253.4 1360.92 1253.3L1398.68 1251.29C1400.58 1251.19 1402.01 1249.55 1401.85 1247.66L1368 844.418C1367.84 842.518 1369.29 840.868 1371.19 840.785L1391.81 839.888C1393.6 839.812 1395.13 841.157 1395.29 842.943L1430.93 1244.25C1431.09 1246.07 1432.69 1247.44 1434.52 1247.3L1475.31 1244.24C1477.18 1244.1 1478.57 1242.46 1478.4 1240.59L1447.56 897.926C1447.38 895.996 1448.88 894.316 1450.83 894.271L1471.41 893.822C1473.17 893.784 1474.66 895.114 1474.82 896.87L1505.71 1238.42C1505.87 1240.2 1507.4 1241.54 1509.19 1241.47L1546.42 1239.96C1548.32 1239.88 1549.78 1238.22 1549.62 1236.32L1504.54 717.031C1504.37 715.039 1505.96 713.344 1507.96 713.39L1526.16 713.823C1527.86 713.861 1529.27 715.176 1529.42 716.879L1575.76 1235.45C1575.92 1237.23 1577.45 1238.57 1579.24 1238.5L1616.44 1237C1618.36 1236.92 1619.83 1235.25 1619.64 1233.34L1567.47 667.702C1567.29 665.734 1568.84 664.039 1570.81 664.039H1588.42C1590.15 664.039 1591.6 665.354 1591.76 667.079L1645.19 1230.73C1645.36 1232.5 1646.88 1233.83 1648.66 1233.76L1872.06 1225.01C1872.58 1224.99 1873.09 1225.09 1873.56 1225.3L1997.7 1280.67C1998.69 1281.11 1999.84 1281.05 2000.78 1280.48L2169.05 1180.43C2171.46 1179 2171.16 1175.42 2168.54 1174.42L2153.71 1168.71C2152.57 1168.27 2151.75 1167.23 2151.59 1166L2103.27 788.112C2102.95 785.642 2100.15 784.365 2098.08 785.748L2054.49 814.806C2053.41 815.528 2052.01 815.558 2050.9 814.882L2011.91 791.289C2009.87 790.05 2009.74 787.124 2011.67 785.71L2045.97 760.621C2046.85 759.974 2047.99 759.8 2049.03 760.149L2086.35 772.751C2089.03 773.656 2089.45 777.281 2087.05 778.779L2060.43 795.302C2059.34 795.971 2058.73 797.203 2058.86 798.472L2095.57 1180.73C2095.8 1183.13 2098.4 1184.51 2100.52 1183.35L2135.02 1164.45C2137.11 1163.3 2139.68 1164.64 2139.96 1167.01L2140.89 1175.12C2141.05 1176.54 2140.31 1177.9 2139.03 1178.52L2039.32 1226.98C2037.2 1228.02 2034.71 1226.59 2034.51 1224.24L2016.66 1007.22C2016.56 1006.05 2017.08 1004.92 2018.02 1004.24C2025.75 998.62 2060.23 973.431 2058.65 972.527C2057.11 971.645 2033.09 960.054 2026.48 956.877C2025.44 956.376 2024.74 955.372 2024.61 954.217L2007.9 798.624C2007.72 796.997 2006.39 795.728 2004.76 795.637L2001.35 795.439C1999.32 795.318 1997.65 797.028 1997.8 799.057L2013.42 993.725C2013.49 994.584 2013.22 995.435 2012.68 996.097L2010.29 999.061C2008.41 1001.39 2004.66 1000.28 2004.34 997.313L2000.46 961.415L1993.55 905.558C1993.41 904.478 1992.77 903.528 1991.8 903.011L1945.41 878.157C1944.23 877.526 1942.8 877.656 1941.75 878.484L1904.73 907.785C1902.84 909.282 1903.1 912.223 1905.23 913.371L1946.3 935.451C1947.46 936.074 1948.89 935.96 1949.93 935.155L1977.1 914.184C1979.22 912.55 1982.31 913.933 1982.5 916.601L1983.1 925.122C1983.19 926.277 1982.66 927.394 1981.73 928.078L1956.9 946.039C1955.93 946.738 1955.41 947.893 1955.52 949.071L1982.15 1228.61C1982.38 1231.06 1985.07 1232.42 1987.19 1231.18L2017.41 1213.32C2019.49 1212.09 2022.16 1213.41 2022.45 1215.81L2023.37 1223.49C2023.52 1224.75 2022.94 1225.99 2021.88 1226.69L1987.09 1249.51C1986.18 1250.11 1985.02 1250.22 1983.99 1249.81L1934.66 1229.85C1933.51 1229.39 1932.71 1228.33 1932.58 1227.1L1900.57 925.008C1900.35 922.933 1898.3 921.557 1896.29 922.142L1853.8 934.501C1852.27 934.949 1851.26 936.409 1851.4 937.997L1875.82 1237.27C1875.98 1239.14 1874.56 1240.77 1872.69 1240.88L573.155 1322.08C571.331 1322.2 569.743 1320.82 569.606 1319L492.669 337.682C492.525 335.804 493.954 334.17 495.831 334.071L538.419 331.791C540.418 331.685 542.068 333.327 541.946 335.326C540.563 358.477 541.764 481.418 722.62 485.553C724.688 485.598 726.306 483.766 726.018 481.722L722.567 457.582C722.324 455.857 720.788 454.595 719.048 454.709C698.54 456.016 581.957 458.266 568.967 341.383C556.137 225.906 658.141 215.159 678.542 214.156C680.45 214.065 681.902 212.408 681.727 210.5L680.64 198.529C680.45 196.401 682.267 194.63 684.387 194.896C706.004 197.64 805.995 216.375 821.949 329.405C834.848 420.833 759.705 461.953 740.741 470.792C738.658 471.765 736.233 470.382 735.998 468.094L735.526 463.534C735.382 462.15 736.104 460.812 737.358 460.189C750.128 453.843 817.358 416.485 810.874 336.519C806.177 278.609 760.86 219.157 694.428 211.321C693.06 211.161 691.92 210.196 691.563 208.866L686.523 189.955C686.113 188.405 684.669 187.364 683.072 187.47C664.04 188.754 552.405 201.204 542.782 316.202C542.645 317.867 541.33 319.189 539.666 319.296L496.835 322.062C494.988 322.184 493.391 320.786 493.27 318.939L479.482 108.301C479.352 106.333 480.949 104.676 482.917 104.729L962.84 117.795C964.656 117.848 966.101 119.33 966.101 121.147V187.158C966.101 188.777 964.953 190.168 963.357 190.457C949.303 192.996 884.869 207.353 854.8 261.728C821.219 322.458 828.167 469.006 986.539 486.488C988.622 486.716 990.401 484.983 990.241 482.892L989.245 469.743C989.093 467.767 990.674 466.087 992.658 466.141C1003.66 466.414 1037.19 464.582 1065.59 435.297C1066.62 434.233 1068.22 433.937 1069.54 434.621L1080.43 440.199C1082.14 441.074 1084.23 440.344 1085.02 438.588C1096.19 413.483 1162.22 247.918 987.094 192.167C985.027 191.506 982.883 192.988 982.747 195.162L981.629 212.765C981.523 214.483 980.139 215.836 978.422 215.904C962.216 216.565 885.417 223.664 866.665 298.941C840.153 405.388 922.661 457.043 982.617 462.773C1081.95 472.274 1116.38 348.802 1073.24 284.698C1037.19 231.121 1005.57 222.045 996.147 220.51C994.513 220.244 993.304 218.845 993.312 217.181L993.684 121.481C993.684 119.619 995.22 118.114 997.082 118.144L1243.83 121.42C1245.68 121.443 1247.15 122.956 1247.14 124.802L1246.6 192.068C1246.58 193.756 1245.34 195.162 1243.66 195.367C1227.3 197.351 1146.98 211.427 1132.6 297.17C1116.57 392.741 1165.24 499.583 1295.84 487.118C1425.14 474.775 1427.01 236.654 1272.05 199.684C1269.77 199.137 1267.63 200.999 1267.9 203.332L1270.05 221.832C1270.21 223.208 1271.19 224.341 1272.53 224.69C1287.12 228.43 1368.91 254.135 1369.45 360.104C1370.04 476.447 1218.67 491.884 1170 404.621C1121.86 318.323 1154.42 222.745 1254.47 221.794C1256.33 221.779 1257.84 220.282 1257.83 218.427L1257.28 125.502C1257.27 123.624 1258.8 122.104 1260.67 122.127L1587.45 126.779C1589.32 126.809 1590.81 128.367 1590.75 130.245L1589.18 178.509C1589.13 180.173 1587.86 181.541 1586.21 181.731C1566.24 184.004 1448.51 201.698 1430.59 304.315C1411.13 415.695 1472.43 574.465 1642.92 551.77C1644.92 551.504 1646.22 549.543 1645.71 547.597L1604.51 388.735C1603.66 385.467 1607.63 383.134 1610.07 385.467C1641.01 415.064 1745.62 515.302 1744.61 516.814C1743.45 518.547 1706.23 557.47 1662.05 563.862C1660.14 564.136 1658.39 562.775 1658.2 560.86L1657.04 548.828C1656.88 547.194 1657.93 545.674 1659.52 545.263C1675.98 541.015 1760.56 512.436 1765.38 373.162C1770.23 233.271 1631.69 195.306 1605.71 189.431C1603.59 188.952 1601.58 190.594 1601.63 192.768L1602.07 215.676C1602.11 217.652 1600.44 219.225 1598.47 219.081C1579.2 217.698 1489.49 216.33 1461.46 307.272C1430 409.371 1487.99 515.72 1628.86 532.836C1692.37 540.551 1774.58 411.15 1720.27 311.429C1674.21 226.849 1630.27 221.688 1617.99 222.076C1616.12 222.137 1614.59 220.639 1614.57 218.769L1613.46 130.283C1613.44 128.39 1614.98 126.855 1616.88 126.885L2043.02 134.775C2044.79 134.805 2046.22 136.203 2046.31 137.967L2048.65 186.398C2048.75 188.359 2047.17 189.978 2045.2 189.91C2016.3 188.922 1824.06 182.697 1808.42 190.928C1791.5 199.829 1828.01 578.243 1839.58 585.372C1851.16 592.494 2134.01 584.779 2134.01 585.669C2134.01 586.413 2137.1 620.282 2138.13 631.599C2138.32 633.553 2136.78 635.248 2134.82 635.255C2114.05 635.377 2011.64 636.099 2010.84 638.501C2009.95 641.169 2011.14 665.209 2013.8 666.699C2016.47 668.189 2182.1 667.885 2185.06 665.513C2188.03 663.142 2191 635.833 2185.95 634.944C2181.39 634.138 2079.32 637.703 2059.77 638.394C2057.97 638.455 2056.45 637.095 2056.32 635.293C2055.54 624.386 2053.12 589.492 2053.88 589.241C2054.77 588.944 2315.66 580.036 2326.35 577.072C2335.74 574.465 2328.84 517.225 2327.04 503.46C2326.82 501.772 2325.37 500.526 2323.66 500.549L1856.87 508.461C1855.14 508.491 1853.68 507.207 1853.48 505.497L1821.02 225.002C1820.79 222.995 1822.38 221.24 1824.4 221.262L2265.25 226.522C2266.92 226.545 2268.33 227.791 2268.53 229.456L2297.36 456.609C2297.62 458.631 2296.03 460.41 2294 460.387L2066.9 457.506C2065.22 457.483 2063.82 456.229 2063.61 454.565L2043.68 294.571C2043.43 292.526 2045.07 290.732 2047.13 290.808L2057.7 291.173C2059.28 291.227 2060.61 292.382 2060.88 293.94L2077.29 386.698C2077.5 387.884 2078.33 388.865 2079.46 389.275L2139.11 410.618C2140.88 411.249 2142.82 410.306 2143.42 408.52L2157.23 367.058C2158.02 364.695 2161.03 363.988 2162.79 365.751L2215.4 418.355C2216.69 419.647 2218.78 419.67 2220.09 418.401L2243.76 395.652C2245.75 393.737 2249.08 394.915 2249.41 397.659L2255.35 446.166C2255.56 447.869 2257.03 449.145 2258.74 449.115L2284.7 448.636C2286.44 448.606 2287.92 449.906 2288.1 451.638L2291.6 484.709C2291.79 486.434 2293.26 487.742 2294.99 487.711L2322.06 487.24C2324.04 487.202 2325.56 485.477 2325.34 483.508C2321.6 451.479 2294.48 220.092 2288.96 204.625C2283.45 189.203 2091.33 189.621 2063.71 189.765C2061.88 189.773 2060.38 188.314 2060.34 186.482L2059.3 138.75C2059.26 136.812 2060.86 135.246 2062.8 135.329L2317.55 146.328C2319.19 146.396 2320.55 147.65 2320.73 149.292C2327.72 211.792 2447.82 1284.37 2450.41 1284.37C2452.72 1284.37 2497.69 1283.7 2509.77 1283.52C2511.48 1283.5 2512.91 1284.75 2513.13 1286.43L2525.71 1381.18C2525.93 1382.84 2527.35 1384.09 2529.03 1384.09H3331.33" stroke="black" stroke-width="14" stroke-miterlimit="10"/>
</svg>
