<?xml version="1.0" encoding="utf-8"?>
<!-- Generator: Adobe Illustrator 23.0.3, SVG Export Plug-In . SVG Version: 6.00 Build 0)  -->
<svg version="1.1" id="Layer_1" xmlns="http://www.w3.org/2000/svg" xmlns:xlink="http://www.w3.org/1999/xlink" x="0px" y="0px"
	 viewBox="0 0 24 24" style="enable-background:new 0 0 24 24;" xml:space="preserve">
<style type="text/css">
	.st0{fill:#FFFFFF;}
</style>
<path class="st0" d="M17.1,22.5c-1.3-0.1-2.9-0.9-5.1-2.4l0,0l0,0c-2.1,1.5-3.8,2.3-5.1,2.4H6.7c-2.7,0-3.1-2.6-1.7-7.2v-0.2L4.9,15
	c-6.1-4.6-5-7.8,2.6-8.1h0.2l0.1-0.3c1.2-3.3,2.4-5.1,4-5.2H12c1.7,0,3,1.8,4.2,5.2L16.3,7h0.2c7.6,0.2,8.6,3.4,2.6,8.1H19l0.1,0.2
	c1.4,4.5,1,7.1-1.6,7.2h-0.2H17.1z"/>
</svg>
