<svg width="3406" height="2000" viewBox="0 0 3406 2000" fill="none" xmlns="http://www.w3.org/2000/svg">
<g clip-path="url(#clip0_8_279)">
<path d="M0.556641 1932.98C0.556641 1932.98 857.58 2011.89 887.503 1990.13C917.427 1968.36 645.36 1928.91 688.894 1903.05C732.428 1877.2 801.8 1898.52 820.851 1890.81C839.893 1883.1 806.798 1827.32 829.464 1818.69C852.139 1810.08 1399.68 1810.53 1407.84 1809.17C1416 1807.8 1525.51 1416.65 1528.91 1391.48C1532.31 1366.31 1450.69 1377.2 1439.81 1387.4C1428.93 1397.6 1363.63 1507.8 1320.1 1508.48C1276.56 1509.16 1303.77 1382.63 1296.97 1371.75C1290.16 1360.87 612.716 1388.08 580.064 1379.91C547.411 1371.75 538.572 1293.52 544.691 1281.27C550.809 1269.02 891.58 1264.95 911.986 1250.66C932.393 1236.38 826.283 629.571 808.597 615.967C790.91 602.364 84.8866 613.247 78.0902 615.967C71.285 618.688 186.92 1233.66 199.158 1237.73C211.403 1241.82 856.207 1224.81 866.41 1218.69C876.613 1212.57 768.113 664.949 764.776 661.315C761.439 657.691 272.615 655.874 268.087 661.315C263.55 666.757 265.367 694.877 270.807 699.414C276.248 703.952 632.662 697.597 641.727 704.856C650.792 712.114 659.865 751.116 650.792 759.278C641.727 767.441 304.355 767.441 286.217 773.795C268.078 780.14 278.056 819.143 281.68 823.68C285.304 828.218 663.481 813.249 675.727 814.614C687.973 815.979 688.876 843.638 684.792 848.175C680.707 852.713 464.871 850.444 461.238 852.261C457.614 854.077 463.507 880.832 466.679 885.822C469.851 890.811 697.029 879.016 698.845 881.736C700.662 884.457 710.178 935.255 702.93 935.707C695.673 936.159 340.623 936.159 327.473 938.88C314.324 941.601 312.055 973.345 314.776 974.71C317.496 976.075 705.198 969.269 711.091 971.085C716.984 972.902 717.435 995.12 716.532 998.753C715.628 1002.38 325.657 1009.64 320.216 1015.53C314.776 1021.42 322.033 1054.08 324.301 1056.8C326.569 1059.52 703.843 1033.67 712.004 1039.79C720.164 1045.91 725.605 1070.4 714.724 1079.24C703.843 1088.08 491.623 1076.52 481.428 1088.77C471.225 1101.02 480.063 1118.02 484.826 1120.06C489.589 1122.11 687.521 1111.22 703.843 1115.3C720.165 1119.39 727.422 1191.04 715.636 1196.48C703.843 1201.92 262.186 1212.8 239.059 1204.64C215.931 1196.48 114.132 648.633 118.895 641.149C123.658 633.665 482.792 632.309 487.546 628.902C492.309 625.503 439.25 289.447 448.097 270.402C456.936 251.358 1573.1 261.562 1586.71 258.842C1600.32 256.121 1583.31 192.858 1580.59 192.171C1577.87 191.493 413.185 190.129 388.702 192.171C364.219 194.214 346.985 225.958 346.985 232.304C346.985 238.649 405.024 579.242 410.926 583.328C416.818 587.413 600.018 579.703 610.9 574.261C621.781 568.82 586.417 414.626 598.202 402.831C609.996 391.035 1491.5 376.528 1514.62 387.41C1537.75 398.293 1569.94 669.043 1591.94 674.484C1613.93 679.926 2432.86 669.043 2442.38 660.881C2451.91 652.719 2334.92 30.9453 2325.39 17.3417C2315.86 3.73818 1619.37 1.01746 1603.04 17.3417C1586.72 33.666 1686.03 611.899 1698.27 621.426C1710.52 630.953 2370.29 632.309 2383.89 618.706C2397.49 605.102 2292.29 56.3444 2288.66 51.8156C2285.03 47.2869 1664.72 31.858 1660.18 41.8368C1655.64 51.8156 1664.72 103.518 1669.24 107.143C1673.78 110.767 2175.29 114.401 2181.65 115.305L2187.99 116.209C2187.99 116.209 2190.71 155.211 2183.45 161.557C2176.2 167.902 1700.98 147.04 1692.82 156.115C1684.66 165.19 1692.82 216.884 1701.89 219.604C1710.95 222.325 1987.57 207.809 1995.73 210.538C2003.89 213.259 1994.82 249.541 2004.79 256.799C2014.77 264.057 2230.15 269.047 2234.91 262.24C2239.68 255.434 2222.67 217.344 2217.23 215.98C2211.79 214.615 2032.56 216.319 2025.42 216.997C2018.27 217.675 2026.43 243.526 2021.33 247.95C2016.23 252.375 1731.35 253.618 1718.65 259.059C1705.96 264.5 1714.57 287.179 1716.84 291.716C1719.11 296.254 2219.94 289.447 2228.78 294.211C2237.62 298.974 2237.48 330.128 2228.1 332.988C2204.3 340.246 1718.19 334.804 1710.94 341.15C1703.69 347.495 1705.5 381.056 1711.85 386.498C1718.19 391.939 2229.69 393.756 2242.38 399.197C2255.08 404.639 2261.42 440.017 2253.26 444.545C2245.1 449.074 1715.47 426.404 1715.47 435.479C1715.47 444.554 1724.54 573.349 1729.99 582.415C1735.44 591.481 2188.88 576.973 2197.94 591.481C2207.01 605.997 2289.54 1187.4 2297.7 1249.99C2305.86 1312.57 2261.42 1362.46 2241.47 1362.46C2221.51 1362.46 1571.72 1377.88 1558.8 1377.2C1545.87 1376.52 1549.96 1342.51 1560.16 1335.7C1570.37 1328.9 2225.37 1315.97 2241.69 1296.25C2258.02 1276.52 2149.87 716.66 2145.11 708.498C2140.35 700.335 1627.49 704.873 1607.55 709.402C1587.59 713.939 1639.29 977.883 1633.85 983.324C1628.4 988.765 1011.93 1022.1 989.494 1013.94C967.045 1005.78 865.019 462.921 883.384 458.836C901.748 454.75 1456.77 430.264 1473.09 442.511C1489.42 454.759 1589.41 1010.54 1579.88 1024.14C1570.36 1037.75 1007.17 1071.76 993.57 1078.57C979.968 1085.37 994.934 1138.43 994.934 1138.43C994.934 1138.43 2080.49 1134.35 2104.98 1145.24C2129.47 1156.12 2121.3 1269.04 2103.62 1270.41C2085.93 1271.77 642.605 1287.18 635.348 1293.54C628.091 1299.88 632.627 1316.22 638.972 1319.84C645.317 1323.46 1221.65 1307.14 1224.38 1317.57C1227.1 1328 1098.32 1764.28 1109.21 1776.53C1120.09 1788.78 1903.65 1767 1930.86 1781.97C1958.06 1796.94 1967.58 1879.93 1955.34 1892.17C1943.09 1904.42 874.536 1887.41 857.536 1887.41C840.537 1887.41 842.57 1850.34 857.197 1843.87C871.825 1837.41 1688.03 1836.38 1693.48 1829.59C1698.92 1822.79 1640.42 1427.55 1649.94 1411.22C1659.47 1394.9 2282.28 1393.31 2304.95 1401.47C2327.62 1409.63 2365.71 1726.19 2385.66 1690.81C2405.62 1655.44 2273.21 843.646 2274.11 809.181C2275.02 774.716 2612.39 783.782 2643.22 804.644C2674.06 825.506 2680.4 952.492 2677.68 957.021C2674.96 961.558 2343.95 957.021 2334.88 972.441C2325.82 987.861 2331.26 1029.58 2340.32 1040.47C2349.39 1051.35 2651.38 1045.01 2657.74 1052.26C2664.08 1059.52 2669.53 1141.83 2667.49 1146.59C2665.45 1151.36 2368.89 1149.99 2361.41 1160.2C2353.93 1170.4 2365.5 1241.83 2371.62 1248.63C2377.74 1255.44 2645.5 1253.17 2656.83 1246.82C2668.17 1240.47 2660.01 1174.25 2653.66 1169.26C2647.32 1164.27 2396.1 1176.52 2380.68 1173.35C2365.26 1170.18 2354.38 1072.66 2363.45 1066.77C2372.51 1060.88 2632.19 1072.03 2646.86 1068.59C2661.52 1065.15 2638.7 986.045 2655.02 978.795C2671.34 971.537 2684.49 981.064 2685.85 984.689C2687.22 988.313 2816.45 1788.77 2800.12 1829.59C2783.8 1870.41 2019.29 1839.11 2004.32 1855.44C1989.36 1871.76 2007.04 1913.94 2022.01 1915.3C2036.97 1916.67 3044.99 1967 3100.77 1928.91C3156.54 1890.81 2812.37 1892.17 2925.29 1855.44C3038.19 1818.7 3284.42 1878.57 3404.13 1840.47" stroke="black" stroke-width="14" stroke-miterlimit="10"/>
</g>
<defs>
<clipPath id="clip0_8_279">
<rect width="3406" height="2000" fill="white"/>
</clipPath>
</defs>
</svg>
