<svg width="3360" height="2012" viewBox="0 0 3360 2012" fill="none" xmlns="http://www.w3.org/2000/svg">
<path d="M7.5535 2007C7.5535 2007 -14.4538 1619.02 219.07 1881.88C452.594 2144.75 547.957 1903.89 622.543 1900.22C697.122 1896.55 2747.9 1900.22 2862.01 1900.22C2976.13 1900.22 2945.96 1701.34 2945.96 1618.2C2945.96 1535.05 2951.13 280.096 2943.52 226.301C2935.91 172.507 2802.78 178.485 2797.34 186.634C2791.91 194.783 2801.69 1653.25 2772.35 1724.98C2743.01 1796.71 521.063 1759.21 469.715 1753.5C418.367 1747.79 403.147 1690.2 403.147 1648.35C403.147 1606.51 407.764 278.188 412.657 272.486C417.551 266.784 2761.48 286.068 2769.63 271.401C2777.78 256.727 2777.78 94.258 2773.98 63.8252C2770.18 33.3925 2721.82 12.2009 2675.63 12.7469C2629.44 13.293 514.953 -0.447727 455.041 12.74C395.129 25.9278 414.558 255.103 421.622 254.557C428.686 254.011 435.75 177.393 465.637 160.549C495.524 143.705 555.297 283.358 630.284 252.926C705.271 222.493 735.842 92.3503 660.848 82.9779C585.862 73.6055 541.439 193.014 672.668 197.092C803.896 201.17 704.455 76.0523 809.198 79.7224C913.94 83.3926 900.082 192.205 829.166 193.837C758.25 195.468 764.367 122.514 824.272 100.098C884.184 77.6835 1002.37 73.6055 1026.42 134.741C1050.46 195.869 948.575 230.511 934.309 171.014C920.043 111.517 1037.28 80.1303 1184.54 81.2154C1331.8 82.3006 2648.99 73.0664 2660.95 79.0451C2672.9 85.0238 2681.05 180.663 2656.05 199.677C2631.06 218.698 1184.54 218.698 1173.67 211.635C1162.81 204.571 1157.64 105.4 1169.06 102.144C1180.47 98.882 2740.56 100.513 2753.59 107.038C2766.64 113.556 2754.82 1658.15 2740.14 1685.05C2725.47 1711.95 613.972 1716.83 598.49 1698.91C583 1680.98 591.156 1614.95 602.568 1609.25C613.979 1603.54 1767.33 1624.73 1773.86 1610.06C1780.38 1595.39 1776.3 1522.44 1770.6 1516.73C1764.89 1511.02 623.759 1530.18 608.277 1520.4C592.787 1510.62 596.05 1423.41 605.014 1418.51C613.979 1413.62 1759.46 1429.38 1767.06 1418.51C1774.67 1407.65 1779.02 1337 1770.33 1326.68C1761.63 1316.36 631.915 1334.56 609.908 1323.15C587.901 1311.74 590.071 1193.55 603.114 1189.75C616.156 1185.95 1270.94 1201.7 1276.92 1194.09C1282.9 1186.48 1298.11 1093.02 1281.82 1087.04C1265.51 1081.07 623.22 1084.33 616.156 1078.35C609.092 1072.37 592.787 393.132 610.724 383.352C628.653 373.571 1956.44 380.497 1973.56 390.277C1990.67 400.058 1966.22 1076.17 1977.23 1081.07C1988.23 1085.96 2553.09 1098.18 2576.32 1082.29C2599.55 1066.39 2581.21 401.281 2575.09 386.614C2568.98 371.947 2020.02 376.834 2014.31 389.876C2008.61 402.919 1996.38 1059.06 2007.79 1048.47C2019.2 1037.87 2028.98 464.054 2050.17 459.976C2071.36 455.898 2293.48 455.49 2304.48 458.753C2315.48 462.015 2315.48 480.352 2313.04 483.615C2310.59 486.877 2122.31 503.175 2115.38 496.249C2108.45 489.324 2110.76 466.77 2117.01 471.664C2123.26 476.558 2105.6 533.884 2121.36 541.218C2137.12 548.551 2415.33 525.189 2397.4 548.012C2379.47 570.835 2068.11 563.771 2106.68 586.048C2145.27 608.324 2394.68 589.31 2389.25 606.693C2383.82 624.083 2113.2 625.169 2118.1 641.474C2122.99 657.779 2341.98 653.97 2317.52 668.644C2293.07 683.318 2093.1 691.467 2113.75 702.878C2134.39 714.29 2485.97 700.162 2477.82 726.247C2469.67 752.332 2109.4 734.396 2124.61 763.198C2139.83 791.999 2416.42 781.127 2410.99 796.347C2405.55 811.56 2071.9 813.737 2115.93 837.099C2159.94 860.468 2318.07 840.361 2306.11 856.12C2294.15 871.879 2109.95 857.751 2118.1 883.836C2126.24 909.922 2274.59 920.787 2250.69 933.284C2226.78 945.78 2115.38 926.22 2119.18 956.106C2122.98 985.993 2421.85 963.716 2407.18 980.56C2392.5 997.405 2103.96 1000.81 2108.85 1021.18C2113.75 1041.56 2316.7 1049.3 2264.54 1060.71C2212.37 1072.12 1172.31 1063.97 1161.72 1041.97C1151.12 1019.96 1266.87 971.05 1248.93 931.113C1231 891.177 1150.84 859.382 1178.56 840.907C1206.27 822.432 1380.7 746.36 1383.42 732.772C1386.14 719.19 1212.79 619.743 1200.84 629.53C1188.88 639.31 1191.06 830.45 1201.65 843.9C1212.25 857.35 1432.32 856.127 1444.55 843.084C1456.78 830.042 1451.88 573.288 1441.29 557.806C1430.69 542.323 1106.28 539.061 1080.2 550.473C1054.11 561.884 1052.48 841.46 1075.3 869.17C1098.13 896.886 1432.05 896.609 1441.28 888.191C1450.51 879.765 1440.46 853.957 1437.2 862.382C1433.94 870.808 1464.37 935.468 1422.53 942.801C1380.68 950.135 1318.19 937.638 1326.35 959.915C1334.5 982.192 1476.87 1021.32 1424.16 1027.84C1371.45 1034.36 459.907 1030.96 444.01 1038.29C428.112 1045.63 422.41 1661.43 446.049 1702.18C469.687 1742.93 563.419 1725.41 569.944 1737.64C576.468 1749.87 560.163 1866.83 592.359 1879.46C624.554 1892.1 2864.84 1891.69 2896.63 1844.01C2928.41 1796.32 2915.78 452.65 2911.71 433.905C2907.63 415.16 2806.56 427.387 2814.71 432.274C2822.86 437.167 2974.91 494.874 3134.66 416.632C3294.42 338.383 3198.24 589.428 3358 635.073" stroke="#1E1E1E" stroke-width="14" stroke-miterlimit="10"/>
</svg>
