<?xml version="1.0" encoding="utf-8"?>
<!-- Generator: Adobe Illustrator 23.0.3, SVG Export Plug-In . SVG Version: 6.00 Build 0)  -->
<svg version="1.1" id="OBJECTS" xmlns="http://www.w3.org/2000/svg" xmlns:xlink="http://www.w3.org/1999/xlink" x="0px" y="0px"
	 viewBox="0 0 200 200" style="enable-background:new 0 0 200 200;" xml:space="preserve">
<style type="text/css">
	.st0{fill:#FFFFFF;}
</style>
<g>
	<g>
		<path d="M194.91,20.09H5.05C2.26,20.09,0,22.35,0,25.14v149.72c0,2.79,2.26,5.05,5.05,5.05h189.86c2.79,0,5.05-2.26,5.05-5.05
			V25.14C199.95,22.35,197.69,20.09,194.91,20.09z M199.37,174.86c0,2.46-2,4.46-4.46,4.46H5.05c-2.46,0-4.46-2-4.46-4.46V25.14
			c0-2.46,2-4.46,4.46-4.46h189.86c2.46,0,4.46,2,4.46,4.46V174.86z"/>
		<path d="M199.71,40.3H0.34c-0.16,0-0.29-0.13-0.29-0.29V24.93c0-2.67,2.17-4.84,4.84-4.84h189.97c2.84,0,5.14,2.3,5.14,5.14V40
			C200,40.17,199.87,40.3,199.71,40.3z M0.63,39.71h198.78V24.78c0-2.27-1.84-4.1-4.1-4.1H5.07c-2.45,0-4.43,1.98-4.43,4.43V39.71z"
			/>
		<path d="M186.19,46.18H14.36c-4.86,0-8.81,3.78-8.81,8.43v102.12c0,4.65,3.95,8.43,8.81,8.43h171.83c4.86,0,8.81-3.78,8.81-8.43
			V54.6C195,49.96,191.05,46.18,186.19,46.18z M194.35,156.72c0,4.3-3.66,7.8-8.15,7.8H14.36c-4.5,0-8.15-3.5-8.15-7.8V54.6
			c0-4.3,3.66-7.8,8.15-7.8h171.83c4.5,0,8.15,3.5,8.15,7.8V156.72z"/>
	</g>
	<g>
		<circle cx="167.59" cy="30.54" r="3.35"/>
		<circle cx="178.54" cy="30.54" r="3.35"/>
		<circle cx="189.49" cy="30.54" r="3.35"/>
	</g>
</g>
<g>
	<g>
		<g>
			<circle class="st0" cx="73.28" cy="140.1" r="8.13"/>
			<path d="M73.28,148.52c-4.64,0-8.42-3.78-8.42-8.42c0-4.64,3.78-8.42,8.42-8.42c4.64,0,8.42,3.78,8.42,8.42
				C81.7,144.74,77.92,148.52,73.28,148.52z M73.28,132.26c-4.32,0-7.84,3.51-7.84,7.84c0,4.32,3.51,7.84,7.84,7.84
				c4.32,0,7.84-3.51,7.84-7.84C81.11,135.78,77.6,132.26,73.28,132.26z"/>
		</g>
		<g>
			<path d="M71.74,136.52c-0.61,0-1.1,0.49-1.1,1.1v4.97c0,0.61,0.49,1.1,1.1,1.1c0.61,0,1.1-0.49,1.1-1.1v-4.97
				C72.84,137.01,72.35,136.52,71.74,136.52z"/>
			<path d="M74.81,136.52c-0.61,0-1.1,0.49-1.1,1.1v4.97c0,0.61,0.49,1.1,1.1,1.1c0.61,0,1.1-0.49,1.1-1.1v-4.97
				C75.91,137.01,75.42,136.52,74.81,136.52z"/>
		</g>
	</g>
	<g>
		<g>
			<circle class="st0" cx="99.85" cy="140.1" r="8.13"/>
			<path d="M99.85,148.52c-4.64,0-8.42-3.78-8.42-8.42c0-4.64,3.78-8.42,8.42-8.42c4.64,0,8.42,3.78,8.42,8.42
				C108.27,144.74,104.5,148.52,99.85,148.52z M99.85,132.26c-4.32,0-7.84,3.51-7.84,7.84c0,4.32,3.51,7.84,7.84,7.84
				c4.32,0,7.84-3.51,7.84-7.84C107.69,135.78,104.17,132.26,99.85,132.26z"/>
		</g>
		<path d="M97.15,143.24v-6.29c0-0.32,0.34-0.53,0.62-0.39l6.29,3.11c0.32,0.16,0.32,0.61,0,0.77l-6.29,3.19
			C97.49,143.77,97.15,143.57,97.15,143.24z"/>
	</g>
	<g>
		<g>
			<circle class="st0" cx="126.43" cy="140.1" r="8.13"/>
			<path d="M126.43,148.52c-4.64,0-8.42-3.78-8.42-8.42c0-4.64,3.78-8.42,8.42-8.42c4.64,0,8.42,3.78,8.42,8.42
				C134.85,144.74,131.07,148.52,126.43,148.52z M126.43,132.26c-4.32,0-7.84,3.51-7.84,7.84c0,4.32,3.51,7.84,7.84,7.84
				c4.32,0,7.84-3.51,7.84-7.84C134.26,135.78,130.75,132.26,126.43,132.26z"/>
		</g>
		<g>
			<path d="M129.1,143.05c-0.07,0-0.15-0.03-0.21-0.09l-5.42-5.42c-0.11-0.11-0.11-0.3,0-0.41c0.11-0.11,0.3-0.11,0.41,0l5.42,5.42
				c0.11,0.11,0.11,0.3,0,0.41C129.25,143.02,129.17,143.05,129.1,143.05z"/>
			<path d="M123.67,143.05c-0.07,0-0.15-0.03-0.21-0.09c-0.11-0.11-0.11-0.3,0-0.41l5.42-5.42c0.11-0.11,0.3-0.11,0.41,0
				c0.11,0.11,0.11,0.3,0,0.41l-5.42,5.42C123.82,143.02,123.75,143.05,123.67,143.05z"/>
		</g>
	</g>
</g>
<g>
	<g>
		<path class="st0" d="M192.33,174.21H7.67c-1.32,0-2.39-1.07-2.39-2.39s1.07-2.39,2.39-2.39h184.66c1.32,0,2.39,1.07,2.39,2.39
			C194.72,173.14,193.65,174.21,192.33,174.21z"/>
		<path d="M192.33,174.49H7.67c-1.47,0-2.67-1.2-2.67-2.67c0-1.47,1.2-2.67,2.67-2.67h184.66c1.47,0,2.67,1.2,2.67,2.67
			C195,173.29,193.8,174.49,192.33,174.49z"/>
	</g>
	<g>
		<circle class="st0" cx="91.85" cy="171.74" r="3.75"/>
		<path d="M91.85,175.77c-2.22,0-4.03-1.81-4.03-4.03c0-2.22,1.81-4.03,4.03-4.03s4.03,1.81,4.03,4.03
			C95.88,173.96,94.07,175.77,91.85,175.77z M91.85,168.26c-1.92,0-3.48,1.56-3.48,3.48c0,1.92,1.56,3.48,3.48,3.48
			c1.92,0,3.48-1.56,3.48-3.48C95.33,169.82,93.77,168.26,91.85,168.26z"/>
	</g>
</g>
<g>
	<g>
		<g>
			<ellipse transform="matrix(0.1602 -0.9871 0.9871 0.1602 -37.8209 120.6295)" cx="51.98" cy="82.54" rx="13.25" ry="13.25"/>
			<polygon class="st0" points="59.81,82.54 47.48,75.42 47.48,89.66 			"/>
		</g>
		<path d="M94.29,112.89H15.01c-1.18,0-2.15-0.96-2.15-2.15V56.39c0-1.18,0.96-2.15,2.15-2.15h79.28c1.18,0,2.15,0.96,2.15,2.15
			v54.35C96.44,111.92,95.47,112.89,94.29,112.89z M15.01,54.67c-0.94,0-1.71,0.77-1.71,1.71v54.35c0,0.94,0.77,1.71,1.71,1.71
			h79.28c0.94,0,1.71-0.77,1.71-1.71V56.39c0-0.94-0.77-1.71-1.71-1.71H15.01z"/>
	</g>
	<g>
		<g>
			<ellipse transform="matrix(0.1602 -0.9871 0.9871 0.1602 38.3524 210.1605)" cx="142.68" cy="82.54" rx="13.25" ry="13.25"/>
			<polygon class="st0" points="150.51,82.54 138.18,75.42 138.18,89.66 			"/>
		</g>
		<path d="M184.99,112.89h-79.28c-1.18,0-2.15-0.96-2.15-2.15V56.39c0-1.18,0.96-2.15,2.15-2.15h79.28c1.18,0,2.15,0.96,2.15,2.15
			v54.35C187.14,111.92,186.17,112.89,184.99,112.89z M105.71,54.67c-0.94,0-1.71,0.77-1.71,1.71v54.35c0,0.94,0.77,1.71,1.71,1.71
			h79.28c0.94,0,1.71-0.77,1.71-1.71V56.39c0-0.94-0.77-1.71-1.71-1.71H105.71z"/>
	</g>
</g>
</svg>
